<svg width="60" height="60" viewBox="0 0 60 60" fill="none" xmlns="http://www.w3.org/2000/svg">
<path d="M60 30C60 46.5685 46.5685 60 30 60C13.4315 60 0 46.5685 0 30C0 13.4315 13.4315 0 30 0C46.5685 0 60 13.4315 60 30Z" fill="#0C0E14"/>
<path d="M12.8571 13.7143C12.8571 13.2409 13.2409 12.8571 13.7143 12.8571H27.5844C28.0578 12.8571 28.4416 13.2409 28.4416 13.7143V27.5102C28.4416 27.9836 28.0578 28.3673 27.5844 28.3673H13.7143C13.2409 28.3673 12.8571 27.9836 12.8571 27.5102V13.7143Z" fill="#A05CEB"/>
<path d="M12.8571 32.4898C12.8571 32.0164 13.2409 31.6326 13.7143 31.6326H27.5844C28.0578 31.6326 28.4416 32.0164 28.4416 32.4898V46.2857C28.4416 46.7591 28.0578 47.1428 27.5844 47.1428H13.7143C13.2409 47.1428 12.8571 46.7591 12.8571 46.2857V32.4898Z" fill="#A05CEB"/>
<path d="M31.5585 20.6122C31.5585 16.3292 35.0676 12.8571 39.3507 12.8571C43.6337 12.8571 47.1429 16.3292 47.1429 20.6122C47.1429 24.8953 43.6337 28.3673 39.3507 28.3673C35.0676 28.3673 31.5585 24.8953 31.5585 20.6122Z" fill="#A05CEB"/>
<path d="M31.5585 32.4898C31.5585 32.0164 31.9422 31.6326 32.4156 31.6326H46.2857C46.7591 31.6326 47.1429 32.0164 47.1429 32.4898V46.2857C47.1429 46.7591 46.7591 47.1428 46.2857 47.1428H32.4156C31.9422 47.1428 31.5585 46.7591 31.5585 46.2857V32.4898Z" fill="#A05CEB"/>
</svg>
