<svg width="60" height="60" viewBox="0 0 60 60" fill="none" xmlns="http://www.w3.org/2000/svg">
<path d="M60 30C60 46.5685 46.5685 60 30 60C13.4315 60 0 46.5685 0 30C0 13.4315 13.4315 0 30 0C46.5685 0 60 13.4315 60 30Z" fill="#0C0E14"/>
<path d="M31.2765 47.1429H28.6014C28.567 47.0343 28.4731 47.0796 28.4042 47.0718C27.7609 47.0072 27.1214 46.9091 26.4883 46.778C22.3403 45.8693 18.9406 43.7567 16.3837 40.3792C13.2618 36.2547 12.2123 31.6013 13.2375 26.5447C14.0741 22.4187 16.2021 19.0185 19.5769 16.4925C24.5748 12.7501 30.1323 11.8344 35.9668 14.0361C42.195 16.3863 45.8351 21.0327 46.9675 27.6049C47.0302 27.9682 46.9988 28.3472 47.1452 28.6988V31.4388C47.0528 31.4638 47.0834 31.5419 47.074 31.6021C46.9816 32.2271 46.9175 32.8615 46.7938 33.4819C45.3498 40.6479 39.3306 46.1514 32.0067 47.0257C31.7641 47.0546 31.5019 46.9983 31.2765 47.1429ZM29.9953 41.9863C36.5694 41.9379 41.9422 36.7516 41.9641 30.0606C41.9853 23.4851 36.7291 18.1067 30.0141 18.095C23.4556 18.0832 18.0679 23.3008 18.046 30.0082C18.0241 36.5938 23.2905 41.9152 29.9953 41.9863ZM30.0047 14.2564C29.6134 14.2564 29.2221 14.2619 28.8307 14.2564C28.6742 14.2564 28.6132 14.2877 28.6147 14.458C28.6236 15.2044 28.6236 15.9503 28.6147 16.6957C28.6147 16.8761 28.6781 16.9222 28.8495 16.9207C29.5852 16.9129 30.3211 16.9129 31.0573 16.9207C31.2358 16.9207 31.2843 16.8668 31.2827 16.6933C31.2739 15.9469 31.2739 15.201 31.2827 14.4557C31.2827 14.2885 31.228 14.251 31.073 14.2549C30.7185 14.265 30.3616 14.2564 30.0047 14.2564ZM16.8126 30.0668C16.8126 29.6996 16.8032 29.3324 16.8165 28.9652C16.8235 28.7738 16.7883 28.6925 16.5668 28.6972C15.8429 28.712 15.1182 28.7073 14.3942 28.6972C14.2166 28.6972 14.1375 28.7269 14.1414 28.9316C14.1532 29.6652 14.1501 30.3996 14.1414 31.1341C14.1414 31.2981 14.1735 31.3684 14.3598 31.3684C15.1064 31.3591 15.8531 31.3591 16.5997 31.3684C16.7875 31.3684 16.8196 31.2973 16.8149 31.1341C16.8055 30.7786 16.8126 30.4231 16.8126 30.0668ZM31.2812 44.4864C31.2812 44.1192 31.2757 43.7512 31.2812 43.384C31.2812 43.2278 31.2608 43.1426 31.0683 43.1496C30.3209 43.1606 29.5735 43.1575 28.826 43.1496C28.664 43.1496 28.6147 43.2059 28.6163 43.3629C28.622 44.1083 28.622 44.8542 28.6163 45.6006C28.6163 45.7568 28.6531 45.8154 28.8198 45.8139C29.5784 45.8061 30.3371 45.8061 31.0957 45.8139C31.2436 45.8139 31.2859 45.7693 31.282 45.6248C31.2757 45.2435 31.2812 44.8654 31.2812 44.4864ZM21.6399 19.8193C21.5929 19.7669 21.5616 19.7248 21.5201 19.6865C20.9762 19.1396 20.4299 18.6013 19.8915 18.0536C19.7952 17.9559 19.7396 17.9684 19.6512 18.0536C19.1096 18.5999 18.5652 19.143 18.0178 19.6826C17.9184 19.781 17.9091 19.8388 18.0178 19.9466C18.5599 20.4753 19.0966 21.0103 19.6277 21.5514C19.7404 21.6663 19.8015 21.6686 19.9165 21.5514C20.4378 21.017 20.9699 20.4936 21.4982 19.9662C21.5428 19.924 21.5859 19.8755 21.6399 19.8193ZM42.1058 19.824C42.0628 19.7724 42.0369 19.7373 42.0064 19.7068C41.4586 19.1552 40.899 18.6075 40.3535 18.0504C40.2306 17.9254 40.1727 18.0012 40.0905 18.0848C39.5638 18.6137 39.0394 19.1458 38.5041 19.6654C38.3695 19.7951 38.3992 19.8638 38.5159 19.9779C39.0413 20.4925 39.563 21.0121 40.0811 21.5366C40.193 21.6507 40.2619 21.6866 40.3942 21.5507C40.9146 21.0155 41.4484 20.4928 41.9767 19.9654C42.0166 19.9209 42.0581 19.874 42.1058 19.824ZM19.8093 38.3634C19.731 38.4251 19.6888 38.4564 19.6528 38.4939C19.1049 39.0361 18.5665 39.583 18.0163 40.1198C17.9036 40.2292 17.9286 40.2901 18.0233 40.3838C18.5626 40.9167 19.0994 41.4503 19.6309 41.991C19.7428 42.1043 19.8069 42.1043 19.9212 41.9871C20.443 41.4527 20.971 40.925 21.5053 40.4042C21.6336 40.2784 21.6211 40.2096 21.4998 40.0916C20.9731 39.5783 20.4558 39.0556 19.9345 38.5345C19.8887 38.4806 19.8468 38.4234 19.8093 38.3634ZM40.2056 38.3673C40.1659 38.4257 40.1225 38.4816 40.0757 38.5345C39.5568 39.0556 39.0387 39.5783 38.5104 40.0916C38.3891 40.2096 38.3758 40.2784 38.5049 40.4042C39.0392 40.925 39.5672 41.4527 40.089 41.9871C40.2024 42.1035 40.2666 42.1043 40.3785 41.991C40.9099 41.4503 41.4468 40.9167 41.9861 40.3838C42.0808 40.2901 42.1058 40.2276 41.9931 40.1198C41.4453 39.583 40.9021 39.0361 40.3566 38.4939C40.3214 38.4564 40.276 38.4251 40.2056 38.3673ZM43.1068 30.0293C43.1068 30.3965 43.1123 30.7637 43.1068 31.1302C43.1068 31.2864 43.1264 31.3708 43.3197 31.3645C44.0655 31.3536 44.8122 31.3575 45.558 31.3645C45.6911 31.3645 45.7623 31.3442 45.7607 31.1864C45.7545 30.4192 45.7545 29.6519 45.7607 28.8847C45.7607 28.7363 45.7067 28.6972 45.5658 28.6988C44.8192 28.7042 44.0734 28.7066 43.3267 28.6988C43.1436 28.6988 43.1021 28.7613 43.1068 28.9292C43.1138 29.2957 43.1068 29.6629 43.1068 30.0293Z" fill="#A05CEB"/>
<path d="M39.7618 30.0238C39.7125 35.4335 35.4284 39.7494 29.9977 39.7651C24.6319 39.7807 20.246 35.4062 20.2562 30.0434C20.2671 24.6329 24.581 20.317 30.0117 20.3014C35.3775 20.2857 39.7329 24.6602 39.7618 30.0238ZM30.3702 33.653C30.4782 33.6241 30.5189 33.7014 30.5768 33.7506C30.8249 33.9577 31.0808 34.153 31.3962 34.2499C33.237 34.8148 35.354 33.7584 35.2773 31.2387C35.2452 30.1918 34.8492 29.2996 34.1362 28.5394C32.8918 27.2112 31.5293 26.0142 30.1691 24.8118C30.0196 24.6797 29.9468 24.7469 29.8419 24.8384C28.5161 25.9962 27.1997 27.1635 25.9765 28.4323C25.0475 29.3941 24.6358 30.5192 24.7751 31.8607C24.9598 33.6428 26.4969 34.6288 28.1295 34.4116C28.7071 34.3335 29.1696 34.0303 29.6494 33.5709C29.4725 34.2022 29.3254 34.7351 29.1712 35.2663C29.1313 35.4031 29.1015 35.5007 29.3066 35.5007C29.7762 35.4929 30.2458 35.496 30.7153 35.5007C30.8437 35.5007 30.8969 35.4804 30.8523 35.3312C30.6793 34.7757 30.5275 34.2217 30.3663 33.653H30.3702Z" fill="#A05CEB"/>
</svg>
