<svg width="60" height="60" viewBox="0 0 60 60" fill="none" xmlns="http://www.w3.org/2000/svg">
<path d="M60 30C60 46.5685 46.5685 60 30 60C13.4315 60 0 46.5685 0 30C0 13.4315 13.4315 0 30 0C46.5685 0 60 13.4315 60 30Z" fill="#0C0E14"/>
<path fill-rule="evenodd" clip-rule="evenodd" d="M26.2013 45.3659H34.6417V47.1429H26.2013V45.3659Z" fill="#A05CEB"/>
<path fill-rule="evenodd" clip-rule="evenodd" d="M31.5321 41.8121C31.7677 41.8121 31.9937 41.9057 32.1603 42.0723C32.327 42.2389 32.4206 42.4649 32.4206 42.7005V46.2544C32.4206 46.49 32.327 46.716 32.1603 46.8826C31.9937 47.0493 31.7677 47.1429 31.5321 47.1429C31.2965 47.1429 31.0705 47.0493 30.9039 46.8826C30.7373 46.716 30.6436 46.49 30.6436 46.2544V42.7005C30.6436 42.4649 30.7373 42.2389 30.9039 42.0723C31.0705 41.9057 31.2965 41.8121 31.5321 41.8121Z" fill="#A05CEB"/>
<path fill-rule="evenodd" clip-rule="evenodd" d="M30.8213 43.589C34.4249 43.589 37.7069 42.235 40.1795 40.0129C38.6972 40.617 37.1113 40.9263 35.5107 40.9236C28.9298 40.9236 23.5359 35.7847 23.5359 29.3736C23.5359 29.138 23.6296 28.912 23.7962 28.7454C23.9628 28.5787 24.1888 28.4851 24.4244 28.4851C24.66 28.4851 24.886 28.5787 25.0526 28.7454C25.2193 28.912 25.3129 29.138 25.3129 29.3736C25.3129 34.739 29.8458 39.1467 35.5107 39.1467C38.6425 39.1467 41.4367 37.7953 43.3043 35.6772C43.3608 35.6124 43.4266 35.5564 43.4997 35.5111C43.9439 34.5427 44.2789 33.5138 44.4886 32.4415C44.8164 30.7605 45.3006 29.0795 46.3348 27.7148C46.7639 27.1489 46.2815 26.3502 45.5814 26.4657L33.9292 28.3874C33.0208 28.5372 32.0884 28.4012 31.2607 27.998C30.4331 27.5949 29.7511 26.9445 29.3092 26.1369L25.2542 18.7271C24.8503 17.9905 24.1913 17.4268 23.401 17.1418C22.6107 16.8568 21.7435 16.8703 20.9624 17.1796C20.1813 17.4889 19.5401 18.0728 19.1591 18.8216C18.7782 19.5704 18.6838 20.4325 18.8937 21.2459L19.2029 22.4391C19.5204 23.6649 19.5152 24.952 19.1878 26.1751L18.5117 28.7001C17.7281 31.6259 17.5033 34.8412 19.178 37.3653C20.4537 39.2839 22.1849 40.8566 24.2169 41.9426C26.2488 43.0287 28.5182 43.5943 30.8222 43.589H30.8213ZM21.759 20.489C21.9947 20.489 22.2206 20.3954 22.3873 20.2287C22.5539 20.0621 22.6475 19.8361 22.6475 19.6005C22.6475 19.3649 22.5539 19.1389 22.3873 18.9723C22.2206 18.8056 21.9947 18.712 21.759 18.712C21.5234 18.712 21.2974 18.8056 21.1308 18.9723C20.9642 19.1389 20.8706 19.3649 20.8706 19.6005C20.8706 19.8361 20.9642 20.0621 21.1308 20.2287C21.2974 20.3954 21.5234 20.489 21.759 20.489Z" fill="#A05CEB"/>
<path fill-rule="evenodd" clip-rule="evenodd" d="M22.7239 13.3813C23.8434 12.2618 25.7571 13.0543 25.7571 14.6376V16.0467H26.9743C28.6082 16.0467 29.3758 18.0661 28.1542 19.1518L25.9028 21.1527C25.7259 21.304 25.4968 21.3798 25.2645 21.3639C25.0323 21.348 24.8156 21.2416 24.661 21.0676C24.5064 20.8935 24.4263 20.6658 24.4379 20.4333C24.4495 20.2008 24.5518 19.9822 24.7229 19.8244L26.9743 17.8236H25.7571C25.2858 17.8236 24.8339 17.6364 24.5006 17.3031C24.1674 16.9699 23.9802 16.5179 23.9802 16.0467V14.6376L16.3518 22.2659H19.5379C19.7735 22.2659 19.9995 22.3595 20.1661 22.5261C20.3327 22.6927 20.4263 22.9187 20.4263 23.1544C20.4263 23.39 20.3327 23.616 20.1661 23.7826C19.9995 23.9492 19.7735 24.0428 19.5379 24.0428H16.3518C14.7686 24.0428 13.9761 22.1291 15.0956 21.0096L22.7239 13.3813Z" fill="#A05CEB"/>
</svg>
