<svg width="60" height="60" viewBox="0 0 60 60" fill="none" xmlns="http://www.w3.org/2000/svg">
<path d="M60 30C60 46.5685 46.5685 60 30 60C13.4315 60 0 46.5685 0 30C0 13.4315 13.4315 0 30 0C46.5685 0 60 13.4315 60 30Z" fill="#0C0E14"/>
<path d="M43.4554 12.8571C43.8118 13.0048 43.9526 13.2582 43.9526 13.6383C43.9457 21.0938 43.9431 28.5485 43.9448 36.0024C43.9448 36.0737 43.9805 36.1559 43.8892 36.244C43.4998 35.7406 43.1138 35.2497 42.7322 34.7538C42.6409 34.6363 42.6879 34.4945 42.6879 34.3645C42.6879 28.2828 42.6879 22.2009 42.6879 16.1187C42.6879 15.1118 42.1802 14.3977 41.297 14.1577C41.062 14.0978 40.8195 14.0696 40.5764 14.0738C33.5243 14.0738 26.4716 14.0738 19.4184 14.0738C18.0945 14.0738 17.3078 14.8374 17.3069 16.1161C17.3069 22.1978 17.3087 28.2797 17.3121 34.362C17.3201 34.5826 17.2447 34.7985 17.1 34.9695C16.7602 35.384 16.4377 35.8085 16.0456 36.312V35.9319C16.0456 28.511 16.0436 21.0899 16.0395 13.6685C16.0395 13.2784 16.1647 13.0082 16.5376 12.8538L43.4554 12.8571Z" fill="#A05CEB"/>
<path d="M40.4756 15.3089C41.2379 15.3089 41.4196 15.4826 41.4196 16.211C41.4196 22.1147 41.4216 28.0182 41.4257 33.9214C41.4257 34.1958 41.3874 34.2957 41.0606 34.2948C35.1635 34.2831 29.2669 34.2783 23.371 34.2806C23.2527 34.2806 23.0154 34.3938 23.0293 34.1497C23.0424 33.929 22.8555 33.6462 23.2432 33.5027C24.3419 33.1017 24.9817 32.151 24.9148 31.0694C24.8478 30.0021 24.0942 29.1353 22.9833 28.8484C21.7315 28.5245 20.365 29.2679 19.9678 30.4821C19.5749 31.6853 20.2407 33.0421 21.4377 33.4809C21.6985 33.5783 21.8723 33.9844 21.7454 34.2235C21.6889 34.3351 21.5837 34.2848 21.502 34.2856C20.6232 34.2856 19.7444 34.2772 18.8664 34.294C18.6056 34.299 18.5726 34.2101 18.5735 33.9877C18.5813 31.89 18.5778 29.7923 18.5778 27.6946V16.2428C18.5778 15.47 18.7473 15.3089 19.5592 15.3089H40.4756ZM28.0989 31.8229C28.0989 32.0234 28.0989 32.224 28.0989 32.4245C28.1009 32.4582 28.1058 32.4916 28.1137 32.5244C28.1298 32.6639 28.1962 32.7934 28.3012 32.8905C28.4062 32.9876 28.5432 33.046 28.6883 33.0555C28.9803 33.0773 29.2324 32.8919 29.3281 32.5991C29.3739 32.4485 29.3852 32.2902 29.3611 32.135C29.3246 31.8699 29.4402 31.8204 29.6897 31.8288C30.2112 31.8472 30.7328 31.8347 31.2491 31.8347C31.8481 31.8347 31.8481 31.8347 31.8985 32.3968C31.9037 32.4411 31.9115 32.4851 31.922 32.5286C31.9845 32.8466 32.234 33.0782 32.5304 33.0564C32.8434 33.0337 33.0685 32.8835 33.1389 32.5613C33.198 32.2953 33.1668 32.0276 33.1676 31.7617C33.1728 30.7011 33.0763 30.6104 31.9924 30.6088C31.7611 30.6088 31.4804 30.6759 31.3143 30.5735C31.1483 30.4711 31.2761 30.18 31.25 29.9736C31.2083 29.6379 30.9692 29.4055 30.6467 29.3954C30.4892 29.3915 30.3358 29.4448 30.2169 29.5446C30.098 29.6445 30.0221 29.7838 30.0044 29.935C29.9841 30.0788 29.9812 30.2243 29.9957 30.3688C30.0122 30.5517 29.9583 30.6264 29.7531 30.6138C29.4654 30.5962 29.1759 30.6062 28.8839 30.6096C28.3293 30.6163 28.1015 30.8294 28.0894 31.3539C28.0954 31.5099 28.0989 31.666 28.0989 31.8229ZM32.5226 20.2109C32.9042 20.2109 33.2858 20.2159 33.6666 20.2109C34.136 20.2025 34.4246 19.9709 34.435 19.6076C34.4454 19.2442 34.1612 18.9883 33.6944 18.9816C32.9196 18.9715 32.1451 18.9715 31.3708 18.9816C30.924 18.9875 30.6441 19.2291 30.6354 19.5799C30.6267 19.9306 30.9223 20.1983 31.3778 20.2092C31.7594 20.2176 32.141 20.21 32.5226 20.2109ZM27.4322 18.9757C27.0619 18.9757 26.6924 18.969 26.3221 18.9757C25.8501 18.9866 25.5641 19.2216 25.5615 19.5841C25.5589 19.9465 25.8519 20.1999 26.3126 20.205C27.0746 20.2134 27.8376 20.2134 28.6013 20.205C29.0638 20.2008 29.3585 19.9533 29.3628 19.5941C29.3672 19.235 29.0786 18.9875 28.6109 18.9757C28.218 18.9699 27.8251 18.9757 27.4322 18.9757ZM22.3609 20.2083C22.7659 20.2083 23.171 20.2184 23.5778 20.2083C24.0064 20.1941 24.2976 19.9289 24.2915 19.5849C24.2854 19.2409 24.0133 18.9908 23.5961 18.9833C22.7981 18.9682 22.0004 18.9682 21.203 18.9833C20.7588 18.9908 20.4902 19.2451 20.4963 19.6025C20.5024 19.96 20.7779 20.1974 21.2213 20.21C21.5976 20.2192 21.9793 20.21 22.3609 20.21V20.2083ZM37.6261 20.2083C38.0077 20.2083 38.3893 20.2167 38.7701 20.2083C39.2299 20.1966 39.515 19.9457 39.5063 19.5782C39.4976 19.2107 39.229 18.9866 38.7761 18.9808C38.0019 18.969 37.2271 18.969 36.4517 18.9808C35.9884 18.9866 35.6989 19.2451 35.7111 19.6067C35.7233 19.9684 36.0171 20.2008 36.4813 20.2092C36.8629 20.2159 37.2445 20.21 37.6261 20.21V20.2083ZM27.4965 16.5332C27.081 16.5332 26.6646 16.5256 26.2491 16.5332C25.8336 16.5407 25.5633 16.7941 25.5633 17.1398C25.5633 17.4855 25.8388 17.7423 26.2491 17.7456C27.0575 17.754 27.8662 17.754 28.6752 17.7456C29.0855 17.7456 29.362 17.4864 29.362 17.1398C29.362 16.7933 29.0855 16.5424 28.6752 16.5332C28.2823 16.5281 27.8894 16.5348 27.4965 16.5348V16.5332ZM32.5383 16.5332C32.1341 16.5332 31.7298 16.5264 31.3256 16.5332C30.9214 16.5399 30.638 16.7849 30.6302 17.1356C30.6224 17.4864 30.904 17.7414 31.3117 17.7456C32.123 17.754 32.932 17.754 33.7387 17.7456C34.1508 17.7414 34.4263 17.4897 34.4289 17.1432C34.4315 16.7966 34.156 16.5416 33.7474 16.5323C33.3389 16.5231 32.9451 16.5348 32.54 16.5348L32.5383 16.5332ZM22.4 16.5332C21.9845 16.5332 21.5681 16.5248 21.1517 16.5332C20.7588 16.5424 20.498 16.7849 20.4902 17.1205C20.4824 17.4561 20.751 17.7356 21.1578 17.7398C21.9784 17.7493 22.799 17.7493 23.6196 17.7398C24.0081 17.7356 24.275 17.483 24.2854 17.1524C24.2959 16.8218 24.016 16.5424 23.6135 16.5323C23.211 16.5223 22.8068 16.5348 22.4017 16.5357L22.4 16.5332ZM37.6313 17.7515C38.0242 17.7515 38.4137 17.7574 38.81 17.7515C39.229 17.744 39.4985 17.509 39.5055 17.1641C39.5142 16.8025 39.2369 16.5457 38.804 16.5424C38.0071 16.5357 37.2097 16.5357 36.4117 16.5424C35.9962 16.5424 35.7215 16.7882 35.7102 17.1297C35.6989 17.4713 35.9867 17.744 36.4152 17.7515C36.8203 17.7574 37.2254 17.7515 37.6313 17.7515ZM27.4609 22.6467C27.8659 22.6467 28.2702 22.6543 28.6778 22.6467C29.0855 22.6392 29.3646 22.3849 29.3628 22.0409C29.3611 21.6969 29.0829 21.4384 28.6735 21.4334C27.8651 21.4244 27.0567 21.4244 26.2482 21.4334C25.8397 21.4384 25.5633 21.7002 25.5633 22.0442C25.5633 22.3883 25.8388 22.6375 26.2517 22.6467C26.6646 22.6559 27.0593 22.6467 27.4609 22.6467ZM32.56 22.6467H33.7726C34.1612 22.6232 34.4281 22.3824 34.4324 22.0501C34.4335 21.9686 34.4175 21.8877 34.3855 21.8123C34.3535 21.7369 34.306 21.6684 34.246 21.6111C34.1859 21.5538 34.1145 21.5087 34.036 21.4786C33.9575 21.4485 33.8736 21.434 33.7891 21.4359C32.9581 21.4216 32.1262 21.4225 31.2943 21.4359C30.9058 21.4409 30.6407 21.7011 30.6337 22.035C30.6267 22.369 30.9032 22.6375 31.3126 22.6467C31.722 22.6559 32.1462 22.6467 32.5626 22.6475L32.56 22.6467ZM22.3991 22.6467H23.6161C24.009 22.6257 24.2759 22.395 24.2889 22.0594C24.3019 21.7237 24.0194 21.4376 23.6213 21.4317C22.8013 21.42 21.981 21.42 21.1604 21.4317C20.7545 21.4376 20.4841 21.7061 20.4928 22.0543C20.5015 22.4025 20.7614 22.6324 21.1552 22.6417C21.5698 22.6543 21.9845 22.6459 22.4017 22.6459L22.3991 22.6467ZM37.5896 22.6467C38.0051 22.6467 38.4215 22.6551 38.837 22.6467C39.2316 22.6366 39.4942 22.395 39.5037 22.0594C39.5142 21.7111 39.2429 21.4393 38.8396 21.4334C38.0202 21.4217 37.1999 21.4217 36.3787 21.4334C35.9806 21.4384 35.6972 21.7195 35.7076 22.0568C35.7181 22.3941 35.9849 22.635 36.3761 22.6442C36.7673 22.6534 37.188 22.6467 37.5922 22.6459L37.5896 22.6467ZM31.2518 27.2533H31.2561C31.2561 27.1534 31.2622 27.0536 31.2561 26.9546C31.2318 26.5845 30.9736 26.3294 30.6302 26.3303C30.4671 26.3332 30.3113 26.3963 30.1949 26.5066C30.0785 26.6169 30.0103 26.7661 30.0044 26.9235C29.9843 27.1557 29.987 27.3891 30.0122 27.6208C30.029 27.7709 30.1038 27.9094 30.2218 28.0086C30.3397 28.1078 30.4921 28.1604 30.6484 28.1559C30.8048 28.1515 30.9536 28.0903 31.0653 27.9846C31.177 27.8788 31.2432 27.7364 31.2509 27.5855C31.2631 27.4748 31.2544 27.3665 31.2544 27.2524L31.2518 27.2533Z" fill="#A05CEB"/>
<path d="M46.4561 41.6309H13.5839C13.5473 41.5017 13.6569 41.4438 13.7134 41.3717C15.172 39.4871 16.6321 37.6036 18.0936 35.7213C18.1424 35.6482 18.2107 35.5891 18.2913 35.5503C18.3719 35.5114 18.4619 35.4943 18.5517 35.5006C19.5224 35.5112 20.4934 35.5112 21.4646 35.5006C21.6889 35.5006 21.7585 35.5518 21.755 35.7758C21.7411 36.6244 21.7411 37.4724 21.755 38.3199C21.755 38.5247 21.708 38.5993 21.4899 38.5767C21.3287 38.5604 21.166 38.5661 21.0065 38.5935C20.8566 38.618 20.7213 38.6951 20.6267 38.81C20.532 38.9249 20.4847 39.0695 20.4937 39.2161C20.4963 39.3634 20.5577 39.504 20.665 39.6087C20.7724 39.7134 20.9174 39.7742 21.07 39.7782C21.948 39.7933 22.8262 39.7933 23.7048 39.7782C23.8574 39.7742 24.0027 39.7139 24.1107 39.6096C24.2187 39.5054 24.2813 39.3651 24.2854 39.2177C24.291 39.0715 24.2423 38.9281 24.1481 38.8133C24.054 38.6986 23.9205 38.62 23.7717 38.5918C23.7143 38.5813 23.6562 38.5751 23.5978 38.5733C23.0163 38.5431 23.0163 38.5431 23.0163 37.986C23.0163 37.2501 23.025 36.5134 23.0119 35.7767C23.0119 35.5551 23.0798 35.4998 23.3058 35.4998C29.3634 35.5054 35.4211 35.5054 41.4787 35.4998C41.5522 35.4921 41.6264 35.5037 41.6937 35.5332C41.761 35.5627 41.8188 35.6091 41.8612 35.6676C43.3679 37.6159 44.8764 39.5618 46.3866 41.5051C46.4122 41.5458 46.4354 41.5878 46.4561 41.6309ZM33.8065 39.1833C33.9421 38.2184 33.5553 37.527 32.6295 37.1377C31.3613 36.6023 30.0704 36.6048 28.7874 37.0705C28.1997 37.2837 27.6799 37.6302 27.52 38.2578C27.3887 38.7781 27.4452 39.3226 27.4791 39.8571C27.4824 39.9759 27.5261 40.0903 27.6034 40.1828C27.6806 40.2753 27.7873 40.3407 27.9068 40.369C28.1563 40.4403 28.3997 40.3966 28.5657 40.1894C28.6579 40.0753 28.7213 40.0426 28.8752 40.0963C30.011 40.5087 31.2634 40.5087 32.3992 40.0963C32.527 40.0509 32.5956 40.0509 32.6834 40.1684C32.8573 40.4059 33.1242 40.4503 33.3962 40.3572C33.6683 40.2641 33.7891 40.0526 33.8039 39.7866C33.8152 39.5853 33.8065 39.3839 33.8065 39.1833ZM35.0774 39.2756C35.0774 39.3914 35.0618 39.6155 35.0774 39.837C35.0816 39.9559 35.1241 40.0706 35.1991 40.1651C35.274 40.2595 35.3777 40.329 35.4955 40.3639C35.7563 40.4478 36.0067 40.4008 36.184 40.1802C36.264 40.0803 36.317 40.0367 36.4622 40.0887C37.6078 40.5078 38.8727 40.5078 40.0183 40.0887C40.1305 40.0493 40.1983 40.0384 40.2791 40.1483C40.4651 40.4 40.732 40.4504 41.0189 40.348C41.3057 40.2456 41.4066 40.0123 41.4144 39.7363C41.4222 39.4468 41.4031 39.1556 41.4196 38.8662C41.4674 38.0481 41.0458 37.5194 40.3234 37.1695C39.4107 36.729 38.4397 36.6812 37.4496 36.7911C37.093 36.8259 36.7442 36.9145 36.4161 37.0537C35.3165 37.5446 34.9957 38.0229 35.0774 39.2756Z" fill="#A05CEB"/>
<path d="M29.9635 44.6911C24.3903 44.6911 18.8172 44.6933 13.244 44.6978C12.9519 44.6978 12.8354 44.65 12.8606 44.3395C12.8832 43.9272 12.8832 43.5141 12.8606 43.1018C12.8545 42.9214 12.8963 42.8258 13.1032 42.8568C13.161 42.8611 13.2191 42.8611 13.277 42.8568C24.4239 42.8568 35.5703 42.8546 46.7161 42.8501C47.0333 42.8501 47.1681 42.8954 47.1342 43.2369C47.1016 43.6153 47.1016 43.9956 47.1342 44.3739C47.155 44.6541 47.0412 44.6986 46.7865 44.6961C45.6077 44.6844 44.4281 44.6902 43.2485 44.6902L29.9635 44.6911Z" fill="#A05CEB"/>
<path d="M29.9931 45.9254C34.5237 45.9254 39.054 45.9228 43.5841 45.9178C43.8848 45.9178 43.9709 45.9799 43.9587 46.2778C43.9318 46.9599 43.7588 47.1428 43.0408 47.1428H16.9688C16.2038 47.1428 15.9118 46.7938 16.0439 46.0521C16.0621 45.9522 16.0969 45.9186 16.1943 45.9228C16.2751 45.927 16.356 45.9228 16.4368 45.9228L29.9931 45.9254Z" fill="#A05CEB"/>
<path d="M21.1195 31.2263C21.1184 30.9837 21.1919 30.7463 21.331 30.5442C21.47 30.3421 21.6681 30.1845 21.9002 30.0915C22.1323 29.9984 22.3878 29.9741 22.6342 30.0217C22.8807 30.0692 23.1069 30.1864 23.2841 30.3584C23.4613 30.5304 23.5815 30.7494 23.6294 30.9876C23.6773 31.2257 23.6507 31.4722 23.553 31.6957C23.4553 31.9192 23.2909 32.1096 23.0808 32.2427C22.8707 32.3758 22.6243 32.4455 22.373 32.443C22.0412 32.4373 21.7247 32.3071 21.4907 32.08C21.2567 31.8529 21.1236 31.5466 21.1195 31.2263Z" fill="#A05CEB"/>
<path d="M30.6772 39.1766C30.157 39.1926 29.6384 39.1143 29.1481 38.9459C28.9699 38.8813 28.7578 38.8041 28.7509 38.5767C28.7439 38.3493 28.9551 38.2595 29.1342 38.2008C30.0992 37.8763 31.1489 37.8733 32.1158 38.1924C32.2966 38.2494 32.5087 38.3367 32.5122 38.5616C32.5165 38.8074 32.2879 38.8871 32.0984 38.9543C31.6425 39.1108 31.1609 39.1861 30.6772 39.1766Z" fill="#A05CEB"/>
<path d="M38.3337 39.1783C37.7035 39.1783 37.2036 39.1187 36.7255 38.9333C36.5569 38.867 36.3657 38.7864 36.3648 38.5733C36.3639 38.3602 36.5526 38.2696 36.7229 38.2125C37.7064 37.8718 38.7819 37.8718 39.7654 38.2125C39.9392 38.2704 40.1253 38.356 40.1261 38.57C40.127 38.7839 39.9366 38.862 39.768 38.9291C39.3108 39.0999 38.8239 39.1845 38.3337 39.1783Z" fill="#A05CEB"/>
</svg>
