<svg width="40" height="40" viewBox="0 0 40 40" fill="none" xmlns="http://www.w3.org/2000/svg">
<path d="M20 40C31.0457 40 40 31.0457 40 20C40 8.95431 31.0457 0 20 0C8.95431 0 0 8.95431 0 20C0 31.0457 8.95431 40 20 40Z" fill="#0C0E14"/>
<path d="M19.6497 8.66663H20.2749C20.2812 8.67679 20.2862 8.69554 20.2937 8.69633C20.7266 8.75142 21.0693 8.96987 21.3714 9.2735C24.0495 11.9535 26.7286 14.6324 29.4088 17.3102C29.6766 17.5694 29.8661 17.8985 29.9558 18.2602C29.9641 18.2938 29.9465 18.3427 30.0016 18.354V19.0183C29.9406 19.0312 29.9508 19.0891 29.939 19.1273C29.6655 20.0183 29.011 20.5087 28.0712 20.5009C27.8898 20.5009 27.8515 20.5502 27.8519 20.7245C27.8578 22.6627 27.8613 24.6014 27.8519 26.5396C27.8476 27.5267 27.1829 28.3489 26.2283 28.6014C26.1454 28.6236 26.0458 28.59 25.9778 28.667H22.3851C22.0412 28.5377 21.9161 28.2864 21.9185 27.9245C21.9283 26.4345 21.9236 24.9449 21.922 23.4548C21.922 22.7905 21.5172 22.39 20.8509 22.388C20.298 22.388 19.7442 22.4036 19.1921 22.3837C18.5141 22.3591 18.0624 22.8456 18.0729 23.4923C18.096 24.9687 18.0729 26.4458 18.0839 27.9226C18.0862 28.2837 17.9643 28.5373 17.6192 28.6651H13.946C13.9386 28.635 13.9151 28.6299 13.8882 28.626C12.9378 28.4501 12.1191 27.5775 12.1375 26.3653C12.1664 24.4923 12.1453 22.6186 12.1449 20.7448C12.1449 20.6994 12.1422 20.6537 12.1449 20.6084C12.1504 20.5357 12.1262 20.4986 12.0472 20.5044C11.989 20.5087 11.93 20.5044 11.8718 20.5044C10.9976 20.4994 10.3154 19.9851 10.0653 19.1469C10.052 19.1027 10.0653 19.0383 10 19.0172V18.3149C10.0309 18.3098 10.0391 18.2868 10.0442 18.2602C10.1399 17.8393 10.3845 17.5142 10.6854 17.2141C13.2541 14.6519 15.8201 12.0858 18.3836 9.51579C18.745 9.15314 19.1069 8.80457 19.6313 8.69515C19.6395 8.69554 19.6438 8.67718 19.6497 8.66663Z" fill="#883DDA"/>
</svg>
