<svg width="60" height="60" viewBox="0 0 60 60" fill="none" xmlns="http://www.w3.org/2000/svg">
<path d="M60 30C60 46.5685 46.5685 60 30 60C13.4315 60 0 46.5685 0 30C0 13.4315 13.4315 0 30 0C46.5685 0 60 13.4315 60 30Z" fill="#0C0E14"/>
<path d="M12.859 26.8222C12.859 22.9961 12.859 19.1703 12.859 15.3448C12.859 14.0752 13.5302 13.1602 14.6426 12.905C14.8435 12.8672 15.0478 12.8515 15.2519 12.8581C19.4782 12.8581 23.7051 12.8581 27.9326 12.8581C29.3752 12.8581 30.322 13.8265 30.3229 15.3166C30.3265 23.0039 30.3265 30.6908 30.3229 38.3774C30.3229 39.8647 29.3752 40.8285 27.9245 40.8303C23.6982 40.8341 19.4713 40.8341 15.2438 40.8303C13.7949 40.8303 12.8617 39.8657 12.8599 38.369C12.855 34.5197 12.8547 30.6708 12.859 26.8222ZM21.5905 24.2773C21.5559 24.2369 21.5323 24.2116 21.5113 24.1834C20.8929 23.4008 20.0197 23.1353 19.1775 23.4749C18.3353 23.8146 17.875 24.6095 17.9251 25.5929C17.9696 26.4778 18.3253 27.2369 18.8346 27.9285C19.5367 28.8819 20.4263 29.6176 21.4086 30.2454C21.5614 30.3392 21.6614 30.3176 21.8006 30.2304C22.5218 29.7853 23.1846 29.2463 23.7724 28.6267C24.4591 27.8938 25.013 27.0746 25.2077 26.0517C25.3759 25.1678 25.2322 24.3739 24.5128 23.7752C23.8125 23.1962 22.5291 23.0236 21.5877 24.2773H21.5905ZM17.976 17.0179C17.9809 16.8604 17.9403 16.7049 17.8593 16.5712C17.7783 16.4375 17.6606 16.3317 17.5212 16.2672C17.3851 16.1918 17.2292 16.163 17.0761 16.1851C16.923 16.2072 16.7808 16.279 16.6699 16.3902C16.5453 16.5093 16.488 16.5272 16.3543 16.3967C16.0996 16.1471 15.7895 16.1152 15.4757 16.2804C15.1619 16.4455 15.0309 16.7289 15.0546 17.0892C15.0928 17.6823 15.412 18.1215 15.8331 18.4696C16.6044 19.1143 16.4171 19.1124 17.1829 18.4762C17.6258 18.1149 17.9432 17.6504 17.976 17.0179ZM25.2113 35.6542C25.2513 36.298 25.7088 36.7737 26.2355 37.1988C26.6638 37.5441 26.672 37.5441 27.0977 37.1988C27.6152 36.7831 28.0718 36.3177 28.1255 35.5876C28.1458 35.4236 28.1146 35.2572 28.0366 35.1128C27.9585 34.9684 27.8376 34.8536 27.6916 34.7853C27.5572 34.7059 27.4014 34.6736 27.2477 34.6934C27.094 34.7132 26.9507 34.784 26.8394 34.8951C26.7057 35.0227 26.6384 35.0311 26.5001 34.8951C26.2536 34.6567 25.9544 34.6295 25.6488 34.7815C25.3432 34.9335 25.2022 35.2038 25.2113 35.6561V35.6542Z" fill="#A05CEB"/>
<path d="M23.0803 41.5707H27.8171C29.7899 41.5707 31.0287 40.2964 31.0287 38.2676C31.0287 31.2936 31.0269 24.3198 31.0232 17.3464C31.0171 17.0784 31.1112 16.8183 31.2861 16.6201C31.5998 16.236 32.0255 15.9671 32.4997 15.8536C32.9739 15.7401 33.4709 15.7881 33.9165 15.9904C35.8128 16.819 37.701 17.6682 39.5928 18.51C41.5884 19.397 43.5839 20.2851 45.5794 21.174C47.021 21.8178 47.4985 23.0686 46.8755 24.5522C43.9359 31.5538 40.9975 38.5545 38.0603 45.5542C37.4454 47.018 36.2312 47.506 34.8014 46.8679C30.9765 45.1644 27.1517 43.4625 23.3268 41.7622C23.2358 41.7227 23.1512 41.6796 23.063 41.6392L23.0803 41.5707ZM36.5541 26.5022C36.4368 26.5838 36.3431 26.6439 36.253 26.7114C34.8087 27.8037 33.3707 28.9035 31.9155 29.9826C31.6763 30.16 31.619 30.3345 31.6554 30.6198C31.8876 32.4609 32.1092 34.3036 32.3202 36.1478C32.3502 36.404 32.3857 36.4547 32.6067 36.2858C34.1008 35.1459 35.6 34.0127 37.1044 32.886C37.1704 32.8456 37.2218 32.784 37.2509 32.7107C37.2799 32.6374 37.285 32.5562 37.2654 32.4797C37.1498 31.6117 37.0589 30.7409 36.9561 29.871C36.827 28.759 36.6905 27.647 36.5541 26.5022ZM34.042 19.2879C33.519 19.6801 33.036 20.0386 32.5522 20.4036C32.5182 20.424 32.4909 20.4543 32.4737 20.4907C32.4565 20.5272 32.4503 20.5681 32.4557 20.6082C32.5312 21.2332 32.604 21.8581 32.6822 22.5272L34.1502 21.418C34.213 21.3702 34.2894 21.3289 34.2775 21.2303C34.2002 20.596 34.1229 19.9635 34.0411 19.2879H34.042ZM34.8778 43.6605C35.2653 43.3696 35.6055 43.0712 35.9784 42.8488C36.3904 42.6058 36.5241 42.3045 36.4168 41.8297C36.3203 41.3859 36.2931 40.9251 36.2303 40.4325C35.7128 40.8219 35.2489 41.1757 34.7751 41.521C34.7265 41.549 34.6878 41.5921 34.6644 41.6442C34.6411 41.6963 34.6343 41.7547 34.645 41.811C34.725 42.4087 34.7969 43.0111 34.8769 43.6605H34.8778Z" fill="#A05CEB"/>
</svg>
