<svg width="60" height="60" viewBox="0 0 60 60" fill="none" xmlns="http://www.w3.org/2000/svg">
<path d="M60 30C60 46.5685 46.5685 60 30 60C13.4315 60 0 46.5685 0 30C0 13.4315 13.4315 0 30 0C46.5685 0 60 13.4315 60 30Z" fill="#0C0E14"/>
<path d="M20.9639 12.8571H21.7693C21.7898 12.8786 21.8104 12.9161 21.8328 12.9179C22.9155 13.0072 23.7969 13.5047 24.5798 14.2282C25.488 15.0687 26.415 15.8895 27.325 16.7291C27.4816 16.8738 27.5604 16.8738 27.7196 16.7237C28.334 16.1374 29.1513 15.8101 30.0013 15.8101C30.8514 15.8101 31.6687 16.1374 32.2831 16.7237C32.4441 16.8747 32.5229 16.8702 32.6786 16.7237C33.6217 15.8556 34.5791 15.0017 35.5249 14.1335C36.1692 13.5262 36.9733 13.1145 37.8433 12.9465C37.9525 12.925 38.0929 12.9911 38.1735 12.8571H38.9099C38.9394 12.9465 39.0173 12.9152 39.0772 12.9206C42.1383 13.1885 43.9816 16.5737 42.5544 19.297C42.5177 19.3676 42.4246 19.4328 42.4944 19.5435C43.3149 19.5435 44.1408 19.5328 44.9658 19.5435C45.4494 19.5506 45.9173 19.7158 46.2977 20.0138C46.6782 20.3118 46.9502 20.7261 47.0722 21.1932C47.0883 21.2513 47.0543 21.3326 47.1455 21.3585V25.4457C46.827 26.1057 46.2839 26.2558 45.585 26.2549C35.1458 26.2394 24.7066 26.2358 14.2673 26.2442C14.1671 26.2442 14.066 26.2442 13.9658 26.2442C13.6721 26.2402 13.392 26.1205 13.1863 25.9112C12.9807 25.7019 12.8662 25.4199 12.8679 25.1268C12.8589 23.9889 12.8536 22.851 12.8679 21.713C12.8768 21.1446 13.106 20.6018 13.5075 20.1985C13.909 19.7953 14.4514 19.5631 15.0207 19.5507C15.7786 19.5328 16.5374 19.5507 17.2953 19.5417C17.3749 19.5417 17.4743 19.5873 17.5414 19.4953C17.5311 19.4646 17.5186 19.4347 17.5038 19.406C16.3003 17.4052 17.0457 14.2952 19.7694 13.2046C20.1586 13.0447 20.5801 13.0206 20.9639 12.8571ZM23.8541 19.5417C24.68 19.5417 25.505 19.5417 26.3309 19.5417C26.4365 19.5417 26.6056 19.6257 26.6414 19.4524C26.6709 19.3113 26.6879 19.1559 26.5421 19.0255C25.2786 17.8938 24.0304 16.7452 22.7607 15.6215C22.256 15.175 21.6395 15.032 20.9792 15.175C19.8159 15.4224 19.1001 16.4004 19.2093 17.5687C19.3122 18.6771 20.2347 19.5158 21.4105 19.5417C22.2247 19.5551 23.039 19.5408 23.8541 19.5417ZM36.0716 19.5417C36.1727 19.5417 36.2729 19.5417 36.3732 19.5417C37.2295 19.5176 38.0903 19.6141 38.9421 19.4872C39.3847 19.416 39.7956 19.2136 40.1216 18.9064C40.4475 18.5992 40.6735 18.2013 40.7702 17.7643C40.8572 17.3356 40.8135 16.8906 40.6446 16.487C40.4756 16.0833 40.1893 15.7396 39.8226 15.5001C38.9215 14.9141 37.8907 15.0231 37.0085 15.8154C35.9392 16.7755 34.8789 17.7455 33.8149 18.7111C33.7039 18.8205 33.5871 18.9239 33.4651 19.021C33.3031 19.138 33.3389 19.3041 33.3622 19.447C33.3917 19.6257 33.5626 19.5364 33.6655 19.5364C34.4681 19.5453 35.2699 19.5417 36.0716 19.5417Z" fill="#A05CEB"/>
<path d="M17.0134 47.1429C16.9973 47.0705 16.9338 47.0821 16.8828 47.0687C15.7196 46.7499 15.0932 45.9424 15.0932 44.7268C15.0932 42.3837 15.0932 40.0409 15.0932 37.6984C15.0932 34.7419 15.0986 31.7855 15.0861 28.829C15.0861 28.5307 15.1621 28.4646 15.4538 28.4655C19.4476 28.4756 23.441 28.4756 27.4342 28.4655C27.7169 28.4655 27.7778 28.5477 27.7778 28.8183C27.77 34.7979 27.7673 40.7778 27.7697 46.7579C27.7697 46.866 27.8028 46.9812 27.7348 47.083C27.7017 47.083 27.6686 47.0732 27.6355 47.0723C24.2162 47.0723 20.7975 47.0723 17.3794 47.0723C17.2989 47.0723 17.196 47.0268 17.1477 47.1429H17.0134Z" fill="#A05CEB"/>
<path d="M42.8658 47.083C42.1499 47.083 41.4395 47.0714 40.7272 47.0714C38.0428 47.0714 35.3585 47.0714 32.6741 47.0714C32.5399 47.0714 32.4057 47.0794 32.2732 47.083C32.2017 46.9696 32.2383 46.8436 32.2383 46.7257C32.2383 40.7712 32.2357 34.8149 32.2303 28.8567C32.2303 28.5682 32.2795 28.4637 32.6034 28.4646C36.584 28.4777 40.5652 28.4777 44.5471 28.4646C44.8262 28.4646 44.9238 28.5084 44.9229 28.8219C44.9109 34.1089 44.908 39.3957 44.9139 44.6821C44.9139 45.8897 44.2876 46.7588 43.2299 47.0357C43.1097 47.0593 42.988 47.0751 42.8658 47.083Z" fill="#A05CEB"/>
</svg>
