<svg width="60" height="60" viewBox="0 0 60 60" fill="none" xmlns="http://www.w3.org/2000/svg">
<path d="M60 30C60 46.5685 46.5685 60 30 60C13.4315 60 0 46.5685 0 30C0 13.4315 13.4315 0 30 0C46.5685 0 60 13.4315 60 30Z" fill="#0C0E14"/>
<path d="M28.2589 12.8571C28.75 13.5016 29.2374 14.149 29.733 14.7898C30.5441 15.8395 31.3626 16.881 32.1692 17.9358C32.3174 18.1344 32.4196 18.1633 32.6425 18.0277C34.3921 16.9632 36.1513 15.9158 37.9083 14.8631C38.0031 14.8068 38.0994 14.7543 38.1927 14.7009C38.2742 14.7639 38.2335 14.8305 38.2194 14.8861C37.5172 17.6684 36.812 20.4493 36.1165 23.2338C36.0602 23.4561 35.9743 23.5064 35.7617 23.5064C30.7411 23.5005 25.7207 23.5005 20.7006 23.5064C20.5169 23.5064 20.4043 23.4886 20.3525 23.2679C19.6542 20.4619 18.9486 17.6576 18.2355 14.855C18.2245 14.7897 18.2169 14.724 18.2125 14.658L21.074 16.3699C22.0095 16.9314 22.9458 17.4906 23.8791 18.0559C24.0139 18.1373 24.1013 18.187 24.2316 18.0203C25.5422 16.316 26.86 14.6152 28.1849 12.9179C28.196 12.9038 28.193 12.8779 28.1967 12.8571H28.2589ZM28.2249 22.3138C28.6806 22.2978 29.1126 22.1066 29.4309 21.7801C29.7492 21.4535 29.9293 21.0168 29.9337 20.5608C29.9381 20.1047 29.7665 19.6646 29.4545 19.332C29.1425 18.9994 28.7143 18.7999 28.2589 18.7751C28.0237 18.7688 27.7895 18.8093 27.5701 18.8945C27.3507 18.9796 27.1505 19.1077 26.9811 19.2711C26.8118 19.4345 26.6767 19.6301 26.5837 19.8463C26.4908 20.0625 26.4419 20.2951 26.4399 20.5305C26.4379 20.7658 26.4828 20.9992 26.572 21.217C26.6612 21.4348 26.7929 21.6327 26.9594 21.799C27.126 21.9653 27.324 22.0967 27.5419 22.1856C27.7598 22.2745 27.9932 22.3191 28.2286 22.3168L28.2249 22.3138ZM34.1351 21.1456C34.0566 21.1445 33.9787 21.1593 33.906 21.1891C33.8334 21.2189 33.7675 21.2631 33.7124 21.319C33.6573 21.3749 33.614 21.4414 33.5853 21.5144C33.5565 21.5875 33.5428 21.6656 33.545 21.7441C33.5472 21.8226 33.5652 21.8998 33.598 21.9711C33.6309 22.0425 33.6778 22.1064 33.7359 22.1592C33.7941 22.2119 33.8623 22.2523 33.9365 22.278C34.0107 22.3037 34.0894 22.3141 34.1677 22.3086C34.3219 22.3043 34.4681 22.2389 34.5741 22.1268C34.68 22.0147 34.7372 21.865 34.7328 21.7108C34.7285 21.5566 34.6631 21.4104 34.551 21.3044C34.4389 21.1984 34.2893 21.1413 34.1351 21.1456ZM22.3369 21.1456C22.2222 21.1433 22.1094 21.175 22.0126 21.2367C21.9159 21.2983 21.8395 21.3871 21.7931 21.4921C21.7466 21.597 21.7322 21.7132 21.7516 21.8263C21.7711 21.9394 21.8235 22.0442 21.9022 22.1276C21.981 22.211 22.0827 22.2692 22.1945 22.295C22.3062 22.3209 22.4231 22.3131 22.5305 22.2727C22.6379 22.2322 22.7309 22.161 22.7979 22.0679C22.865 21.9748 22.903 21.864 22.9072 21.7493C22.9115 21.6717 22.8998 21.5941 22.8731 21.5211C22.8464 21.4482 22.8051 21.3814 22.7517 21.325C22.6983 21.2685 22.6341 21.2235 22.5627 21.1926C22.4914 21.1618 22.4146 21.1458 22.3369 21.1456Z" fill="#A05CEB"/>
<path d="M12.8571 45.1946C13.0371 44.868 13.3112 44.7672 13.6816 44.7694C15.9474 44.7828 18.2126 44.7694 20.4784 44.7813C20.5821 44.7865 20.6856 44.7682 20.7812 44.7277C20.8768 44.6871 20.962 44.6254 21.0303 44.5472C21.3362 44.2235 21.6117 43.7946 21.9932 43.6398C22.3873 43.4798 22.8924 43.5909 23.3487 43.5909C26.9649 43.5909 30.5811 43.5891 34.1973 43.5857C34.29 43.5799 34.3827 43.595 34.4688 43.6298C34.5548 43.6647 34.6319 43.7185 34.6943 43.7872C35.018 44.1242 35.3121 44.562 35.7136 44.7302C36.115 44.8983 36.6143 44.7761 37.0735 44.7761C38.9821 44.7761 40.8907 44.7761 42.7993 44.7761C43.42 44.7761 43.6 44.9554 43.6007 45.5658C43.6007 46.0102 43.5911 46.4584 43.6059 46.9043C43.6126 47.0999 43.5459 47.1651 43.3622 47.1362C43.3289 47.134 43.2955 47.134 43.2622 47.1362H12.8571V45.1946ZM24.0894 45.948C24.6931 45.948 24.6931 45.948 24.6931 45.3739C24.6931 44.7754 24.6931 44.7754 24.0805 44.7754C23.505 44.7754 23.505 44.7754 23.505 45.368C23.505 45.9606 23.505 45.948 24.0894 45.948ZM28.2308 45.948C28.8234 45.948 28.8234 45.948 28.8234 45.365C28.8234 44.782 28.8234 44.7769 28.2382 44.7769C27.653 44.7769 27.6508 44.7769 27.6508 45.3598C27.6508 45.9428 27.6478 45.948 28.2308 45.948ZM32.3788 45.948C32.9596 45.948 32.9596 45.948 32.9596 45.3554C32.9596 44.7628 32.9596 44.7739 32.367 44.7739C31.7744 44.7739 31.7818 44.7739 31.7818 45.3665C31.7818 45.9591 31.7818 45.9473 32.3759 45.9473L32.3788 45.948Z" fill="#A05CEB"/>
<path d="M28.2589 24.6909C32.3211 24.6909 36.3839 24.7117 40.446 24.6768C41.5815 24.6672 42.446 25.4695 42.426 26.6517C42.386 28.6474 42.4193 30.6452 42.4089 32.6423C42.4089 32.8912 42.4645 32.972 42.7208 32.9572C43.122 32.9364 43.524 32.9364 43.9252 32.9572C44.1474 32.9668 44.2022 32.8994 44.2007 32.6808C44.1918 31.0408 44.1955 29.4007 44.1955 27.7607C44.1955 26.0206 44.1911 24.2791 44.2022 22.5397C44.2022 22.3123 44.1355 22.2249 43.9244 22.1427C43.3816 21.9371 42.9352 21.5361 42.6728 21.0183C42.4103 20.5006 42.3509 19.9034 42.506 19.344C42.6555 18.7798 43.009 18.291 43.4981 17.9724C43.9872 17.6538 44.577 17.5279 45.1536 17.6192C45.7301 17.7104 46.2523 18.0123 46.6191 18.4664C46.9859 18.9205 47.1712 19.4945 47.1392 20.0774C47.0799 21.0545 46.571 21.7538 45.6674 22.1279C45.4214 22.2301 45.3711 22.3464 45.3711 22.5871C45.3775 27.7414 45.38 32.8957 45.3785 38.0499C45.3785 38.5433 45.3 39.0055 44.9718 39.3944C44.8109 39.5953 44.6072 39.7577 44.3755 39.8697C44.1438 39.9817 43.8899 40.0405 43.6326 40.0419C43.3422 40.0463 43.0504 40.0611 42.7622 40.0374C42.4911 40.0145 42.4015 40.0863 42.4074 40.3767C42.4282 41.3582 42.4074 42.3405 42.4208 43.322C42.4208 43.5405 42.3645 43.5976 42.146 43.5961C40.2265 43.5882 38.3071 43.5882 36.3876 43.5961C36.3111 43.5975 36.2352 43.5824 36.1652 43.5517C36.0951 43.521 36.0325 43.4755 35.9817 43.4183C35.641 43.0835 35.3706 42.6034 34.9402 42.4508C34.5099 42.2982 33.9929 42.4071 33.5136 42.4071C29.6189 42.4071 25.7242 42.4052 21.8295 42.4012C21.7205 42.3955 21.6116 42.4146 21.511 42.4571C21.4104 42.4996 21.3207 42.5643 21.2488 42.6464C20.9428 42.9694 20.6643 43.3916 20.2858 43.5479C19.9073 43.7042 19.4073 43.5909 18.9614 43.5916C17.4215 43.5916 15.8808 43.5864 14.3408 43.5983C14.1023 43.5983 14.0527 43.5338 14.0527 43.302C14.0596 37.724 14.0618 32.1458 14.0593 26.5673C14.0593 25.4176 14.7889 24.6924 15.9422 24.6924C20.0458 24.6894 24.1514 24.6889 28.2589 24.6909ZM27.7604 41.2323H39.8453C40.7779 41.2323 41.2423 40.7686 41.2423 39.8359V27.2518C41.2423 26.3214 40.7764 25.8576 39.8408 25.8576C31.7497 25.8576 23.6591 25.8554 15.5689 25.851C15.2904 25.851 15.22 25.925 15.2208 26.2006C15.2297 31.0986 15.2297 35.9963 15.2208 40.8937C15.2208 41.176 15.3008 41.2389 15.5734 41.2389C19.6355 41.2301 23.6983 41.2278 27.7604 41.2323Z" fill="#A05CEB"/>
<path d="M16.4074 34.7157C16.4074 33.0423 16.4119 31.3697 16.4015 29.697C16.4015 29.4637 16.4593 29.4007 16.6978 29.4007C18.8735 29.4101 21.049 29.4101 23.2243 29.4007C23.4709 29.4007 23.5094 29.4807 23.5094 29.7022C23.502 33.0604 23.502 36.4185 23.5094 39.7767C23.5094 39.9989 23.4517 40.05 23.2354 40.0493C21.0488 40.0414 18.8622 40.0414 16.6756 40.0493C16.4533 40.0493 16.4037 39.9826 16.4045 39.7707C16.4141 38.084 16.4074 36.3995 16.4074 34.7157ZM21.0547 32.9505C20.2355 34.4253 19.4473 35.8439 18.6607 37.2632C18.5325 37.4958 18.277 37.7662 18.3237 37.9596C18.3785 38.1818 18.7681 38.2344 18.9903 38.3959C19.2125 38.5574 19.3199 38.527 19.457 38.2751C20.2325 36.8484 21.0051 35.4187 21.8273 34.0194C22.1924 33.4001 22.3835 32.7808 22.3221 32.0653C22.3028 31.843 22.2658 31.769 22.0258 31.769C20.8406 31.7815 19.6607 31.769 18.4777 31.7771C18.1926 31.7771 17.817 31.6512 17.6452 31.8319C17.4733 32.0127 17.6229 32.3853 17.5903 32.6705C17.5622 32.9179 17.6644 32.9586 17.8866 32.9557C18.9259 32.9438 19.9629 32.9505 21.0577 32.9505H21.0547Z" fill="#A05CEB"/>
<path d="M32.9573 34.6824C32.9573 33.0209 32.9618 31.3593 32.9521 29.6985C32.9521 29.4652 33.0099 29.4022 33.2484 29.4022C35.4212 29.4116 37.596 29.4116 39.7727 29.4022C39.9794 29.4022 40.0586 29.4385 40.0579 29.6704C40.05 33.0493 40.05 36.4277 40.0579 39.8056C40.0579 39.9945 40.0083 40.0456 39.8194 40.0456C37.6219 40.0391 35.4244 40.0391 33.227 40.0456C33.0047 40.0456 32.9536 39.9789 32.9551 39.7656C32.961 38.0722 32.9573 36.3773 32.9573 34.6824ZM37.5868 32.9505C37.5239 33.0794 37.4817 33.1779 37.4298 33.2712C36.6985 34.5839 35.9684 35.8963 35.2395 37.2084C35.0995 37.4603 34.8262 37.7573 34.881 37.9625C34.9358 38.1677 35.338 38.2588 35.575 38.4166C35.7787 38.5544 35.8713 38.524 35.995 38.2981C36.7817 36.8521 37.5639 35.4024 38.3994 33.9846C38.7601 33.3727 38.9335 32.7616 38.8787 32.0586C38.8609 31.8216 38.8001 31.7667 38.5735 31.769C37.3883 31.7801 36.2083 31.769 35.0254 31.7764C34.741 31.7764 34.3588 31.6519 34.198 31.8349C34.0573 31.9927 34.1751 32.3668 34.1425 32.6408C34.1084 32.9268 34.238 32.9572 34.478 32.9549C35.501 32.9438 36.5239 32.9505 37.5868 32.9505Z" fill="#A05CEB"/>
<path d="M31.7811 32.4053C31.7811 34.0676 31.7774 35.7298 31.7862 37.3921C31.7862 37.6144 31.7433 37.6981 31.4966 37.6966C29.3204 37.6862 27.1442 37.6862 24.9679 37.6966C24.7516 37.6966 24.6872 37.644 24.6879 37.421C24.6953 34.051 24.6953 30.6815 24.6879 27.3125C24.6879 27.0747 24.7746 27.0495 24.9738 27.0503C27.1501 27.0562 29.3263 27.0562 31.5026 27.0503C31.7522 27.0503 31.7877 27.1354 31.787 27.3555C31.7774 29.0318 31.7811 30.7163 31.7811 32.4053ZM29.2745 30.5978C29.2745 30.746 29.2004 30.82 29.1545 30.9045C28.4271 32.2186 27.6992 33.5325 26.9708 34.8461C26.8323 35.0972 26.5664 35.3802 26.6086 35.6002C26.6545 35.8358 27.0753 35.8847 27.3041 36.0565C27.5145 36.215 27.6064 36.1484 27.7227 35.9373C28.5137 34.4928 29.2922 33.0401 30.13 31.623C30.5004 31 30.67 30.3771 30.6092 29.6652C30.5915 29.4652 30.5537 29.4029 30.3455 29.4044C28.9397 29.4138 27.5335 29.4138 26.1271 29.4044C25.9294 29.4044 25.8405 29.4444 25.859 29.6615C25.8782 29.8833 25.8782 30.1063 25.859 30.3282C25.8375 30.5593 25.9331 30.6022 26.1434 30.6C27.1805 30.5889 28.2182 30.5941 29.2745 30.5941V30.5978Z" fill="#A05CEB"/>
<path d="M19.9681 28.2325C18.8748 28.2325 17.7815 28.2281 16.6882 28.237C16.4785 28.237 16.383 28.1962 16.4052 27.9636C16.4266 27.7419 16.4266 27.5187 16.4052 27.2969C16.3837 27.0747 16.4756 27.0458 16.6696 27.0466C18.8671 27.0525 21.0646 27.0525 23.262 27.0466C23.4406 27.0466 23.525 27.0762 23.5087 27.2784C23.4902 27.5119 23.4902 27.7465 23.5087 27.9799C23.5257 28.1903 23.4517 28.2407 23.2472 28.2392C22.1547 28.2273 21.0614 28.2325 19.9681 28.2325Z" fill="#A05CEB"/>
<path d="M36.5239 27.0488C37.6054 27.0488 38.6868 27.0569 39.7683 27.0429C40.0075 27.0429 40.0794 27.1051 40.0549 27.3392C40.0246 27.6251 40.1705 27.9999 40.0001 28.1777C39.8297 28.3555 39.4512 28.2318 39.1646 28.2325C37.2024 28.237 35.2388 28.2325 33.2773 28.2414C33.0055 28.2414 32.9247 28.1622 32.9544 27.9059C32.9855 27.6318 32.8381 27.2718 33.0092 27.1029C33.1803 26.934 33.5388 27.0554 33.8143 27.0532C34.7173 27.0451 35.6202 27.0488 36.5239 27.0488Z" fill="#A05CEB"/>
<path d="M28.2286 40.0426C27.1353 40.0426 26.0427 40.0374 24.9494 40.047C24.7494 40.047 24.6679 40.0078 24.6894 39.793C24.719 39.4967 24.5694 39.1048 24.7464 38.9203C24.9235 38.7359 25.3175 38.8648 25.6153 38.864C27.5671 38.8589 29.5189 38.864 31.4707 38.8559C31.7196 38.8559 31.8107 38.9152 31.7862 39.1707C31.7596 39.4455 31.8722 39.8144 31.7322 39.9774C31.5685 40.1678 31.1892 40.0367 30.9048 40.0389C30.013 40.0478 29.1204 40.0426 28.2286 40.0426Z" fill="#A05CEB"/>
</svg>
