<svg width="60" height="60" viewBox="0 0 60 60" fill="none" xmlns="http://www.w3.org/2000/svg">
<path d="M60 30C60 46.5685 46.5685 60 30 60C13.4315 60 0 46.5685 0 30C0 13.4315 13.4315 0 30 0C46.5685 0 60 13.4315 60 30Z" fill="#0C0E14"/>
<path d="M29.3889 20.2246C29.3889 21.0371 29.3831 21.8516 29.3937 22.6622C29.4011 22.7494 29.3833 22.8369 29.3425 22.9144C29.3017 22.9919 29.2396 23.0561 29.1634 23.0996C27.253 24.391 25.3455 25.6868 23.4408 26.9872C23.367 27.0434 23.2796 27.0793 23.1875 27.091C23.0953 27.1028 23.0017 27.0901 22.9161 27.0542C21.4674 26.5756 20.0166 26.1041 18.5634 25.6396C18.4727 25.62 18.3904 25.5726 18.3281 25.5039C18.2658 25.4352 18.2267 25.3488 18.2161 25.2568C17.7864 23.2629 17.347 21.2719 16.898 19.2838C16.8723 19.2009 16.8697 19.1125 16.8905 19.0282C16.9113 18.9439 16.9547 18.8669 17.016 18.8053C18.7494 16.8025 20.9215 15.2244 23.3641 14.1932C23.4425 14.1547 23.5299 14.1382 23.617 14.1456C23.7041 14.153 23.7875 14.1841 23.8582 14.2353C25.6042 15.2657 27.3531 16.292 29.1049 17.3142C29.1993 17.3589 29.2774 17.4319 29.3283 17.523C29.3792 17.6141 29.4004 17.7187 29.3889 17.8224C29.3755 18.6225 29.3889 19.4235 29.3889 20.2246Z" fill="#A05CEB"/>
<path d="M30.615 20.2121C30.615 19.4111 30.6236 18.61 30.615 17.8099C30.6036 17.7126 30.623 17.6141 30.6704 17.5283C30.7179 17.4425 30.7911 17.3737 30.8797 17.3314C32.6437 16.3105 34.4025 15.2772 36.1562 14.2315C36.2278 14.1816 36.3115 14.1521 36.3986 14.1462C36.4857 14.1403 36.5727 14.1582 36.6503 14.198C39.102 15.2353 41.2794 16.825 43.0119 18.8426C43.0611 18.8918 43.0964 18.9532 43.1142 19.0204C43.1321 19.0876 43.1318 19.1583 43.1135 19.2254C42.662 21.2506 42.2143 23.2767 41.7704 25.3037C41.7625 25.3793 41.7314 25.4505 41.6815 25.5079C41.6315 25.5652 41.5651 25.6059 41.4913 25.6243C39.9927 26.1009 38.4964 26.5858 37.0024 27.0791C36.9368 27.1039 36.8658 27.111 36.7966 27.0998C36.7274 27.0885 36.6624 27.0592 36.6081 27.0149C34.6753 25.6974 32.7406 24.3817 30.804 23.068C30.739 23.0288 30.6865 22.972 30.6525 22.9043C30.6186 22.8365 30.6045 22.7606 30.6121 22.6852C30.6188 21.8612 30.615 21.0371 30.615 20.2121Z" fill="#A05CEB"/>
<path d="M47.0901 31.4318C46.8643 34.0833 46.0267 36.6468 44.6428 38.9217C44.6101 38.9834 44.5615 39.0352 44.5019 39.0718C44.4423 39.1083 44.374 39.1282 44.3041 39.1294C42.9111 39.2605 41.522 39.4002 40.128 39.5371C39.4737 39.6012 38.8185 39.6558 38.1661 39.7285C37.956 39.7534 37.8217 39.7237 37.6864 39.5371C36.8959 38.4282 36.0964 37.3266 35.288 36.2324C35.229 36.1601 35.1893 36.0741 35.1725 35.9824C35.1558 35.8907 35.1625 35.7963 35.1921 35.7079C35.8412 33.3395 36.4853 30.9695 37.1242 28.5979C37.176 28.4065 37.249 28.2735 37.4667 28.2046C38.9218 27.7471 40.3736 27.2778 41.8222 26.7967C41.9072 26.7606 42.0013 26.7518 42.0915 26.7717C42.1816 26.7916 42.2633 26.8392 42.325 26.9077C43.8324 28.2546 45.3457 29.5945 46.8647 30.9274C47.0412 31.0834 47.1496 31.2346 47.0901 31.4318Z" fill="#A05CEB"/>
<path d="M21.9452 39.7333L16.6044 39.2136C16.5579 39.2023 16.5103 39.1965 16.4624 39.1964C15.6335 39.3131 15.2594 38.827 14.9111 38.1599C13.8457 36.139 13.1714 33.9361 12.9233 31.6662C12.885 31.3198 12.9569 31.0796 13.238 30.8355C14.7471 29.5282 16.236 28.1979 17.7259 26.8685C17.778 26.8135 17.8456 26.7756 17.9198 26.7597C17.9939 26.7438 18.0712 26.7507 18.1413 26.7795C19.6277 27.265 21.1131 27.7468 22.5976 28.2247C22.6599 28.2401 22.7165 28.2731 22.7606 28.3198C22.8046 28.3665 22.8343 28.4248 22.846 28.4878C23.5022 30.9277 24.1655 33.3663 24.8358 35.8036C24.8539 35.8716 24.8547 35.9432 24.8379 36.0115C24.8211 36.0799 24.7874 36.143 24.7398 36.195C23.9148 37.3237 23.0926 38.4537 22.2733 39.5849C22.1937 39.7007 22.1131 39.7878 21.9452 39.7333Z" fill="#A05CEB"/>
<path d="M29.9914 47.1429C28.6883 47.1337 27.3899 46.9855 26.1184 46.7007C26.0209 46.6849 25.9295 46.643 25.854 46.5795C25.7785 46.5159 25.7216 46.4331 25.6896 46.3399C24.8895 44.4806 24.0807 42.6252 23.2634 40.7736C23.2143 40.6877 23.1932 40.5888 23.2028 40.4904C23.2124 40.3921 23.2524 40.2991 23.3171 40.2243C24.122 39.1428 24.9125 38.0489 25.6973 36.953C25.7434 36.8797 25.8087 36.8202 25.886 36.7809C25.9634 36.7417 26.05 36.7241 26.1366 36.73C28.7193 36.7371 31.3015 36.7371 33.8835 36.73C33.9646 36.7241 34.0458 36.7406 34.1181 36.7778C34.1904 36.8149 34.2509 36.8713 34.2932 36.9406C35.0888 38.0451 35.8902 39.1444 36.6973 40.2386C36.7579 40.3093 36.795 40.3969 36.8036 40.4894C36.8122 40.582 36.7918 40.6749 36.7453 40.7554C35.9241 42.6185 35.1096 44.4848 34.3018 46.3542C34.2721 46.4426 34.2192 46.5213 34.1484 46.5821C34.0777 46.6429 33.9918 46.6836 33.8998 46.6997C32.6165 46.9858 31.3063 47.1343 29.9914 47.1429Z" fill="#A05CEB"/>
<path d="M29.9894 35.5117C28.7701 35.5117 27.5498 35.506 26.3304 35.5165C26.105 35.5165 26.0014 35.4686 25.9381 35.2294C25.3241 32.928 24.6995 30.6285 24.0644 28.3309C24.0097 28.1328 24.0644 28.0313 24.2246 27.9213C26.073 26.6726 27.9188 25.4186 29.7621 24.1591C29.9319 24.0423 30.0499 24.0193 30.2312 24.1476C32.0713 25.4109 33.9168 26.6659 35.7677 27.9127C35.949 28.0352 35.9855 28.1452 35.9289 28.351C35.3046 30.6262 34.6878 32.9034 34.0783 35.1825C34.0121 35.4304 33.9171 35.5203 33.6475 35.5165C32.4282 35.5021 31.2117 35.5117 29.9894 35.5117Z" fill="#A05CEB"/>
<path d="M12.8571 29.5109C12.9857 26.1421 13.9633 23.114 15.8705 20.2916C16.0067 20.907 16.1257 21.4458 16.2447 21.9846C16.5104 23.1829 16.7723 24.3773 17.0457 25.5784C17.0688 25.6441 17.0703 25.7155 17.0499 25.7821C17.0295 25.8487 16.9884 25.9071 16.9325 25.9488C15.6227 27.0972 14.316 28.2518 13.0126 29.4124C12.963 29.4486 12.911 29.4815 12.8571 29.5109Z" fill="#A05CEB"/>
<path d="M25.1312 13.5615C28.4123 12.6207 31.6041 12.6227 34.8745 13.5615C33.5746 14.3272 32.3437 15.0546 31.1119 15.7771C30.7425 15.9944 30.3684 16.3581 29.9923 16.3629C29.6335 16.3686 29.268 15.9973 28.9082 15.7886C27.6745 15.066 26.4427 14.3339 25.1312 13.5615Z" fill="#A05CEB"/>
<path d="M47.1429 29.5464L44.3156 27.0475C43.9041 26.6838 43.4954 26.3163 43.08 25.9574C43.0217 25.9183 42.9775 25.8616 42.9539 25.7956C42.9303 25.7297 42.9284 25.6579 42.9485 25.5908C43.3323 23.8825 43.7074 22.1713 44.0863 20.461C44.0931 20.4304 44.1199 20.4055 44.1621 20.3394C46.0367 23.1149 47.0181 26.145 47.1429 29.5464Z" fill="#A05CEB"/>
<path d="M16.4058 40.4329C17.4391 40.5286 18.3735 40.6109 19.3069 40.7018C20.1387 40.7822 20.9695 40.876 21.8013 40.9526C21.8706 40.9511 21.9385 40.9718 21.995 41.0118C22.0515 41.0518 22.0936 41.1089 22.115 41.1746C22.822 42.8131 23.5377 44.4478 24.2812 46.1513C21.101 44.9914 18.5231 43.1184 16.4058 40.4329Z" fill="#A05CEB"/>
<path d="M43.599 40.4281C41.4769 43.1184 38.8981 44.9866 35.7744 46.137C35.7543 46.0049 35.8253 45.9207 35.8646 45.8307C36.5275 44.2994 37.1962 42.7767 37.8514 41.2445C37.8783 41.1566 37.9328 41.0797 38.007 41.0252C38.0811 40.9707 38.1709 40.9416 38.263 40.9421C40.0071 40.7842 41.7512 40.61 43.599 40.4281Z" fill="#A05CEB"/>
</svg>
