<svg width="124" height="124" viewBox="0 0 124 124" fill="none" xmlns="http://www.w3.org/2000/svg">
<g filter="url(#filter0_d_14_4225)">
<rect x="8" y="6" width="108" height="108" rx="8" fill="#282A2F"/>
<path d="M35.9307 87.8613H38.1523C39.1029 87.8613 39.8223 87.9948 40.3105 88.2617C40.7988 88.5286 41.043 88.9974 41.043 89.668C41.043 89.9382 40.999 90.1823 40.9111 90.4004C40.8265 90.6185 40.7028 90.7975 40.54 90.9375C40.3773 91.0775 40.1787 91.1686 39.9443 91.2109V91.2598C40.182 91.3086 40.3968 91.3932 40.5889 91.5137C40.7809 91.6309 40.9339 91.8034 41.0479 92.0312C41.165 92.2559 41.2236 92.5553 41.2236 92.9297C41.2236 93.3626 41.1178 93.7337 40.9062 94.043C40.6947 94.3522 40.3919 94.5898 39.998 94.7559C39.6074 94.9186 39.1419 95 38.6016 95H35.9307V87.8613ZM37.4443 90.6885H38.3232C38.7627 90.6885 39.0671 90.6201 39.2363 90.4834C39.4056 90.3434 39.4902 90.1383 39.4902 89.8682C39.4902 89.5947 39.3893 89.3994 39.1875 89.2822C38.9889 89.1618 38.6732 89.1016 38.2402 89.1016H37.4443V90.6885ZM37.4443 91.8896V93.75H38.4307C38.8864 93.75 39.2038 93.6621 39.3828 93.4863C39.5618 93.3105 39.6514 93.0745 39.6514 92.7783C39.6514 92.6025 39.6123 92.4479 39.5342 92.3145C39.4561 92.181 39.3242 92.0768 39.1387 92.002C38.9564 91.9271 38.7041 91.8896 38.3818 91.8896H37.4443ZM49.1289 91.4209C49.1289 91.971 49.0605 92.4723 48.9238 92.9248C48.7871 93.374 48.5788 93.7614 48.2988 94.0869C48.0221 94.4124 47.6706 94.6631 47.2441 94.8389C46.8177 95.0114 46.3132 95.0977 45.7305 95.0977C45.1478 95.0977 44.6432 95.0114 44.2168 94.8389C43.7904 94.6631 43.4372 94.4124 43.1572 94.0869C42.8805 93.7614 42.6738 93.3724 42.5371 92.9199C42.4004 92.4674 42.332 91.9645 42.332 91.4111C42.332 90.6722 42.4525 90.0293 42.6934 89.4824C42.9375 88.9323 43.3118 88.5059 43.8164 88.2031C44.321 87.9004 44.9622 87.749 45.7402 87.749C46.515 87.749 47.1514 87.9004 47.6494 88.2031C48.1507 88.5059 48.5218 88.9323 48.7627 89.4824C49.0068 90.0326 49.1289 90.6787 49.1289 91.4209ZM43.9189 91.4209C43.9189 91.9189 43.9808 92.3486 44.1045 92.71C44.2314 93.068 44.4284 93.3447 44.6953 93.54C44.9622 93.7321 45.3073 93.8281 45.7305 93.8281C46.1602 93.8281 46.5085 93.7321 46.7754 93.54C47.0423 93.3447 47.236 93.068 47.3564 92.71C47.4801 92.3486 47.542 91.9189 47.542 91.4209C47.542 90.6722 47.402 90.083 47.1221 89.6533C46.8421 89.2236 46.3815 89.0088 45.7402 89.0088C45.3138 89.0088 44.9655 89.1064 44.6953 89.3018C44.4284 89.4938 44.2314 89.7705 44.1045 90.1318C43.9808 90.4899 43.9189 90.9196 43.9189 91.4209ZM57.0879 91.4209C57.0879 91.971 57.0195 92.4723 56.8828 92.9248C56.7461 93.374 56.5378 93.7614 56.2578 94.0869C55.9811 94.4124 55.6296 94.6631 55.2031 94.8389C54.7767 95.0114 54.2721 95.0977 53.6895 95.0977C53.1068 95.0977 52.6022 95.0114 52.1758 94.8389C51.7493 94.6631 51.3962 94.4124 51.1162 94.0869C50.8395 93.7614 50.6328 93.3724 50.4961 92.9199C50.3594 92.4674 50.291 91.9645 50.291 91.4111C50.291 90.6722 50.4115 90.0293 50.6523 89.4824C50.8965 88.9323 51.2708 88.5059 51.7754 88.2031C52.2799 87.9004 52.9212 87.749 53.6992 87.749C54.474 87.749 55.1104 87.9004 55.6084 88.2031C56.1097 88.5059 56.4808 88.9323 56.7217 89.4824C56.9658 90.0326 57.0879 90.6787 57.0879 91.4209ZM51.8779 91.4209C51.8779 91.9189 51.9398 92.3486 52.0635 92.71C52.1904 93.068 52.3874 93.3447 52.6543 93.54C52.9212 93.7321 53.2663 93.8281 53.6895 93.8281C54.1191 93.8281 54.4674 93.7321 54.7344 93.54C55.0013 93.3447 55.195 93.068 55.3154 92.71C55.4391 92.3486 55.501 91.9189 55.501 91.4209C55.501 90.6722 55.361 90.083 55.0811 89.6533C54.8011 89.2236 54.3405 89.0088 53.6992 89.0088C53.2728 89.0088 52.9245 89.1064 52.6543 89.3018C52.3874 89.4938 52.1904 89.7705 52.0635 90.1318C51.9398 90.4899 51.8779 90.9196 51.8779 91.4209ZM65.0469 91.4209C65.0469 91.971 64.9785 92.4723 64.8418 92.9248C64.7051 93.374 64.4967 93.7614 64.2168 94.0869C63.9401 94.4124 63.5885 94.6631 63.1621 94.8389C62.7357 95.0114 62.2311 95.0977 61.6484 95.0977C61.0658 95.0977 60.5612 95.0114 60.1348 94.8389C59.7083 94.6631 59.3551 94.4124 59.0752 94.0869C58.7985 93.7614 58.5918 93.3724 58.4551 92.9199C58.3184 92.4674 58.25 91.9645 58.25 91.4111C58.25 90.6722 58.3704 90.0293 58.6113 89.4824C58.8555 88.9323 59.2298 88.5059 59.7344 88.2031C60.2389 87.9004 60.8802 87.749 61.6582 87.749C62.4329 87.749 63.0693 87.9004 63.5674 88.2031C64.0687 88.5059 64.4398 88.9323 64.6807 89.4824C64.9248 90.0326 65.0469 90.6787 65.0469 91.4209ZM59.8369 91.4209C59.8369 91.9189 59.8988 92.3486 60.0225 92.71C60.1494 93.068 60.3464 93.3447 60.6133 93.54C60.8802 93.7321 61.2253 93.8281 61.6484 93.8281C62.0781 93.8281 62.4264 93.7321 62.6934 93.54C62.9603 93.3447 63.154 93.068 63.2744 92.71C63.3981 92.3486 63.46 91.9189 63.46 91.4209C63.46 90.6722 63.32 90.083 63.04 89.6533C62.7601 89.2236 62.2995 89.0088 61.6582 89.0088C61.2318 89.0088 60.8835 89.1064 60.6133 89.3018C60.3464 89.4938 60.1494 89.7705 60.0225 90.1318C59.8988 90.4899 59.8369 90.9196 59.8369 91.4209ZM72.8594 95H70.9355L67.8301 89.5996H67.7861C67.7992 89.8242 67.8105 90.0505 67.8203 90.2783C67.8301 90.5062 67.8398 90.734 67.8496 90.9619C67.8594 91.1865 67.8691 91.4128 67.8789 91.6406V95H66.5264V87.8613H68.4355L71.5361 93.208H71.5703C71.5638 92.9867 71.5557 92.7669 71.5459 92.5488C71.5361 92.3307 71.5264 92.1126 71.5166 91.8945C71.5101 91.6764 71.5036 91.4583 71.4971 91.2402V87.8613H72.8594V95ZM77.3711 90.9912H80.2031V94.6924C79.8288 94.8161 79.4398 94.9154 79.0361 94.9902C78.6325 95.0618 78.1751 95.0977 77.6641 95.0977C76.9544 95.0977 76.3522 94.9577 75.8574 94.6777C75.3626 94.3978 74.9867 93.9844 74.7295 93.4375C74.4723 92.8906 74.3438 92.2184 74.3438 91.4209C74.3438 90.6722 74.487 90.0244 74.7734 89.4775C75.0632 88.9307 75.4847 88.5075 76.0381 88.208C76.5947 87.9085 77.2734 87.7588 78.0742 87.7588C78.4518 87.7588 78.8245 87.7995 79.1924 87.8809C79.5602 87.9622 79.8939 88.068 80.1934 88.1982L79.6904 89.4092C79.4723 89.2985 79.2233 89.2057 78.9434 89.1309C78.6634 89.056 78.3704 89.0186 78.0645 89.0186C77.625 89.0186 77.2425 89.1195 76.917 89.3213C76.5947 89.5231 76.3441 89.8063 76.165 90.1709C75.9893 90.5322 75.9014 90.9587 75.9014 91.4502C75.9014 91.9157 75.9648 92.3291 76.0918 92.6904C76.2188 93.0485 76.4189 93.3301 76.6924 93.5352C76.9658 93.737 77.3223 93.8379 77.7617 93.8379C77.9766 93.8379 78.1572 93.8281 78.3037 93.8086C78.4535 93.7858 78.5934 93.763 78.7236 93.7402V92.251H77.3711V90.9912ZM88.3867 91.4209C88.3867 91.971 88.3184 92.4723 88.1816 92.9248C88.0449 93.374 87.8366 93.7614 87.5566 94.0869C87.2799 94.4124 86.9284 94.6631 86.502 94.8389C86.0755 95.0114 85.571 95.0977 84.9883 95.0977C84.4056 95.0977 83.901 95.0114 83.4746 94.8389C83.0482 94.6631 82.695 94.4124 82.415 94.0869C82.1383 93.7614 81.9316 93.3724 81.7949 92.9199C81.6582 92.4674 81.5898 91.9645 81.5898 91.4111C81.5898 90.6722 81.7103 90.0293 81.9512 89.4824C82.1953 88.9323 82.5697 88.5059 83.0742 88.2031C83.5788 87.9004 84.2201 87.749 84.998 87.749C85.7728 87.749 86.4092 87.9004 86.9072 88.2031C87.4085 88.5059 87.7796 88.9323 88.0205 89.4824C88.2646 90.0326 88.3867 90.6787 88.3867 91.4209ZM83.1768 91.4209C83.1768 91.9189 83.2386 92.3486 83.3623 92.71C83.4893 93.068 83.6862 93.3447 83.9531 93.54C84.2201 93.7321 84.5651 93.8281 84.9883 93.8281C85.418 93.8281 85.7663 93.7321 86.0332 93.54C86.3001 93.3447 86.4938 93.068 86.6143 92.71C86.738 92.3486 86.7998 91.9189 86.7998 91.4209C86.7998 90.6722 86.6598 90.083 86.3799 89.6533C86.0999 89.2236 85.6393 89.0088 84.998 89.0088C84.5716 89.0088 84.2233 89.1064 83.9531 89.3018C83.6862 89.4938 83.4893 89.7705 83.3623 90.1318C83.2386 90.4899 83.1768 90.9196 83.1768 91.4209Z" fill="#A05CEB"/>
<path d="M71.1225 41.4995C73.583 43.4546 75.2253 46.2338 75.7355 49.3059C76.459 53.373 75.7354 57.1801 73.0959 60.5074C72.5328 61.2269 71.8853 61.8785 71.167 62.4485C70.5866 62.4796 70.5458 62.0383 70.5198 61.6611C70.4425 60.8833 70.4556 60.0993 70.5588 59.3244C74.1246 55.3489 74.1729 48.9214 70.676 44.9001C70.6442 44.8495 70.6204 44.7946 70.6053 44.7371C70.4845 43.9949 70.4544 43.2412 70.5159 42.492C70.5345 42.0654 70.5979 41.6423 71.1225 41.4995Z" fill="#A05CEB"/>
<path d="M70.5599 59.3242C70.9802 59.9944 70.6864 60.7324 70.7589 61.4356C70.7999 61.8183 70.6844 62.245 71.168 62.4483C69.1492 64.3794 66.5278 65.584 63.7276 65.8671C63.3556 65.792 63.1306 65.5759 63.1269 65.2006C63.1269 64.5358 62.913 63.8418 63.3594 63.2265C66.2593 62.8273 68.6309 61.4576 70.5599 59.3242Z" fill="#A05CEB"/>
<path d="M71.123 41.4995C70.6506 41.9537 70.7994 42.5378 70.751 43.0909C70.7027 43.6439 70.924 44.2152 70.5984 44.7389C68.7383 42.6953 66.4913 41.2908 63.6937 40.8421C63.502 40.68 63.3455 40.4813 63.2336 40.2582C63.1217 40.035 63.0568 39.7918 63.0427 39.5434C63.0286 39.2949 63.0657 39.0461 63.1517 38.8121C63.2377 38.5781 63.3709 38.3635 63.5431 38.1814L63.9152 38.207C63.9269 38.2199 63.9411 38.2303 63.9571 38.2373C63.9732 38.2444 63.9906 38.2481 64.0082 38.2481C64.0257 38.2481 64.043 38.2444 64.059 38.2373C64.0751 38.2303 64.0895 38.2199 64.1012 38.207C66.742 38.5277 69.2059 39.683 71.123 41.4995Z" fill="#A05CEB"/>
<path d="M66.3318 58.6288C65.951 59.0278 65.4922 59.347 64.9831 59.5673C64.4739 59.7875 63.9249 59.9043 63.3687 59.9106C62.7902 59.8282 62.7456 59.3851 62.7475 58.9584C62.7695 58.3573 62.6631 57.7584 62.4351 57.2004C64.1091 57.0631 65.1879 56.2226 65.3832 54.9224C65.6325 53.2579 64.8997 52.1573 62.9931 51.3351C62.5262 50.5275 62.7104 49.6724 62.8071 48.8245C63.4475 48.7945 64.0874 48.8893 64.6904 49.1037C65.2934 49.318 65.8476 49.6476 66.3207 50.0734C66.3505 50.1247 66.4045 50.1778 66.4045 50.2327C66.3989 53.0253 66.529 55.8289 66.3318 58.6288Z" fill="#A05CEB"/>
<path d="M60.2097 51.3002C59.8711 51.3203 59.5344 51.3606 59.1977 51.3551C58.3309 51.3423 57.8175 50.8753 57.8044 50.0147C57.7784 48.319 57.7784 46.6221 57.8044 44.9239C57.8156 44.0578 58.2918 43.611 59.1065 43.6128C59.9212 43.6146 60.4087 44.0779 60.4273 44.9184C60.4533 46.3724 60.4365 47.8264 60.4384 49.2822C60.47 49.9671 60.6412 50.6666 60.2097 51.3002Z" fill="#A05CEB"/>
<path d="M56.8975 41.7049C55.5954 42.4374 54.3436 43.245 53.3168 44.3492C52.7588 44.948 52.1207 44.8986 51.5125 44.4481C51.3703 44.3423 51.2519 44.2087 51.1648 44.0556C51.0777 43.9026 51.0237 43.7334 51.0062 43.5588C50.9888 43.3842 51.0081 43.208 51.0633 43.0411C51.1184 42.8743 51.208 42.7205 51.3265 42.5894C52.8536 40.9029 54.645 39.5752 56.879 38.9124C57.3589 39.8389 57.2844 40.771 56.8975 41.7049Z" fill="#A05CEB"/>
<path d="M56.8972 41.7047C56.8972 40.7744 56.8903 39.8436 56.8767 38.9121C58.9836 38.0412 61.301 37.7869 63.5509 38.1796C63.257 39.0842 63.1788 39.9797 63.7015 40.8403C61.6516 40.5566 59.5625 40.7613 57.6097 41.4373C57.5966 41.4252 57.581 41.416 57.5639 41.4105C57.5468 41.4051 57.5287 41.4034 57.5108 41.4057C57.493 41.408 57.476 41.4141 57.4609 41.4237C57.4458 41.4333 57.4331 41.4461 57.4237 41.4611L56.8972 41.7047Z" fill="#A05CEB"/>
<path d="M63.3539 63.2264C63.3539 63.8234 63.378 64.4203 63.3539 65.0173C63.3308 65.1789 63.3533 65.3436 63.4189 65.4935C63.4845 65.6433 63.5907 65.7725 63.7259 65.867C61.3859 66.1636 59.0962 65.9824 56.8789 65.1345C56.4214 64.4423 56.6092 63.6878 56.678 62.9517C56.7078 62.6441 56.9384 62.4939 57.2361 62.4536C59.2133 63.2099 61.2426 63.5304 63.3539 63.2264Z" fill="#A05CEB"/>
<path d="M57.2379 62.4613C56.6576 62.8532 56.9235 63.4465 56.8826 63.961C56.851 64.3529 56.8826 64.7484 56.8826 65.1422C54.8663 64.4738 53.194 63.2926 51.6892 61.8332C51.1628 61.3223 50.9452 60.7601 51.2149 60.1247C51.5163 59.427 52.1449 59.1981 53.0006 59.3922C54.1878 60.6867 55.6293 61.7307 57.2379 62.4613Z" fill="#A05CEB"/>
<path d="M66.332 58.6286C66.2816 58.5522 66.2445 58.468 66.2223 58.3796C66.1368 55.6071 65.962 52.8329 66.321 50.0659C69.1 52.1077 69.1073 56.3268 66.332 58.6286Z" fill="#A05CEB"/>
<path d="M62.4355 57.1929L62.908 57.4492C63.2317 58.2367 62.5935 59.198 63.3692 59.903C62.5601 60.1081 61.7565 59.9818 60.9511 59.8756C60.9401 59.8615 60.9262 59.8501 60.91 59.8423C60.8939 59.8345 60.8761 59.8304 60.8581 59.8304C60.8401 59.8304 60.8224 59.8345 60.8063 59.8423C60.7902 59.8501 60.776 59.8615 60.7651 59.8756H60.207C59.9928 59.4878 59.8806 59.0535 59.8806 58.6121C59.8806 58.1707 59.9928 57.7363 60.207 57.3485L60.7651 57.3357C60.7762 57.3494 60.7904 57.3605 60.8065 57.3682C60.8226 57.3758 60.8402 57.3797 60.8581 57.3797C60.8759 57.3797 60.8936 57.3758 60.9097 57.3682C60.9258 57.3605 60.9399 57.3494 60.9511 57.3357L62.4355 57.1929Z" fill="#A05CEB"/>
<path d="M60.2104 51.3003C60.3145 50.6301 59.9722 49.9123 60.4391 49.286C61.224 49.1029 61.983 48.8099 62.807 48.8209C63.1791 49.6357 62.8982 50.4964 62.9931 51.3296L61.319 51.2966C61.2686 51.25 61.2021 51.2241 61.133 51.2241C61.0638 51.2241 60.9973 51.25 60.947 51.2966L60.2104 51.3003Z" fill="#A05CEB"/>
<path d="M60.2102 57.347V59.8741C59.8103 59.8832 59.4104 59.9125 59.0104 59.8979C58.2776 59.8704 57.8943 59.4218 57.805 58.7589C57.7027 58.0099 58.1063 57.5192 58.8299 57.3727C59.2745 57.2829 59.7489 57.3507 60.2102 57.347Z" fill="#A05CEB"/>
<path d="M60.0109 53.0786C60.9056 53.1683 61.3929 53.628 61.3929 54.3605C61.3929 55.0581 60.8349 55.6038 60.0276 55.6936C59.8127 55.2908 59.699 54.8431 59.6961 54.3881C59.6932 53.9331 59.8011 53.4841 60.0109 53.0786Z" fill="#A05CEB"/>
<path d="M60.011 53.0786L60.0278 55.7009C59.9308 55.7259 59.8295 55.7306 59.7306 55.7149C59.6316 55.6991 59.5371 55.6632 59.453 55.6093C59.3873 55.5955 59.3297 55.5567 59.293 55.5013C58.8652 54.7688 58.9209 54.0363 59.2781 53.2892C59.4659 53.0383 59.7488 53.0951 60.011 53.0786Z" fill="#A05CEB"/>
<path d="M59.2731 53.2869C59.2731 54.0193 59.2779 54.7567 59.2879 55.499C58.4285 54.7701 58.4249 54.0523 59.2731 53.2869Z" fill="#A05CEB"/>
<path d="M60.9526 51.2947C61.0735 51.1263 61.1944 51.1226 61.3247 51.2947H60.9526Z" fill="#A05CEB"/>
<path d="M64.0945 38.2123C64.0312 38.3057 63.9717 38.2984 63.9084 38.2123C63.9376 38.199 63.9693 38.1921 64.0015 38.1921C64.0336 38.1921 64.0653 38.199 64.0945 38.2123Z" fill="#A05CEB"/>
<path d="M57.4312 41.459C57.4795 41.3657 57.5372 41.3419 57.6172 41.4352L57.5298 41.4645L57.4312 41.459Z" fill="#A05CEB"/>
<path d="M59.2927 55.5007L59.4528 55.6088L59.2927 55.5007Z" fill="#A05CEB"/>
<path d="M60.9526 57.332C60.8912 57.4327 60.8298 57.4364 60.7666 57.332H60.9526Z" fill="#A05CEB"/>
<path d="M60.7639 59.8757C60.8253 59.7732 60.8885 59.7732 60.9499 59.8757H60.7639Z" fill="#A05CEB"/>
</g>
<defs>
<filter id="filter0_d_14_4225" x="0" y="0" width="124" height="124" filterUnits="userSpaceOnUse" color-interpolation-filters="sRGB">
<feFlood flood-opacity="0" result="BackgroundImageFix"/>
<feColorMatrix in="SourceAlpha" type="matrix" values="0 0 0 0 0 0 0 0 0 0 0 0 0 0 0 0 0 0 127 0" result="hardAlpha"/>
<feOffset dy="2"/>
<feGaussianBlur stdDeviation="4"/>
<feColorMatrix type="matrix" values="0 0 0 0 0 0 0 0 0 0 0 0 0 0 0 0 0 0 0.12 0"/>
<feBlend mode="normal" in2="BackgroundImageFix" result="effect1_dropShadow_14_4225"/>
<feBlend mode="normal" in="SourceGraphic" in2="effect1_dropShadow_14_4225" result="shape"/>
</filter>
</defs>
</svg>
