<svg width="124" height="124" viewBox="0 0 124 124" fill="none" xmlns="http://www.w3.org/2000/svg">
<g filter="url(#filter0_d_14_4137)">
<rect x="8" y="6" width="108" height="108" rx="8" fill="#282A2F"/>
<path d="M40.5059 95H38.9971V91.9189H36.1699V95H34.6562V87.8613H36.1699V90.6592H38.9971V87.8613H40.5059V95ZM46.6826 95L46.165 93.3008H43.5625L43.0449 95H41.4141L43.9336 87.832H45.7842L48.3135 95H46.6826ZM45.8037 92.0312L45.2861 90.3711C45.2536 90.2604 45.2096 90.1188 45.1543 89.9463C45.1022 89.7705 45.0485 89.5931 44.9932 89.4141C44.9411 89.2318 44.8988 89.0739 44.8662 88.9404C44.8337 89.0739 44.7881 89.2399 44.7295 89.4385C44.6742 89.6338 44.6204 89.8193 44.5684 89.9951C44.5163 90.1709 44.4788 90.2962 44.4561 90.3711L43.9434 92.0312H45.8037ZM49.2168 87.8613H51.4385C52.389 87.8613 53.1084 87.9948 53.5967 88.2617C54.085 88.5286 54.3291 88.9974 54.3291 89.668C54.3291 89.9382 54.2852 90.1823 54.1973 90.4004C54.1126 90.6185 53.9889 90.7975 53.8262 90.9375C53.6634 91.0775 53.4648 91.1686 53.2305 91.2109V91.2598C53.4681 91.3086 53.6829 91.3932 53.875 91.5137C54.0671 91.6309 54.2201 91.8034 54.334 92.0312C54.4512 92.2559 54.5098 92.5553 54.5098 92.9297C54.5098 93.3626 54.404 93.7337 54.1924 94.043C53.9808 94.3522 53.6781 94.5898 53.2842 94.7559C52.8936 94.9186 52.4281 95 51.8877 95H49.2168V87.8613ZM50.7305 90.6885H51.6094C52.0488 90.6885 52.3532 90.6201 52.5225 90.4834C52.6917 90.3434 52.7764 90.1383 52.7764 89.8682C52.7764 89.5947 52.6755 89.3994 52.4736 89.2822C52.2751 89.1618 51.9593 89.1016 51.5264 89.1016H50.7305V90.6885ZM50.7305 91.8896V93.75H51.7168C52.1725 93.75 52.4899 93.6621 52.6689 93.4863C52.848 93.3105 52.9375 93.0745 52.9375 92.7783C52.9375 92.6025 52.8984 92.4479 52.8203 92.3145C52.7422 92.181 52.6104 92.0768 52.4248 92.002C52.2425 91.9271 51.9902 91.8896 51.668 91.8896H50.7305ZM60.3057 95L59.7881 93.3008H57.1855L56.668 95H55.0371L57.5566 87.832H59.4072L61.9365 95H60.3057ZM59.4268 92.0312L58.9092 90.3711C58.8766 90.2604 58.8327 90.1188 58.7773 89.9463C58.7253 89.7705 58.6715 89.5931 58.6162 89.4141C58.5641 89.2318 58.5218 89.0739 58.4893 88.9404C58.4567 89.0739 58.4111 89.2399 58.3525 89.4385C58.2972 89.6338 58.2435 89.8193 58.1914 89.9951C58.1393 90.1709 58.1019 90.2962 58.0791 90.3711L57.5664 92.0312H59.4268ZM69.1729 95H67.249L64.1436 89.5996H64.0996C64.1126 89.8242 64.124 90.0505 64.1338 90.2783C64.1436 90.5062 64.1533 90.734 64.1631 90.9619C64.1729 91.1865 64.1826 91.4128 64.1924 91.6406V95H62.8398V87.8613H64.749L67.8496 93.208H67.8838C67.8773 92.9867 67.8691 92.7669 67.8594 92.5488C67.8496 92.3307 67.8398 92.1126 67.8301 91.8945C67.8236 91.6764 67.8171 91.4583 67.8105 91.2402V87.8613H69.1729V95ZM75.0859 95H70.9746V87.8613H75.0859V89.1016H72.4883V90.6689H74.9053V91.9092H72.4883V93.75H75.0859V95ZM78.6602 87.8613C79.3079 87.8613 79.8418 87.9395 80.2617 88.0957C80.6849 88.252 80.999 88.488 81.2041 88.8037C81.4092 89.1195 81.5117 89.5182 81.5117 90C81.5117 90.3255 81.4499 90.6104 81.3262 90.8545C81.2025 91.0986 81.0397 91.3053 80.8379 91.4746C80.6361 91.6439 80.418 91.7822 80.1836 91.8896L82.2832 95H80.6035L78.8994 92.2607H78.0938V95H76.5801V87.8613H78.6602ZM78.5527 89.1016H78.0938V91.0303H78.582C79.0833 91.0303 79.4414 90.9473 79.6562 90.7812C79.8743 90.612 79.9834 90.3646 79.9834 90.0391C79.9834 89.7005 79.8662 89.4596 79.6318 89.3164C79.4007 89.1732 79.041 89.1016 78.5527 89.1016ZM89.6611 91.4209C89.6611 91.971 89.5928 92.4723 89.4561 92.9248C89.3193 93.374 89.111 93.7614 88.8311 94.0869C88.5544 94.4124 88.2028 94.6631 87.7764 94.8389C87.3499 95.0114 86.8454 95.0977 86.2627 95.0977C85.68 95.0977 85.1755 95.0114 84.749 94.8389C84.3226 94.6631 83.9694 94.4124 83.6895 94.0869C83.4128 93.7614 83.2061 93.3724 83.0693 92.9199C82.9326 92.4674 82.8643 91.9645 82.8643 91.4111C82.8643 90.6722 82.9847 90.0293 83.2256 89.4824C83.4697 88.9323 83.8441 88.5059 84.3486 88.2031C84.8532 87.9004 85.4945 87.749 86.2725 87.749C87.0472 87.749 87.6836 87.9004 88.1816 88.2031C88.6829 88.5059 89.054 88.9323 89.2949 89.4824C89.5391 90.0326 89.6611 90.6787 89.6611 91.4209ZM84.4512 91.4209C84.4512 91.9189 84.513 92.3486 84.6367 92.71C84.7637 93.068 84.9606 93.3447 85.2275 93.54C85.4945 93.7321 85.8395 93.8281 86.2627 93.8281C86.6924 93.8281 87.0407 93.7321 87.3076 93.54C87.5745 93.3447 87.7682 93.068 87.8887 92.71C88.0124 92.3486 88.0742 91.9189 88.0742 91.4209C88.0742 90.6722 87.9342 90.083 87.6543 89.6533C87.3743 89.2236 86.9137 89.0088 86.2725 89.0088C85.846 89.0088 85.4977 89.1064 85.2275 89.3018C84.9606 89.4938 84.7637 89.7705 84.6367 90.1318C84.513 90.4899 84.4512 90.9196 84.4512 91.4209Z" fill="#A05CEB"/>
<g clip-path="url(#clip0_14_4137)">
<path d="M49.9995 58.4129V58.2624C50.0356 58.093 50.0594 57.9212 50.0709 57.7484C50.0754 53.1599 50.0754 48.5698 50.0709 43.9783C50.0579 43.8054 50.0325 43.6336 49.9949 43.4643V42.5614C50.0161 42.5493 50.045 42.5433 50.0587 42.526C50.4074 42.0557 50.7326 41.9082 51.1308 42.0422C51.516 42.1716 51.6862 42.4786 51.6877 43.0452C51.6877 43.4079 51.6732 43.7721 51.6953 44.1333C51.7188 44.5208 51.9316 44.7857 52.3138 44.8978C52.4715 44.9507 52.6428 44.9486 52.7992 44.892C52.9556 44.8353 53.0877 44.7275 53.1738 44.5863C53.282 44.4058 53.3381 44.1994 53.3357 43.9896C53.3501 42.7758 53.3357 41.5621 53.344 40.3484C53.344 39.7577 53.6715 39.398 54.1798 39.395C54.6881 39.392 55.0155 39.7524 55.0155 40.3371C55.0155 40.7374 54.9859 41.1415 55.0285 41.541C55.0519 41.7839 55.1452 42.0151 55.2974 42.207C55.5185 42.4605 55.8422 42.5034 56.1667 42.3627C56.5207 42.2122 56.6711 41.9323 56.6711 41.5583C56.6711 39.8693 56.6711 38.18 56.6711 36.4905C56.6711 35.884 57.0069 35.5025 57.5205 35.5122C58.0342 35.522 58.3335 35.8787 58.3343 36.4769C58.3343 37.5402 58.3343 38.6041 58.3343 39.6681C58.3343 40.2415 58.6838 40.6185 59.1852 40.6087C59.6867 40.5989 60.0043 40.2453 60.0043 39.6764C60.0043 38.9239 60.0043 38.1715 60.0043 37.4235C60.0043 36.8441 60.3455 36.4762 60.853 36.4829C61.3605 36.4897 61.6675 36.8411 61.6735 37.404C61.6781 37.7666 61.6614 38.1308 61.6796 38.4928C61.6811 38.6576 61.7345 38.8179 61.8325 38.9512C61.9304 39.0845 62.068 39.1841 62.2259 39.2362C62.5473 39.3528 62.8801 39.3039 63.0868 39.03C63.2312 38.8321 63.3141 38.5967 63.3253 38.3528C63.3504 37.34 63.3253 36.3257 63.339 35.3121C63.3458 34.674 63.8427 34.2842 64.4118 34.4452C64.7833 34.5506 65.0014 34.8568 65.0022 35.3031C65.006 36.507 64.9976 37.7049 65.0067 38.9059C65.0113 39.413 65.3935 39.7908 65.8554 39.781C66.2946 39.772 66.6578 39.3875 66.6677 38.9074C66.6752 38.5312 66.6677 38.1549 66.6677 37.7787C66.6677 37.185 67.0118 36.7945 67.5209 36.8005C68.0109 36.8072 68.3338 37.191 68.3346 37.7742C68.3346 38.8502 68.3346 39.9262 68.3346 41.0015C68.3346 41.5358 68.6643 41.8879 69.1476 41.8977C69.6194 41.9075 69.9484 41.5869 69.9925 41.0752C70.0403 40.5184 70.3724 40.1964 70.8814 40.2197C71.3586 40.2408 71.6602 40.5959 71.6625 41.14C71.6625 41.7908 71.6534 42.4417 71.667 43.0964C71.6646 43.3122 71.7483 43.5203 71.9 43.6753C72.0517 43.8303 72.2591 43.9197 72.477 43.9241C72.9427 43.9324 73.2983 43.5855 73.3233 43.0964C73.3279 43.0091 73.3233 42.9211 73.3233 42.8338C73.3317 42.2942 73.6782 41.909 74.1591 41.9082C74.6401 41.9075 74.9896 42.2845 74.9896 42.8285C74.9896 47.9217 74.9921 53.0152 74.9972 58.1089C74.9972 58.3399 74.9212 58.4633 74.7206 58.5769C70.7313 60.8524 66.7454 63.1349 62.7631 65.4244C62.5784 65.5305 62.4432 65.5395 62.2502 65.4244C60.368 64.3328 58.4797 63.2497 56.5853 62.1752C54.391 60.9211 52.1958 59.667 49.9995 58.4129ZM60.5362 46.703H56.6468V55.9026H60.5544V53.0094H64.4779V55.9087H68.3734V46.6962H64.4574V49.755H60.5362V46.703Z" fill="#A05CEB"/>
<path d="M61.0599 28C61.1115 28.0301 61.1624 28.0602 61.2118 28.0888C61.575 28.2859 61.7437 28.6554 61.6517 29.0331C61.6066 29.204 61.5073 29.3559 61.3684 29.4665C61.2294 29.5772 61.0582 29.6406 60.8801 29.6476C60.7019 29.6545 60.5263 29.6045 60.379 29.505C60.2317 29.4054 60.1207 29.2616 60.0623 29.0948C59.9316 28.7186 60.0623 28.3552 60.4194 28.1204L60.6025 28H61.0599Z" fill="#A05CEB"/>
<path d="M65.0076 30.9709C65.0076 31.3585 65.0144 31.7467 65.0076 32.1335C64.9969 32.6083 64.6627 32.9545 64.2144 32.968C63.7365 32.983 63.3603 32.6587 63.3482 32.1674C63.3292 31.3682 63.33 30.5669 63.3482 29.767C63.3581 29.2749 63.7334 28.916 64.184 28.919C64.6527 28.919 65.0038 29.2952 65.0129 29.8091C65.0129 30.0085 65.0129 30.2087 65.0129 30.4111L65.0076 30.9709Z" fill="#A05CEB"/>
<path d="M61.6758 33.1661C61.6758 33.5536 61.6827 33.9411 61.6758 34.3279C61.6644 34.8087 61.3393 35.1405 60.8804 35.1556C60.4214 35.1706 60.034 34.8606 60.0188 34.3926C59.9914 33.5686 59.9922 32.7432 60.0188 31.9192C60.0324 31.4256 60.4146 31.1118 60.8947 31.1336C61.3605 31.154 61.669 31.4753 61.6789 31.9666C61.6842 32.3662 61.6758 32.7665 61.6758 33.1661Z" fill="#A05CEB"/>
<path d="M68.3381 34.9758C68.3388 35.0851 68.3174 35.1936 68.275 35.2946C68.2326 35.3956 68.1702 35.4872 68.0914 35.5638C68.0126 35.6404 67.919 35.7006 67.8162 35.7408C67.7135 35.7809 67.6036 35.8002 67.4932 35.7975C67.2785 35.7919 67.0745 35.7038 66.9243 35.5518C66.7741 35.3998 66.6896 35.1959 66.6887 34.9832C66.6878 34.7705 66.7706 34.5659 66.9195 34.4126C67.0684 34.2594 67.2717 34.1696 67.4864 34.1623C67.5967 34.1586 67.7066 34.1769 67.8096 34.2161C67.9127 34.2552 68.0067 34.3145 68.0862 34.3904C68.1656 34.4663 68.2288 34.5572 68.2721 34.6577C68.3154 34.7583 68.3378 34.8664 68.3381 34.9758Z" fill="#A05CEB"/>
</g>
</g>
<defs>
<filter id="filter0_d_14_4137" x="0" y="0" width="124" height="124" filterUnits="userSpaceOnUse" color-interpolation-filters="sRGB">
<feFlood flood-opacity="0" result="BackgroundImageFix"/>
<feColorMatrix in="SourceAlpha" type="matrix" values="0 0 0 0 0 0 0 0 0 0 0 0 0 0 0 0 0 0 127 0" result="hardAlpha"/>
<feOffset dy="2"/>
<feGaussianBlur stdDeviation="4"/>
<feColorMatrix type="matrix" values="0 0 0 0 0 0 0 0 0 0 0 0 0 0 0 0 0 0 0.12 0"/>
<feBlend mode="normal" in2="BackgroundImageFix" result="effect1_dropShadow_14_4137"/>
<feBlend mode="normal" in="SourceGraphic" in2="effect1_dropShadow_14_4137" result="shape"/>
</filter>
<clipPath id="clip0_14_4137">
<rect width="25" height="37.5" fill="white" transform="translate(50 28)"/>
</clipPath>
</defs>
</svg>
