<svg width="124" height="124" viewBox="0 0 124 124" fill="none" xmlns="http://www.w3.org/2000/svg">
<g filter="url(#filter0_d_14_4164)">
<rect x="8" y="6" width="108" height="108" rx="8" fill="#282A2F"/>
<path d="M22.7275 95V87.8613H24.2412V95H22.7275ZM29.0703 89.0186C28.7806 89.0186 28.5234 89.0755 28.2988 89.1895C28.0775 89.3001 27.8903 89.4613 27.7373 89.6729C27.5876 89.8844 27.4736 90.14 27.3955 90.4395C27.3174 90.7389 27.2783 91.0758 27.2783 91.4502C27.2783 91.9548 27.3402 92.3861 27.4639 92.7441C27.5908 93.099 27.7861 93.3708 28.0498 93.5596C28.3135 93.7451 28.6536 93.8379 29.0703 93.8379C29.36 93.8379 29.6497 93.8053 29.9395 93.7402C30.2324 93.6751 30.5498 93.5824 30.8916 93.4619V94.7314C30.5758 94.8617 30.265 94.9544 29.959 95.0098C29.653 95.0684 29.3096 95.0977 28.9287 95.0977C28.193 95.0977 27.5876 94.9463 27.1123 94.6436C26.6403 94.3376 26.2904 93.9111 26.0625 93.3643C25.8346 92.8141 25.7207 92.1729 25.7207 91.4404C25.7207 90.9001 25.7939 90.4053 25.9404 89.9561C26.0869 89.5068 26.3018 89.1178 26.585 88.7891C26.8682 88.4603 27.2181 88.2064 27.6348 88.0273C28.0514 87.8483 28.5299 87.7588 29.0703 87.7588C29.4251 87.7588 29.7799 87.8044 30.1348 87.8955C30.4928 87.9834 30.8346 88.1055 31.1602 88.2617L30.6719 89.4922C30.4049 89.3652 30.1364 89.2546 29.8662 89.1602C29.596 89.0658 29.3307 89.0186 29.0703 89.0186ZM38.8945 91.4209C38.8945 91.971 38.8262 92.4723 38.6895 92.9248C38.5527 93.374 38.3444 93.7614 38.0645 94.0869C37.7878 94.4124 37.4362 94.6631 37.0098 94.8389C36.5833 95.0114 36.0788 95.0977 35.4961 95.0977C34.9134 95.0977 34.4089 95.0114 33.9824 94.8389C33.556 94.6631 33.2028 94.4124 32.9229 94.0869C32.6462 93.7614 32.4395 93.3724 32.3027 92.9199C32.166 92.4674 32.0977 91.9645 32.0977 91.4111C32.0977 90.6722 32.2181 90.0293 32.459 89.4824C32.7031 88.9323 33.0775 88.5059 33.582 88.2031C34.0866 87.9004 34.7279 87.749 35.5059 87.749C36.2806 87.749 36.917 87.9004 37.415 88.2031C37.9163 88.5059 38.2874 88.9323 38.5283 89.4824C38.7725 90.0326 38.8945 90.6787 38.8945 91.4209ZM33.6846 91.4209C33.6846 91.9189 33.7464 92.3486 33.8701 92.71C33.9971 93.068 34.194 93.3447 34.4609 93.54C34.7279 93.7321 35.0729 93.8281 35.4961 93.8281C35.9258 93.8281 36.2741 93.7321 36.541 93.54C36.8079 93.3447 37.0016 93.068 37.1221 92.71C37.2458 92.3486 37.3076 91.9189 37.3076 91.4209C37.3076 90.6722 37.1676 90.083 36.8877 89.6533C36.6077 89.2236 36.1471 89.0088 35.5059 89.0088C35.0794 89.0088 34.7311 89.1064 34.4609 89.3018C34.194 89.4938 33.9971 89.7705 33.8701 90.1318C33.7464 90.4899 33.6846 90.9196 33.6846 91.4209ZM46.707 95H44.7832L41.6777 89.5996H41.6338C41.6468 89.8242 41.6582 90.0505 41.668 90.2783C41.6777 90.5062 41.6875 90.734 41.6973 90.9619C41.707 91.1865 41.7168 91.4128 41.7266 91.6406V95H40.374V87.8613H42.2832L45.3838 93.208H45.418C45.4115 92.9867 45.4033 92.7669 45.3936 92.5488C45.3838 92.3307 45.374 92.1126 45.3643 91.8945C45.3577 91.6764 45.3512 91.4583 45.3447 91.2402V87.8613H46.707V95ZM48.5088 95V87.8613H50.0225V95H48.5088ZM54.8516 89.0186C54.5618 89.0186 54.3047 89.0755 54.0801 89.1895C53.8587 89.3001 53.6715 89.4613 53.5186 89.6729C53.3688 89.8844 53.2549 90.14 53.1768 90.4395C53.0986 90.7389 53.0596 91.0758 53.0596 91.4502C53.0596 91.9548 53.1214 92.3861 53.2451 92.7441C53.3721 93.099 53.5674 93.3708 53.8311 93.5596C54.0947 93.7451 54.4349 93.8379 54.8516 93.8379C55.1413 93.8379 55.431 93.8053 55.7207 93.7402C56.0137 93.6751 56.3311 93.5824 56.6729 93.4619V94.7314C56.3571 94.8617 56.0462 94.9544 55.7402 95.0098C55.4342 95.0684 55.0908 95.0977 54.71 95.0977C53.9743 95.0977 53.3688 94.9463 52.8936 94.6436C52.4215 94.3376 52.0716 93.9111 51.8438 93.3643C51.6159 92.8141 51.502 92.1729 51.502 91.4404C51.502 90.9001 51.5752 90.4053 51.7217 89.9561C51.8682 89.5068 52.083 89.1178 52.3662 88.7891C52.6494 88.4603 52.9993 88.2064 53.416 88.0273C53.8327 87.8483 54.3112 87.7588 54.8516 87.7588C55.2064 87.7588 55.5612 87.8044 55.916 87.8955C56.2741 87.9834 56.6159 88.1055 56.9414 88.2617L56.4531 89.4922C56.1862 89.3652 55.9176 89.2546 55.6475 89.1602C55.3773 89.0658 55.112 89.0186 54.8516 89.0186ZM63.5039 90.9912H66.3359V94.6924C65.9616 94.8161 65.5726 94.9154 65.1689 94.9902C64.7653 95.0618 64.3079 95.0977 63.7969 95.0977C63.0872 95.0977 62.485 94.9577 61.9902 94.6777C61.4954 94.3978 61.1195 93.9844 60.8623 93.4375C60.6051 92.8906 60.4766 92.2184 60.4766 91.4209C60.4766 90.6722 60.6198 90.0244 60.9062 89.4775C61.196 88.9307 61.6175 88.5075 62.1709 88.208C62.7275 87.9085 63.4062 87.7588 64.207 87.7588C64.5846 87.7588 64.9574 87.7995 65.3252 87.8809C65.693 87.9622 66.0267 88.068 66.3262 88.1982L65.8232 89.4092C65.6051 89.2985 65.3561 89.2057 65.0762 89.1309C64.7962 89.056 64.5033 89.0186 64.1973 89.0186C63.7578 89.0186 63.3753 89.1195 63.0498 89.3213C62.7275 89.5231 62.4769 89.8063 62.2979 90.1709C62.1221 90.5322 62.0342 90.9587 62.0342 91.4502C62.0342 91.9157 62.0977 92.3291 62.2246 92.6904C62.3516 93.0485 62.5518 93.3301 62.8252 93.5352C63.0986 93.737 63.4551 93.8379 63.8945 93.8379C64.1094 93.8379 64.29 93.8281 64.4365 93.8086C64.5863 93.7858 64.7262 93.763 64.8564 93.7402V92.251H63.5039V90.9912ZM72.4102 95L71.8926 93.3008H69.29L68.7725 95H67.1416L69.6611 87.832H71.5117L74.041 95H72.4102ZM71.5312 92.0312L71.0137 90.3711C70.9811 90.2604 70.9372 90.1188 70.8818 89.9463C70.8298 89.7705 70.776 89.5931 70.7207 89.4141C70.6686 89.2318 70.6263 89.0739 70.5938 88.9404C70.5612 89.0739 70.5156 89.2399 70.457 89.4385C70.4017 89.6338 70.348 89.8193 70.2959 89.9951C70.2438 90.1709 70.2064 90.2962 70.1836 90.3711L69.6709 92.0312H71.5312ZM77.9668 95L76.248 89.3994H76.2041C76.2106 89.5329 76.2204 89.7347 76.2334 90.0049C76.2497 90.2718 76.2643 90.5566 76.2773 90.8594C76.2904 91.1621 76.2969 91.4355 76.2969 91.6797V95H74.9443V87.8613H77.0049L78.6943 93.3203H78.7236L80.5156 87.8613H82.5762V95H81.165V91.6211C81.165 91.3965 81.1683 91.1377 81.1748 90.8447C81.1846 90.5518 81.196 90.2734 81.209 90.0098C81.222 89.7428 81.2318 89.5426 81.2383 89.4092H81.1943L79.3535 95H77.9668ZM84.3779 95V87.8613H85.8916V95H84.3779ZM94.0215 95H92.0977L88.9922 89.5996H88.9482C88.9613 89.8242 88.9727 90.0505 88.9824 90.2783C88.9922 90.5062 89.002 90.734 89.0117 90.9619C89.0215 91.1865 89.0312 91.4128 89.041 91.6406V95H87.6885V87.8613H89.5977L92.6982 93.208H92.7324C92.7259 92.9867 92.7178 92.7669 92.708 92.5488C92.6982 92.3307 92.6885 92.1126 92.6787 91.8945C92.6722 91.6764 92.6657 91.4583 92.6592 91.2402V87.8613H94.0215V95ZM98.5332 90.9912H101.365V94.6924C100.991 94.8161 100.602 94.9154 100.198 94.9902C99.7946 95.0618 99.3372 95.0977 98.8262 95.0977C98.1165 95.0977 97.5143 94.9577 97.0195 94.6777C96.5247 94.3978 96.1488 93.9844 95.8916 93.4375C95.6344 92.8906 95.5059 92.2184 95.5059 91.4209C95.5059 90.6722 95.6491 90.0244 95.9355 89.4775C96.2253 88.9307 96.6468 88.5075 97.2002 88.208C97.7568 87.9085 98.4355 87.7588 99.2363 87.7588C99.6139 87.7588 99.9867 87.7995 100.354 87.8809C100.722 87.9622 101.056 88.068 101.355 88.1982L100.853 89.4092C100.634 89.2985 100.385 89.2057 100.105 89.1309C99.8255 89.056 99.5326 89.0186 99.2266 89.0186C98.7871 89.0186 98.4046 89.1195 98.0791 89.3213C97.7568 89.5231 97.5062 89.8063 97.3271 90.1709C97.1514 90.5322 97.0635 90.9587 97.0635 91.4502C97.0635 91.9157 97.127 92.3291 97.2539 92.6904C97.3809 93.0485 97.5811 93.3301 97.8545 93.5352C98.1279 93.737 98.4844 93.8379 98.9238 93.8379C99.1387 93.8379 99.3193 93.8281 99.4658 93.8086C99.6156 93.7858 99.7555 93.763 99.8857 93.7402V92.251H98.5332V90.9912Z" fill="#A05CEB"/>
<path d="M75.5371 40.7321L74.221 41.8102L71.5894 43.9669L68.9446 46.1129L67.6223 47.1859L67.2914 47.4541L67.1265 47.5885L67.0522 47.6483C67.0354 47.6641 67.0123 47.6866 66.9898 47.7076C66.8149 47.8851 66.668 48.0799 66.5528 48.2875C66.3224 48.7014 66.2406 49.1561 66.3748 49.5772C66.442 49.792 66.5526 49.9961 66.702 50.1811C66.778 50.2766 66.8614 50.3681 66.9517 50.455C66.9979 50.4984 67.0448 50.5418 67.0941 50.5837L67.2552 50.7186L69.863 52.8907L72.4797 55.0607L75.0888 57.2368C76.2085 58.1729 77.3269 59.1096 78.4441 60.0471L78.4553 60.0338C78.6557 59.9893 78.6688 59.7558 78.4815 59.5739C78.4765 59.5407 78.4722 59.507 78.4672 59.4717C78.4481 59.3674 78.4404 59.2619 78.4441 59.1565C78.4697 58.9777 78.3817 58.9414 78.1944 58.9879L78.185 58.9777C78.1581 58.9051 78.0832 58.8622 78.0258 58.8085C77.9134 58.668 77.8041 58.5255 77.688 58.387C77.4445 58.0973 77.1973 57.8096 76.9513 57.5184C76.9275 57.4887 76.9044 57.4591 76.8813 57.429C76.8535 57.3897 76.8211 57.3527 76.7846 57.3186C76.41 56.8417 76.0354 56.3648 75.6608 55.8879L75.2861 55.4199C75.2866 55.4119 75.2842 55.4039 75.2793 55.397C75.2743 55.3901 75.2669 55.3846 75.258 55.3811C75.2242 55.3421 75.1933 55.3015 75.1657 55.2595L74.2329 54.0975C74.0737 53.8778 73.9207 53.6545 73.7527 53.4399C73.6328 53.2867 73.4918 53.1451 73.3601 52.9985C73.3064 52.9242 73.2529 52.8498 73.1996 52.7752C73.163 52.7364 73.1314 52.6946 73.1053 52.6505C72.9988 52.5211 72.8922 52.392 72.7856 52.2632L71.8797 51.1304L71.4426 50.5771C71.3961 50.4641 71.3194 50.3611 71.2179 50.2756L71.1336 50.1734C71.1002 50.0942 71.0449 50.0223 70.9719 49.9634L70.9425 49.9185C70.9173 49.8785 70.8856 49.8416 70.8483 49.8086C70.837 49.7943 70.8252 49.7805 70.8133 49.7667C70.5136 49.1934 70.6366 48.6845 71.1511 48.2293C71.2322 48.1567 71.2791 48.0586 71.3421 47.9738C71.3493 47.9729 71.3558 47.97 71.3606 47.9654C71.3653 47.9609 71.3678 47.9552 71.3677 47.9493L71.7249 47.5339C71.8025 47.4695 71.8658 47.3947 71.9122 47.3126L71.9646 47.2539C72.0558 47.1782 72.1101 47.0806 72.19 46.9984C72.1984 46.9935 72.2053 46.987 72.2101 46.9796C72.215 46.9722 72.2178 46.9639 72.2181 46.9555C72.2807 46.9088 72.3317 46.8528 72.3685 46.7904L73.7827 45.1748C73.8145 45.1349 73.852 45.0987 73.882 45.0578L74.0968 44.8217C74.1278 44.7809 74.1615 44.7414 74.1979 44.7037C74.3099 44.5719 74.4214 44.4397 74.5325 44.3072L74.7292 44.0885L74.7761 44.0374C74.8151 44.0093 74.8461 43.9743 74.8666 43.9352L75.1644 43.6011C75.2849 43.4749 75.4142 43.3527 75.5247 43.2219C76.0241 42.6428 76.5236 42.0638 77.0231 41.4847C77.0629 41.4563 77.0952 41.4215 77.118 41.3825L77.2791 41.1904C77.3253 41.1291 77.3971 41.0846 77.4476 41.0259C77.4558 41.0221 77.4621 41.0162 77.4656 41.0092C77.4691 41.0021 77.4696 40.9943 77.467 40.987C77.7567 40.6682 78.052 40.3524 78.3348 40.0295C78.7138 39.5957 79.0841 39.1563 79.4587 38.7194C79.5573 38.6499 79.5935 38.5411 79.689 38.4696C79.7171 38.4323 79.7446 38.395 79.7721 38.3577C79.8273 38.3203 79.8785 38.2791 79.925 38.2345C80.3427 37.7614 80.7617 37.2893 81.1737 36.8115C81.431 36.5259 81.6697 36.2293 81.8886 35.923C81.9467 35.844 81.9831 35.7556 81.9954 35.6639C82.0077 35.5723 81.9955 35.4795 81.9598 35.3921C80.2615 36.8159 78.555 38.2338 76.8401 39.6458L75.5371 40.7321ZM71.7174 51.2066C71.7138 51.2192 71.7111 51.232 71.7092 51.2449C71.7036 51.2334 71.6969 51.2223 71.6893 51.2117L71.7174 51.2066Z" fill="#A05CEB"/>
<path d="M56.6357 55.1679L59.2523 52.9984L61.8608 50.8259L62.0213 50.691C62.0706 50.6491 62.1174 50.6057 62.1636 50.5622C62.2539 50.4754 62.3373 50.3839 62.4134 50.2884C62.5629 50.1034 62.6735 49.8993 62.7405 49.6844C62.8729 49.2624 62.7929 48.8086 62.5626 48.3948C62.4473 48.1872 62.3004 47.9923 62.1255 47.8148C62.1049 47.7939 62.0818 47.7714 62.0631 47.7556L61.9888 47.6958L61.824 47.5619L61.4931 47.2937L60.1707 46.2207L57.526 44.0747L54.8944 41.9185L54.2494 41.3901C54.3075 42.015 54.8113 42.4979 55.1697 43.0282L55.8814 44.1452L56.5121 45.116C56.5558 45.162 56.5688 45.2228 56.6175 45.2662C56.6338 45.2861 56.6494 45.3061 56.6657 45.3255C56.8142 45.5639 56.9626 45.8014 57.1108 46.0378C57.2398 46.2421 57.3686 46.4465 57.4972 46.6509C57.6277 46.7756 57.6777 46.9391 57.797 47.0694C57.7957 47.0838 57.7996 47.0982 57.8082 47.1108L58.3582 47.9324C58.3969 48.008 58.4412 48.0826 58.4731 48.1602C58.5661 48.3876 58.6548 48.6165 58.7447 48.8449C58.7447 48.896 58.7447 48.9507 58.7416 49.0033C58.7997 49.339 58.5499 49.5725 58.3358 49.8167C58.0355 50.1596 57.7307 50.4999 57.4273 50.8417C57.3155 50.9587 57.2057 51.0773 57.0908 51.1927C56.7224 51.5652 56.3416 51.9306 55.9864 52.3097C55.7991 52.5049 55.6548 52.7236 55.4906 52.932C55.1553 53.2641 54.8157 53.5963 54.486 53.9299C54.3156 54.1041 54.162 54.2876 54.0003 54.47C53.9972 54.5017 53.9934 54.5339 53.9903 54.5655C53.954 54.6049 53.9121 54.6406 53.8654 54.6718C53.5838 54.936 53.3036 55.1996 53.0232 55.4669C52.9945 55.4944 53.0026 55.5476 52.9938 55.5885C52.9408 55.6789 52.8446 55.7366 52.7547 55.7985C52.1932 56.3929 51.6313 56.9869 51.069 57.5807C50.6438 58.0277 50.2068 58.4672 49.7884 58.9178C49.3233 59.4196 48.88 59.9346 48.4149 60.4364C47.863 61.0316 47.2973 61.6187 46.7379 62.2094C46.3633 62.6038 45.9831 62.9942 45.6178 63.3938C45.1183 63.9415 44.6189 64.4892 44.1375 65.0497C44.049 65.1435 44.0007 65.2585 44 65.377C43.9993 65.4955 44.0463 65.6109 44.1337 65.7053C47.4015 62.8951 50.6979 60.1088 54.0228 57.3466L56.6357 55.1679ZM57.3905 45.8645L57.3986 45.8589V45.8666L57.3905 45.8645ZM54.2931 54.4204C54.2875 54.4306 54.2825 54.4409 54.2775 54.4506C54.2737 54.4454 54.2695 54.4405 54.265 54.4357L54.255 54.4266L54.2931 54.4204Z" fill="#A05CEB"/>
<path d="M65.8791 48.0384C66.0188 47.7825 66.1976 47.5422 66.411 47.323C66.4398 47.2949 66.4666 47.2684 66.5015 47.2372C66.5071 47.2314 66.5135 47.2261 66.5203 47.2214L66.5302 47.2127L66.5509 47.1963L66.5927 47.1626L66.7588 47.0292L67.0909 46.762L68.4208 45.6936L71.0799 43.5568L73.7515 41.4307L75.087 40.3675L76.428 39.3088C78.1308 37.9639 79.8392 36.6239 81.5533 35.2886L81.6101 35.096C81.1175 34.9365 80.8884 34.9728 80.5356 35.2268C79.9543 35.6452 79.3606 36.053 78.7674 36.4607C78.602 36.5747 78.4216 36.6728 78.2461 36.776C78.0014 36.9206 77.4857 37.2701 77.4738 37.3023L77.2865 37.4555C77.0842 37.5496 76.6266 37.8561 76.5997 37.9154L75.9754 38.3727C75.8212 38.3788 75.0046 38.9782 74.9802 39.04C74.4595 39.3818 73.9338 39.7185 73.4193 40.0675C73.2171 40.2045 73.0403 40.368 72.8518 40.5192C72.6095 40.6561 72.366 40.791 72.1282 40.9321C72.1032 40.9464 72.1094 40.9959 72.1013 41.0291L71.9234 41.0915C71.8783 41.1524 71.8152 41.203 71.7398 41.2386C71.6624 41.2897 71.5819 41.3408 71.5076 41.3919C71.1617 41.6436 70.8168 41.8964 70.473 42.1502C70.1234 42.3668 69.7707 42.5794 69.426 42.8011C69.2712 42.9008 69.1332 43.0178 68.989 43.1271L68.9777 43.2221L68.2285 43.657L67.6172 44.0591C67.5717 44.085 67.5298 44.115 67.4924 44.1485L66.7388 44.6595L65.9896 45.1704L65.2941 45.6589C65.0959 45.7926 64.8894 45.9178 64.6753 46.0339C64.586 46.0779 64.4119 46.0957 64.3357 46.0533C63.9611 45.8454 63.6114 45.6057 63.2418 45.3891C62.7255 45.0892 62.1992 44.8005 61.6766 44.5067C61.6667 44.4947 61.6558 44.4833 61.6441 44.4724C61.5997 44.4166 61.5461 44.3661 61.4849 44.3222C59.6335 43.1882 57.7796 42.0575 55.9232 40.93C55.5792 40.7226 55.1909 40.5657 54.737 40.7037L54.5166 40.8529L55.3788 41.5396L58.051 43.6662L60.7095 45.8024L62.0393 46.8709L62.3715 47.1381L62.5376 47.2714L62.5794 47.3052L62.6 47.3215L62.6106 47.3302C62.6171 47.3352 62.6231 47.3405 62.6288 47.346C62.6643 47.3777 62.6911 47.4038 62.7192 47.4319C62.9325 47.6511 63.1113 47.8914 63.2512 48.1472C63.3941 48.4066 63.488 48.6823 63.5297 48.9647C63.5711 49.254 63.5474 49.547 63.4597 49.8293C63.3705 50.1075 63.2253 50.3717 63.0302 50.611C62.9351 50.7278 62.8309 50.8395 62.718 50.9452C62.6624 50.9963 62.6056 51.0474 62.5469 51.0985L62.3815 51.2359C61.5074 51.961 60.6202 52.6722 59.7374 53.388L57.0852 55.5294L54.4204 57.6606C51.0252 60.368 47.6069 63.0566 44.1655 65.7265L44.2017 65.7643L44.424 65.9396C44.9235 66.1118 45.2906 65.8849 45.6346 65.6483C46.8796 64.791 48.1193 63.9279 49.3539 63.0593C51.1557 61.799 52.9561 60.5357 54.7551 59.2696C55.3282 58.867 55.8945 58.4572 56.4639 58.051C57.1901 57.5497 57.9199 57.0516 58.6417 56.5462C59.3503 56.0501 60.0514 55.5463 60.7557 55.0456L60.8662 54.9618C60.9128 54.9388 60.9539 54.909 60.9873 54.8739L61.3076 54.6567C61.3694 54.6076 61.4354 54.562 61.5049 54.5203L62.1187 54.085C62.1661 54.0651 62.2085 54.0381 62.2435 54.0053C62.2862 53.9704 62.3318 53.9381 62.3802 53.9087L64.3326 52.5715C64.4906 52.4632 64.6379 52.2849 64.8096 52.265C64.97 52.2486 65.1567 52.4024 65.3322 52.4811C65.3419 52.4842 65.3523 52.4859 65.3628 52.4862L65.7374 52.7453L65.7854 52.7866L66.1101 52.991L66.9074 53.5076L68.0425 54.2659L68.984 54.8453C69.4002 55.1178 69.8164 55.3903 70.2327 55.6628C70.2749 55.7183 70.3248 55.7698 70.3813 55.8161C70.769 56.0654 71.1617 56.3097 71.5525 56.5554C71.6453 56.5952 71.7296 56.647 71.8023 56.7087L71.8647 56.7598C71.9946 56.8523 72.1144 56.9524 72.2561 57.0347C72.4928 57.1752 72.7394 57.3035 72.9816 57.4368C73.059 57.5293 73.1153 57.6412 73.2176 57.7112C73.5486 57.9304 73.8963 58.1327 74.2378 58.3417C74.2478 58.5415 74.4114 58.5624 74.6024 58.5507C74.6397 58.5916 74.6815 58.6296 74.7273 58.6641C75.1999 58.9641 75.6751 59.2609 76.1484 59.5603C76.4487 59.7499 76.7465 59.9425 77.0456 60.1341C77.1623 60.2062 77.2696 60.2961 77.3989 60.3462C77.5235 60.3969 77.6622 60.4198 77.8011 60.4127C77.94 60.4055 78.0741 60.3685 78.1899 60.3053C77.0307 59.3876 75.8736 58.4679 74.7186 57.5462L72.0539 55.415L69.4016 53.2736C68.5188 52.5582 67.6341 51.8465 66.7575 51.1215L66.5921 50.984C66.5334 50.9329 66.4766 50.8818 66.421 50.8307C66.3083 50.7249 66.204 50.6133 66.1088 50.4966C65.9137 50.2573 65.7685 49.9931 65.6793 49.7148C65.5916 49.4325 65.5679 49.1395 65.6093 48.8503C65.6489 48.5701 65.7399 48.2964 65.8791 48.0384ZM61.2171 46.0365L61.189 46.015L61.2165 46.0201C61.2217 46.0195 61.2268 46.0181 61.2315 46.016C61.2271 46.0232 61.2221 46.0298 61.2171 46.0365Z" fill="#A05CEB"/>
</g>
<defs>
<filter id="filter0_d_14_4164" x="0" y="0" width="124" height="124" filterUnits="userSpaceOnUse" color-interpolation-filters="sRGB">
<feFlood flood-opacity="0" result="BackgroundImageFix"/>
<feColorMatrix in="SourceAlpha" type="matrix" values="0 0 0 0 0 0 0 0 0 0 0 0 0 0 0 0 0 0 127 0" result="hardAlpha"/>
<feOffset dy="2"/>
<feGaussianBlur stdDeviation="4"/>
<feColorMatrix type="matrix" values="0 0 0 0 0 0 0 0 0 0 0 0 0 0 0 0 0 0 0.12 0"/>
<feBlend mode="normal" in2="BackgroundImageFix" result="effect1_dropShadow_14_4164"/>
<feBlend mode="normal" in="SourceGraphic" in2="effect1_dropShadow_14_4164" result="shape"/>
</filter>
</defs>
</svg>
