<svg width="124" height="124" viewBox="0 0 124 124" fill="none" xmlns="http://www.w3.org/2000/svg">
<g filter="url(#filter0_d_14_4220)">
<rect x="8" y="6" width="108" height="108" rx="8" fill="#282A2F"/>
<path d="M39.8125 95V87.8613H41.3262V95H39.8125ZM47.3369 93.0176C47.3369 93.4408 47.2344 93.8086 47.0293 94.1211C46.8242 94.4336 46.5247 94.6745 46.1309 94.8438C45.7402 95.013 45.265 95.0977 44.7051 95.0977C44.4577 95.0977 44.2152 95.0814 43.9775 95.0488C43.7432 95.0163 43.5169 94.9691 43.2988 94.9072C43.084 94.8421 42.8789 94.7624 42.6836 94.668V93.2617C43.0221 93.4115 43.3737 93.5465 43.7383 93.667C44.1029 93.7874 44.4642 93.8477 44.8223 93.8477C45.0697 93.8477 45.2682 93.8151 45.418 93.75C45.571 93.6849 45.6816 93.5954 45.75 93.4814C45.8184 93.3675 45.8525 93.2373 45.8525 93.0908C45.8525 92.9118 45.7923 92.7588 45.6719 92.6318C45.5514 92.5049 45.3854 92.3861 45.1738 92.2754C44.9655 92.1647 44.7295 92.0459 44.4658 91.9189C44.2998 91.8408 44.1191 91.7464 43.9238 91.6357C43.7285 91.5218 43.543 91.3835 43.3672 91.2207C43.1914 91.0579 43.0465 90.861 42.9326 90.6299C42.8219 90.3955 42.7666 90.1156 42.7666 89.79C42.7666 89.3636 42.8643 88.999 43.0596 88.6963C43.2549 88.3936 43.5332 88.1624 43.8945 88.0029C44.2591 87.8402 44.6888 87.7588 45.1836 87.7588C45.5547 87.7588 45.9079 87.8027 46.2432 87.8906C46.5817 87.9753 46.9349 88.099 47.3027 88.2617L46.8145 89.4385C46.4857 89.305 46.1911 89.2025 45.9307 89.1309C45.6702 89.056 45.4049 89.0186 45.1348 89.0186C44.946 89.0186 44.7848 89.0495 44.6514 89.1113C44.5179 89.1699 44.417 89.2546 44.3486 89.3652C44.2803 89.4727 44.2461 89.598 44.2461 89.7412C44.2461 89.9105 44.2949 90.0537 44.3926 90.1709C44.4935 90.2848 44.6432 90.3955 44.8418 90.5029C45.0436 90.6104 45.2943 90.7357 45.5938 90.8789C45.9583 91.0514 46.2692 91.2321 46.5264 91.4209C46.7868 91.6064 46.987 91.8262 47.127 92.0801C47.2669 92.3307 47.3369 92.6432 47.3369 93.0176ZM55.1104 91.4209C55.1104 91.971 55.042 92.4723 54.9053 92.9248C54.7686 93.374 54.5602 93.7614 54.2803 94.0869C54.0036 94.4124 53.652 94.6631 53.2256 94.8389C52.7992 95.0114 52.2946 95.0977 51.7119 95.0977C51.1292 95.0977 50.6247 95.0114 50.1982 94.8389C49.7718 94.6631 49.4186 94.4124 49.1387 94.0869C48.862 93.7614 48.6553 93.3724 48.5186 92.9199C48.3818 92.4674 48.3135 91.9645 48.3135 91.4111C48.3135 90.6722 48.4339 90.0293 48.6748 89.4824C48.9189 88.9323 49.2933 88.5059 49.7979 88.2031C50.3024 87.9004 50.9437 87.749 51.7217 87.749C52.4964 87.749 53.1328 87.9004 53.6309 88.2031C54.1322 88.5059 54.5033 88.9323 54.7441 89.4824C54.9883 90.0326 55.1104 90.6787 55.1104 91.4209ZM49.9004 91.4209C49.9004 91.9189 49.9622 92.3486 50.0859 92.71C50.2129 93.068 50.4098 93.3447 50.6768 93.54C50.9437 93.7321 51.2887 93.8281 51.7119 93.8281C52.1416 93.8281 52.4899 93.7321 52.7568 93.54C53.0238 93.3447 53.2174 93.068 53.3379 92.71C53.4616 92.3486 53.5234 91.9189 53.5234 91.4209C53.5234 90.6722 53.3835 90.083 53.1035 89.6533C52.8236 89.2236 52.363 89.0088 51.7217 89.0088C51.2952 89.0088 50.9469 89.1064 50.6768 89.3018C50.4098 89.4938 50.2129 89.7705 50.0859 90.1318C49.9622 90.4899 49.9004 90.9196 49.9004 91.4209ZM58.0791 95H56.5898V87.8613H60.6816V89.1016H58.0791V90.9424H60.501V92.1777H58.0791V95ZM64.832 95H63.3184V89.1211H61.3799V87.8613H66.7705V89.1211H64.832V95ZM67.8691 87.8613H70.0908C71.0413 87.8613 71.7607 87.9948 72.249 88.2617C72.7373 88.5286 72.9814 88.9974 72.9814 89.668C72.9814 89.9382 72.9375 90.1823 72.8496 90.4004C72.765 90.6185 72.6413 90.7975 72.4785 90.9375C72.3158 91.0775 72.1172 91.1686 71.8828 91.2109V91.2598C72.1204 91.3086 72.3353 91.3932 72.5273 91.5137C72.7194 91.6309 72.8724 91.8034 72.9863 92.0312C73.1035 92.2559 73.1621 92.5553 73.1621 92.9297C73.1621 93.3626 73.0563 93.7337 72.8447 94.043C72.6331 94.3522 72.3304 94.5898 71.9365 94.7559C71.5459 94.9186 71.0804 95 70.54 95H67.8691V87.8613ZM69.3828 90.6885H70.2617C70.7012 90.6885 71.0055 90.6201 71.1748 90.4834C71.3441 90.3434 71.4287 90.1383 71.4287 89.8682C71.4287 89.5947 71.3278 89.3994 71.126 89.2822C70.9274 89.1618 70.6117 89.1016 70.1787 89.1016H69.3828V90.6885ZM69.3828 91.8896V93.75H70.3691C70.8249 93.75 71.1423 93.6621 71.3213 93.4863C71.5003 93.3105 71.5898 93.0745 71.5898 92.7783C71.5898 92.6025 71.5508 92.4479 71.4727 92.3145C71.3945 92.181 71.2627 92.0768 71.0771 92.002C70.8949 91.9271 70.6426 91.8896 70.3203 91.8896H69.3828ZM78.6992 95H74.5879V87.8613H78.6992V89.1016H76.1016V90.6689H78.5186V91.9092H76.1016V93.75H78.6992V95ZM82.9473 95H81.4336V89.1211H79.4951V87.8613H84.8857V89.1211H82.9473V95Z" fill="#A05CEB"/>
<path d="M65.6527 49.8797C65.6527 49.4641 65.2362 49.3766 64.984 49.5137C64.5344 49.7577 63.3838 49.7782 62.9486 49.5382C62.5785 49.3339 62.3288 49.4635 62.3077 49.8727C62.3035 49.9498 62.3077 50.028 62.3077 50.1062C62.3077 51.6201 62.3077 53.1338 62.3077 54.6472C62.3077 58.4311 62.3063 62.2154 62.3035 66H65.5901C65.5528 65.822 65.6503 65.6591 65.6503 65.4834C65.6446 60.2818 65.6454 55.0806 65.6527 49.8797Z" fill="#A05CEB"/>
<path d="M64 38C63.3433 38 62.6931 38.1255 62.0865 38.3692C61.4798 38.613 60.9286 38.9703 60.4643 39.4207C60 39.8711 59.6317 40.4058 59.3804 40.9943C59.1292 41.5827 58.9999 42.2135 59 42.8504C59 44.1366 59.5268 45.3702 60.4645 46.2797C61.4021 47.1892 62.6739 47.7002 64 47.7002C65.3261 47.7002 66.5979 47.1892 67.5355 46.2797C68.4732 45.3702 69 44.1366 69 42.8504C69.0001 42.2135 68.8708 41.5827 68.6196 40.9943C68.3683 40.4058 68 39.8711 67.5357 39.4207C67.0714 38.9703 66.5202 38.613 65.9136 38.3692C65.3069 38.1255 64.6567 38 64 38ZM64 45.2479C63.3445 45.2479 62.7158 44.9953 62.2522 44.5457C61.7887 44.096 61.5283 43.4862 61.5283 42.8504C61.5283 42.2145 61.7887 41.6046 62.2522 41.1549C62.7157 40.7052 63.3444 40.4525 64 40.4523C64.6556 40.4525 65.2843 40.7052 65.7478 41.1549C66.2113 41.6046 66.4717 42.2145 66.4717 42.8504C66.4717 43.4862 66.2113 44.096 65.7478 44.5457C65.2842 44.9953 64.6555 45.2479 64 45.2479Z" fill="#A05CEB"/>
</g>
<defs>
<filter id="filter0_d_14_4220" x="0" y="0" width="124" height="124" filterUnits="userSpaceOnUse" color-interpolation-filters="sRGB">
<feFlood flood-opacity="0" result="BackgroundImageFix"/>
<feColorMatrix in="SourceAlpha" type="matrix" values="0 0 0 0 0 0 0 0 0 0 0 0 0 0 0 0 0 0 127 0" result="hardAlpha"/>
<feOffset dy="2"/>
<feGaussianBlur stdDeviation="4"/>
<feColorMatrix type="matrix" values="0 0 0 0 0 0 0 0 0 0 0 0 0 0 0 0 0 0 0.12 0"/>
<feBlend mode="normal" in2="BackgroundImageFix" result="effect1_dropShadow_14_4220"/>
<feBlend mode="normal" in="SourceGraphic" in2="effect1_dropShadow_14_4220" result="shape"/>
</filter>
</defs>
</svg>
