<svg width="124" height="124" viewBox="0 0 124 124" fill="none" xmlns="http://www.w3.org/2000/svg">
<g filter="url(#filter0_d_14_4156)">
<rect x="8" y="6" width="108" height="108" rx="8" fill="#282A2F"/>
<path d="M27.9424 95L26.2236 89.3994H26.1797C26.1862 89.5329 26.196 89.7347 26.209 90.0049C26.2253 90.2718 26.2399 90.5566 26.2529 90.8594C26.266 91.1621 26.2725 91.4355 26.2725 91.6797V95H24.9199V87.8613H26.9805L28.6699 93.3203H28.6992L30.4912 87.8613H32.5518V95H31.1406V91.6211C31.1406 91.3965 31.1439 91.1377 31.1504 90.8447C31.1602 90.5518 31.1715 90.2734 31.1846 90.0098C31.1976 89.7428 31.2074 89.5426 31.2139 89.4092H31.1699L29.3291 95H27.9424ZM34.3535 95V87.8613H35.8672V95H34.3535ZM40.6963 89.0186C40.4066 89.0186 40.1494 89.0755 39.9248 89.1895C39.7035 89.3001 39.5163 89.4613 39.3633 89.6729C39.2135 89.8844 39.0996 90.14 39.0215 90.4395C38.9434 90.7389 38.9043 91.0758 38.9043 91.4502C38.9043 91.9548 38.9661 92.3861 39.0898 92.7441C39.2168 93.099 39.4121 93.3708 39.6758 93.5596C39.9395 93.7451 40.2796 93.8379 40.6963 93.8379C40.986 93.8379 41.2757 93.8053 41.5654 93.7402C41.8584 93.6751 42.1758 93.5824 42.5176 93.4619V94.7314C42.2018 94.8617 41.891 94.9544 41.585 95.0098C41.279 95.0684 40.9355 95.0977 40.5547 95.0977C39.819 95.0977 39.2135 94.9463 38.7383 94.6436C38.2663 94.3376 37.9163 93.9111 37.6885 93.3643C37.4606 92.8141 37.3467 92.1729 37.3467 91.4404C37.3467 90.9001 37.4199 90.4053 37.5664 89.9561C37.7129 89.5068 37.9277 89.1178 38.2109 88.7891C38.4941 88.4603 38.8441 88.2064 39.2607 88.0273C39.6774 87.8483 40.1559 87.7588 40.6963 87.7588C41.0511 87.7588 41.4059 87.8044 41.7607 87.8955C42.1188 87.9834 42.4606 88.1055 42.7861 88.2617L42.2979 89.4922C42.0309 89.3652 41.7624 89.2546 41.4922 89.1602C41.222 89.0658 40.9567 89.0186 40.6963 89.0186ZM46.1211 87.8613C46.7689 87.8613 47.3027 87.9395 47.7227 88.0957C48.1458 88.252 48.46 88.488 48.665 88.8037C48.8701 89.1195 48.9727 89.5182 48.9727 90C48.9727 90.3255 48.9108 90.6104 48.7871 90.8545C48.6634 91.0986 48.5007 91.3053 48.2988 91.4746C48.097 91.6439 47.8789 91.7822 47.6445 91.8896L49.7441 95H48.0645L46.3604 92.2607H45.5547V95H44.041V87.8613H46.1211ZM46.0137 89.1016H45.5547V91.0303H46.043C46.5443 91.0303 46.9023 90.9473 47.1172 90.7812C47.3353 90.612 47.4443 90.3646 47.4443 90.0391C47.4443 89.7005 47.3271 89.4596 47.0928 89.3164C46.8617 89.1732 46.502 89.1016 46.0137 89.1016ZM57.1221 91.4209C57.1221 91.971 57.0537 92.4723 56.917 92.9248C56.7803 93.374 56.5719 93.7614 56.292 94.0869C56.0153 94.4124 55.6637 94.6631 55.2373 94.8389C54.8109 95.0114 54.3063 95.0977 53.7236 95.0977C53.141 95.0977 52.6364 95.0114 52.21 94.8389C51.7835 94.6631 51.4303 94.4124 51.1504 94.0869C50.8737 93.7614 50.667 93.3724 50.5303 92.9199C50.3936 92.4674 50.3252 91.9645 50.3252 91.4111C50.3252 90.6722 50.4456 90.0293 50.6865 89.4824C50.9307 88.9323 51.305 88.5059 51.8096 88.2031C52.3141 87.9004 52.9554 87.749 53.7334 87.749C54.5081 87.749 55.1445 87.9004 55.6426 88.2031C56.1439 88.5059 56.515 88.9323 56.7559 89.4824C57 90.0326 57.1221 90.6787 57.1221 91.4209ZM51.9121 91.4209C51.9121 91.9189 51.974 92.3486 52.0977 92.71C52.2246 93.068 52.4215 93.3447 52.6885 93.54C52.9554 93.7321 53.3005 93.8281 53.7236 93.8281C54.1533 93.8281 54.5016 93.7321 54.7686 93.54C55.0355 93.3447 55.2292 93.068 55.3496 92.71C55.4733 92.3486 55.5352 91.9189 55.5352 91.4209C55.5352 90.6722 55.3952 90.083 55.1152 89.6533C54.8353 89.2236 54.3747 89.0088 53.7334 89.0088C53.307 89.0088 52.9587 89.1064 52.6885 89.3018C52.4215 89.4938 52.2246 89.7705 52.0977 90.1318C51.974 90.4899 51.9121 90.9196 51.9121 91.4209ZM61.3115 90.9912H64.1436V94.6924C63.7692 94.8161 63.3802 94.9154 62.9766 94.9902C62.5729 95.0618 62.1156 95.0977 61.6045 95.0977C60.8949 95.0977 60.2926 94.9577 59.7979 94.6777C59.3031 94.3978 58.9271 93.9844 58.6699 93.4375C58.4128 92.8906 58.2842 92.2184 58.2842 91.4209C58.2842 90.6722 58.4274 90.0244 58.7139 89.4775C59.0036 88.9307 59.4251 88.5075 59.9785 88.208C60.5352 87.9085 61.2139 87.7588 62.0146 87.7588C62.3923 87.7588 62.765 87.7995 63.1328 87.8809C63.5007 87.9622 63.8343 88.068 64.1338 88.1982L63.6309 89.4092C63.4128 89.2985 63.1637 89.2057 62.8838 89.1309C62.6038 89.056 62.3109 89.0186 62.0049 89.0186C61.5654 89.0186 61.1829 89.1195 60.8574 89.3213C60.5352 89.5231 60.2845 89.8063 60.1055 90.1709C59.9297 90.5322 59.8418 90.9587 59.8418 91.4502C59.8418 91.9157 59.9053 92.3291 60.0322 92.6904C60.1592 93.0485 60.3594 93.3301 60.6328 93.5352C60.9062 93.737 61.2627 93.8379 61.7021 93.8379C61.917 93.8379 62.0977 93.8281 62.2441 93.8086C62.3939 93.7858 62.5339 93.763 62.6641 93.7402V92.251H61.3115V90.9912ZM70.2178 95L69.7002 93.3008H67.0977L66.5801 95H64.9492L67.4688 87.832H69.3193L71.8486 95H70.2178ZM69.3389 92.0312L68.8213 90.3711C68.7887 90.2604 68.7448 90.1188 68.6895 89.9463C68.6374 89.7705 68.5837 89.5931 68.5283 89.4141C68.4762 89.2318 68.4339 89.0739 68.4014 88.9404C68.3688 89.0739 68.3232 89.2399 68.2646 89.4385C68.2093 89.6338 68.1556 89.8193 68.1035 89.9951C68.0514 90.1709 68.014 90.2962 67.9912 90.3711L67.4785 92.0312H69.3389ZM75.7744 95L74.0557 89.3994H74.0117C74.0182 89.5329 74.028 89.7347 74.041 90.0049C74.0573 90.2718 74.0719 90.5566 74.085 90.8594C74.098 91.1621 74.1045 91.4355 74.1045 91.6797V95H72.752V87.8613H74.8125L76.502 93.3203H76.5312L78.3232 87.8613H80.3838V95H78.9727V91.6211C78.9727 91.3965 78.9759 91.1377 78.9824 90.8447C78.9922 90.5518 79.0036 90.2734 79.0166 90.0098C79.0296 89.7428 79.0394 89.5426 79.0459 89.4092H79.002L77.1611 95H75.7744ZM82.1855 95V87.8613H83.6992V95H82.1855ZM91.8291 95H89.9053L86.7998 89.5996H86.7559C86.7689 89.8242 86.7803 90.0505 86.79 90.2783C86.7998 90.5062 86.8096 90.734 86.8193 90.9619C86.8291 91.1865 86.8389 91.4128 86.8486 91.6406V95H85.4961V87.8613H87.4053L90.5059 93.208H90.54C90.5335 92.9867 90.5254 92.7669 90.5156 92.5488C90.5059 92.3307 90.4961 92.1126 90.4863 91.8945C90.4798 91.6764 90.4733 91.4583 90.4668 91.2402V87.8613H91.8291V95ZM96.3408 90.9912H99.1729V94.6924C98.7985 94.8161 98.4095 94.9154 98.0059 94.9902C97.6022 95.0618 97.1449 95.0977 96.6338 95.0977C95.9242 95.0977 95.3219 94.9577 94.8271 94.6777C94.3324 94.3978 93.9564 93.9844 93.6992 93.4375C93.4421 92.8906 93.3135 92.2184 93.3135 91.4209C93.3135 90.6722 93.4567 90.0244 93.7432 89.4775C94.0329 88.9307 94.4544 88.5075 95.0078 88.208C95.5645 87.9085 96.2432 87.7588 97.0439 87.7588C97.4215 87.7588 97.7943 87.7995 98.1621 87.8809C98.5299 87.9622 98.8636 88.068 99.1631 88.1982L98.6602 89.4092C98.4421 89.2985 98.193 89.2057 97.9131 89.1309C97.6331 89.056 97.3402 89.0186 97.0342 89.0186C96.5947 89.0186 96.2122 89.1195 95.8867 89.3213C95.5645 89.5231 95.3138 89.8063 95.1348 90.1709C94.959 90.5322 94.8711 90.9587 94.8711 91.4502C94.8711 91.9157 94.9346 92.3291 95.0615 92.6904C95.1885 93.0485 95.3887 93.3301 95.6621 93.5352C95.9355 93.737 96.292 93.8379 96.7314 93.8379C96.9463 93.8379 97.127 93.8281 97.2734 93.8086C97.4232 93.7858 97.5632 93.763 97.6934 93.7402V92.251H96.3408V90.9912Z" fill="#A05CEB"/>
<path d="M47 52.8071V50.1356C47.0272 50.0733 47.0502 50.0094 47.0697 49.9443C47.1526 49.4342 47.2099 48.9178 47.3119 48.4077C47.8772 45.6315 49.1926 43.0633 51.1151 40.9823C53.0375 38.9012 55.4936 37.3869 58.2163 36.6038C60.9391 35.8207 63.8243 35.7989 66.5585 36.5407C69.2928 37.2825 71.7715 38.7596 73.7252 40.8113C75.6789 42.8631 77.0326 45.4111 77.6398 48.1784C78.2469 50.9457 78.0844 53.8265 77.169 56.5077C76.2537 59.1889 74.6207 61.568 72.4481 63.3863C70.2756 65.2047 67.6461 66.3927 64.8456 66.8215L63.8002 67H61.1926C61.1309 66.973 61.067 66.9517 61.0014 66.9362C57.3329 66.5912 53.9119 64.934 51.3672 62.269C50.6914 61.5804 50.0921 60.7898 49.5055 60.0629C52.1196 55.9696 54.5677 51.8826 56.8247 47.6808C56.863 48.7456 56.8249 49.7976 56.8696 50.8688C56.8875 52.9374 57.101 54.9996 57.5071 57.028C57.6936 58.0496 58.0608 59.0298 58.5912 59.9227C59.006 60.6551 59.6936 61.1937 60.5039 61.421C61.0371 61.5503 61.5946 61.5414 62.1234 61.3952C62.6523 61.2491 63.1351 60.9705 63.5263 60.5858C64.2754 59.9105 64.9312 59.1386 65.477 58.2904C66.9219 56.0802 68.2006 53.7658 69.3025 51.3661L69.6344 50.6711C70.0999 51.6084 70.5331 52.5521 71.0304 53.4574C71.6737 54.7092 72.5376 55.8345 73.5807 56.7793C73.7593 56.9387 73.9505 57.0216 74.1417 56.8367C74.333 56.6518 74.282 56.4605 74.1417 56.2756C73.4791 55.4057 72.9566 54.4376 72.5926 53.4064C71.8208 51.2716 71.3486 49.04 71.1898 46.7754C71.1764 46.4851 71.0728 46.2063 70.8934 45.9777C70.714 45.7491 70.4674 45.5822 70.1886 45.5002C69.837 45.4043 69.4621 45.4459 69.14 45.6164C68.8179 45.7869 68.5729 46.0737 68.4545 46.4184C67.3834 48.7137 66.319 51.0218 65.1968 53.298C64.4533 54.8485 63.5421 56.3131 62.4802 57.6656C62.2095 57.9906 61.9133 58.2933 61.5942 58.571C61.2945 58.8388 61.1606 58.8196 60.9566 58.4753C60.7673 58.1466 60.6091 57.8008 60.4846 57.4424C60.1068 56.1987 59.8776 54.9145 59.8022 53.6168C59.5376 50.1257 59.5376 46.6195 59.8022 43.1284C59.8532 42.3441 59.9621 41.5663 59.994 40.782C60.0291 40.4377 59.9375 40.0924 59.7362 39.8109C59.535 39.5293 59.2377 39.3308 58.9006 39.2526C58.5635 39.1744 58.2097 39.2218 57.905 39.386C57.6004 39.5502 57.3657 39.8198 57.2456 40.1444C56.9715 40.7119 56.6976 41.2857 56.4107 41.8532C53.8275 46.7065 50.9394 51.3916 47.7646 55.8803C47.7264 55.9313 47.7012 55.9887 47.6693 56.0397C47.4799 55.4815 47.3306 54.9105 47.2229 54.3309C47.1528 53.8017 47.0829 53.3044 47 52.8071Z" fill="#A05CEB"/>
</g>
<defs>
<filter id="filter0_d_14_4156" x="0" y="0" width="124" height="124" filterUnits="userSpaceOnUse" color-interpolation-filters="sRGB">
<feFlood flood-opacity="0" result="BackgroundImageFix"/>
<feColorMatrix in="SourceAlpha" type="matrix" values="0 0 0 0 0 0 0 0 0 0 0 0 0 0 0 0 0 0 127 0" result="hardAlpha"/>
<feOffset dy="2"/>
<feGaussianBlur stdDeviation="4"/>
<feColorMatrix type="matrix" values="0 0 0 0 0 0 0 0 0 0 0 0 0 0 0 0 0 0 0.12 0"/>
<feBlend mode="normal" in2="BackgroundImageFix" result="effect1_dropShadow_14_4156"/>
<feBlend mode="normal" in="SourceGraphic" in2="effect1_dropShadow_14_4156" result="shape"/>
</filter>
</defs>
</svg>
