<svg width="124" height="124" viewBox="0 0 124 124" fill="none" xmlns="http://www.w3.org/2000/svg">
<g filter="url(#filter0_d_14_4215)">
<rect x="8" y="6" width="108" height="108" rx="8" fill="#282A2F"/>
<path d="M49.7002 95H47.7764L44.6709 89.5996H44.627C44.64 89.8242 44.6514 90.0505 44.6611 90.2783C44.6709 90.5062 44.6807 90.734 44.6904 90.9619C44.7002 91.1865 44.71 91.4128 44.7197 91.6406V95H43.3672V87.8613H45.2764L48.377 93.208H48.4111C48.4046 92.9867 48.3965 92.7669 48.3867 92.5488C48.377 92.3307 48.3672 92.1126 48.3574 91.8945C48.3509 91.6764 48.3444 91.4583 48.3379 91.2402V87.8613H49.7002V95ZM55.6133 95H51.502V87.8613H55.6133V89.1016H53.0156V90.6689H55.4326V91.9092H53.0156V93.75H55.6133V95ZM59.8613 95H58.3477V89.1211H56.4092V87.8613H61.7998V89.1211H59.8613V95ZM67.0098 95H62.8984V87.8613H67.0098V89.1016H64.4121V90.6689H66.8291V91.9092H64.4121V93.75H67.0098V95ZM74.8369 95H72.9131L69.8076 89.5996H69.7637C69.7767 89.8242 69.7881 90.0505 69.7979 90.2783C69.8076 90.5062 69.8174 90.734 69.8271 90.9619C69.8369 91.1865 69.8467 91.4128 69.8564 91.6406V95H68.5039V87.8613H70.4131L73.5137 93.208H73.5479C73.5413 92.9867 73.5332 92.7669 73.5234 92.5488C73.5137 92.3307 73.5039 92.1126 73.4941 91.8945C73.4876 91.6764 73.4811 91.4583 73.4746 91.2402V87.8613H74.8369V95ZM79.3926 95H77.8789V89.1211H75.9404V87.8613H81.3311V89.1211H79.3926V95Z" fill="#A05CEB"/>
<path d="M65.9332 38C65.978 38.4267 66.051 38.8482 66.0566 39.2749C66.0566 40.6382 66.0566 42.0067 66.0566 43.4377H77V46.7263H68.5948V50.3687H75.7504V53.6365H68.5948V57.3778H76.9554V60.656H66.0229V66H65.1208V38H65.9332Z" fill="#A05CEB"/>
<path d="M49 60.6408V43.4952C49.9358 43.4952 50.8716 43.4379 51.8017 43.4952C52.1302 43.5649 52.416 43.7518 52.5974 44.0155C54.6931 47.0492 56.7607 50.1036 58.8339 53.1529C58.9796 53.3663 59.1365 53.5744 59.3943 53.9438V43.5368H63.1038V60.672C62.0672 60.672 61.0137 60.698 59.9658 60.672C59.7809 60.672 59.585 60.3806 59.4561 60.1933C57.3716 57.144 55.2963 54.0947 53.2305 51.0455C53.0736 50.8113 52.9056 50.5824 52.631 50.1973V60.6772L49 60.6408Z" fill="#A05CEB"/>
</g>
<defs>
<filter id="filter0_d_14_4215" x="0" y="0" width="124" height="124" filterUnits="userSpaceOnUse" color-interpolation-filters="sRGB">
<feFlood flood-opacity="0" result="BackgroundImageFix"/>
<feColorMatrix in="SourceAlpha" type="matrix" values="0 0 0 0 0 0 0 0 0 0 0 0 0 0 0 0 0 0 127 0" result="hardAlpha"/>
<feOffset dy="2"/>
<feGaussianBlur stdDeviation="4"/>
<feColorMatrix type="matrix" values="0 0 0 0 0 0 0 0 0 0 0 0 0 0 0 0 0 0 0.12 0"/>
<feBlend mode="normal" in2="BackgroundImageFix" result="effect1_dropShadow_14_4215"/>
<feBlend mode="normal" in="SourceGraphic" in2="effect1_dropShadow_14_4215" result="shape"/>
</filter>
</defs>
</svg>
