<svg width="124" height="124" viewBox="0 0 124 124" fill="none" xmlns="http://www.w3.org/2000/svg">
<g filter="url(#filter0_d_14_4004)">
<rect x="8" y="6" width="108" height="108" rx="8" fill="#282A2F"/>
<path d="M46.043 87.8613C46.9642 87.8613 47.6364 88.0599 48.0596 88.457C48.4827 88.8509 48.6943 89.3945 48.6943 90.0879C48.6943 90.4004 48.6471 90.6999 48.5527 90.9863C48.4583 91.2695 48.3037 91.5218 48.0889 91.7432C47.8773 91.9645 47.5941 92.1403 47.2393 92.2705C46.8844 92.3975 46.4466 92.4609 45.9258 92.4609H45.2764V95H43.7627V87.8613H46.043ZM45.9648 89.1016H45.2764V91.2207H45.7744C46.0576 91.2207 46.3034 91.1833 46.5117 91.1084C46.7201 91.0335 46.8812 90.9163 46.9951 90.7568C47.109 90.5973 47.166 90.3923 47.166 90.1416C47.166 89.79 47.0684 89.5296 46.873 89.3604C46.6777 89.1878 46.375 89.1016 45.9648 89.1016ZM52.752 90.9912H55.584V94.6924C55.2096 94.8161 54.8206 94.9154 54.417 94.9902C54.0133 95.0618 53.556 95.0977 53.0449 95.0977C52.3353 95.0977 51.7331 94.9577 51.2383 94.6777C50.7435 94.3978 50.3675 93.9844 50.1104 93.4375C49.8532 92.8906 49.7246 92.2184 49.7246 91.4209C49.7246 90.6722 49.8678 90.0244 50.1543 89.4775C50.444 88.9307 50.8656 88.5075 51.4189 88.208C51.9756 87.9085 52.6543 87.7588 53.4551 87.7588C53.8327 87.7588 54.2054 87.7995 54.5732 87.8809C54.9411 87.9622 55.2747 88.068 55.5742 88.1982L55.0713 89.4092C54.8532 89.2985 54.6042 89.2057 54.3242 89.1309C54.0443 89.056 53.7513 89.0186 53.4453 89.0186C53.0059 89.0186 52.6234 89.1195 52.2979 89.3213C51.9756 89.5231 51.7249 89.8063 51.5459 90.1709C51.3701 90.5322 51.2822 90.9587 51.2822 91.4502C51.2822 91.9157 51.3457 92.3291 51.4727 92.6904C51.5996 93.0485 51.7998 93.3301 52.0732 93.5352C52.3467 93.737 52.7031 93.8379 53.1426 93.8379C53.3574 93.8379 53.5381 93.8281 53.6846 93.8086C53.8343 93.7858 53.9743 93.763 54.1045 93.7402V92.251H52.752V90.9912ZM61.502 93.0176C61.502 93.4408 61.3994 93.8086 61.1943 94.1211C60.9893 94.4336 60.6898 94.6745 60.2959 94.8438C59.9053 95.013 59.43 95.0977 58.8701 95.0977C58.6227 95.0977 58.3802 95.0814 58.1426 95.0488C57.9082 95.0163 57.682 94.9691 57.4639 94.9072C57.249 94.8421 57.0439 94.7624 56.8486 94.668V93.2617C57.1872 93.4115 57.5387 93.5465 57.9033 93.667C58.2679 93.7874 58.6292 93.8477 58.9873 93.8477C59.2347 93.8477 59.4333 93.8151 59.583 93.75C59.736 93.6849 59.8467 93.5954 59.915 93.4814C59.9834 93.3675 60.0176 93.2373 60.0176 93.0908C60.0176 92.9118 59.9574 92.7588 59.8369 92.6318C59.7165 92.5049 59.5505 92.3861 59.3389 92.2754C59.1305 92.1647 58.8945 92.0459 58.6309 91.9189C58.4648 91.8408 58.2842 91.7464 58.0889 91.6357C57.8936 91.5218 57.708 91.3835 57.5322 91.2207C57.3564 91.0579 57.2116 90.861 57.0977 90.6299C56.987 90.3955 56.9316 90.1156 56.9316 89.79C56.9316 89.3636 57.0293 88.999 57.2246 88.6963C57.4199 88.3936 57.6982 88.1624 58.0596 88.0029C58.4242 87.8402 58.8538 87.7588 59.3486 87.7588C59.7197 87.7588 60.0729 87.8027 60.4082 87.8906C60.7467 87.9753 61.0999 88.099 61.4678 88.2617L60.9795 89.4385C60.6507 89.305 60.3561 89.2025 60.0957 89.1309C59.8353 89.056 59.57 89.0186 59.2998 89.0186C59.111 89.0186 58.9499 89.0495 58.8164 89.1113C58.6829 89.1699 58.582 89.2546 58.5137 89.3652C58.4453 89.4727 58.4111 89.598 58.4111 89.7412C58.4111 89.9105 58.46 90.0537 58.5576 90.1709C58.6585 90.2848 58.8083 90.3955 59.0068 90.5029C59.2087 90.6104 59.4593 90.7357 59.7588 90.8789C60.1234 91.0514 60.4342 91.2321 60.6914 91.4209C60.9518 91.6064 61.152 91.8262 61.292 92.0801C61.432 92.3307 61.502 92.6432 61.502 93.0176ZM69.2754 91.4209C69.2754 91.971 69.207 92.4723 69.0703 92.9248C68.9336 93.374 68.7253 93.7614 68.4453 94.0869C68.1686 94.4124 67.8171 94.6631 67.3906 94.8389C66.9642 95.0114 66.4596 95.0977 65.877 95.0977C65.2943 95.0977 64.7897 95.0114 64.3633 94.8389C63.9368 94.6631 63.5837 94.4124 63.3037 94.0869C63.027 93.7614 62.8203 93.3724 62.6836 92.9199C62.5469 92.4674 62.4785 91.9645 62.4785 91.4111C62.4785 90.6722 62.599 90.0293 62.8398 89.4824C63.084 88.9323 63.4583 88.5059 63.9629 88.2031C64.4674 87.9004 65.1087 87.749 65.8867 87.749C66.6615 87.749 67.2979 87.9004 67.7959 88.2031C68.2972 88.5059 68.6683 88.9323 68.9092 89.4824C69.1533 90.0326 69.2754 90.6787 69.2754 91.4209ZM64.0654 91.4209C64.0654 91.9189 64.1273 92.3486 64.251 92.71C64.3779 93.068 64.5749 93.3447 64.8418 93.54C65.1087 93.7321 65.4538 93.8281 65.877 93.8281C66.3066 93.8281 66.6549 93.7321 66.9219 93.54C67.1888 93.3447 67.3825 93.068 67.5029 92.71C67.6266 92.3486 67.6885 91.9189 67.6885 91.4209C67.6885 90.6722 67.5485 90.083 67.2686 89.6533C66.9886 89.2236 66.528 89.0088 65.8867 89.0088C65.4603 89.0088 65.112 89.1064 64.8418 89.3018C64.5749 89.4938 64.3779 89.7705 64.251 90.1318C64.1273 90.4899 64.0654 90.9196 64.0654 91.4209ZM72.2441 95H70.7549V87.8613H74.8467V89.1016H72.2441V90.9424H74.666V92.1777H72.2441V95ZM78.9971 95H77.4834V89.1211H75.5449V87.8613H80.9355V89.1211H78.9971V95Z" fill="#A05CEB"/>
<path d="M44.7398 40.0564V41.8445C44.1797 41.8445 43.6195 41.8445 43.0303 41.8445V40.0483L44.7398 40.0564Z" fill="#A05CEB"/>
<path d="M46.6307 40.0564V41.8445C46.0705 41.8445 45.5104 41.8445 44.9211 41.8445V40.0483L46.6307 40.0564Z" fill="#A05CEB"/>
<path d="M77.117 40.0564V41.7962H77.0808H77.0446H75.4004V40L77.117 40.0564Z" fill="#A05CEB"/>
<path d="M75.2116 40.0564V41.7962H75.175H75.1388H73.4946V40L75.2116 40.0564Z" fill="#A05CEB"/>
<path d="M69.3992 40.0564V41.7962H69.3555H67.7117V40L69.3992 40.0564Z" fill="#A05CEB"/>
<path d="M56.2552 40.0564V41.7962H56.2186H56.1824H54.5386V40L56.2552 40.0564Z" fill="#A05CEB"/>
<path d="M54.3486 40.0564V41.7962H54.3049H52.6611V40L54.3486 40.0564Z" fill="#A05CEB"/>
<path d="M52.4419 40.0564V41.7962H52.3982H50.7544V40L52.4419 40.0564Z" fill="#A05CEB"/>
<path d="M73.2105 40.0564V41.8445C72.9487 41.8445 72.6867 41.8445 72.4249 41.8445H71.5884V40.0483L73.2105 40.0564Z" fill="#A05CEB"/>
<path d="M71.3055 40.0564V41.8445C71.0436 41.8445 70.7817 41.8445 70.5198 41.8445H69.6833V40.0483L71.3055 40.0564Z" fill="#A05CEB"/>
<path d="M58.1607 40.0564V41.8445C57.8989 41.8445 57.6369 41.8445 57.375 41.8445H56.5386V40.0483L58.1607 40.0564Z" fill="#A05CEB"/>
<path d="M50.4417 40.0564V41.8445C50.1799 41.8445 49.9179 41.8445 49.6561 41.8445H48.8196V40.0483L50.4417 40.0564Z" fill="#A05CEB"/>
<path d="M48.5367 40.0564V41.8445C48.2821 41.8445 48.0129 41.8445 47.751 41.8445H46.9216V40.0483L48.5367 40.0564Z" fill="#A05CEB"/>
<path d="M85.9779 65.1151H85.7087V64.3097L85.3595 64.9621C85.0904 64.8574 85.0905 64.5916 84.945 64.358V65.1232H84.6758C84.6758 64.656 84.6758 64.1888 84.6758 63.7136C84.7089 63.6924 84.7459 63.6796 84.7841 63.6764C84.8223 63.6732 84.8607 63.6796 84.8964 63.6951C84.932 63.7106 84.9641 63.7348 84.9901 63.7659C85.0162 63.797 85.0357 63.8342 85.047 63.8747L85.3013 64.4627C85.534 64.2533 85.5343 63.915 85.7598 63.6572H85.9999L85.9779 65.1151Z" fill="#A05CEB"/>
<path d="M66.0526 66.9999H65.2236V65.7595C65.1144 65.7595 64.998 65.7595 64.9543 65.7595C64.8776 65.8725 64.8164 65.9973 64.7725 66.13H64.467L64.4304 65.7434H64.1686V66.9758H63.3247V63.6331H63.6451L63.8195 64.0358H64.147V64.4224H64.4961L64.5324 64.8493H64.787V64.4546H65.1507V64.0358H65.5216V63.6411H66.0018L66.0526 66.9999Z" fill="#A05CEB"/>
<path d="M68.3446 64.8894V65.7351H67.2315V66.162H68.6863V66.9675H68.6426H66.3513V63.6167H68.7446V64.4222H67.2535V64.8491L68.3446 64.8894Z" fill="#A05CEB"/>
<path d="M51.7881 66.9919V63.6572H54.1377V64.4627H52.6828V64.8574H53.774V65.7031H52.6611V66.13H54.1597V66.9355L51.7881 66.9919Z" fill="#A05CEB"/>
<path d="M51.475 66.9999H50.646V65.7756H49.9768V66.9919H49.1038V63.6653H49.9477V64.8896H50.6023V63.6572H51.4533V64.8977H51.1113V65.7031L51.4608 65.7434L51.475 66.9999Z" fill="#A05CEB"/>
<path d="M71.0147 66.5731V67H69.1378V66.1945H70.5927C70.5927 65.9367 70.5928 65.9367 70.4836 65.7595H69.5161C69.4434 65.389 69.4432 65.389 69.1304 65.3407V64.0922H69.4795V63.6733H71.3784V64.4788C71.1529 64.4788 70.8983 64.4788 70.6509 64.4788H69.8798V64.8896H70.9926V65.3165H71.3564V66.565L71.0147 66.5731Z" fill="#A05CEB"/>
<path d="M74.4322 65.3326H74.8105V66.573H74.4613V66.9597H72.5774V66.1542H74.0759V65.7434H72.9702L72.9265 65.3246H72.5845V64.0519H72.9336V63.6331H74.8325V64.4385H73.341V64.8332C73.3747 64.84 73.4093 64.84 73.443 64.8332H74.4542L74.4322 65.3326Z" fill="#A05CEB"/>
<path d="M58.3639 66.5889H57.9856V64.0839H58.3422V63.6973H59.8478V64.5027H58.7276C58.7276 64.7927 58.7276 65.0666 58.7276 65.3082V66.162H59.455V65.7754H59.0913V64.9296H60.1899V66.5889H59.8333V66.9836H58.3202L58.3639 66.5889Z" fill="#A05CEB"/>
<path d="M48.4418 64.0519H48.813V64.8574H47.9836L47.9474 64.4708H47.329L47.2199 64.5996V66.1301H47.9474V65.7354C48.2092 65.7354 48.4493 65.7354 48.6748 65.7354C48.944 65.969 48.7694 66.275 48.8421 66.5408H48.4418L48.3111 66.9597H46.8562V66.565H46.5071V64.06H46.8633V63.6653H48.3182L48.4418 64.0519Z" fill="#A05CEB"/>
<path d="M77.8879 66.9919V63.6572H80.143V64.4627H78.6882V64.8574H79.7868V65.7192H78.9283C78.8264 65.7374 78.7264 65.7671 78.6299 65.8078V66.9597L77.8879 66.9919Z" fill="#A05CEB"/>
<path d="M82.9074 64.3497L82.7764 64.4947H82.1725V66.9917H81.3215V64.5027H80.5579V63.6973H82.9074V64.3497Z" fill="#A05CEB"/>
<path d="M56.065 64.4705V66.9917H55.3375C55.3012 66.1862 55.3375 65.3807 55.3375 64.5027H54.6101C54.6101 64.2208 54.6101 63.947 54.6101 63.6973H56.8872C56.8872 63.9389 56.8872 64.2128 56.8872 64.5027L56.065 64.4705Z" fill="#A05CEB"/>
<path d="M41.022 60.9988V59.2107C41.1128 59.1679 41.2078 59.1382 41.3054 59.1221H42.6804L42.8114 59.2751V61.0069L41.022 60.9988Z" fill="#A05CEB"/>
<path d="M42.804 43.9232L42.6878 44.0521H41.1019C41.0685 43.9496 41.0419 43.8446 41.022 43.7379C41.022 43.2305 41.022 42.723 41.022 42.1914H42.8114L42.804 43.9232Z" fill="#A05CEB"/>
<path d="M42.6949 46.3955L42.8114 46.5244V48.2562H41.022V46.5244L41.1381 46.3955H42.6949Z" fill="#A05CEB"/>
<path d="M42.8121 57.1567V58.8885H41.0298C41.0298 58.3247 41.0298 57.7447 41.0298 57.1728L41.1388 57.0439H42.7247C42.7466 57.052 42.7758 57.1164 42.8121 57.1567Z" fill="#A05CEB"/>
<path d="M41.1461 44.2776H42.8045V46.0335L42.6738 46.1544H41.0442C41.0442 45.5664 41.0442 44.9783 41.0442 44.3984C41.0442 44.3581 41.1025 44.3259 41.1461 44.2776Z" fill="#A05CEB"/>
<path d="M41.0146 52.8076H42.804V54.5555L42.6879 54.6844H41.1019C41.0564 54.6076 41.0219 54.5233 41 54.4347C41.0073 53.895 41.0146 53.3876 41.0146 52.8076Z" fill="#A05CEB"/>
<path d="M41.0298 55.0464L41.1463 54.9094H42.8047V56.6573L42.6885 56.7942H41.1463L41.0298 56.6573V55.0464Z" fill="#A05CEB"/>
<path d="M46.6232 52.8149V54.6756H44.9211C44.9211 54.0715 44.9211 53.4513 44.9211 52.8149H46.6232Z" fill="#A05CEB"/>
<path d="M54.3416 54.926V56.7786H52.6683C52.6651 56.7725 52.6633 56.7656 52.6633 56.7585C52.6633 56.7514 52.6651 56.7445 52.6683 56.7383V54.9421L54.3416 54.926Z" fill="#A05CEB"/>
<path d="M67.478 54.6841H65.8342V52.7993C66.3725 52.7993 66.94 52.7993 67.5146 52.7993L67.478 54.6841Z" fill="#A05CEB"/>
<path d="M75.2045 42.1831V44.0438H73.5024C73.5024 43.4396 73.5024 42.8194 73.5024 42.1831H75.2045Z" fill="#A05CEB"/>
<path d="M67.4855 54.926V56.7867H65.7834C65.7834 56.1826 65.7834 55.5624 65.7834 54.926H67.4855Z" fill="#A05CEB"/>
<path d="M77.3218 54.9175H79.0022V56.762H78.9656H77.3363L77.3218 54.9175Z" fill="#A05CEB"/>
<path d="M54.5532 42.1755H56.2407V44.0523C55.6952 44.0523 55.1352 44.0523 54.5532 44.0523V42.1755Z" fill="#A05CEB"/>
<path d="M54.3413 42.1831V44.0438H52.6389C52.6389 43.4396 52.6389 42.8194 52.6389 42.1831H54.3413Z" fill="#A05CEB"/>
<path d="M44.739 46.138H43.0586V44.2854C43.6042 44.2854 44.1643 44.2854 44.739 44.2854V46.138Z" fill="#A05CEB"/>
<path d="M54.5447 46.138V44.2854H56.2542V46.138H54.5447Z" fill="#A05CEB"/>
<path d="M46.6232 54.926V56.7867H44.9211C44.9211 56.1826 44.9211 55.5624 44.9211 54.926H46.6232Z" fill="#A05CEB"/>
<path d="M43.0303 54.9175H44.7398V56.7862C44.2015 56.7862 43.6341 56.7862 43.0594 56.7862L43.0303 54.9175Z" fill="#A05CEB"/>
<path d="M63.8923 44.2776H65.5727V46.1382H63.8923V44.2776Z" fill="#A05CEB"/>
<path d="M67.4855 44.2856V46.1382H65.7834C65.7834 45.5422 65.7834 44.922 65.7834 44.2776L67.4855 44.2856Z" fill="#A05CEB"/>
<path d="M54.334 54.6839H52.6465V52.8313H52.6827H54.3123L54.334 54.6839Z" fill="#A05CEB"/>
<path d="M77.3209 44.2693H79.0013C79.0013 44.8895 79.0013 45.5097 79.0013 46.146H77.2917C77.299 45.5339 77.2918 44.9056 77.3209 44.2693Z" fill="#A05CEB"/>
<path d="M44.9353 42.1755H46.6157V44.0604H44.9353V42.1755Z" fill="#A05CEB"/>
<path d="M54.5526 52.7993H56.2401C56.2401 53.4195 56.2401 54.0398 56.2401 54.6761H54.538C54.5308 54.0639 54.5308 53.4276 54.5526 52.7993Z" fill="#A05CEB"/>
<path d="M44.7392 57.0283V58.889H43.0442C43.0442 58.2849 43.0442 57.6646 43.0442 57.0283H44.7392Z" fill="#A05CEB"/>
<path d="M67.478 58.897H65.8342V57.0122H67.5146L67.478 58.897Z" fill="#A05CEB"/>
<path d="M75.2044 59.1382V60.9908H73.5315V59.1946L75.2044 59.1382Z" fill="#A05CEB"/>
<path d="M65.5802 46.3955V48.2562H63.9072C63.9072 47.6601 63.9072 47.064 63.9072 46.4599L65.5802 46.3955Z" fill="#A05CEB"/>
<path d="M67.478 48.2642H65.8342V46.3794C66.3725 46.3794 66.94 46.3794 67.5146 46.3794L67.478 48.2642Z" fill="#A05CEB"/>
<path d="M73.5024 58.889V57.0283H75.2045C75.2045 57.6324 75.2045 58.2526 75.2045 58.889H73.5024Z" fill="#A05CEB"/>
<path d="M75.4075 58.889V57.0283H77.1095C77.1095 57.6324 77.1095 58.2526 77.1095 58.889H75.4075Z" fill="#A05CEB"/>
<path d="M65.5727 54.6844H63.8923V52.8076C64.4306 52.8076 64.9981 52.8076 65.5727 52.8076V54.6844Z" fill="#A05CEB"/>
<path d="M63.8779 56.7867V54.926C64.4308 54.926 64.9982 54.926 65.5729 54.926V56.8108C65.02 56.8108 64.4453 56.8108 63.8779 56.7867Z" fill="#A05CEB"/>
<path d="M79.0161 57.0283V58.889H77.3137V57.1572L77.4302 57.0283H79.0161Z" fill="#A05CEB"/>
<path d="M41.0298 48.5947H42.8047V50.3668C42.23 50.3668 41.6408 50.3668 41.0298 50.3668V48.5947Z" fill="#A05CEB"/>
<path d="M69.3843 58.8968H67.7039V57.1489L67.8278 57.02H69.3843V58.8968Z" fill="#A05CEB"/>
<path d="M82.7909 54.6839H81.2271V52.8313H81.2707H82.8783C82.8783 53.4354 82.8783 54.0153 82.8783 54.6033C82.8929 54.6114 82.8273 54.6436 82.7909 54.6839Z" fill="#A05CEB"/>
<path d="M43.0303 46.3875H44.6379C44.6811 46.4867 44.7106 46.5926 44.7252 46.7016C44.7252 47.209 44.7252 47.7165 44.7252 48.2481H43.0303V46.3875Z" fill="#A05CEB"/>
<path d="M80.9069 54.6844H79.2989C79.259 54.5866 79.2299 54.4838 79.2119 54.3783C79.2119 53.8709 79.2119 53.3634 79.2119 52.8479H79.2556H80.8777L80.9069 54.6844Z" fill="#A05CEB"/>
<path d="M79.0161 59.1304V60.991H77.3137C77.3137 60.7252 77.3137 60.4352 77.3137 60.1453V59.2754L77.4448 59.1304H79.0161Z" fill="#A05CEB"/>
<path d="M42.812 50.7131V52.4691H41.0151C41.0151 52.1952 41.0151 51.9052 41.0151 51.6153V50.7131H42.812Z" fill="#A05CEB"/>
<path d="M44.739 61.0069H43.0586V59.1221C43.5678 59.1221 44.0989 59.1221 44.6154 59.1221L44.739 59.2671V61.0069Z" fill="#A05CEB"/>
<path d="M77.1095 59.1382V60.9908H75.4075V59.2671L75.5236 59.1382H77.1095Z" fill="#A05CEB"/>
<path d="M71.5957 60.9908V59.1382H73.1816L73.2978 59.2832V60.9908H71.5957Z" fill="#A05CEB"/>
<path d="M44.5942 44.0521H43.0303V42.1914H44.6961C44.6961 42.7713 44.6961 43.3513 44.6961 43.9393C44.6888 43.9796 44.6305 44.0118 44.5942 44.0521Z" fill="#A05CEB"/>
<path d="M79.0161 42.1831V44.0438H77.4302L77.3137 43.8988V42.1831H79.0161Z" fill="#A05CEB"/>
<path d="M67.8138 56.7862L67.6973 56.6493V54.9175H69.3993V56.7862H67.8138Z" fill="#A05CEB"/>
<path d="M75.4148 42.1755H77.0952V44.0523H75.5313L75.4148 43.9234V42.1755Z" fill="#A05CEB"/>
<path d="M71.5957 44.0438V42.1831H73.2978V43.9149C73.2554 43.9537 73.2167 43.9968 73.1816 44.0438H71.5957Z" fill="#A05CEB"/>
<path d="M69.5881 42.1831H71.2973V44.0599C70.9991 44.0599 70.701 44.0599 70.41 44.0599C70.1191 44.0599 69.8427 44.1807 69.5881 43.931V42.1831Z" fill="#A05CEB"/>
<path d="M50.7476 54.9175H52.4063C52.5301 55.5409 52.4975 56.1899 52.3118 56.7942H50.7476V54.9175Z" fill="#A05CEB"/>
<path d="M69.3848 44.0521H67.8209L67.6973 43.9151V42.1914H69.3848V44.0521Z" fill="#A05CEB"/>
<path d="M67.479 44.0599H65.9151L65.7915 43.8988V42.1831H67.479C67.5081 42.7953 67.5008 43.4316 67.479 44.0599Z" fill="#A05CEB"/>
<path d="M44.739 52.8149V54.5467L44.6225 54.6756H43.0586V52.8149H44.739Z" fill="#A05CEB"/>
<path d="M58.1532 42.1831V44.0438H56.5673L56.4512 43.9149V42.1831H58.1532Z" fill="#A05CEB"/>
<path d="M50.7476 42.1755H52.4063C52.5279 42.7991 52.4953 43.4475 52.3118 44.0523H50.7476V42.1755Z" fill="#A05CEB"/>
<path d="M69.3921 59.1145V60.9913H67.6897V59.2112C67.7811 59.1705 67.8763 59.1408 67.9735 59.1226L69.3921 59.1145Z" fill="#A05CEB"/>
<path d="M50.7476 52.8076H52.4134C52.4134 53.4037 52.4134 53.9836 52.4134 54.5716C52.4134 54.5716 52.3553 54.6441 52.3189 54.6844H50.755L50.7476 52.8076Z" fill="#A05CEB"/>
<path d="M56.4434 46.0496V44.4387L56.5744 44.2937H58.1458V46.1382C57.8694 46.1382 57.5712 46.1382 57.2802 46.1382C56.9892 46.1382 56.7198 46.2591 56.4434 46.0496Z" fill="#A05CEB"/>
<path d="M81.2205 56.7867V54.926H82.7989L82.9154 55.0549V56.6659L82.7989 56.8028L81.2205 56.7867Z" fill="#A05CEB"/>
<path d="M69.3843 46.138H67.8204L67.7039 46.0091V44.3982L67.842 44.2693H69.3843V46.138Z" fill="#A05CEB"/>
<path d="M58.1458 48.2642H56.5815C56.4599 47.692 56.4182 47.1025 56.4579 46.5163L56.589 46.3875H58.1458V48.2642Z" fill="#A05CEB"/>
<path d="M79.3359 44.2776H80.9073V46.1382H79.343L79.1978 45.9852L79.3359 44.2776Z" fill="#A05CEB"/>
<path d="M79.2992 44.0438C79.2992 43.9471 79.1902 43.8263 79.2193 43.7699C79.3093 43.4442 79.3391 43.1017 79.3067 42.763C79.3067 42.5697 79.3067 42.3845 79.3067 42.1831H80.8997V44.0438H79.2992Z" fill="#A05CEB"/>
<path d="M48.5212 44.0521H46.9207C46.9397 43.4291 46.9006 42.8056 46.8042 42.1914H48.5066L48.5212 44.0521Z" fill="#A05CEB"/>
<path d="M56.5532 52.8076H58.1463V54.6924H56.5532V52.8076Z" fill="#A05CEB"/>
<path d="M50.4274 54.6844H48.8418V52.8076C49.0818 52.8076 49.3438 52.8076 49.6129 52.8076H50.4274V54.6844Z" fill="#A05CEB"/>
<path d="M48.5291 52.8149V54.6756H46.9216C46.9184 54.6597 46.9184 54.6432 46.9216 54.6273V52.8311L48.5291 52.8149Z" fill="#A05CEB"/>
<path d="M46.9216 54.9175H48.5076V56.7942C48.2675 56.7942 47.9983 56.7942 47.7364 56.7942H46.9216V54.9175Z" fill="#A05CEB"/>
<path d="M50.4351 54.926V56.7867H48.8567C48.8528 56.7736 48.8528 56.7595 48.8567 56.7464C48.8567 56.1503 48.8567 55.5543 48.8567 54.9502L50.4351 54.926Z" fill="#A05CEB"/>
<path d="M79.0087 50.7131V52.4691H77.3137C77.3137 52.1952 77.3137 51.9052 77.3137 51.6153V50.7131H79.0087Z" fill="#A05CEB"/>
<path d="M77.1095 50.7131V52.4691H75.4075C75.4075 52.1952 75.4075 51.9052 75.4075 51.6153V50.7131H77.1095Z" fill="#A05CEB"/>
<path d="M75.1974 52.4771H73.5095V50.697H75.1974V52.4771Z" fill="#A05CEB"/>
<path d="M67.478 52.4774H65.8342V50.7053C66.3725 50.7053 66.9327 50.7053 67.5146 50.7053L67.478 52.4774Z" fill="#A05CEB"/>
<path d="M65.5727 52.4774H63.8923V50.7053C64.4306 50.7053 64.9981 50.7053 65.5727 50.7053V52.4774Z" fill="#A05CEB"/>
<path d="M79.3137 56.7867V54.926H80.9217C80.9217 55.5221 80.9217 56.1423 80.9217 56.7867H79.3137Z" fill="#A05CEB"/>
<path d="M56.2467 50.7131V52.4691H54.5447C54.5447 52.1952 54.5447 51.9052 54.5447 51.6153V50.7131H56.2467Z" fill="#A05CEB"/>
<path d="M77.3508 48.5547H79.0167C79.0167 49.1427 79.0167 49.7226 79.0167 50.3267H77.3508C77.2815 49.7385 77.2815 49.1429 77.3508 48.5547Z" fill="#A05CEB"/>
<path d="M77.1169 48.6028V50.3587C76.5567 50.3587 75.9967 50.3587 75.4148 50.3587V48.5786C75.9725 48.5625 76.5398 48.5706 77.1169 48.6028Z" fill="#A05CEB"/>
<path d="M73.5024 50.3582V48.6023H75.2045C75.2045 48.8762 75.2045 49.1661 75.2045 49.4561V50.3582H73.5024Z" fill="#A05CEB"/>
<path d="M69.7046 57.02H71.2905V58.8968C71.0432 58.8968 70.7813 58.8968 70.5194 58.8968H69.7046V57.02Z" fill="#A05CEB"/>
<path d="M71.5888 57.0122H73.1598C73.1648 57.0278 73.1648 57.0449 73.1598 57.0605V58.8567H71.5522C71.5741 58.2768 71.6034 57.6405 71.5888 57.0122Z" fill="#A05CEB"/>
<path d="M67.4855 48.6023V50.3582H65.7834C65.7834 50.0924 65.7834 49.8025 65.7834 49.5125V48.6023H67.4855Z" fill="#A05CEB"/>
<path d="M65.5727 50.367H63.8923V48.5547H65.5727V50.367Z" fill="#A05CEB"/>
<path d="M44.739 50.3668H43.0586V48.5947H44.739V50.3668Z" fill="#A05CEB"/>
<path d="M80.9137 57.0283V58.889H79.3062V57.0283H80.9137Z" fill="#A05CEB"/>
<path d="M60.0585 46.3955V48.2562H58.458C58.458 47.6521 58.458 47.0318 58.458 46.3955H60.0585Z" fill="#A05CEB"/>
<path d="M58.4588 44.2693H60.0156C60.019 44.2824 60.019 44.2964 60.0156 44.3096V46.138H58.408C58.4371 45.5339 58.4369 44.9056 58.4588 44.2693Z" fill="#A05CEB"/>
<path d="M50.4274 44.0513H48.8418V42.1665H50.4274V44.0513Z" fill="#A05CEB"/>
<path d="M71.2975 59.1382V60.9908H69.6899C69.6899 60.3947 69.6899 59.7745 69.6899 59.1382H71.2975Z" fill="#A05CEB"/>
<path d="M43.0303 50.7053H44.7398V52.4774C44.2015 52.4774 43.6341 52.4774 43.0594 52.4774L43.0303 50.7053Z" fill="#A05CEB"/>
<path d="M81.2271 50.7053H82.9291C82.9291 51.0033 82.9291 51.2933 82.9291 51.5833C82.9291 51.8733 82.8563 52.1471 82.8126 52.4613H81.2342L81.2271 50.7053Z" fill="#A05CEB"/>
<path d="M60.0595 50.7131V52.4691H58.4519C58.4519 52.1952 58.4519 51.9052 58.4519 51.6153V50.7131H60.0595Z" fill="#A05CEB"/>
<path d="M56.5532 50.7053H58.1463V52.4774C57.8989 52.4774 57.637 52.4774 57.3751 52.4774H56.5532V50.7053Z" fill="#A05CEB"/>
<path d="M81.2271 48.5947H82.8126V50.3748C82.5726 50.3748 82.3106 50.3748 82.0415 50.3748C81.7723 50.3748 81.5107 50.3748 81.2271 50.3748V48.5947Z" fill="#A05CEB"/>
<path d="M80.9075 50.3668H79.3215V48.5947C79.5689 48.5947 79.8308 48.5947 80.0927 48.5947H80.9075V50.3668Z" fill="#A05CEB"/>
<path d="M60.051 50.3668H58.458V48.5947C58.7053 48.5947 58.9672 48.5947 59.2291 48.5947H60.051V50.3668Z" fill="#A05CEB"/>
<path d="M56.5532 48.5947H58.1463V50.3748C57.8989 50.3748 57.637 50.3748 57.3751 50.3748C57.1133 50.3748 56.8369 50.3748 56.5532 50.3748V48.5947Z" fill="#A05CEB"/>
<path d="M79.3137 52.4691V50.7131H80.9217C80.9217 50.9789 80.9217 51.2689 80.9217 51.5186C80.9217 51.7683 80.9217 52.1147 80.9217 52.4288L79.3137 52.4691Z" fill="#A05CEB"/>
<path d="M84.0204 63.8586H83.6421V63.6733H84.5876V63.8264L84.1951 63.8747V65.1071H84.0204V63.8586Z" fill="#A05CEB"/>
<path d="M62.5536 64.06V63.6653H61.0259V64.06H60.6768V67H61.4042V66.3395L61.5495 66.1864H62.197V66.9919H62.9244V64.06H62.5536ZM62.1607 65.3165C61.9207 65.3165 61.6734 65.3165 61.4333 65.3165V64.511C61.6752 64.4844 61.9189 64.4844 62.1607 64.511V65.3165Z" fill="#A05CEB"/>
<path d="M77.0948 64.0358V63.6572H75.6399V64.0841H75.2908V66.5569C75.2908 66.5569 75.2908 66.5569 75.349 66.6133H75.6474V66.9919H77.1676V66.6053H77.5384V64.1244L77.0948 64.0358ZM76.7165 66.1623H75.9891V64.4949C76.2146 64.4949 76.4546 64.4949 76.7165 64.4949V66.1623Z" fill="#A05CEB"/>
<path d="M45.6849 64.0519V63.6653H44.1501V64.068H43.7864V66.5811H44.1721V66.9758H45.6849V66.5731H46.0415V64.0439L45.6849 64.0519ZM45.2849 66.1623H44.5575V64.4949C44.783 64.4949 45.0303 64.4949 45.2849 64.4949V66.1623Z" fill="#A05CEB"/>
<path d="M42.9929 64.0358V63.6572H41.1016V66.9919H41.829V65.7354H42.9784V65.3487H43.3275V64.1244L42.9929 64.0358ZM41.8798 64.8896V64.503H42.6072V64.8896H41.8798Z" fill="#A05CEB"/>
</g>
<defs>
<filter id="filter0_d_14_4004" x="0" y="0" width="124" height="124" filterUnits="userSpaceOnUse" color-interpolation-filters="sRGB">
<feFlood flood-opacity="0" result="BackgroundImageFix"/>
<feColorMatrix in="SourceAlpha" type="matrix" values="0 0 0 0 0 0 0 0 0 0 0 0 0 0 0 0 0 0 127 0" result="hardAlpha"/>
<feOffset dy="2"/>
<feGaussianBlur stdDeviation="4"/>
<feColorMatrix type="matrix" values="0 0 0 0 0 0 0 0 0 0 0 0 0 0 0 0 0 0 0.12 0"/>
<feBlend mode="normal" in2="BackgroundImageFix" result="effect1_dropShadow_14_4004"/>
<feBlend mode="normal" in="SourceGraphic" in2="effect1_dropShadow_14_4004" result="shape"/>
</filter>
</defs>
</svg>
