<svg width="124" height="124" viewBox="0 0 124 124" fill="none" xmlns="http://www.w3.org/2000/svg">
<g filter="url(#filter0_d_14_4159)">
<rect x="8" y="6" width="108" height="108" rx="8" fill="#282A2F"/>
<path d="M38.3721 87.8613C39.2933 87.8613 39.9655 88.0599 40.3887 88.457C40.8118 88.8509 41.0234 89.3945 41.0234 90.0879C41.0234 90.4004 40.9762 90.6999 40.8818 90.9863C40.7874 91.2695 40.6328 91.5218 40.418 91.7432C40.2064 91.9645 39.9232 92.1403 39.5684 92.2705C39.2135 92.3975 38.7757 92.4609 38.2549 92.4609H37.6055V95H36.0918V87.8613H38.3721ZM38.2939 89.1016H37.6055V91.2207H38.1035C38.3867 91.2207 38.6325 91.1833 38.8408 91.1084C39.0492 91.0335 39.2103 90.9163 39.3242 90.7568C39.4382 90.5973 39.4951 90.3923 39.4951 90.1416C39.4951 89.79 39.3975 89.5296 39.2021 89.3604C39.0068 89.1878 38.7041 89.1016 38.2939 89.1016ZM42.3711 95V87.8613H43.8848V93.75H46.7803V95H42.3711ZM52.3955 95L51.8779 93.3008H49.2754L48.7578 95H47.127L49.6465 87.832H51.4971L54.0264 95H52.3955ZM51.5166 92.0312L50.999 90.3711C50.9665 90.2604 50.9225 90.1188 50.8672 89.9463C50.8151 89.7705 50.7614 89.5931 50.7061 89.4141C50.654 89.2318 50.6117 89.0739 50.5791 88.9404C50.5465 89.0739 50.501 89.2399 50.4424 89.4385C50.387 89.6338 50.3333 89.8193 50.2812 89.9951C50.2292 90.1709 50.1917 90.2962 50.1689 90.3711L49.6562 92.0312H51.5166ZM57.1514 90.8008L58.6406 87.8613H60.2715L57.9033 92.2217V95H56.3994V92.2705L54.0312 87.8613H55.6719L57.1514 90.8008ZM70.1006 95H68.1768L65.0713 89.5996H65.0273C65.0404 89.8242 65.0518 90.0505 65.0615 90.2783C65.0713 90.5062 65.0811 90.734 65.0908 90.9619C65.1006 91.1865 65.1104 91.4128 65.1201 91.6406V95H63.7676V87.8613H65.6768L68.7773 93.208H68.8115C68.805 92.9867 68.7969 92.7669 68.7871 92.5488C68.7773 92.3307 68.7676 92.1126 68.7578 91.8945C68.7513 91.6764 68.7448 91.4583 68.7383 91.2402V87.8613H70.1006V95ZM77.21 90.9912H80.042V94.6924C79.6676 94.8161 79.2786 94.9154 78.875 94.9902C78.4714 95.0618 78.014 95.0977 77.5029 95.0977C76.7933 95.0977 76.1911 94.9577 75.6963 94.6777C75.2015 94.3978 74.8255 93.9844 74.5684 93.4375C74.3112 92.8906 74.1826 92.2184 74.1826 91.4209C74.1826 90.6722 74.3258 90.0244 74.6123 89.4775C74.902 88.9307 75.3236 88.5075 75.877 88.208C76.4336 87.9085 77.1123 87.7588 77.9131 87.7588C78.2907 87.7588 78.6634 87.7995 79.0312 87.8809C79.3991 87.9622 79.7327 88.068 80.0322 88.1982L79.5293 89.4092C79.3112 89.2985 79.0622 89.2057 78.7822 89.1309C78.5023 89.056 78.2093 89.0186 77.9033 89.0186C77.4639 89.0186 77.0814 89.1195 76.7559 89.3213C76.4336 89.5231 76.1829 89.8063 76.0039 90.1709C75.8281 90.5322 75.7402 90.9587 75.7402 91.4502C75.7402 91.9157 75.8037 92.3291 75.9307 92.6904C76.0576 93.0485 76.2578 93.3301 76.5312 93.5352C76.8047 93.737 77.1611 93.8379 77.6006 93.8379C77.8154 93.8379 77.9961 93.8281 78.1426 93.8086C78.2923 93.7858 78.4323 93.763 78.5625 93.7402V92.251H77.21V90.9912ZM88.2256 91.4209C88.2256 91.971 88.1572 92.4723 88.0205 92.9248C87.8838 93.374 87.6755 93.7614 87.3955 94.0869C87.1188 94.4124 86.7673 94.6631 86.3408 94.8389C85.9144 95.0114 85.4098 95.0977 84.8271 95.0977C84.2445 95.0977 83.7399 95.0114 83.3135 94.8389C82.887 94.6631 82.5339 94.4124 82.2539 94.0869C81.9772 93.7614 81.7705 93.3724 81.6338 92.9199C81.4971 92.4674 81.4287 91.9645 81.4287 91.4111C81.4287 90.6722 81.5492 90.0293 81.79 89.4824C82.0342 88.9323 82.4085 88.5059 82.9131 88.2031C83.4176 87.9004 84.0589 87.749 84.8369 87.749C85.6117 87.749 86.248 87.9004 86.7461 88.2031C87.2474 88.5059 87.6185 88.9323 87.8594 89.4824C88.1035 90.0326 88.2256 90.6787 88.2256 91.4209ZM83.0156 91.4209C83.0156 91.9189 83.0775 92.3486 83.2012 92.71C83.3281 93.068 83.5251 93.3447 83.792 93.54C84.0589 93.7321 84.404 93.8281 84.8271 93.8281C85.2568 93.8281 85.6051 93.7321 85.8721 93.54C86.139 93.3447 86.3327 93.068 86.4531 92.71C86.5768 92.3486 86.6387 91.9189 86.6387 91.4209C86.6387 90.6722 86.4987 90.083 86.2188 89.6533C85.9388 89.2236 85.4782 89.0088 84.8369 89.0088C84.4105 89.0088 84.0622 89.1064 83.792 89.3018C83.5251 89.4938 83.3281 89.7705 83.2012 90.1318C83.0775 90.4899 83.0156 90.9196 83.0156 91.4209Z" fill="#A05CEB"/>
<path d="M54.9678 40H55.4364C55.5863 40.0375 55.7391 40.0628 55.8929 40.0757H75.7765C75.9283 40.0628 76.0791 40.0375 76.227 40H76.8438L77.4605 40.164C79.5081 40.6432 81.0311 41.7467 81.7157 43.8528C81.8267 44.187 81.9075 44.5275 82 44.868V46.7597C81.9137 47.0561 81.8334 47.3588 81.747 47.6615C80.8034 50.8522 79.9337 54.0618 78.8976 57.221C77.5962 61.1684 74.7529 63.2997 70.7811 63.924C70.1463 63.9955 69.5073 64.0166 68.8694 63.987H49.6447C48.5439 64.027 47.4572 63.7248 46.5279 63.1203C45.5985 62.5157 44.8706 61.6373 44.4397 60.6008C43.8943 59.2043 43.8551 57.6545 44.3289 56.231C45.2746 53.0655 46.2238 49.9126 47.1777 46.7724C47.5798 45.381 48.2895 44.1028 49.252 43.0367C50.2145 41.9706 51.404 41.1452 52.7285 40.6243C53.4618 40.3703 54.2099 40.1619 54.9678 40ZM74.031 42.2007H71.805C70.373 42.2521 68.9897 42.7469 67.8388 43.6195C66.688 44.4922 65.8236 45.7016 65.3598 47.0876C64.447 50.0892 63.5466 53.097 62.6338 56.0986C62.2975 56.9959 62.1685 57.9606 62.2574 58.9172C62.3763 59.751 62.7962 60.5091 63.4343 61.0424C64.0723 61.5757 64.8821 61.8455 65.7049 61.7989C67.1481 61.7989 68.5975 61.7611 70.0222 61.7989C72.8901 61.9124 76.0854 59.4658 76.9118 56.603C77.2264 55.5247 77.5283 54.4464 77.8737 53.3682C78.5274 51.1864 79.2123 49.0109 79.8167 46.8165C80.5259 44.2249 79.0334 42.2322 76.3999 42.1944C75.6228 42.1944 74.8266 42.2007 74.031 42.2007ZM62.7326 50.0955C62.673 50.0728 62.6109 50.058 62.5477 50.0513C60.3767 50.0513 58.1996 50.0513 56.0224 50.0513C55.9505 50.0723 55.8838 50.1092 55.8273 50.1593C55.7708 50.2094 55.7258 50.2716 55.6954 50.3414C55.461 51.0287 55.2573 51.7287 55.0353 52.4286C54.8749 52.9394 54.7148 53.4501 54.536 54.0303H56.7253C56.4601 54.9131 56.2073 55.7328 55.9791 56.5526C55.9723 56.6103 55.9539 56.6661 55.9255 56.7164C55.897 56.7668 55.859 56.8107 55.8134 56.8455C55.7679 56.8803 55.7158 56.9053 55.6604 56.9189C55.6051 56.9325 55.5479 56.9344 55.4918 56.9246C54.5173 56.9246 53.5429 56.9246 52.5622 56.9246H51.2854C51.2854 56.7796 51.3227 56.6787 51.3474 56.5778C52.2664 53.5763 53.1976 50.5747 54.0981 47.5669C54.1092 47.4882 54.1358 47.4126 54.1764 47.3447C54.217 47.2768 54.2707 47.2181 54.3342 47.1721C54.3977 47.1261 54.4695 47.0937 54.5456 47.0771C54.6217 47.0604 54.6999 47.0597 54.7763 47.075C57.601 47.075 60.4258 47.075 63.2506 47.075C63.3155 47.0858 63.3818 47.0831 63.4457 47.0673C63.5096 47.0514 63.5693 47.0226 63.6222 46.9827C63.675 46.9428 63.7199 46.8924 63.7535 46.8346C63.787 46.7769 63.8089 46.7128 63.8179 46.6463C64.0708 45.7508 64.3607 44.8743 64.6383 43.9852C64.8171 43.4114 64.9961 42.8313 65.1996 42.1944H55.9851C54.853 42.1884 53.737 42.4684 52.7363 43.0097C51.7356 43.5509 50.8815 44.3366 50.2494 45.2968C49.6797 46.2076 49.2628 47.2093 49.0159 48.2605C48.1155 51.199 47.1655 54.1249 46.3267 57.0885C45.5681 59.7243 47.1351 61.7863 49.5959 61.8115C51.2488 61.8115 52.9017 61.8115 54.5299 61.8115C54.818 61.8137 55.1052 61.7841 55.387 61.7233C56.6207 61.4761 57.7642 60.8873 58.693 60.0211C59.6218 59.1549 60.3003 58.0445 60.6541 56.8111C61.3387 54.7617 61.8874 52.6808 62.535 50.6126C62.6461 50.4612 62.6833 50.2847 62.7326 50.0955Z" fill="#A05CEB"/>
<path d="M67.21 56.9436L68.2278 53.6205C68.8446 51.5585 69.4981 49.4965 70.1148 47.4282C70.1216 47.3744 70.1386 47.3225 70.1654 47.2757C70.1922 47.2288 70.2282 47.188 70.2708 47.1556C70.3134 47.1232 70.362 47.1 70.4136 47.0872C70.4652 47.0745 70.519 47.0725 70.5714 47.0814C71.922 47.0814 73.2789 47.0814 74.6296 47.0814H74.9073C74.8703 47.2517 74.839 47.403 74.7959 47.548C73.8892 50.537 72.9767 53.5259 72.0885 56.5211C72.0804 56.5848 72.0598 56.646 72.0277 56.7012C71.9956 56.7564 71.9526 56.8043 71.9018 56.8421C71.8511 56.8799 71.7932 56.9066 71.732 56.9208C71.6708 56.935 71.6076 56.9363 71.5459 56.9247C70.2569 56.9247 68.9676 56.9247 67.6785 56.9247L67.21 56.9436Z" fill="#A05CEB"/>
</g>
<defs>
<filter id="filter0_d_14_4159" x="0" y="0" width="124" height="124" filterUnits="userSpaceOnUse" color-interpolation-filters="sRGB">
<feFlood flood-opacity="0" result="BackgroundImageFix"/>
<feColorMatrix in="SourceAlpha" type="matrix" values="0 0 0 0 0 0 0 0 0 0 0 0 0 0 0 0 0 0 127 0" result="hardAlpha"/>
<feOffset dy="2"/>
<feGaussianBlur stdDeviation="4"/>
<feColorMatrix type="matrix" values="0 0 0 0 0 0 0 0 0 0 0 0 0 0 0 0 0 0 0.12 0"/>
<feBlend mode="normal" in2="BackgroundImageFix" result="effect1_dropShadow_14_4159"/>
<feBlend mode="normal" in="SourceGraphic" in2="effect1_dropShadow_14_4159" result="shape"/>
</filter>
</defs>
</svg>
