<svg width="124" height="124" viewBox="0 0 124 124" fill="none" xmlns="http://www.w3.org/2000/svg">
<g filter="url(#filter0_d_14_4170)">
<rect x="8" y="6" width="108" height="108" rx="8" fill="#282A2F"/>
<path d="M39.9248 87.8613C40.846 87.8613 41.5182 88.0599 41.9414 88.457C42.3646 88.8509 42.5762 89.3945 42.5762 90.0879C42.5762 90.4004 42.529 90.6999 42.4346 90.9863C42.3402 91.2695 42.1855 91.5218 41.9707 91.7432C41.7591 91.9645 41.4759 92.1403 41.1211 92.2705C40.7663 92.3975 40.3285 92.4609 39.8076 92.4609H39.1582V95H37.6445V87.8613H39.9248ZM39.8467 89.1016H39.1582V91.2207H39.6562C39.9395 91.2207 40.1852 91.1833 40.3936 91.1084C40.6019 91.0335 40.763 90.9163 40.877 90.7568C40.9909 90.5973 41.0479 90.3923 41.0479 90.1416C41.0479 89.79 40.9502 89.5296 40.7549 89.3604C40.5596 89.1878 40.2568 89.1016 39.8467 89.1016ZM43.9238 95V87.8613H45.4375V93.75H48.333V95H43.9238ZM53.9482 95L53.4307 93.3008H50.8281L50.3105 95H48.6797L51.1992 87.832H53.0498L55.5791 95H53.9482ZM53.0693 92.0312L52.5518 90.3711C52.5192 90.2604 52.4753 90.1188 52.4199 89.9463C52.3678 89.7705 52.3141 89.5931 52.2588 89.4141C52.2067 89.2318 52.1644 89.0739 52.1318 88.9404C52.0993 89.0739 52.0537 89.2399 51.9951 89.4385C51.9398 89.6338 51.8861 89.8193 51.834 89.9951C51.7819 90.1709 51.7445 90.2962 51.7217 90.3711L51.209 92.0312H53.0693ZM58.7041 90.8008L60.1934 87.8613H61.8242L59.4561 92.2217V95H57.9521V92.2705L55.584 87.8613H57.2246L58.7041 90.8008ZM65.4766 95H63.9629V89.1211H62.0244V87.8613H67.415V89.1211H65.4766V95ZM72.625 95H68.5137V87.8613H72.625V89.1016H70.0273V90.6689H72.4443V91.9092H70.0273V93.75H72.625V95ZM77.1514 89.0186C76.8617 89.0186 76.6045 89.0755 76.3799 89.1895C76.1585 89.3001 75.9714 89.4613 75.8184 89.6729C75.6686 89.8844 75.5547 90.14 75.4766 90.4395C75.3984 90.7389 75.3594 91.0758 75.3594 91.4502C75.3594 91.9548 75.4212 92.3861 75.5449 92.7441C75.6719 93.099 75.8672 93.3708 76.1309 93.5596C76.3945 93.7451 76.7347 93.8379 77.1514 93.8379C77.4411 93.8379 77.7308 93.8053 78.0205 93.7402C78.3135 93.6751 78.6309 93.5824 78.9727 93.4619V94.7314C78.6569 94.8617 78.346 94.9544 78.04 95.0098C77.734 95.0684 77.3906 95.0977 77.0098 95.0977C76.2741 95.0977 75.6686 94.9463 75.1934 94.6436C74.7214 94.3376 74.3714 93.9111 74.1436 93.3643C73.9157 92.8141 73.8018 92.1729 73.8018 91.4404C73.8018 90.9001 73.875 90.4053 74.0215 89.9561C74.168 89.5068 74.3828 89.1178 74.666 88.7891C74.9492 88.4603 75.2992 88.2064 75.7158 88.0273C76.1325 87.8483 76.611 87.7588 77.1514 87.7588C77.5062 87.7588 77.861 87.8044 78.2158 87.8955C78.5739 87.9834 78.9157 88.1055 79.2412 88.2617L78.7529 89.4922C78.486 89.3652 78.2174 89.2546 77.9473 89.1602C77.6771 89.0658 77.4118 89.0186 77.1514 89.0186ZM86.3457 95H84.8369V91.9189H82.0098V95H80.4961V87.8613H82.0098V90.6592H84.8369V87.8613H86.3457V95Z" fill="#A05CEB"/>
<path d="M81.869 44.9945C81.2795 41.9665 79.1535 40.4305 76.4381 39.6174C72.9368 38.57 69.4159 38.8965 65.9146 39.6515C64.496 39.9579 63.0303 40.827 61.7158 40.6127C60.4013 40.3984 59.2303 39.1308 57.9826 38.3678C56.4992 37.4646 55.0354 38.2997 54.9882 40.056C54.9646 41.0834 54.943 42.1147 54.9882 43.1421C55.0255 43.843 54.8115 44.2335 54.2142 44.6561C52.5416 45.8028 50.9428 47.0577 49.4278 48.413C47.1702 50.5057 45.3017 52.9269 44.3939 55.9769C43.215 59.9601 44.7064 63.2745 48.5417 64.6863C50.3749 65.3612 52.3731 65.5754 54.2967 66C54.3163 65.8798 54.3379 65.7597 54.3575 65.6396C55.0722 65.6766 55.7883 65.6766 56.5031 65.6396C62.1107 65.0508 67.231 63.0502 71.9486 59.9661C75.5226 57.6311 78.6545 54.8133 80.7077 50.9363C81.7 49.0758 82.2737 47.0912 81.869 44.9945ZM57.1593 43.1921C57.1593 42.6454 57.4482 41.8904 57.8529 41.622C58.185 41.4018 58.9748 41.6221 59.411 41.8924C62.4053 43.7609 65.3684 45.6834 68.3215 47.6219C68.7459 47.9023 69.0543 48.3629 69.5121 48.8415C69.1329 49.3242 68.9484 49.7407 68.6301 49.941C65.4589 51.9596 62.2731 53.9542 59.0731 55.9248C58.1575 56.4896 57.3048 56.0249 57.1693 54.9395C57.1584 54.7741 57.1584 54.6082 57.1693 54.4429C57.1496 50.6959 57.1102 46.9511 57.1593 43.2001V43.1921ZM57.6545 64.1075C55.8174 64.48 53.9764 64.6022 52.153 64.0895C49.4298 63.3285 48.0701 61.0175 48.6615 58.1457C48.744 58.1858 48.8736 58.2058 48.8913 58.2599C49.7578 61.1216 51.9957 62.0929 54.5893 62.5014C57.6112 62.978 60.5407 62.4253 63.431 61.5222C63.7611 61.418 64.101 61.3439 64.437 61.2558L64.5195 61.5121C62.3716 62.7241 60.0576 63.601 57.6545 64.1135V64.1075ZM74.6187 48.7714C74.0293 51.1225 72.6873 53.043 71.0487 54.7332C67.4531 58.4461 63.215 60.9674 58.0554 61.5902C57.0544 61.6896 56.044 61.6083 55.0707 61.3499C52.9743 60.8192 51.9271 59.0449 52.3064 56.884C52.6502 54.9075 53.605 53.2373 54.9784 51.477C54.9784 53.6258 54.9784 55.5123 54.9784 57.4007C54.9784 58.2739 55.106 59.0669 55.9156 59.5516C56.7251 60.0362 57.4599 59.7298 58.1908 59.2712C62.651 56.4675 67.0856 53.6298 71.5988 50.9262C73.5793 49.7407 73.1706 47.8462 71.5437 47.0392C69.8048 46.18 68.176 45.0866 66.3036 43.9811C68.5159 43.3503 70.5182 43.0139 72.5223 43.8129C74.4458 44.5939 75.216 46.4504 74.6266 48.7794L74.6187 48.7714ZM69.0485 42.0706C67.8559 42.1167 66.6769 42.4471 65.4842 42.5713C64.9849 42.5903 64.4897 42.4728 64.05 42.2309C67.2114 40.791 70.4061 39.7516 73.8583 40.5767C76.3635 41.1775 77.5641 42.6995 77.7665 45.5592C75.5718 42.2169 72.3612 41.9505 69.0485 42.0847V42.0706Z" fill="#A05CEB"/>
</g>
<defs>
<filter id="filter0_d_14_4170" x="0" y="0" width="124" height="124" filterUnits="userSpaceOnUse" color-interpolation-filters="sRGB">
<feFlood flood-opacity="0" result="BackgroundImageFix"/>
<feColorMatrix in="SourceAlpha" type="matrix" values="0 0 0 0 0 0 0 0 0 0 0 0 0 0 0 0 0 0 127 0" result="hardAlpha"/>
<feOffset dy="2"/>
<feGaussianBlur stdDeviation="4"/>
<feColorMatrix type="matrix" values="0 0 0 0 0 0 0 0 0 0 0 0 0 0 0 0 0 0 0.12 0"/>
<feBlend mode="normal" in2="BackgroundImageFix" result="effect1_dropShadow_14_4170"/>
<feBlend mode="normal" in="SourceGraphic" in2="effect1_dropShadow_14_4170" result="shape"/>
</filter>
</defs>
</svg>
