<svg width="124" height="124" viewBox="0 0 124 124" fill="none" xmlns="http://www.w3.org/2000/svg">
<g filter="url(#filter0_d_14_3996)">
<rect x="8" y="6" width="108" height="108" rx="8" fill="#282A2F"/>
<path d="M35.7549 87.8613C36.6761 87.8613 37.3483 88.0599 37.7715 88.457C38.1947 88.8509 38.4062 89.3945 38.4062 90.0879C38.4062 90.4004 38.359 90.6999 38.2646 90.9863C38.1702 91.2695 38.0156 91.5218 37.8008 91.7432C37.5892 91.9645 37.306 92.1403 36.9512 92.2705C36.5964 92.3975 36.1585 92.4609 35.6377 92.4609H34.9883V95H33.4746V87.8613H35.7549ZM35.6768 89.1016H34.9883V91.2207H35.4863C35.7695 91.2207 36.0153 91.1833 36.2236 91.1084C36.432 91.0335 36.5931 90.9163 36.707 90.7568C36.821 90.5973 36.8779 90.3923 36.8779 90.1416C36.8779 89.79 36.7803 89.5296 36.585 89.3604C36.3896 89.1878 36.0869 89.1016 35.6768 89.1016ZM41.834 87.8613C42.4818 87.8613 43.0156 87.9395 43.4355 88.0957C43.8587 88.252 44.1729 88.488 44.3779 88.8037C44.583 89.1195 44.6855 89.5182 44.6855 90C44.6855 90.3255 44.6237 90.6104 44.5 90.8545C44.3763 91.0986 44.2135 91.3053 44.0117 91.4746C43.8099 91.6439 43.5918 91.7822 43.3574 91.8896L45.457 95H43.7773L42.0732 92.2607H41.2676V95H39.7539V87.8613H41.834ZM41.7266 89.1016H41.2676V91.0303H41.7559C42.2572 91.0303 42.6152 90.9473 42.8301 90.7812C43.0482 90.612 43.1572 90.3646 43.1572 90.0391C43.1572 89.7005 43.04 89.4596 42.8057 89.3164C42.5745 89.1732 42.2148 89.1016 41.7266 89.1016ZM50.7256 95L50.208 93.3008H47.6055L47.0879 95H45.457L47.9766 87.832H49.8271L52.3564 95H50.7256ZM49.8467 92.0312L49.3291 90.3711C49.2965 90.2604 49.2526 90.1188 49.1973 89.9463C49.1452 89.7705 49.0915 89.5931 49.0361 89.4141C48.984 89.2318 48.9417 89.0739 48.9092 88.9404C48.8766 89.0739 48.8311 89.2399 48.7725 89.4385C48.7171 89.6338 48.6634 89.8193 48.6113 89.9951C48.5592 90.1709 48.5218 90.2962 48.499 90.3711L47.9863 92.0312H49.8467ZM55.9697 90.9912H58.8018V94.6924C58.4274 94.8161 58.0384 94.9154 57.6348 94.9902C57.2311 95.0618 56.7738 95.0977 56.2627 95.0977C55.5531 95.0977 54.9508 94.9577 54.4561 94.6777C53.9613 94.3978 53.5853 93.9844 53.3281 93.4375C53.071 92.8906 52.9424 92.2184 52.9424 91.4209C52.9424 90.6722 53.0856 90.0244 53.3721 89.4775C53.6618 88.9307 54.0833 88.5075 54.6367 88.208C55.1934 87.9085 55.8721 87.7588 56.6729 87.7588C57.0505 87.7588 57.4232 87.7995 57.791 87.8809C58.1589 87.9622 58.4925 88.068 58.792 88.1982L58.2891 89.4092C58.071 89.2985 57.8219 89.2057 57.542 89.1309C57.262 89.056 56.9691 89.0186 56.6631 89.0186C56.2236 89.0186 55.8411 89.1195 55.5156 89.3213C55.1934 89.5231 54.9427 89.8063 54.7637 90.1709C54.5879 90.5322 54.5 90.9587 54.5 91.4502C54.5 91.9157 54.5635 92.3291 54.6904 92.6904C54.8174 93.0485 55.0176 93.3301 55.291 93.5352C55.5645 93.737 55.9209 93.8379 56.3604 93.8379C56.5752 93.8379 56.7559 93.8281 56.9023 93.8086C57.0521 93.7858 57.1921 93.763 57.3223 93.7402V92.251H55.9697V90.9912ZM63.5283 95L61.8096 89.3994H61.7656C61.7721 89.5329 61.7819 89.7347 61.7949 90.0049C61.8112 90.2718 61.8258 90.5566 61.8389 90.8594C61.8519 91.1621 61.8584 91.4355 61.8584 91.6797V95H60.5059V87.8613H62.5664L64.2559 93.3203H64.2852L66.0771 87.8613H68.1377V95H66.7266V91.6211C66.7266 91.3965 66.7298 91.1377 66.7363 90.8447C66.7461 90.5518 66.7575 90.2734 66.7705 90.0098C66.7835 89.7428 66.7933 89.5426 66.7998 89.4092H66.7559L64.915 95H63.5283ZM74.3096 95L73.792 93.3008H71.1895L70.6719 95H69.041L71.5605 87.832H73.4111L75.9404 95H74.3096ZM73.4307 92.0312L72.9131 90.3711C72.8805 90.2604 72.8366 90.1188 72.7812 89.9463C72.7292 89.7705 72.6755 89.5931 72.6201 89.4141C72.568 89.2318 72.5257 89.0739 72.4932 88.9404C72.4606 89.0739 72.415 89.2399 72.3564 89.4385C72.3011 89.6338 72.2474 89.8193 72.1953 89.9951C72.1432 90.1709 72.1058 90.2962 72.083 90.3711L71.5703 92.0312H73.4307ZM79.5977 95H78.084V89.1211H76.1455V87.8613H81.5361V89.1211H79.5977V95ZM82.6348 95V87.8613H84.1484V95H82.6348ZM88.9775 89.0186C88.6878 89.0186 88.4307 89.0755 88.2061 89.1895C87.9847 89.3001 87.7975 89.4613 87.6445 89.6729C87.4948 89.8844 87.3809 90.14 87.3027 90.4395C87.2246 90.7389 87.1855 91.0758 87.1855 91.4502C87.1855 91.9548 87.2474 92.3861 87.3711 92.7441C87.498 93.099 87.6934 93.3708 87.957 93.5596C88.2207 93.7451 88.5609 93.8379 88.9775 93.8379C89.2673 93.8379 89.557 93.8053 89.8467 93.7402C90.1396 93.6751 90.457 93.5824 90.7988 93.4619V94.7314C90.4831 94.8617 90.1722 94.9544 89.8662 95.0098C89.5602 95.0684 89.2168 95.0977 88.8359 95.0977C88.1003 95.0977 87.4948 94.9463 87.0195 94.6436C86.5475 94.3376 86.1976 93.9111 85.9697 93.3643C85.7419 92.8141 85.6279 92.1729 85.6279 91.4404C85.6279 90.9001 85.7012 90.4053 85.8477 89.9561C85.9941 89.5068 86.209 89.1178 86.4922 88.7891C86.7754 88.4603 87.1253 88.2064 87.542 88.0273C87.9587 87.8483 88.4372 87.7588 88.9775 87.7588C89.3324 87.7588 89.6872 87.8044 90.042 87.8955C90.4001 87.9834 90.7419 88.1055 91.0674 88.2617L90.5791 89.4922C90.3122 89.3652 90.0436 89.2546 89.7734 89.1602C89.5033 89.0658 89.238 89.0186 88.9775 89.0186Z" fill="#A05CEB"/>
<g clip-path="url(#clip0_14_3996)">
<path d="M75.0003 51.0882V53.6619C74.9702 53.7114 74.9459 53.7645 74.928 53.82C74.8257 54.4018 74.7595 54.9963 74.6271 55.5717C74.0022 58.1593 72.642 60.4856 70.7278 62.2409C68.8136 63.9962 66.4362 65.0972 63.9117 65.3975C61.3872 65.6977 58.8354 65.1829 56.5963 63.9216C54.3571 62.6604 52.5367 60.7124 51.3773 58.337C50.2178 55.9616 49.7744 53.2715 50.106 50.6248C50.4377 47.978 51.5286 45.5002 53.2336 43.5211C54.9386 41.542 57.1768 40.1555 59.6504 39.5461C62.1239 38.9368 64.7156 39.1335 67.0801 40.1101C68.9846 40.8634 70.6797 42.1049 72.0114 43.7218C73.3431 45.3386 74.269 47.2795 74.7052 49.3681C74.8075 49.9372 74.8919 50.519 75.0003 51.0882ZM66.1292 47.7808C66.4589 47.7402 66.7863 47.681 67.1101 47.6038C67.3824 47.5589 67.6405 47.4459 67.8626 47.2744C68.0847 47.1028 68.2642 46.8778 68.3863 46.6181C68.5084 46.3585 68.5694 46.0718 68.5641 45.7822C68.5588 45.4926 68.4876 45.2086 68.356 44.9541C67.8867 43.9711 67.0922 43.2015 66.1218 42.7894C65.1514 42.3774 64.0714 42.3511 63.0839 42.7155C62.7353 42.8478 62.4392 43.0992 62.2428 43.4294C62.0464 43.7596 61.9611 44.1495 62.0007 44.5367C62.05 44.9814 62.1829 45.4113 62.3918 45.8015C63.1983 47.1864 64.4741 47.7302 66.1292 47.7872V47.7808ZM68.0431 56.691C68.007 56.5519 67.9888 56.4571 67.9587 56.3622C67.2927 54.4819 66.6268 52.6059 65.9608 50.734C65.6839 49.9562 65.6719 49.9815 64.8835 49.9562C64.7625 49.9356 64.6385 49.9649 64.5376 50.038C64.4367 50.111 64.3664 50.2222 64.3416 50.3483C63.9023 51.613 63.4388 52.8778 62.9875 54.1426C62.6986 54.9646 62.3857 55.7867 62.0968 56.6721C62.4458 56.6721 62.7408 56.6721 63.0357 56.6721C63.0886 56.6598 63.1381 56.6344 63.18 56.5982C63.2218 56.5619 63.2548 56.5157 63.2763 56.4634C63.4087 56.1282 63.4991 55.7678 63.6375 55.4389C63.6684 55.3786 63.7124 55.3267 63.7656 55.2872C63.8189 55.2477 63.8801 55.2217 63.9446 55.2113C64.6969 55.2113 65.4552 55.2113 66.2135 55.2113C66.2816 55.2246 66.346 55.2537 66.4021 55.2963C66.4583 55.3389 66.505 55.3941 66.5385 55.4579C66.6769 55.7804 66.7551 56.1282 66.8814 56.4507C66.9024 56.5029 66.9345 56.5495 66.9752 56.5867C67.0159 56.624 67.0641 56.651 67.1162 56.6657C67.4111 56.7163 67.7061 56.6974 68.0431 56.6974V56.691ZM54.201 54.073C54.845 54.035 55.4408 54.073 56.0065 53.9655C56.4512 53.9207 56.863 53.6996 57.1581 53.3472C57.4533 52.9948 57.6094 52.5375 57.5951 52.0684C57.5951 50.8985 57.1198 50.108 56.0847 49.9815C55.1166 49.9213 54.1459 49.9213 53.1778 49.9815V56.71H54.1889L54.201 54.073ZM70.1313 56.6784C70.1313 55.9511 70.1313 55.2555 70.1313 54.5662C70.1395 54.3312 70.1948 54.1006 70.2938 53.8896C70.7873 52.8651 71.299 51.8533 71.8045 50.8415C71.961 50.5317 72.1054 50.2092 72.28 49.8614C71.943 49.8614 71.678 49.8614 71.3952 49.8614C71.3023 49.8449 71.207 49.8648 71.1272 49.9173C71.0473 49.9697 70.9884 50.051 70.9617 50.1459C70.5645 51.006 70.1553 51.8597 69.7581 52.7197C69.7219 52.8019 69.6679 52.8715 69.6017 52.9853C69.1443 52.0114 68.711 51.0882 68.2717 50.1649C68.2175 50.0511 68.1151 49.893 68.0249 49.8803C67.6758 49.8803 67.3268 49.8803 66.9176 49.8803C67.5555 51.1451 68.1211 52.3656 68.7651 53.5544C69.0041 53.9761 69.1212 54.4617 69.1022 54.952C69.0721 55.5275 69.1022 56.1029 69.1022 56.691L70.1313 56.6784ZM59.4247 49.8867H58.3956V56.6657H61.6454V55.831C61.0135 55.831 60.3999 55.831 59.792 55.831C59.5092 55.831 59.4188 55.7425 59.4188 55.4452C59.4188 53.7631 59.4188 52.0873 59.4188 50.3862L59.4247 49.8867Z" fill="#A05CEB"/>
<path d="M61.7174 30.2829C61.5916 30.3238 61.4721 30.3834 61.3624 30.4599C60.6878 31.0832 60.1509 31.8537 59.7891 32.7177C59.4274 33.5817 59.2495 34.5183 59.2681 35.4621V35.8288C58.1838 33.0429 56.7683 30.4124 55.0553 28C54.8206 31.0101 55.2657 33.957 55.7653 36.8976C55.2316 35.9905 54.4958 35.2338 53.6212 34.6928C52.7467 34.1518 51.7598 33.8428 50.7461 33.7926C52.8633 35.2051 54.445 37.35 55.2178 39.8571C57.052 38.6823 59.1385 38.0124 61.2843 37.9094C61.2422 37.726 61.218 37.5995 61.1879 37.4793C60.8227 35.9713 60.7469 34.402 60.9651 32.863C61.0678 31.9591 61.3268 31.0825 61.7295 30.2766L61.7174 30.2829Z" fill="#A05CEB"/>
<path d="M61.7175 30.2766C61.3149 31.0825 61.0558 31.9591 60.9532 32.863C60.735 34.402 60.8107 35.9713 61.1759 37.4793C61.1759 37.5995 61.2302 37.726 61.2723 37.9094C59.1265 38.0124 57.04 38.6823 55.2058 39.8571C54.433 37.35 52.8514 35.2051 50.7341 33.7926C51.7479 33.8428 52.7347 34.1518 53.6093 34.6928C54.4838 35.2338 55.2196 35.9905 55.7533 36.8976C55.2538 33.957 54.8086 31.0101 55.0433 28C56.7564 30.4124 58.1719 33.0429 59.2561 35.8288V35.4621C59.2375 34.5183 59.4154 33.5817 59.7771 32.7177C60.1389 31.8537 60.6758 31.0832 61.3505 30.4599C61.4602 30.3834 61.5797 30.3238 61.7055 30.2829L61.7175 30.2766Z" fill="#A05CEB"/>
<path d="M66.153 54.3447H64.0166L65.0816 51.1829L66.153 54.3447Z" fill="#A05CEB"/>
<path d="M54.2068 53.1623V50.7466C54.7358 50.753 55.2641 50.7889 55.7895 50.8541C56.3011 50.9426 56.548 51.3663 56.548 51.9734C56.5757 52.2283 56.5086 52.4845 56.3605 52.6885C56.2124 52.8924 55.9947 53.0282 55.7534 53.0674C55.2398 53.1285 54.7236 53.1601 54.2068 53.1623Z" fill="#A05CEB"/>
</g>
</g>
<defs>
<filter id="filter0_d_14_3996" x="0" y="0" width="124" height="124" filterUnits="userSpaceOnUse" color-interpolation-filters="sRGB">
<feFlood flood-opacity="0" result="BackgroundImageFix"/>
<feColorMatrix in="SourceAlpha" type="matrix" values="0 0 0 0 0 0 0 0 0 0 0 0 0 0 0 0 0 0 127 0" result="hardAlpha"/>
<feOffset dy="2"/>
<feGaussianBlur stdDeviation="4"/>
<feColorMatrix type="matrix" values="0 0 0 0 0 0 0 0 0 0 0 0 0 0 0 0 0 0 0.12 0"/>
<feBlend mode="normal" in2="BackgroundImageFix" result="effect1_dropShadow_14_3996"/>
<feBlend mode="normal" in="SourceGraphic" in2="effect1_dropShadow_14_3996" result="shape"/>
</filter>
<clipPath id="clip0_14_3996">
<rect width="25" height="37.5" fill="white" transform="translate(50 28)"/>
</clipPath>
</defs>
</svg>
