<svg width="124" height="124" viewBox="0 0 124 124" fill="none" xmlns="http://www.w3.org/2000/svg">
<g filter="url(#filter0_d_14_4198)">
<rect x="8" y="6" width="108" height="108" rx="8" fill="#282A2F"/>
<path d="M39.5977 87.8613C40.2454 87.8613 40.7793 87.9395 41.1992 88.0957C41.6224 88.252 41.9365 88.488 42.1416 88.8037C42.3467 89.1195 42.4492 89.5182 42.4492 90C42.4492 90.3255 42.3874 90.6104 42.2637 90.8545C42.14 91.0986 41.9772 91.3053 41.7754 91.4746C41.5736 91.6439 41.3555 91.7822 41.1211 91.8896L43.2207 95H41.541L39.8369 92.2607H39.0312V95H37.5176V87.8613H39.5977ZM39.4902 89.1016H39.0312V91.0303H39.5195C40.0208 91.0303 40.3789 90.9473 40.5938 90.7812C40.8118 90.612 40.9209 90.3646 40.9209 90.0391C40.9209 89.7005 40.8037 89.4596 40.5693 89.3164C40.3382 89.1732 39.9785 89.1016 39.4902 89.1016ZM48.2305 95H44.1191V87.8613H48.2305V89.1016H45.6328V90.6689H48.0498V91.9092H45.6328V93.75H48.2305V95ZM55.6475 91.3623C55.6475 92.1663 55.4928 92.8385 55.1836 93.3789C54.8776 93.916 54.4333 94.3213 53.8506 94.5947C53.2679 94.8649 52.5664 95 51.7461 95H49.7246V87.8613H51.9658C52.7145 87.8613 53.3639 87.9948 53.9141 88.2617C54.4642 88.5254 54.8906 88.9176 55.1934 89.4385C55.4961 89.9561 55.6475 90.5973 55.6475 91.3623ZM54.0752 91.4014C54.0752 90.874 53.9971 90.4411 53.8408 90.1025C53.6878 89.7607 53.46 89.5085 53.1572 89.3457C52.8577 89.1829 52.4867 89.1016 52.0439 89.1016H51.2383V93.75H51.8877C52.6266 93.75 53.1751 93.5531 53.5332 93.1592C53.8945 92.7653 54.0752 92.1794 54.0752 91.4014ZM62.4785 95H60.9648V89.1211H59.0264V87.8613H64.417V89.1211H62.4785V95ZM65.5156 95V87.8613H67.0293V95H65.5156ZM71.5361 90.9912H74.3682V94.6924C73.9938 94.8161 73.6048 94.9154 73.2012 94.9902C72.7975 95.0618 72.3402 95.0977 71.8291 95.0977C71.1195 95.0977 70.5173 94.9577 70.0225 94.6777C69.5277 94.3978 69.1517 93.9844 68.8945 93.4375C68.6374 92.8906 68.5088 92.2184 68.5088 91.4209C68.5088 90.6722 68.652 90.0244 68.9385 89.4775C69.2282 88.9307 69.6497 88.5075 70.2031 88.208C70.7598 87.9085 71.4385 87.7588 72.2393 87.7588C72.6169 87.7588 72.9896 87.7995 73.3574 87.8809C73.7253 87.9622 74.0589 88.068 74.3584 88.1982L73.8555 89.4092C73.6374 89.2985 73.3883 89.2057 73.1084 89.1309C72.8285 89.056 72.5355 89.0186 72.2295 89.0186C71.79 89.0186 71.4076 89.1195 71.082 89.3213C70.7598 89.5231 70.5091 89.8063 70.3301 90.1709C70.1543 90.5322 70.0664 90.9587 70.0664 91.4502C70.0664 91.9157 70.1299 92.3291 70.2568 92.6904C70.3838 93.0485 70.584 93.3301 70.8574 93.5352C71.1309 93.737 71.4873 93.8379 71.9268 93.8379C72.1416 93.8379 72.3223 93.8281 72.4688 93.8086C72.6185 93.7858 72.7585 93.763 72.8887 93.7402V92.251H71.5361V90.9912ZM80.1836 95H76.0723V87.8613H80.1836V89.1016H77.5859V90.6689H80.0029V91.9092H77.5859V93.75H80.1836V95ZM83.7578 87.8613C84.4056 87.8613 84.9395 87.9395 85.3594 88.0957C85.7826 88.252 86.0967 88.488 86.3018 88.8037C86.5068 89.1195 86.6094 89.5182 86.6094 90C86.6094 90.3255 86.5475 90.6104 86.4238 90.8545C86.3001 91.0986 86.1374 91.3053 85.9355 91.4746C85.7337 91.6439 85.5156 91.7822 85.2812 91.8896L87.3809 95H85.7012L83.9971 92.2607H83.1914V95H81.6777V87.8613H83.7578ZM83.6504 89.1016H83.1914V91.0303H83.6797C84.181 91.0303 84.5391 90.9473 84.7539 90.7812C84.972 90.612 85.0811 90.3646 85.0811 90.0391C85.0811 89.7005 84.9639 89.4596 84.7295 89.3164C84.4984 89.1732 84.1387 89.1016 83.6504 89.1016Z" fill="#A05CEB"/>
<path d="M75.9383 35.0056C76.9235 35.5702 77.259 36.527 76.7928 38.0907C76.5484 38.9064 76.0175 39.6276 75.5936 40.3769C75.4245 40.6761 75.1975 40.9415 75.0998 41.331L76.0242 40.8779C76.081 41.9505 75.8037 42.2892 74.5715 42.6801C74.4394 42.4374 74.3258 42.1904 74.1885 41.9547C74.1292 41.8648 74.0614 41.7816 73.9864 41.7064C73.5004 43.1529 73.0341 44.6136 72.5125 46.0503C72.3421 46.5202 72.0185 46.9252 71.7755 47.3656C71.6778 47.5448 71.6079 47.741 71.5247 47.9301C71.7426 47.9724 71.9605 48.0246 72.185 48.0514C72.2713 48.0445 72.3557 48.0215 72.4346 47.9837C72.6578 48.9151 72.4043 49.1311 70.7046 49.4147C70.9449 50.2982 71.8006 50.0202 72.2655 50.4026C72.1665 51.6389 71.3926 52.0623 70.4246 51.3905C69.722 50.9079 68.9837 50.6976 67.9761 50.9121C68.1298 51.071 68.293 51.219 68.4647 51.3552C69.0273 51.7118 69.5943 52.0618 70.1657 52.4052C70.5104 52.6127 70.8987 52.7665 70.6042 53.3437C70.5514 53.4481 70.7006 53.7431 70.8273 53.8687C71.6818 54.7155 71.7518 55.5227 71.3002 56.6546C70.9726 57.4703 70.8669 58.3904 70.6807 59.2682C70.653 59.4009 70.7243 59.5505 70.9105 59.7481C71.0003 59.5406 71.0862 59.3332 71.1812 59.1285C71.5774 58.2818 71.9472 57.4181 72.3698 56.5882C72.8123 55.7274 73.264 54.8947 72.5706 53.9435C72.5405 53.8842 72.5232 53.8183 72.5202 53.7509C72.5172 53.6834 72.5287 53.6161 72.5535 53.554C73.2297 52.1244 73.9203 50.7004 74.6097 49.2778C74.6242 49.2482 74.6824 49.2426 74.8026 49.1903C74.3562 50.7159 73.9269 52.1836 73.4475 53.8193L74.8646 53.355C74.3364 56.0788 73.5439 58.557 72.2642 60.8587L72.4464 61.0507C72.6736 60.942 72.9286 60.8714 73.1253 60.7176C74.6309 59.5434 75.3546 57.8555 75.6478 55.9715C75.9053 54.3175 76.0004 52.6338 76.1879 50.7653C76.3913 51.4145 76.6119 51.924 76.703 52.4589C76.8393 53.2886 76.9314 54.1258 76.979 54.9667C77.0767 56.4937 76.8403 57.9162 75.9713 59.2146C74.9809 60.6922 74.0947 62.2502 73.1609 63.7772C72.527 63.1916 72.4623 63.2127 72.1044 63.9875C71.8658 64.5116 71.6176 65.029 71.3596 65.5399C71.2651 65.701 71.1601 65.8548 71.0453 66L70.8128 65.9421V64.4702C70.8128 64.1202 70.8801 63.7462 70.7903 63.4244C70.7137 63.1422 70.4563 62.9319 70.2794 62.6906C70.0733 62.9136 69.751 63.1041 69.6876 63.368C69.5846 63.7843 69.6559 64.25 69.644 64.6946C69.644 64.8498 69.6071 65.0036 69.5701 65.293C68.5136 64.5139 67.494 63.8168 66.1602 64.1343L66.2103 63.8281H68.7196C68.54 63.0688 68.3432 62.4281 68.2415 61.7704C68.0804 60.7289 68.0078 59.6761 68.5189 58.6967C68.5873 58.5239 68.6932 58.371 68.8279 58.2507C69.9003 57.5451 69.9095 56.409 69.8434 55.2969C69.7695 54.0536 69.1131 53.125 68.1702 52.4236C68.0289 52.3191 67.8784 52.2316 67.7001 52.1159L65.9515 54.3387C66.9842 54.6096 67.6921 54.0296 68.4977 53.307C68.2759 54.5772 67.4003 54.9187 66.5881 55.3223L66.6171 55.5255L68.5585 55.4014C68.3142 55.9983 67.7806 56.059 67.3012 56.1902C66.8218 56.3215 66.3477 56.4104 65.8696 56.5191L65.8776 56.7914C66.3398 56.8789 66.802 57.0257 67.2656 57.037C67.7291 57.0483 68.1979 56.9227 68.6997 56.8521C68.3035 57.9572 66.9829 58.4568 66.036 58.1293C64.9997 57.7709 63.9779 57.3682 62.9707 56.9213C62.8402 56.8517 62.7247 56.7539 62.6313 56.6341C62.5378 56.5144 62.4686 56.3753 62.428 56.2255C62.3408 55.8021 62.3104 55.2983 62.453 54.9116C62.5745 54.5828 62.9351 54.261 63.2587 54.127C64.2267 53.7276 65.0535 53.1588 65.6359 52.2373C65.8173 51.9752 65.9407 51.6725 65.997 51.352C66.0533 51.0316 66.0409 50.7017 65.9608 50.3871C65.6742 49.1635 65.9277 47.4869 67.5877 47.0381C68.7882 46.7121 69.7497 45.9275 70.4589 44.8309C71.0915 43.8515 71.5154 42.7916 71.3213 41.5088C71.1892 41.8193 71.0413 42.1241 70.9251 42.443C70.6834 43.1416 70.2475 43.4719 69.5304 43.4479C67.8571 43.3914 66.5814 44.0336 65.8326 45.7553C65.5684 46.3452 65.0072 46.7827 64.5806 47.2894L64.3904 47.1609C64.4208 46.8984 64.4499 46.6359 64.4816 46.3749C64.4974 46.2337 64.5806 46.0249 64.5278 45.9726C63.775 45.2458 64.5398 44.8902 64.8594 44.4569C65.1948 44.0025 65.5857 43.5932 65.9661 43.1473L64.8871 42.4699H67.5468L67.572 42.3838L65.1948 41.4636C66.6938 40.6592 68.157 40.9725 69.5833 40.7495L64.4842 39.0983L64.5383 38.8514H67.7502C65.5183 36.7881 58.4752 36.8205 56.2446 38.7766H59.4737L59.5317 39.0221L54.4366 40.679C55.8444 40.8765 57.2946 40.6394 58.8305 41.3846L56.2618 42.3908H58.9031L58.952 42.532L57.9668 43.1459C58.4528 43.7019 58.9639 44.2636 59.4499 44.8479C59.6903 45.1386 59.928 45.394 59.5556 45.864C59.368 46.0982 59.5225 46.6416 59.5225 47.1341C59.2486 47.0346 58.9967 46.876 58.7825 46.6682C58.5683 46.4604 58.3962 46.2078 58.2771 45.9261C57.4952 44.0406 56.1126 43.3434 54.2729 43.4309C53.7341 43.4563 53.3629 43.1699 53.1476 42.6449C52.9997 42.2514 52.8101 41.8773 52.5825 41.53C52.5825 41.8545 52.5256 42.1947 52.5917 42.5037C53.046 44.6333 54.2042 46.1378 56.131 46.9323C56.2719 46.9952 56.4162 47.0494 56.5629 47.0946C58.0381 47.501 58.3035 48.9194 58.0512 50.3278C57.9192 51.1054 58.0276 51.749 58.4607 52.3615C59.0577 53.2082 59.8104 53.8278 60.7719 54.1129C61.3939 54.2963 61.6488 54.6675 61.6316 55.383C61.5973 56.7731 61.6316 56.7802 60.3994 57.2727C59.6638 57.5677 58.9269 57.8584 58.1807 58.1195C57.0146 58.5217 55.9884 58.0912 55.3096 56.9072C56.2908 56.9382 57.2748 57.3771 58.2085 56.7124C57.3897 56.0068 56.0835 56.5896 55.4351 55.4423H57.5376C56.7703 54.9695 55.8287 54.6957 55.5764 53.458C56.3688 54.1044 57.1241 54.5729 58.112 54.3683L56.411 52.2062C54.496 53.0615 53.5704 55.6653 54.4975 57.5691C54.5452 57.6684 54.6149 57.7537 54.7007 57.8174C55.9646 58.691 56.0636 60.0233 55.8893 61.4176C55.7916 62.215 55.5618 62.994 55.3756 63.8577C56.2776 63.8774 57.177 63.4428 57.9786 63.9988C57.3553 64.0934 56.7161 64.1018 56.1297 64.3008C55.5433 64.4998 55.0151 64.8893 54.3574 65.252C54.3574 64.6339 54.3574 64.0863 54.3574 63.5373C54.3574 63.114 54.2914 62.7061 53.783 62.6906C53.223 62.6779 53.1794 63.114 53.1794 63.5613C53.2036 64.3755 53.1509 65.1901 53.0222 65.9929C52.9072 65.8973 52.8047 65.7858 52.7171 65.6613C52.4358 65.1067 52.1691 64.545 51.9076 63.9805C51.5444 63.1916 51.5114 63.1803 50.7797 63.8916L47 56.9241V53.9717C47.0858 53.6034 47.1691 53.2336 47.2576 52.8653C47.4152 52.2114 47.5732 51.5585 47.7317 50.9065L47.9562 50.9474C47.9562 51.2861 47.9337 51.6276 47.9562 51.9635C48.0698 53.3748 48.1093 54.8114 48.3431 56.2058C48.6508 58.0404 49.4327 59.6507 50.8934 60.7811C51.0849 60.9222 51.3503 60.9702 51.5814 61.0634C51.5352 60.8122 51.5418 60.5299 51.4335 60.314C50.4551 58.3879 49.7328 56.3255 49.2874 54.1862C49.2452 53.9788 49.2319 53.7629 49.195 53.4665L50.5724 53.8899L49.3495 49.5206L49.6136 49.4077C50.2383 50.8034 50.8656 52.1992 51.4784 53.6006C51.5011 53.6634 51.5104 53.731 51.5053 53.7982C51.5003 53.8653 51.4812 53.9305 51.4494 53.9887C50.8062 54.8524 51.1628 55.6511 51.5537 56.4612C52.0186 57.4279 52.4676 58.4031 52.9311 59.3684C53.0495 59.5653 53.1797 59.7539 53.3207 59.9329C53.4105 58.5753 53.2216 57.5239 52.7131 56.5346C52.3236 55.7782 52.4226 54.5151 52.9654 54.1439C53.4712 53.7981 53.5954 53.4213 53.3036 52.8484L56.0109 51.1252C55.1221 50.7611 54.3983 50.9841 53.7142 51.4385C52.7132 52.106 51.9762 51.7207 51.8111 50.404C52.1136 50.3095 52.4279 50.2305 52.7356 50.1119C53.0433 49.9934 53.4448 49.9256 53.3127 49.3922C51.8164 49.2299 51.5562 49.0168 51.6632 48.0924L52.7872 47.995C51.1694 46.07 50.6477 43.867 50.1353 41.5342L49.4009 42.6759C48.1872 42.2822 47.869 41.8785 48.0288 40.885L48.9731 41.4029C48.9834 41.3158 48.9834 41.2276 48.9731 41.1404C48.9541 41.0493 48.9136 40.9647 48.8555 40.8949C47.9244 40.0298 47.4161 38.8951 47.0304 37.6786V36.129L48.087 35H48.6152C49.6057 35.4544 50.5737 35.9752 51.5893 36.3492C53.5703 37.0788 55.5923 37.5248 57.7001 37.0746C60.4509 36.4788 63.2835 36.4554 66.0427 37.0054C69.409 37.6786 72.391 36.5693 75.3083 35L75.9383 35.0056ZM54.8078 37.9284L54.8579 37.7167C53.7512 37.4697 52.6537 37.1084 51.5364 37.0111C50.2554 36.8953 49.6717 37.7167 49.9425 39.0546C50.0556 39.5035 50.2068 39.9404 50.3941 40.36C50.6583 41.0445 50.9303 41.7304 51.2367 42.3951C51.7914 43.6003 52.3052 44.838 52.9734 45.9684C53.3287 46.5682 53.9744 46.9704 54.4895 47.4615L54.6611 47.2696C53.5796 46.1714 52.7534 44.8182 52.2483 43.318C51.7425 41.8207 51.4388 40.2951 51.4771 38.6834L52.2219 38.8104L52.2681 38.6877L50.7006 37.8677C52.1427 37.1762 53.4647 38.236 54.8065 37.9284H54.8078ZM69.4063 47.2908C70.8115 46.5329 71.6291 45.2614 72.2273 43.7993C72.7318 42.5658 73.2323 41.3296 73.7104 40.0834C73.8695 39.6752 73.9852 39.2491 74.0551 38.8133C74.1872 37.9115 73.7552 37.1677 72.8981 37.1324C72.041 37.0971 71.1813 37.3159 70.3321 37.4598C69.9055 37.5318 69.4909 37.6871 68.9098 37.8494C70.4946 38.301 71.8667 37.1621 73.3538 37.8719L71.6145 38.7328L71.6382 38.8471L72.5746 38.6947C72.4875 42.0041 71.6317 44.9241 69.4051 47.2908H69.4063Z" fill="#A05CEB"/>
<path d="M67.9017 62.8117C67.4659 62.5027 67.0975 62.1753 66.6776 61.965C66.1717 61.7095 65.8851 61.9128 65.9643 62.497C66.0621 63.2027 65.7227 63.4849 65.2155 63.6515C64.7214 63.8349 64.2132 63.9718 63.6968 64.0607C63.0232 64.1553 62.3854 64.024 61.9681 63.2958C61.6075 63.9746 61.0238 64.0805 60.4309 64.0212C59.8934 63.9481 59.3631 63.8243 58.8461 63.6515C58.3046 63.4892 57.9109 63.2013 58.047 62.466C58.146 61.9226 57.8304 61.7674 57.4224 61.9862C56.9509 62.2374 56.5203 62.5775 56.0581 62.888C56.1294 61.9114 56.6325 61.1507 57.3153 60.5071C58.1717 59.693 59.2537 59.2003 60.3964 59.1043C62.5438 58.9082 64.6926 58.8221 66.5468 60.3392C67.3603 61.0067 67.8753 61.9269 67.9017 62.8117Z" fill="#A05CEB"/>
<path d="M59.4545 50.349C59.7081 51.2819 60.1505 51.5839 61.5913 51.5556C62.698 51.5345 63.9949 51.9155 64.7609 50.3024C64.8599 50.6397 65.0778 51.0081 65.025 51.3059C64.9775 51.5627 64.6407 51.8704 64.3806 51.9452C63.8517 52.0824 63.308 52.1427 62.764 52.1244C61.7471 52.0948 60.7264 52.027 59.7161 51.8958C59.4519 51.8605 59.0662 51.5768 59.0094 51.3313C58.9368 51.0278 59.1415 50.6482 59.234 50.301L59.4545 50.349Z" fill="#A05CEB"/>
<path d="M68.5826 45.1949C68.5642 46.0586 68.1864 46.6372 67.7414 46.5017C67.4231 46.4043 67.1049 46.0529 66.9345 45.7269C66.7932 45.4574 67.7678 44.739 68.2472 44.818C68.4096 44.8435 68.5351 45.1384 68.5826 45.1949Z" fill="#A05CEB"/>
<path d="M55.5584 44.7505C55.8938 44.8733 56.257 44.9467 56.5554 45.1358C56.7641 45.2769 57.0533 45.6212 57.0071 45.7737C56.9226 46.0559 56.6505 46.4158 56.4009 46.4793C56.1513 46.5428 55.7406 46.3241 55.6085 46.0926C55.4276 45.7694 55.4462 45.3192 55.3801 44.9241L55.5584 44.7505Z" fill="#A05CEB"/>
</g>
<defs>
<filter id="filter0_d_14_4198" x="0" y="0" width="124" height="124" filterUnits="userSpaceOnUse" color-interpolation-filters="sRGB">
<feFlood flood-opacity="0" result="BackgroundImageFix"/>
<feColorMatrix in="SourceAlpha" type="matrix" values="0 0 0 0 0 0 0 0 0 0 0 0 0 0 0 0 0 0 127 0" result="hardAlpha"/>
<feOffset dy="2"/>
<feGaussianBlur stdDeviation="4"/>
<feColorMatrix type="matrix" values="0 0 0 0 0 0 0 0 0 0 0 0 0 0 0 0 0 0 0.12 0"/>
<feBlend mode="normal" in2="BackgroundImageFix" result="effect1_dropShadow_14_4198"/>
<feBlend mode="normal" in="SourceGraphic" in2="effect1_dropShadow_14_4198" result="shape"/>
</filter>
</defs>
</svg>
