<svg width="124" height="124" viewBox="0 0 124 124" fill="none" xmlns="http://www.w3.org/2000/svg">
<g filter="url(#filter0_d_14_4206)">
<rect x="8" y="6" width="108" height="108" rx="8" fill="#282A2F"/>
<path d="M26.8242 87.8613C27.472 87.8613 28.0059 87.9395 28.4258 88.0957C28.849 88.252 29.1631 88.488 29.3682 88.8037C29.5732 89.1195 29.6758 89.5182 29.6758 90C29.6758 90.3255 29.6139 90.6104 29.4902 90.8545C29.3665 91.0986 29.2038 91.3053 29.002 91.4746C28.8001 91.6439 28.582 91.7822 28.3477 91.8896L30.4473 95H28.7676L27.0635 92.2607H26.2578V95H24.7441V87.8613H26.8242ZM26.7168 89.1016H26.2578V91.0303H26.7461C27.2474 91.0303 27.6055 90.9473 27.8203 90.7812C28.0384 90.612 28.1475 90.3646 28.1475 90.0391C28.1475 89.7005 28.0303 89.4596 27.7959 89.3164C27.5648 89.1732 27.2051 89.1016 26.7168 89.1016ZM35.457 95H31.3457V87.8613H35.457V89.1016H32.8594V90.6689H35.2764V91.9092H32.8594V93.75H35.457V95ZM36.9512 95V87.8613H38.4648V93.75H41.3604V95H36.9512ZM46.9756 95L46.458 93.3008H43.8555L43.3379 95H41.707L44.2266 87.832H46.0771L48.6064 95H46.9756ZM46.0967 92.0312L45.5791 90.3711C45.5465 90.2604 45.5026 90.1188 45.4473 89.9463C45.3952 89.7705 45.3415 89.5931 45.2861 89.4141C45.234 89.2318 45.1917 89.0739 45.1592 88.9404C45.1266 89.0739 45.0811 89.2399 45.0225 89.4385C44.9671 89.6338 44.9134 89.8193 44.8613 89.9951C44.8092 90.1709 44.7718 90.2962 44.749 90.3711L44.2363 92.0312H46.0967ZM55.2812 95H53.5527L51.8926 92.2998L50.2324 95H48.6113L50.9795 91.3184L48.7627 87.8613H50.4326L51.9707 90.4297L53.4795 87.8613H55.1104L52.8691 91.4014L55.2812 95ZM61.4873 90.9912H64.3193V94.6924C63.945 94.8161 63.556 94.9154 63.1523 94.9902C62.7487 95.0618 62.2913 95.0977 61.7803 95.0977C61.0706 95.0977 60.4684 94.9577 59.9736 94.6777C59.4788 94.3978 59.1029 93.9844 58.8457 93.4375C58.5885 92.8906 58.46 92.2184 58.46 91.4209C58.46 90.6722 58.6032 90.0244 58.8896 89.4775C59.1794 88.9307 59.6009 88.5075 60.1543 88.208C60.7109 87.9085 61.3896 87.7588 62.1904 87.7588C62.568 87.7588 62.9408 87.7995 63.3086 87.8809C63.6764 87.9622 64.0101 88.068 64.3096 88.1982L63.8066 89.4092C63.5885 89.2985 63.3395 89.2057 63.0596 89.1309C62.7796 89.056 62.4867 89.0186 62.1807 89.0186C61.7412 89.0186 61.3587 89.1195 61.0332 89.3213C60.7109 89.5231 60.4603 89.8063 60.2812 90.1709C60.1055 90.5322 60.0176 90.9587 60.0176 91.4502C60.0176 91.9157 60.0811 92.3291 60.208 92.6904C60.335 93.0485 60.5352 93.3301 60.8086 93.5352C61.082 93.737 61.4385 93.8379 61.8779 93.8379C62.0928 93.8379 62.2734 93.8281 62.4199 93.8086C62.5697 93.7858 62.7096 93.763 62.8398 93.7402V92.251H61.4873V90.9912ZM70.3936 95L69.876 93.3008H67.2734L66.7559 95H65.125L67.6445 87.832H69.4951L72.0244 95H70.3936ZM69.5146 92.0312L68.9971 90.3711C68.9645 90.2604 68.9206 90.1188 68.8652 89.9463C68.8132 89.7705 68.7594 89.5931 68.7041 89.4141C68.652 89.2318 68.6097 89.0739 68.5771 88.9404C68.5446 89.0739 68.499 89.2399 68.4404 89.4385C68.3851 89.6338 68.3314 89.8193 68.2793 89.9951C68.2272 90.1709 68.1898 90.2962 68.167 90.3711L67.6543 92.0312H69.5146ZM75.9502 95L74.2314 89.3994H74.1875C74.194 89.5329 74.2038 89.7347 74.2168 90.0049C74.2331 90.2718 74.2477 90.5566 74.2607 90.8594C74.2738 91.1621 74.2803 91.4355 74.2803 91.6797V95H72.9277V87.8613H74.9883L76.6777 93.3203H76.707L78.499 87.8613H80.5596V95H79.1484V91.6211C79.1484 91.3965 79.1517 91.1377 79.1582 90.8447C79.168 90.5518 79.1794 90.2734 79.1924 90.0098C79.2054 89.7428 79.2152 89.5426 79.2217 89.4092H79.1777L77.3369 95H75.9502ZM82.3613 95V87.8613H83.875V95H82.3613ZM92.0049 95H90.0811L86.9756 89.5996H86.9316C86.9447 89.8242 86.9561 90.0505 86.9658 90.2783C86.9756 90.5062 86.9854 90.734 86.9951 90.9619C87.0049 91.1865 87.0146 91.4128 87.0244 91.6406V95H85.6719V87.8613H87.5811L90.6816 93.208H90.7158C90.7093 92.9867 90.7012 92.7669 90.6914 92.5488C90.6816 92.3307 90.6719 92.1126 90.6621 91.8945C90.6556 91.6764 90.6491 91.4583 90.6426 91.2402V87.8613H92.0049V95ZM96.5166 90.9912H99.3486V94.6924C98.9743 94.8161 98.5853 94.9154 98.1816 94.9902C97.778 95.0618 97.3206 95.0977 96.8096 95.0977C96.0999 95.0977 95.4977 94.9577 95.0029 94.6777C94.5081 94.3978 94.1322 93.9844 93.875 93.4375C93.6178 92.8906 93.4893 92.2184 93.4893 91.4209C93.4893 90.6722 93.6325 90.0244 93.9189 89.4775C94.2087 88.9307 94.6302 88.5075 95.1836 88.208C95.7402 87.9085 96.4189 87.7588 97.2197 87.7588C97.5973 87.7588 97.9701 87.7995 98.3379 87.8809C98.7057 87.9622 99.0394 88.068 99.3389 88.1982L98.8359 89.4092C98.6178 89.2985 98.3688 89.2057 98.0889 89.1309C97.8089 89.056 97.516 89.0186 97.21 89.0186C96.7705 89.0186 96.388 89.1195 96.0625 89.3213C95.7402 89.5231 95.4896 89.8063 95.3105 90.1709C95.1348 90.5322 95.0469 90.9587 95.0469 91.4502C95.0469 91.9157 95.1104 92.3291 95.2373 92.6904C95.3643 93.0485 95.5645 93.3301 95.8379 93.5352C96.1113 93.737 96.4678 93.8379 96.9072 93.8379C97.1221 93.8379 97.3027 93.8281 97.4492 93.8086C97.599 93.7858 97.7389 93.763 97.8691 93.7402V92.251H96.5166V90.9912Z" fill="#A05CEB"/>
<ellipse cx="61.7582" cy="50.2578" rx="4.1129" ry="4.11719" fill="#A05CEB"/>
<ellipse cx="51.1129" cy="61.8828" rx="4.1129" ry="4.11719" fill="#A05CEB"/>
<ellipse cx="72.8871" cy="61.8828" rx="4.1129" ry="4.11719" fill="#A05CEB"/>
<ellipse cx="51.1129" cy="39.1172" rx="4.1129" ry="4.11719" fill="#A05CEB"/>
<ellipse cx="72.8871" cy="39.1172" rx="4.1129" ry="4.11719" fill="#A05CEB"/>
</g>
<defs>
<filter id="filter0_d_14_4206" x="0" y="0" width="124" height="124" filterUnits="userSpaceOnUse" color-interpolation-filters="sRGB">
<feFlood flood-opacity="0" result="BackgroundImageFix"/>
<feColorMatrix in="SourceAlpha" type="matrix" values="0 0 0 0 0 0 0 0 0 0 0 0 0 0 0 0 0 0 127 0" result="hardAlpha"/>
<feOffset dy="2"/>
<feGaussianBlur stdDeviation="4"/>
<feColorMatrix type="matrix" values="0 0 0 0 0 0 0 0 0 0 0 0 0 0 0 0 0 0 0.12 0"/>
<feBlend mode="normal" in2="BackgroundImageFix" result="effect1_dropShadow_14_4206"/>
<feBlend mode="normal" in="SourceGraphic" in2="effect1_dropShadow_14_4206" result="shape"/>
</filter>
</defs>
</svg>
