<svg width="124" height="124" viewBox="0 0 124 124" fill="none" xmlns="http://www.w3.org/2000/svg">
<g filter="url(#filter0_d_14_4254)">
<rect x="8" y="6" width="108" height="108" rx="8" fill="#282A2F"/>
<path d="M28.8262 93.0176C28.8262 93.4408 28.7236 93.8086 28.5186 94.1211C28.3135 94.4336 28.014 94.6745 27.6201 94.8438C27.2295 95.013 26.7542 95.0977 26.1943 95.0977C25.9469 95.0977 25.7044 95.0814 25.4668 95.0488C25.2324 95.0163 25.0062 94.9691 24.7881 94.9072C24.5732 94.8421 24.3682 94.7624 24.1729 94.668V93.2617C24.5114 93.4115 24.863 93.5465 25.2275 93.667C25.5921 93.7874 25.9535 93.8477 26.3115 93.8477C26.5589 93.8477 26.7575 93.8151 26.9072 93.75C27.0602 93.6849 27.1709 93.5954 27.2393 93.4814C27.3076 93.3675 27.3418 93.2373 27.3418 93.0908C27.3418 92.9118 27.2816 92.7588 27.1611 92.6318C27.0407 92.5049 26.8747 92.3861 26.6631 92.2754C26.4548 92.1647 26.2188 92.0459 25.9551 91.9189C25.7891 91.8408 25.6084 91.7464 25.4131 91.6357C25.2178 91.5218 25.0322 91.3835 24.8564 91.2207C24.6807 91.0579 24.5358 90.861 24.4219 90.6299C24.3112 90.3955 24.2559 90.1156 24.2559 89.79C24.2559 89.3636 24.3535 88.999 24.5488 88.6963C24.7441 88.3936 25.0225 88.1624 25.3838 88.0029C25.7484 87.8402 26.1781 87.7588 26.6729 87.7588C27.0439 87.7588 27.3971 87.8027 27.7324 87.8906C28.071 87.9753 28.4242 88.099 28.792 88.2617L28.3037 89.4385C27.9749 89.305 27.6803 89.2025 27.4199 89.1309C27.1595 89.056 26.8942 89.0186 26.624 89.0186C26.4352 89.0186 26.2741 89.0495 26.1406 89.1113C26.0072 89.1699 25.9062 89.2546 25.8379 89.3652C25.7695 89.4727 25.7354 89.598 25.7354 89.7412C25.7354 89.9105 25.7842 90.0537 25.8818 90.1709C25.9827 90.2848 26.1325 90.3955 26.3311 90.5029C26.5329 90.6104 26.7835 90.7357 27.083 90.8789C27.4476 91.0514 27.7585 91.2321 28.0156 91.4209C28.276 91.6064 28.4762 91.8262 28.6162 92.0801C28.7562 92.3307 28.8262 92.6432 28.8262 93.0176ZM32.4004 87.8613C33.3216 87.8613 33.9938 88.0599 34.417 88.457C34.8402 88.8509 35.0518 89.3945 35.0518 90.0879C35.0518 90.4004 35.0046 90.6999 34.9102 90.9863C34.8158 91.2695 34.6611 91.5218 34.4463 91.7432C34.2347 91.9645 33.9515 92.1403 33.5967 92.2705C33.2419 92.3975 32.804 92.4609 32.2832 92.4609H31.6338V95H30.1201V87.8613H32.4004ZM32.3223 89.1016H31.6338V91.2207H32.1318C32.415 91.2207 32.6608 91.1833 32.8691 91.1084C33.0775 91.0335 33.2386 90.9163 33.3525 90.7568C33.4665 90.5973 33.5234 90.3923 33.5234 90.1416C33.5234 89.79 33.4258 89.5296 33.2305 89.3604C33.0352 89.1878 32.7324 89.1016 32.3223 89.1016ZM40.7695 95L40.252 93.3008H37.6494L37.1318 95H35.501L38.0205 87.832H39.8711L42.4004 95H40.7695ZM39.8906 92.0312L39.373 90.3711C39.3405 90.2604 39.2965 90.1188 39.2412 89.9463C39.1891 89.7705 39.1354 89.5931 39.0801 89.4141C39.028 89.2318 38.9857 89.0739 38.9531 88.9404C38.9206 89.0739 38.875 89.2399 38.8164 89.4385C38.7611 89.6338 38.7074 89.8193 38.6553 89.9951C38.6032 90.1709 38.5658 90.2962 38.543 90.3711L38.0303 92.0312H39.8906ZM49.2266 91.3623C49.2266 92.1663 49.0719 92.8385 48.7627 93.3789C48.4567 93.916 48.0124 94.3213 47.4297 94.5947C46.847 94.8649 46.1455 95 45.3252 95H43.3037V87.8613H45.5449C46.2936 87.8613 46.943 87.9948 47.4932 88.2617C48.0433 88.5254 48.4697 88.9176 48.7725 89.4385C49.0752 89.9561 49.2266 90.5973 49.2266 91.3623ZM47.6543 91.4014C47.6543 90.874 47.5762 90.4411 47.4199 90.1025C47.2669 89.7607 47.0391 89.5085 46.7363 89.3457C46.4368 89.1829 46.0658 89.1016 45.623 89.1016H44.8174V93.75H45.4668C46.2057 93.75 46.7542 93.5531 47.1123 93.1592C47.4736 92.7653 47.6543 92.1794 47.6543 91.4014ZM54.8174 95H50.7061V87.8613H54.8174V89.1016H52.2197V90.6689H54.6367V91.9092H52.2197V93.75H54.8174V95ZM61.6191 90.9912H64.4512V94.6924C64.0768 94.8161 63.6878 94.9154 63.2842 94.9902C62.8805 95.0618 62.4232 95.0977 61.9121 95.0977C61.2025 95.0977 60.6003 94.9577 60.1055 94.6777C59.6107 94.3978 59.2347 93.9844 58.9775 93.4375C58.7204 92.8906 58.5918 92.2184 58.5918 91.4209C58.5918 90.6722 58.735 90.0244 59.0215 89.4775C59.3112 88.9307 59.7327 88.5075 60.2861 88.208C60.8428 87.9085 61.5215 87.7588 62.3223 87.7588C62.6999 87.7588 63.0726 87.7995 63.4404 87.8809C63.8083 87.9622 64.1419 88.068 64.4414 88.1982L63.9385 89.4092C63.7204 89.2985 63.4714 89.2057 63.1914 89.1309C62.9115 89.056 62.6185 89.0186 62.3125 89.0186C61.873 89.0186 61.4906 89.1195 61.165 89.3213C60.8428 89.5231 60.5921 89.8063 60.4131 90.1709C60.2373 90.5322 60.1494 90.9587 60.1494 91.4502C60.1494 91.9157 60.2129 92.3291 60.3398 92.6904C60.4668 93.0485 60.667 93.3301 60.9404 93.5352C61.2139 93.737 61.5703 93.8379 62.0098 93.8379C62.2246 93.8379 62.4053 93.8281 62.5518 93.8086C62.7015 93.7858 62.8415 93.763 62.9717 93.7402V92.251H61.6191V90.9912ZM70.5254 95L70.0078 93.3008H67.4053L66.8877 95H65.2568L67.7764 87.832H69.627L72.1562 95H70.5254ZM69.6465 92.0312L69.1289 90.3711C69.0964 90.2604 69.0524 90.1188 68.9971 89.9463C68.945 89.7705 68.8913 89.5931 68.8359 89.4141C68.7839 89.2318 68.7415 89.0739 68.709 88.9404C68.6764 89.0739 68.6309 89.2399 68.5723 89.4385C68.5169 89.6338 68.4632 89.8193 68.4111 89.9951C68.359 90.1709 68.3216 90.2962 68.2988 90.3711L67.7861 92.0312H69.6465ZM76.082 95L74.3633 89.3994H74.3193C74.3258 89.5329 74.3356 89.7347 74.3486 90.0049C74.3649 90.2718 74.3796 90.5566 74.3926 90.8594C74.4056 91.1621 74.4121 91.4355 74.4121 91.6797V95H73.0596V87.8613H75.1201L76.8096 93.3203H76.8389L78.6309 87.8613H80.6914V95H79.2803V91.6211C79.2803 91.3965 79.2835 91.1377 79.29 90.8447C79.2998 90.5518 79.3112 90.2734 79.3242 90.0098C79.3372 89.7428 79.347 89.5426 79.3535 89.4092H79.3096L77.4688 95H76.082ZM82.4932 95V87.8613H84.0068V95H82.4932ZM92.1367 95H90.2129L87.1074 89.5996H87.0635C87.0765 89.8242 87.0879 90.0505 87.0977 90.2783C87.1074 90.5062 87.1172 90.734 87.127 90.9619C87.1367 91.1865 87.1465 91.4128 87.1562 91.6406V95H85.8037V87.8613H87.7129L90.8135 93.208H90.8477C90.8411 92.9867 90.833 92.7669 90.8232 92.5488C90.8135 92.3307 90.8037 92.1126 90.7939 91.8945C90.7874 91.6764 90.7809 91.4583 90.7744 91.2402V87.8613H92.1367V95ZM96.6484 90.9912H99.4805V94.6924C99.1061 94.8161 98.7171 94.9154 98.3135 94.9902C97.9098 95.0618 97.4525 95.0977 96.9414 95.0977C96.2318 95.0977 95.6296 94.9577 95.1348 94.6777C94.64 94.3978 94.264 93.9844 94.0068 93.4375C93.7497 92.8906 93.6211 92.2184 93.6211 91.4209C93.6211 90.6722 93.7643 90.0244 94.0508 89.4775C94.3405 88.9307 94.762 88.5075 95.3154 88.208C95.8721 87.9085 96.5508 87.7588 97.3516 87.7588C97.7292 87.7588 98.1019 87.7995 98.4697 87.8809C98.8376 87.9622 99.1712 88.068 99.4707 88.1982L98.9678 89.4092C98.7497 89.2985 98.5007 89.2057 98.2207 89.1309C97.9408 89.056 97.6478 89.0186 97.3418 89.0186C96.9023 89.0186 96.5199 89.1195 96.1943 89.3213C95.8721 89.5231 95.6214 89.8063 95.4424 90.1709C95.2666 90.5322 95.1787 90.9587 95.1787 91.4502C95.1787 91.9157 95.2422 92.3291 95.3691 92.6904C95.4961 93.0485 95.6963 93.3301 95.9697 93.5352C96.2432 93.737 96.5996 93.8379 97.0391 93.8379C97.2539 93.8379 97.4346 93.8281 97.5811 93.8086C97.7308 93.7858 97.8708 93.763 98.001 93.7402V92.251H96.6484V90.9912Z" fill="#A05CEB"/>
<path d="M61.6335 56.6521C63.1162 62.9034 58.0531 66.1985 52.2929 65.9813V64.8173C53.4725 64.6377 54.639 64.5484 55.7519 64.2734C58.5882 63.5721 60.1902 61.7505 60.444 59.0765C60.4681 58.8319 60.444 58.5843 60.444 58.3245C59.5205 58.4321 58.6812 58.5782 57.8364 58.6208C55.0712 58.7599 53.3237 57.9947 52.4746 55.5977C52.1988 54.7621 52.077 53.8892 52.1145 53.016C52.1857 50.4871 53.4496 48.4027 55.196 46.5405C57.3943 44.1962 59.9899 42.2691 62.719 40.4881C62.7955 40.4478 62.8813 40.4249 62.9692 40.4214C63.0571 40.4179 63.1446 40.4338 63.2246 40.4678C66.422 42.5756 69.5023 44.8092 71.8276 47.7867C73.2884 49.657 74.1058 51.7444 73.8476 54.0846C73.7639 54.8707 73.534 55.6374 73.1681 56.3507C72.2084 58.1774 70.6644 58.7244 68.1892 58.6259C67.3433 58.5924 66.5018 58.4372 65.5006 58.3215C65.5662 58.9212 65.5618 59.521 65.7063 60.0883C66.3366 62.5746 68.2045 63.8735 70.7738 64.4104C71.7237 64.6133 72.7074 64.6651 73.6922 64.7879V65.9965C70.0243 66.0716 66.5193 64.936 64.844 61.9149C63.9019 60.2171 64.02 58.4392 64.3395 56.5821C64.9665 56.7353 65.5433 56.9281 66.1462 57.0144C67.1125 57.1534 68.0928 57.3188 69.0634 57.3016C70.9521 57.2711 72.0617 56.2746 72.3856 54.4834C72.7741 52.3412 72.0508 50.4536 70.7771 48.7183C69.1411 46.4857 66.9352 44.7747 64.6843 43.1094C64.2148 42.7623 63.7334 42.4284 63.2377 42.1159C63.1283 42.0448 62.8732 42.0235 62.7758 42.0905C59.8793 44.0876 57.0387 46.1498 55.0176 48.9821C53.9737 50.4465 53.3642 52.057 53.5152 53.8431C53.734 56.4238 55.1905 57.5766 57.9655 57.2935C59.1911 57.1737 60.3904 56.8754 61.6335 56.6521Z" fill="#A05CEB"/>
<path d="M50 53.9021C50 53.5622 50 53.2222 50 52.8873C50.0197 52.6184 50.0383 52.3505 50.058 52.0816L50.0963 51.8664C50.7288 48.341 52.9567 45.6984 55.6518 43.3237C57.8326 41.4074 60.1994 39.6817 62.7219 38.1685C62.8116 38.1137 62.9079 38.067 63.0315 38C66.8614 40.401 70.5162 42.9807 73.3383 46.423C74.926 48.3602 75.8967 50.5441 75.9919 52.9939C76.0794 55.266 75.4721 57.3464 73.6414 58.9813C72.1784 60.2863 70.3324 60.5837 68.389 60.5786C68.3212 60.5786 68.2522 60.5786 68.0695 60.5918C69.4515 62.5402 71.5711 62.6772 73.7039 62.8183V64.0219C70.1617 64.2776 66.891 62.8163 66.3045 59.8185C66.2574 59.577 66.2443 59.3294 66.218 59.1081C67.2444 59.1497 68.2194 59.2472 69.1889 59.2177C72.4191 59.1213 73.9971 57.1881 74.449 54.7038C74.983 51.7822 73.8712 49.2573 71.9934 46.9913C69.5861 44.0808 66.4938 41.8573 63.2777 39.7739C63.153 39.6937 62.8729 39.6724 62.758 39.7485C59.3351 41.973 56.0348 44.3314 53.5771 47.524C52.1721 49.3507 51.3547 51.3803 51.4116 53.6586C51.4291 54.845 51.7896 56.0054 52.4555 57.0186C53.6822 58.8798 55.6213 59.3121 57.7868 59.2451C58.4193 59.2258 59.0496 59.1284 59.6842 59.0655C60.4502 61.5975 56.3139 64.4298 52.3045 64.0564V62.8183C54.3934 62.6681 56.5436 62.5554 57.8316 60.7186C56.6607 60.5207 55.4822 60.4528 54.4033 60.1097C51.9576 59.3385 50.7923 57.522 50.2058 55.3087C50.1718 55.1788 50.1368 55.0479 50.1029 54.918L50.0536 54.6024L50 53.9021Z" fill="#A05CEB"/>
</g>
<defs>
<filter id="filter0_d_14_4254" x="0" y="0" width="124" height="124" filterUnits="userSpaceOnUse" color-interpolation-filters="sRGB">
<feFlood flood-opacity="0" result="BackgroundImageFix"/>
<feColorMatrix in="SourceAlpha" type="matrix" values="0 0 0 0 0 0 0 0 0 0 0 0 0 0 0 0 0 0 127 0" result="hardAlpha"/>
<feOffset dy="2"/>
<feGaussianBlur stdDeviation="4"/>
<feColorMatrix type="matrix" values="0 0 0 0 0 0 0 0 0 0 0 0 0 0 0 0 0 0 0.12 0"/>
<feBlend mode="normal" in2="BackgroundImageFix" result="effect1_dropShadow_14_4254"/>
<feBlend mode="normal" in="SourceGraphic" in2="effect1_dropShadow_14_4254" result="shape"/>
</filter>
</defs>
</svg>
