<svg width="124" height="124" viewBox="0 0 124 124" fill="none" xmlns="http://www.w3.org/2000/svg">
<g filter="url(#filter0_d_14_4146)">
<rect x="8" y="6" width="108" height="108" rx="8" fill="#282A2F"/>
<path d="M33.6504 93.0176C33.6504 93.4408 33.5479 93.8086 33.3428 94.1211C33.1377 94.4336 32.8382 94.6745 32.4443 94.8438C32.0537 95.013 31.5785 95.0977 31.0186 95.0977C30.7712 95.0977 30.5286 95.0814 30.291 95.0488C30.0566 95.0163 29.8304 94.9691 29.6123 94.9072C29.3975 94.8421 29.1924 94.7624 28.9971 94.668V93.2617C29.3356 93.4115 29.6872 93.5465 30.0518 93.667C30.4163 93.7874 30.7777 93.8477 31.1357 93.8477C31.3831 93.8477 31.5817 93.8151 31.7314 93.75C31.8844 93.6849 31.9951 93.5954 32.0635 93.4814C32.1318 93.3675 32.166 93.2373 32.166 93.0908C32.166 92.9118 32.1058 92.7588 31.9854 92.6318C31.8649 92.5049 31.6989 92.3861 31.4873 92.2754C31.279 92.1647 31.043 92.0459 30.7793 91.9189C30.6133 91.8408 30.4326 91.7464 30.2373 91.6357C30.042 91.5218 29.8564 91.3835 29.6807 91.2207C29.5049 91.0579 29.36 90.861 29.2461 90.6299C29.1354 90.3955 29.0801 90.1156 29.0801 89.79C29.0801 89.3636 29.1777 88.999 29.373 88.6963C29.5684 88.3936 29.8467 88.1624 30.208 88.0029C30.5726 87.8402 31.0023 87.7588 31.4971 87.7588C31.8682 87.7588 32.2214 87.8027 32.5566 87.8906C32.8952 87.9753 33.2484 88.099 33.6162 88.2617L33.1279 89.4385C32.7992 89.305 32.5046 89.2025 32.2441 89.1309C31.9837 89.056 31.7184 89.0186 31.4482 89.0186C31.2594 89.0186 31.0983 89.0495 30.9648 89.1113C30.8314 89.1699 30.7305 89.2546 30.6621 89.3652C30.5938 89.4727 30.5596 89.598 30.5596 89.7412C30.5596 89.9105 30.6084 90.0537 30.7061 90.1709C30.807 90.2848 30.9567 90.3955 31.1553 90.5029C31.3571 90.6104 31.6077 90.7357 31.9072 90.8789C32.2718 91.0514 32.5827 91.2321 32.8398 91.4209C33.1003 91.6064 33.3005 91.8262 33.4404 92.0801C33.5804 92.3307 33.6504 92.6432 33.6504 93.0176ZM37.2246 87.8613C38.1458 87.8613 38.818 88.0599 39.2412 88.457C39.6644 88.8509 39.876 89.3945 39.876 90.0879C39.876 90.4004 39.8288 90.6999 39.7344 90.9863C39.64 91.2695 39.4854 91.5218 39.2705 91.7432C39.0589 91.9645 38.7757 92.1403 38.4209 92.2705C38.0661 92.3975 37.6283 92.4609 37.1074 92.4609H36.458V95H34.9443V87.8613H37.2246ZM37.1465 89.1016H36.458V91.2207H36.9561C37.2393 91.2207 37.485 91.1833 37.6934 91.1084C37.9017 91.0335 38.0628 90.9163 38.1768 90.7568C38.2907 90.5973 38.3477 90.3923 38.3477 90.1416C38.3477 89.79 38.25 89.5296 38.0547 89.3604C37.8594 89.1878 37.5566 89.1016 37.1465 89.1016ZM41.2236 95V87.8613H42.7373V95H41.2236ZM50.8672 95H48.9434L45.8379 89.5996H45.7939C45.807 89.8242 45.8184 90.0505 45.8281 90.2783C45.8379 90.5062 45.8477 90.734 45.8574 90.9619C45.8672 91.1865 45.877 91.4128 45.8867 91.6406V95H44.5342V87.8613H46.4434L49.5439 93.208H49.5781C49.5716 92.9867 49.5635 92.7669 49.5537 92.5488C49.5439 92.3307 49.5342 92.1126 49.5244 91.8945C49.5179 91.6764 49.5114 91.4583 49.5049 91.2402V87.8613H50.8672V95ZM59.1484 91.4209C59.1484 91.971 59.0801 92.4723 58.9434 92.9248C58.8066 93.374 58.5983 93.7614 58.3184 94.0869C58.0417 94.4124 57.6901 94.6631 57.2637 94.8389C56.8372 95.0114 56.3327 95.0977 55.75 95.0977C55.1673 95.0977 54.6628 95.0114 54.2363 94.8389C53.8099 94.6631 53.4567 94.4124 53.1768 94.0869C52.9001 93.7614 52.6934 93.3724 52.5566 92.9199C52.4199 92.4674 52.3516 91.9645 52.3516 91.4111C52.3516 90.6722 52.472 90.0293 52.7129 89.4824C52.957 88.9323 53.3314 88.5059 53.8359 88.2031C54.3405 87.9004 54.9818 87.749 55.7598 87.749C56.5345 87.749 57.1709 87.9004 57.6689 88.2031C58.1702 88.5059 58.5413 88.9323 58.7822 89.4824C59.0264 90.0326 59.1484 90.6787 59.1484 91.4209ZM53.9385 91.4209C53.9385 91.9189 54.0003 92.3486 54.124 92.71C54.251 93.068 54.4479 93.3447 54.7148 93.54C54.9818 93.7321 55.3268 93.8281 55.75 93.8281C56.1797 93.8281 56.528 93.7321 56.7949 93.54C57.0618 93.3447 57.2555 93.068 57.376 92.71C57.4997 92.3486 57.5615 91.9189 57.5615 91.4209C57.5615 90.6722 57.4215 90.083 57.1416 89.6533C56.8617 89.2236 56.401 89.0088 55.7598 89.0088C55.3333 89.0088 54.985 89.1064 54.7148 89.3018C54.4479 89.4938 54.251 89.7705 54.124 90.1318C54.0003 90.4899 53.9385 90.9196 53.9385 91.4209ZM63.6504 95L61.9316 89.3994H61.8877C61.8942 89.5329 61.904 89.7347 61.917 90.0049C61.9333 90.2718 61.9479 90.5566 61.9609 90.8594C61.974 91.1621 61.9805 91.4355 61.9805 91.6797V95H60.6279V87.8613H62.6885L64.3779 93.3203H64.4072L66.1992 87.8613H68.2598V95H66.8486V91.6211C66.8486 91.3965 66.8519 91.1377 66.8584 90.8447C66.8682 90.5518 66.8796 90.2734 66.8926 90.0098C66.9056 89.7428 66.9154 89.5426 66.9219 89.4092H66.8779L65.0371 95H63.6504ZM74.1729 95H70.0615V87.8613H74.1729V89.1016H71.5752V90.6689H73.9922V91.9092H71.5752V93.75H74.1729V95ZM82 95H80.0762L76.9707 89.5996H76.9268C76.9398 89.8242 76.9512 90.0505 76.9609 90.2783C76.9707 90.5062 76.9805 90.734 76.9902 90.9619C77 91.1865 77.0098 91.4128 77.0195 91.6406V95H75.667V87.8613H77.5762L80.6768 93.208H80.7109C80.7044 92.9867 80.6963 92.7669 80.6865 92.5488C80.6768 92.3307 80.667 92.1126 80.6572 91.8945C80.6507 91.6764 80.6442 91.4583 80.6377 91.2402V87.8613H82V95ZM88.1719 95L87.6543 93.3008H85.0518L84.5342 95H82.9033L85.4229 87.832H87.2734L89.8027 95H88.1719ZM87.293 92.0312L86.7754 90.3711C86.7428 90.2604 86.6989 90.1188 86.6436 89.9463C86.5915 89.7705 86.5378 89.5931 86.4824 89.4141C86.4303 89.2318 86.388 89.0739 86.3555 88.9404C86.3229 89.0739 86.2773 89.2399 86.2188 89.4385C86.1634 89.6338 86.1097 89.8193 86.0576 89.9951C86.0055 90.1709 85.9681 90.2962 85.9453 90.3711L85.4326 92.0312H87.293ZM90.7061 95V87.8613H92.2197V93.75H95.1152V95H90.7061Z" fill="#A05CEB"/>
<path d="M77 49.8048V66H61.7402C61.2654 65.9086 60.7814 65.9217 60.3024 65.8831C59.1636 65.7918 58.102 65.43 57.0557 65.0129C54.9884 64.1931 53.1851 62.9555 51.5525 61.4445C50.4526 60.4355 49.4541 59.3195 48.5716 58.1128C47.9711 57.2849 47.5309 56.3575 47.1363 55.4127C47.0728 55.246 47.038 55.0696 47.0333 54.8912C47.0222 54.6904 47.1338 54.6034 47.3182 54.6686C47.4028 54.706 47.4829 54.7531 47.5568 54.8091C49.3564 55.9789 51.3176 56.6794 53.4552 56.8603C53.793 56.8889 54.1296 56.9076 54.4675 56.9076H67.2335C67.7816 56.9045 67.8605 56.8268 67.8635 56.286C67.8635 56.0374 67.8735 55.7887 67.8587 55.5401C67.8408 55.238 67.7353 55.1348 67.4437 55.1112C67.3111 55.1006 67.1773 55.1062 67.0442 55.1062C61.8242 55.1062 56.6042 55.1062 51.3842 55.1062C49.4168 55.1062 47.8749 53.9203 47.1566 52.0723C47.0124 51.7025 47.0043 51.3016 47.0037 50.91C46.9988 45.7716 46.9988 40.6332 47.0037 35.4948C47.0037 35.0684 47.0654 35.0044 47.476 35.0044C52.2338 35.0044 56.9916 35.015 61.7494 35.0001C64.6742 34.9907 67.3099 35.8964 69.7545 37.4603C71.0542 38.2923 72.2504 39.2783 73.3174 40.3972C74.2619 41.3855 75.2078 42.3825 75.889 43.5896C76.2232 44.1826 76.553 44.7787 76.8095 45.4121C76.9001 45.6359 76.9205 45.8733 76.9692 46.1058C76.8668 46.3867 76.8095 46.4166 76.5542 46.2525C75.5265 45.5967 74.4463 45.0566 73.281 44.6985C72.1269 44.3411 70.9499 44.1292 69.7415 44.1279C65.4751 44.1242 61.2089 44.1242 56.9429 44.1279C56.2221 44.1279 56.1716 44.1795 56.171 44.9006C56.171 45.097 56.1617 45.294 56.1771 45.4898C56.1999 45.7863 56.3066 45.8957 56.5958 45.9249C56.7382 45.9386 56.8824 45.9317 57.0273 45.9317C62.2062 45.9317 67.3851 45.9317 72.564 45.9317C74.5061 45.9317 76.0672 46.999 76.8058 48.8115C76.9322 49.1291 76.9118 49.4747 77 49.8048Z" fill="#A05CEB"/>
</g>
<defs>
<filter id="filter0_d_14_4146" x="0" y="0" width="124" height="124" filterUnits="userSpaceOnUse" color-interpolation-filters="sRGB">
<feFlood flood-opacity="0" result="BackgroundImageFix"/>
<feColorMatrix in="SourceAlpha" type="matrix" values="0 0 0 0 0 0 0 0 0 0 0 0 0 0 0 0 0 0 127 0" result="hardAlpha"/>
<feOffset dy="2"/>
<feGaussianBlur stdDeviation="4"/>
<feColorMatrix type="matrix" values="0 0 0 0 0 0 0 0 0 0 0 0 0 0 0 0 0 0 0.12 0"/>
<feBlend mode="normal" in2="BackgroundImageFix" result="effect1_dropShadow_14_4146"/>
<feBlend mode="normal" in="SourceGraphic" in2="effect1_dropShadow_14_4146" result="shape"/>
</filter>
</defs>
</svg>
