<svg width="124" height="124" viewBox="0 0 124 124" fill="none" xmlns="http://www.w3.org/2000/svg">
<g filter="url(#filter0_d_14_4150)">
<rect x="8" y="6" width="108" height="108" rx="8" fill="#282A2F"/>
<path d="M37.0635 90.8008L38.5527 87.8613H40.1836L37.8154 92.2217V95H36.3115V92.2705L33.9434 87.8613H35.584L37.0635 90.8008ZM43.792 90.9912H46.624V94.6924C46.2497 94.8161 45.8607 94.9154 45.457 94.9902C45.0534 95.0618 44.596 95.0977 44.085 95.0977C43.3753 95.0977 42.7731 94.9577 42.2783 94.6777C41.7835 94.3978 41.4076 93.9844 41.1504 93.4375C40.8932 92.8906 40.7646 92.2184 40.7646 91.4209C40.7646 90.6722 40.9079 90.0244 41.1943 89.4775C41.484 88.9307 41.9056 88.5075 42.459 88.208C43.0156 87.9085 43.6943 87.7588 44.4951 87.7588C44.8727 87.7588 45.2454 87.7995 45.6133 87.8809C45.9811 87.9622 46.3148 88.068 46.6143 88.1982L46.1113 89.4092C45.8932 89.2985 45.6442 89.2057 45.3643 89.1309C45.0843 89.056 44.7913 89.0186 44.4854 89.0186C44.0459 89.0186 43.6634 89.1195 43.3379 89.3213C43.0156 89.5231 42.765 89.8063 42.5859 90.1709C42.4102 90.5322 42.3223 90.9587 42.3223 91.4502C42.3223 91.9157 42.3857 92.3291 42.5127 92.6904C42.6396 93.0485 42.8398 93.3301 43.1133 93.5352C43.3867 93.737 43.7432 93.8379 44.1826 93.8379C44.3975 93.8379 44.5781 93.8281 44.7246 93.8086C44.8743 93.7858 45.0143 93.763 45.1445 93.7402V92.251H43.792V90.9912ZM51.0381 90.9912H53.8701V94.6924C53.4958 94.8161 53.1068 94.9154 52.7031 94.9902C52.2995 95.0618 51.8421 95.0977 51.3311 95.0977C50.6214 95.0977 50.0192 94.9577 49.5244 94.6777C49.0296 94.3978 48.6536 93.9844 48.3965 93.4375C48.1393 92.8906 48.0107 92.2184 48.0107 91.4209C48.0107 90.6722 48.154 90.0244 48.4404 89.4775C48.7301 88.9307 49.1517 88.5075 49.7051 88.208C50.2617 87.9085 50.9404 87.7588 51.7412 87.7588C52.1188 87.7588 52.4915 87.7995 52.8594 87.8809C53.2272 87.9622 53.5609 88.068 53.8604 88.1982L53.3574 89.4092C53.1393 89.2985 52.8903 89.2057 52.6104 89.1309C52.3304 89.056 52.0374 89.0186 51.7314 89.0186C51.292 89.0186 50.9095 89.1195 50.584 89.3213C50.2617 89.5231 50.0111 89.8063 49.832 90.1709C49.6562 90.5322 49.5684 90.9587 49.5684 91.4502C49.5684 91.9157 49.6318 92.3291 49.7588 92.6904C49.8857 93.0485 50.0859 93.3301 50.3594 93.5352C50.6328 93.737 50.9893 93.8379 51.4287 93.8379C51.6436 93.8379 51.8242 93.8281 51.9707 93.8086C52.1204 93.7858 52.2604 93.763 52.3906 93.7402V92.251H51.0381V90.9912ZM61.4971 91.3623C61.4971 92.1663 61.3424 92.8385 61.0332 93.3789C60.7272 93.916 60.2829 94.3213 59.7002 94.5947C59.1175 94.8649 58.416 95 57.5957 95H55.5742V87.8613H57.8154C58.5641 87.8613 59.2135 87.9948 59.7637 88.2617C60.3138 88.5254 60.7402 88.9176 61.043 89.4385C61.3457 89.9561 61.4971 90.5973 61.4971 91.3623ZM59.9248 91.4014C59.9248 90.874 59.8467 90.4411 59.6904 90.1025C59.5374 89.7607 59.3096 89.5085 59.0068 89.3457C58.7074 89.1829 58.3363 89.1016 57.8936 89.1016H57.0879V93.75H57.7373C58.4762 93.75 59.0247 93.5531 59.3828 93.1592C59.7441 92.7653 59.9248 92.1794 59.9248 91.4014ZM65.0566 87.8613C65.7044 87.8613 66.2383 87.9395 66.6582 88.0957C67.0814 88.252 67.3955 88.488 67.6006 88.8037C67.8057 89.1195 67.9082 89.5182 67.9082 90C67.9082 90.3255 67.8464 90.6104 67.7227 90.8545C67.599 91.0986 67.4362 91.3053 67.2344 91.4746C67.0326 91.6439 66.8145 91.7822 66.5801 91.8896L68.6797 95H67L65.2959 92.2607H64.4902V95H62.9766V87.8613H65.0566ZM64.9492 89.1016H64.4902V91.0303H64.9785C65.4798 91.0303 65.8379 90.9473 66.0527 90.7812C66.2708 90.612 66.3799 90.3646 66.3799 90.0391C66.3799 89.7005 66.2627 89.4596 66.0283 89.3164C65.7972 89.1732 65.4375 89.1016 64.9492 89.1016ZM73.9482 95L73.4307 93.3008H70.8281L70.3105 95H68.6797L71.1992 87.832H73.0498L75.5791 95H73.9482ZM73.0693 92.0312L72.5518 90.3711C72.5192 90.2604 72.4753 90.1188 72.4199 89.9463C72.3678 89.7705 72.3141 89.5931 72.2588 89.4141C72.2067 89.2318 72.1644 89.0739 72.1318 88.9404C72.0993 89.0739 72.0537 89.2399 71.9951 89.4385C71.9398 89.6338 71.8861 89.8193 71.834 89.9951C71.7819 90.1709 71.7445 90.2962 71.7217 90.3711L71.209 92.0312H73.0693ZM80.6963 93.0176C80.6963 93.4408 80.5938 93.8086 80.3887 94.1211C80.1836 94.4336 79.8841 94.6745 79.4902 94.8438C79.0996 95.013 78.6243 95.0977 78.0645 95.0977C77.8171 95.0977 77.5745 95.0814 77.3369 95.0488C77.1025 95.0163 76.8763 94.9691 76.6582 94.9072C76.4434 94.8421 76.2383 94.7624 76.043 94.668V93.2617C76.3815 93.4115 76.7331 93.5465 77.0977 93.667C77.4622 93.7874 77.8236 93.8477 78.1816 93.8477C78.429 93.8477 78.6276 93.8151 78.7773 93.75C78.9303 93.6849 79.041 93.5954 79.1094 93.4814C79.1777 93.3675 79.2119 93.2373 79.2119 93.0908C79.2119 92.9118 79.1517 92.7588 79.0312 92.6318C78.9108 92.5049 78.7448 92.3861 78.5332 92.2754C78.3249 92.1647 78.0889 92.0459 77.8252 91.9189C77.6592 91.8408 77.4785 91.7464 77.2832 91.6357C77.0879 91.5218 76.9023 91.3835 76.7266 91.2207C76.5508 91.0579 76.4059 90.861 76.292 90.6299C76.1813 90.3955 76.126 90.1156 76.126 89.79C76.126 89.3636 76.2236 88.999 76.4189 88.6963C76.6143 88.3936 76.8926 88.1624 77.2539 88.0029C77.6185 87.8402 78.0482 87.7588 78.543 87.7588C78.9141 87.7588 79.2673 87.8027 79.6025 87.8906C79.9411 87.9753 80.2943 88.099 80.6621 88.2617L80.1738 89.4385C79.8451 89.305 79.5505 89.2025 79.29 89.1309C79.0296 89.056 78.7643 89.0186 78.4941 89.0186C78.3053 89.0186 78.1442 89.0495 78.0107 89.1113C77.8773 89.1699 77.7764 89.2546 77.708 89.3652C77.6396 89.4727 77.6055 89.598 77.6055 89.7412C77.6055 89.9105 77.6543 90.0537 77.752 90.1709C77.8529 90.2848 78.0026 90.3955 78.2012 90.5029C78.403 90.6104 78.6536 90.7357 78.9531 90.8789C79.3177 91.0514 79.6286 91.2321 79.8857 91.4209C80.1462 91.6064 80.3464 91.8262 80.4863 92.0801C80.6263 92.3307 80.6963 92.6432 80.6963 93.0176ZM81.9902 95V87.8613H83.5039V95H81.9902ZM85.3008 95V87.8613H86.8145V93.75H89.71V95H85.3008Z" fill="#A05CEB"/>
<path d="M47 51.4026C48.8517 51.3363 50.6818 50.9684 52.4228 50.3124C51.6729 49.6426 50.8497 49.0659 49.9704 48.5939C49.1013 48.1381 48.1844 47.7378 47.2796 47.3004C47.508 46.1176 47.8737 44.9677 48.3689 43.8758C51.182 44.8181 53.7466 46.4202 55.8628 48.557C57.1209 47.7239 58.2748 46.7329 59.2976 45.6066C55.8556 44.9633 52.7162 43.1592 50.3691 40.4758L52.9407 37.9257C53.9507 39.0998 55.1614 40.0708 56.5121 40.7899C56.9707 41.0226 57.4412 41.2282 57.9223 41.4058C57.2657 39.6376 56.8125 37.7956 56.5714 35.9178C57.6631 35.4735 58.8022 35.1654 59.9643 35C60.2143 36.1457 60.4284 37.2852 60.72 38.4062C61.0293 39.5406 61.4651 40.634 62.018 41.6645C62.5748 40.6374 63.012 39.5457 63.3213 38.4123C63.6129 37.2975 63.8216 36.158 64.0775 35C65.2406 35.1606 66.3796 35.4688 67.4699 35.9178C67.2371 37.8217 66.7633 39.6856 66.0597 41.4613C67.9789 40.7624 69.6977 39.5765 71.0593 38.012C72.0142 38.7472 72.8796 39.5993 73.6367 40.5497C71.297 43.2134 68.1691 44.9984 64.7437 45.6251C65.763 46.7569 66.9174 47.7504 68.1785 48.5816C69.2306 47.5193 70.3969 46.5852 71.6545 45.7975C72.9175 45.0047 74.266 44.368 75.6724 43.9004C76.1691 44.9912 76.5332 46.1415 76.7559 47.3251C75.8452 47.7624 74.9702 48.1628 74.0773 48.6124C73.2065 49.0824 72.39 49.6527 71.6429 50.3124C72.5834 50.799 74.6548 51.2302 77 51.4396C76.9781 52.6845 76.7629 53.9178 76.3629 55.0921C72.595 54.0763 70.9142 53.4497 68.4284 52.2284C65.9426 51.0072 63.6665 48.8407 62.018 47.3004C59.9917 49.1552 58.3486 50.822 55.8628 52.0432C53.377 53.2644 50.869 54.3842 47.6191 55.0921C47.4703 54.4084 47.3212 53.7371 47.1843 53.0595C47.1128 52.7269 47.0595 52.382 47 52.0432V51.4026Z" fill="#A05CEB"/>
<path d="M60.7609 65.9937L60.2313 65.8582V65.1807C60.2313 63.7825 60.2313 62.3843 60.2313 60.9861C60.235 60.7616 60.1607 60.5432 60.0226 60.3701C58.4353 58.2512 56.8481 56.1242 55.2608 53.9889C55.2131 53.9273 55.1714 53.8595 55.1416 53.8164L58.2968 52.0425L61.981 57.0132L65.6715 52.0425L68.832 53.8164L67.5642 55.5349C66.3459 57.1774 65.1236 58.8302 63.8975 60.4933C63.8178 60.6202 63.7727 60.767 63.7667 60.9183C63.7667 62.452 63.7667 63.998 63.7667 65.5133V65.8644L63.1238 65.9999L60.7609 65.9937Z" fill="#A05CEB"/>
</g>
<defs>
<filter id="filter0_d_14_4150" x="0" y="0" width="124" height="124" filterUnits="userSpaceOnUse" color-interpolation-filters="sRGB">
<feFlood flood-opacity="0" result="BackgroundImageFix"/>
<feColorMatrix in="SourceAlpha" type="matrix" values="0 0 0 0 0 0 0 0 0 0 0 0 0 0 0 0 0 0 127 0" result="hardAlpha"/>
<feOffset dy="2"/>
<feGaussianBlur stdDeviation="4"/>
<feColorMatrix type="matrix" values="0 0 0 0 0 0 0 0 0 0 0 0 0 0 0 0 0 0 0.12 0"/>
<feBlend mode="normal" in2="BackgroundImageFix" result="effect1_dropShadow_14_4150"/>
<feBlend mode="normal" in="SourceGraphic" in2="effect1_dropShadow_14_4150" result="shape"/>
</filter>
</defs>
</svg>
