<svg width="70" height="70" viewBox="0 0 70 70" fill="none" xmlns="http://www.w3.org/2000/svg">
<path d="M32.68 0H37.3268C37.5237 0.0445335 37.7189 0.102771 37.9175 0.130177C39.1554 0.301459 40.4053 0.405942 41.6312 0.644025C47.7273 1.78362 53.3965 4.5672 58.0269 8.69432C64.379 14.3158 68.2604 21.3247 69.5925 29.7227C69.75 30.7076 69.8647 31.6993 70 32.6876V37.3379C69.8956 38.1687 69.8031 39.0028 69.6815 39.8318C68.6782 46.6454 66.0261 52.7414 61.4341 57.8816C53.0975 67.2114 42.6311 71.2417 30.2248 69.6676C20.9671 68.4891 13.3634 64.0324 7.59341 56.6963C1.00843 48.3223 -1.27217 38.7956 0.667712 28.313C1.81315 22.1315 4.53891 16.6812 8.69775 11.9778C14.3188 5.62321 21.3249 1.74024 29.7197 0.409368C30.7025 0.250075 31.6921 0.135313 32.68 0ZM22.294 20.5334C21.2629 24.5835 20.692 28.7372 20.5921 32.9154H32.9043V20.5334H22.294ZM49.4232 32.9291C49.3182 28.7546 48.7439 24.6051 47.7111 20.5591H37.1059V32.9291H49.4232ZM32.9077 49.4887V37.105H20.5802C20.6839 41.283 21.2582 45.4361 22.2923 49.4853L32.9077 49.4887ZM49.4198 37.105H37.1042V49.487H47.7111C48.7398 45.4362 49.313 41.2831 49.4198 37.105ZM17.9537 20.5539C17.9217 20.537 17.8869 20.526 17.851 20.5214C14.5979 20.5214 11.3448 20.5043 8.07795 20.5214C7.88619 20.5214 7.62251 20.7663 7.51807 20.9633C6.27552 23.3187 5.37226 25.8381 4.83511 28.4467C4.53377 29.906 4.36427 31.391 4.12799 32.9H16.3665C16.56 30.7829 16.6918 28.7139 16.9555 26.6619C17.2192 24.6099 17.6147 22.5956 17.9537 20.5539ZM65.7727 32.9394C65.7727 32.7681 65.7727 32.6534 65.7727 32.5437C65.4628 28.4508 64.3166 24.465 62.4049 20.8331C62.3107 20.6533 61.934 20.5317 61.6892 20.53C58.6364 20.5094 55.5836 20.5163 52.5308 20.518C52.4117 20.5189 52.2927 20.5274 52.1747 20.5437C52.7089 24.687 53.2379 28.8012 53.7704 32.9445L65.7727 32.9394ZM16.233 37.105H4.23586C4.23586 37.2763 4.23586 37.4133 4.23586 37.5469C4.55402 41.6173 5.69759 45.5803 7.59683 49.1941C7.691 49.3757 8.06425 49.499 8.30909 49.5007C11.1804 49.5213 14.05 49.5144 16.9213 49.5144H17.8321C17.2997 45.3591 16.7706 41.2603 16.233 37.105ZM52.173 49.5007C52.0976 49.4853 52.1644 49.5007 52.2312 49.5007C55.4432 49.5007 58.6552 49.5144 61.8672 49.4853C62.0795 49.4853 62.3809 49.2404 62.487 49.0314C63.7305 46.6799 64.6344 44.1638 65.1717 41.5583C65.4713 40.1024 65.6425 38.6191 65.8788 37.0964H53.7704C53.2345 41.2518 52.7055 45.3643 52.173 49.4956V49.5007ZM32.9146 16.3798V4.40197C27.7267 6.86159 25.5934 11.5222 23.5388 16.3798H32.9146ZM37.0991 4.50645V16.3798H46.3208C46.3345 16.301 46.3585 16.2513 46.3448 16.2085C44.9459 12.4917 43.1482 9.01461 40.1587 6.30321C39.2792 5.49204 38.2358 4.8793 37.0991 4.50645ZM32.9077 65.5157V53.6441H23.6843C23.6723 53.7246 23.6484 53.7742 23.6621 53.8153C25.0523 57.5099 26.8398 60.9613 29.7984 63.6744C30.6905 64.5047 31.751 65.1327 32.9077 65.5157ZM37.0923 53.6389V65.615C42.2972 63.1742 44.3895 58.4845 46.4612 53.6389H37.0923ZM24.3315 6.10281C18.7122 8.1582 14.1065 11.5702 10.4253 16.3507C10.5155 16.3783 10.6076 16.3989 10.701 16.4123C13.3874 16.4123 16.072 16.4243 18.7481 16.3952C18.8763 16.3723 18.9973 16.3192 19.1009 16.2403C19.2045 16.1613 19.2878 16.0588 19.344 15.9413C20.5973 12.4574 22.1125 9.11738 24.3315 6.10281ZM59.5866 16.414C56.5989 12.0943 49.0346 6.53958 45.7181 6.13707C46.48 7.38058 47.3669 8.60525 48.0227 9.94297C48.9712 11.875 49.7349 13.8945 50.6098 15.8659C50.7039 16.0783 50.9282 16.3798 51.096 16.3798C53.8954 16.4209 56.6897 16.4123 59.5866 16.4123V16.414ZM24.3418 63.9279C22.092 60.8945 20.575 57.5031 19.3063 53.9935C19.2395 53.8102 18.8783 53.6304 18.6523 53.6286C16.1029 53.603 13.5552 53.6115 11.0057 53.6132C10.8345 53.6132 10.6633 53.6304 10.3979 53.6458C14.1116 58.452 18.7122 61.8656 24.3418 63.9279ZM59.6277 53.6047C56.801 53.6047 54.1488 53.6201 51.4795 53.591C50.9659 53.591 50.7348 53.7434 50.5653 54.2333C49.3856 57.6418 47.8857 60.8893 45.6976 63.7857C45.6685 63.8234 45.6839 63.8953 45.6736 63.993C51.2946 61.8639 55.8849 58.4434 59.6277 53.6047Z" fill="white"/>
</svg>
