<svg width="70" height="70" viewBox="0 0 70 70" fill="none" xmlns="http://www.w3.org/2000/svg">
<path d="M0 58.681C0.571748 58.0711 1.12638 57.444 1.71182 56.8529C10.6293 47.924 19.5507 39.0047 28.4762 30.0952C28.8836 29.6875 28.9897 29.3808 28.7757 28.8136C27.2495 24.7864 26.9835 20.3897 28.0129 16.2075C29.0424 12.0253 31.3187 8.25549 34.5394 5.39881C37.9014 2.40214 41.8266 0.671638 46.2911 0.138782C46.49 0.104309 46.6866 0.0579664 46.8799 0H50.4337C51.4163 0.179903 52.4074 0.313544 53.3763 0.544849C60.4564 2.23937 65.4515 6.46795 68.3376 13.1261C69.8692 16.6589 70.3564 20.5573 69.7413 24.3589C68.7724 30.6984 65.6004 35.6671 60.2647 39.1829C56.4148 41.7153 52.1352 42.8187 47.5133 42.5685C45.2828 42.462 43.0851 41.9884 41.0084 41.167C40.601 41.0042 40.3579 41.0848 40.0635 41.3846C38.326 43.1562 36.5577 44.8953 34.8167 46.6703C34.5847 46.9191 34.3021 47.1152 33.9878 47.2452C33.6736 47.3753 33.3352 47.4363 32.9954 47.4242C30.996 47.4088 28.9948 47.4242 26.891 47.4242V48.1918C26.891 49.9925 26.891 51.7899 26.891 53.5923C26.9048 53.9116 26.8493 54.23 26.7285 54.5258C26.6076 54.8215 26.4242 55.0876 26.1909 55.3057C25.2106 56.2526 24.2457 57.2155 23.2962 58.1944C23.0635 58.4432 22.7794 58.6381 22.4635 58.7653C22.1477 58.8926 21.8079 58.9492 21.468 58.9312C19.7151 58.9123 17.9604 58.9312 16.2075 58.9312H15.4218C15.4081 59.2413 15.3893 59.4846 15.3893 59.7279C15.3893 61.5046 15.379 63.2831 15.3893 65.0599C15.4054 65.3893 15.3495 65.7183 15.2257 66.024C15.1018 66.3297 14.9129 66.6046 14.672 66.8298C13.7819 67.6865 12.9602 68.6065 12.041 69.4135C11.6644 69.7391 11.0806 70.0132 10.5996 69.9995C7.6895 69.9207 4.7794 69.7614 1.86931 69.6054C0.968888 69.5557 0.465618 68.9732 0.419398 68.0189C0.321825 65.9714 0.232808 63.9222 0.128387 61.8747C0.10082 61.5831 0.057965 61.2932 0 61.0061V58.681ZM24.0374 49.5796C24.0374 48.5088 24.0374 47.4379 24.0374 46.3654C24.0374 45.0409 24.515 44.5663 25.8519 44.5629C27.9695 44.5629 30.087 44.5441 32.2045 44.5732C32.4277 44.583 32.6502 44.5428 32.8558 44.4553C33.0613 44.3678 33.2447 44.2354 33.3925 44.0677C35.1471 42.279 36.9274 40.5142 38.6992 38.7409C39.7262 37.7129 40.0121 37.658 41.3456 38.2269C44.788 39.7334 48.611 40.1397 52.2927 39.3903C62.906 37.3154 69.4965 26.3687 66.3725 16.0131C63.221 5.56158 51.7792 0.0788133 41.7325 4.19089C39.4629 5.11799 37.4005 6.48826 35.6656 8.22171C33.9308 9.95517 32.5583 12.0171 31.6281 14.2872C30.698 16.5573 30.2289 18.99 30.2482 21.4435C30.2675 23.897 30.7749 26.3221 31.7406 28.5772C32.3517 30.0044 32.3055 30.246 31.2185 31.3357C21.9279 40.6439 12.6378 49.9503 3.34832 59.255C3.11894 59.4863 2.88442 59.8581 2.89298 60.1579C2.94947 62.1626 3.08641 64.1638 3.16002 66.1667C3.17885 66.7064 3.40139 66.8521 3.89953 66.8726C5.2416 66.9086 6.61277 66.8315 7.91889 67.0748C9.76252 67.4175 11.0823 66.8109 12.0974 65.3477C12.3228 65.0554 12.4621 64.7059 12.4997 64.3386C12.5357 62.1506 12.4997 59.9626 12.5237 57.7747C12.534 56.5753 13.0475 56.0818 14.2355 56.075C15.5793 56.075 16.9231 56.075 18.2668 56.075C19.2939 56.075 20.4323 56.3423 21.307 55.9739C22.1818 55.6055 22.8374 54.5947 23.5872 53.8648C23.6197 53.8339 23.6659 53.8065 23.6813 53.7671C23.7995 53.4912 24.0014 53.2154 24.0117 52.9327C24.0614 51.8139 24.0374 50.6967 24.0374 49.5796Z" fill="white"/>
<path d="M51.7274 24.881C49.9791 24.8769 48.3032 24.1815 47.0649 22.9462C45.8266 21.711 45.1262 20.0359 45.1163 18.2861C45.0992 14.6673 48.165 11.6038 51.7565 11.638C55.3479 11.6723 58.3641 14.7033 58.347 18.2792C58.326 20.0277 57.6211 21.6983 56.3835 22.9326C55.1459 24.1668 53.4743 24.8663 51.7274 24.881ZM47.9613 18.2449C47.9633 19.2338 48.3515 20.1827 49.0431 20.8889C49.7346 21.5952 50.6746 22.0028 51.6623 22.0247C52.663 22.0316 53.626 21.643 54.3421 20.9433C55.0582 20.2436 55.4694 19.2893 55.4865 18.2878C55.4781 17.2859 55.0775 16.3273 54.3709 15.6177C53.6642 14.9082 52.7077 14.5042 51.7068 14.4926C50.7187 14.5098 49.776 14.9109 49.078 15.6112C48.38 16.3114 47.9814 17.2559 47.9665 18.2449H47.9613Z" fill="white"/>
<path d="M48.7115 35.4781C48.0268 35.4147 47.354 35.3615 46.6779 35.2844C45.6268 35.1679 45.0123 34.5271 45.1201 33.6841C45.2314 32.8033 45.9948 32.3133 47.0647 32.4589C48.599 32.6795 50.1622 32.5827 51.6576 32.1745C53.2653 31.7414 54.7557 30.9533 56.0193 29.8682C56.2281 29.6968 56.4199 29.4946 56.6338 29.325C57.4059 28.7133 58.2104 28.7424 58.7565 29.3935C59.27 30.0035 59.2187 30.8825 58.51 31.4497C57.4675 32.2859 56.4113 33.1357 55.2575 33.792C53.2496 34.9315 51.0413 35.4506 48.7115 35.4781Z" fill="white"/>
<path d="M61.6531 27.1539C61.6531 27.9626 61.078 28.5605 60.306 28.5639C59.9389 28.5577 59.5888 28.4079 59.3306 28.1466C59.0725 27.8854 58.9267 27.5333 58.9245 27.1659C58.9197 26.9784 58.9525 26.7918 59.0209 26.6172C59.0893 26.4426 59.1919 26.2834 59.3227 26.1491C59.4536 26.0148 59.6099 25.9081 59.7826 25.8353C59.9553 25.7624 60.1408 25.7249 60.3282 25.725C61.1037 25.7421 61.6566 26.3401 61.6531 27.1539Z" fill="white"/>
</svg>
