<svg width="19" height="20" viewBox="0 0 19 20" fill="none" xmlns="http://www.w3.org/2000/svg">
<path d="M13.5624 19.3329C13.3866 19.2501 13.1902 19.2482 13.0055 19.1965C12.2377 18.9903 11.557 18.5529 11.0612 17.9473C11.0287 17.9025 10.9848 17.8666 10.9338 17.843C10.8829 17.8195 10.8265 17.8091 10.7702 17.8129C7.70608 17.8164 4.6421 17.8173 1.57829 17.8157C1.13812 17.8157 0.999764 17.6871 1.00518 17.2638C1.01601 16.489 0.972684 15.7132 1.03226 14.9388C1.13566 13.5853 1.64377 12.3896 2.53544 11.3493C3.30236 10.4498 4.31457 9.77831 5.45614 9.41175C5.49307 9.39932 5.52901 9.38258 5.58416 9.3601C4.16172 8.55705 3.32519 7.38334 3.18487 5.79925C3.07261 4.52892 3.46995 3.39395 4.3631 2.45124C6.20158 0.515615 9.25423 0.515615 11.0814 2.45507C12.075 3.5116 12.46 4.77524 12.2114 6.18858C11.9627 7.60191 11.1533 8.64506 9.84802 9.36057C10.5416 9.57706 11.195 9.9 11.7835 10.3171C12.3812 10.7387 12.8979 11.2592 13.3098 11.8548C13.3684 11.9409 13.4275 11.9725 13.5329 11.9586C15.3054 11.7247 16.9957 12.6957 17.6146 14.3022C18.4629 16.5071 17.0897 18.857 14.7032 19.2889C14.6303 19.3022 14.5447 19.2625 14.4841 19.3333L13.5624 19.3329ZM12.5974 12.1983C12.5762 12.1681 12.5629 12.1476 12.5481 12.1289C11.492 10.782 10.1011 10.0206 8.35961 9.8776C6.62698 9.73412 5.06077 10.1349 3.74567 11.2756C2.58222 12.2843 1.94412 13.5528 1.84023 15.0689C1.80035 15.6529 1.83383 16.2379 1.81709 16.8218C1.81266 16.9754 1.84663 17.0213 2.01403 17.0208C4.78308 17.0151 7.55197 17.0151 10.3207 17.0208C10.4935 17.0208 10.523 16.9916 10.4684 16.8295C10.1159 15.8002 10.1971 14.8001 10.7298 13.8455C11.1498 13.0946 11.7756 12.5493 12.5974 12.1983ZM3.98398 5.46206C3.98398 7.45173 5.67278 9.09704 7.71461 9.0913C8.70675 9.08902 9.65754 8.70499 10.3589 8.02328C11.0602 7.34156 11.4549 6.4177 11.4566 5.45393C11.4605 3.46234 9.78254 1.83282 7.72397 1.8309C7.23281 1.83028 6.74634 1.92375 6.29242 2.10599C5.8385 2.28823 5.42604 2.55564 5.07865 2.89292C4.73125 3.23021 4.45575 3.63074 4.26791 4.07159C4.08007 4.51243 3.98359 4.98494 3.98398 5.46206V5.46206ZM17.0464 15.6362C17.0385 14.0224 15.6727 12.7033 14.0183 12.7115C12.3512 12.7196 11.0454 14.0162 11.0538 15.6558C11.0617 17.2561 12.4285 18.5638 14.0814 18.5528C14.8711 18.543 15.625 18.2314 16.18 17.6855C16.7349 17.1396 17.0462 16.4034 17.0464 15.6362V15.6362Z" fill="white" stroke="white"/>
<circle cx="14.1999" cy="15.6667" r="3.66667" fill="white"/>
<path d="M13.6382 16.6477C13.6382 16.4807 13.6327 16.3128 13.6382 16.1469C13.6426 16.0512 13.6111 16.0259 13.5151 16.0273C13.1896 16.0331 12.8642 16.0345 12.5387 16.0273C12.2536 16.0216 12.0803 15.8628 12.0783 15.6212C12.0763 15.5676 12.0856 15.5141 12.1058 15.4641C12.126 15.414 12.1566 15.3686 12.1957 15.3307C12.2348 15.2927 12.2816 15.2629 12.3331 15.2433C12.3845 15.2237 12.4396 15.2146 12.4949 15.2166C12.8322 15.2137 13.1699 15.2118 13.5077 15.2166C13.613 15.2166 13.6406 15.1874 13.6386 15.0875C13.6318 14.7833 13.6347 14.4791 13.6386 14.1749C13.6386 13.8942 13.808 13.7114 14.0596 13.7124C14.3112 13.7134 14.4776 13.8961 14.4796 14.1773C14.4796 14.4815 14.4845 14.7857 14.4796 15.0899C14.4771 15.1937 14.5116 15.2181 14.613 15.2161C14.9385 15.2104 15.2639 15.2133 15.5889 15.2161C15.8533 15.2161 16.0241 15.3596 16.036 15.5897C16.0488 15.8389 15.8883 16.0149 15.6101 16.0254C15.2915 16.0369 14.97 16.035 14.6529 16.0254C14.5219 16.0221 14.4717 16.045 14.4781 16.1875C14.4914 16.485 14.484 16.7835 14.4816 17.0819C14.4791 17.3636 14.3117 17.5425 14.0576 17.5416C13.8036 17.5406 13.6426 17.3608 13.6401 17.0757C13.6372 16.9337 13.6382 16.7907 13.6382 16.6477Z" fill="#FF3076"/>
</svg>
