<svg width="70" height="70" viewBox="0 0 70 70" fill="none" xmlns="http://www.w3.org/2000/svg">
<path d="M25.3872 70C22.6553 68.0932 19.9096 66.1982 17.1915 64.2749C12.8849 61.2319 8.58745 58.1794 4.29921 55.1176C4.11709 54.9881 3.9322 54.861 3.74732 54.7245C2.69596 53.9147 2.68216 52.973 3.74732 52.1915C5.61825 50.8355 7.514 49.5079 9.39873 48.1684C14.4228 44.5949 19.4497 41.023 24.4793 37.4527C25.4948 36.7324 26.5379 36.7041 27.1781 37.4527C27.4717 37.8443 27.6286 38.2991 27.6306 38.7639C27.6831 40.3835 27.6527 42.0055 27.6527 43.6251V44.3948C28.0059 44.409 28.2625 44.4278 28.5192 44.4278C35.749 44.4278 42.9789 44.4278 50.2087 44.4278C53.6967 44.4278 56.9363 43.7216 59.7482 41.8689C62.0822 40.3324 63.8923 38.2916 64.9912 35.9579C65.568 34.7597 65.9819 33.5026 66.4207 32.2573C66.7352 31.3675 67.3561 30.8919 68.3137 30.9272C69.2712 30.9626 69.8534 31.5205 69.9887 32.4433C69.99 32.466 69.99 32.4888 69.9887 32.5115C69.9887 37.102 70.0356 41.6924 69.939 46.2852C69.7762 53.9665 61.793 59.9505 53.2579 60.805C52.1331 60.916 51.0017 60.9718 49.8693 60.9722C42.8234 60.9863 35.7775 60.9863 28.7317 60.9722H27.7245C27.7079 61.2711 27.6831 61.5112 27.6803 61.7513C27.6803 63.7994 27.6499 65.8474 27.6941 67.8954C27.7134 68.7971 27.4347 69.515 26.502 69.9929L25.3872 70ZM66.5034 40.2682L66.2468 40.2187C66.0674 40.4329 65.8936 40.6519 65.7087 40.8661C62.1021 45.0752 57.2647 47.3798 51.1221 47.4292C42.8436 47.4881 34.5514 47.4504 26.2647 47.4504C24.8022 47.4504 24.1371 46.8831 24.1289 45.6425C24.1206 44.4019 24.1289 43.1001 24.1289 41.6641L7.52229 53.4674L24.1289 65.2683V59.9834C24.1289 58.4674 24.7139 57.9778 26.5103 57.9778C34.3711 57.9778 42.2347 57.9778 50.1011 57.9778C53.2938 57.9778 56.3237 57.401 59.0915 55.998C62.8002 54.1148 65.5045 51.4994 66.153 47.7988C66.5807 45.327 66.4096 42.7823 66.509 40.2682H66.5034Z" fill="white"/>
<path d="M44.139 25.5617H43.2449C35.4319 25.5617 27.6216 25.5617 19.8141 25.5617C16.3261 25.5617 13.0865 26.2679 10.2746 28.1158C7.9702 29.6424 6.17956 31.6612 5.08401 33.968C4.5208 35.2005 4.03537 36.4578 3.62978 37.7345C3.31244 38.6385 2.62257 39.147 1.66779 39.0764C0.713008 39.0057 0.119718 38.4313 0.0617687 37.5038C0.00381956 36.5763 0.0424503 35.7053 0.0424503 34.8037C0.0424503 31.6752 0.172138 28.5419 0.0176075 25.4204C-0.404593 16.8634 6.83077 11.0724 14.7477 9.51874C16.4979 9.19826 18.2835 9.0404 20.0735 9.04792C27.7504 8.99849 35.4273 9.02673 43.1069 9.02673H44.139V8.224C44.139 6.13124 44.139 4.03613 44.139 1.94336C44.139 1.17829 44.2714 0.495608 45.1848 0.142499C46.0982 -0.210611 46.7908 0.142497 47.4586 0.655683C53.6619 5.47523 59.868 10.2909 66.0768 15.1026C67.4041 16.1336 67.4041 16.9505 66.0768 17.9816C59.833 22.8278 53.5856 27.6717 47.3344 32.5132C46.7025 33.0052 46.0182 33.2712 45.182 32.937C44.3901 32.6215 44.1362 32.0448 44.1417 31.3338C44.139 29.4482 44.139 27.5626 44.139 25.5617ZM47.6518 4.92831V9.98955C47.6518 11.5691 47.0999 12.0376 45.251 12.0376C36.8107 12.0376 28.3685 12.0376 19.9245 12.0376C16.7318 12.0376 13.6991 12.6049 10.9341 14.0173C6.94667 16.056 4.23961 18.9162 3.72635 22.944C3.4504 25.0344 3.63528 27.1672 3.61873 29.2835C3.61873 29.4459 3.65185 29.6107 3.68221 29.9049C3.95816 29.573 4.132 29.3564 4.31688 29.1422C7.9456 24.9049 12.805 22.6191 18.9835 22.5838C27.7421 22.5344 36.5007 22.5673 45.2593 22.5673C47.1054 22.5673 47.649 23.0381 47.6518 24.6201V28.1723L62.644 16.548L47.6518 4.92831Z" fill="white"/>
</svg>
