<svg width="25" height="28" viewBox="0 0 25 28" fill="none" xmlns="http://www.w3.org/2000/svg">
<path d="M20.1225 3.49951C22.583 5.45457 24.2253 8.23382 24.7355 11.3059C25.459 15.373 24.7354 19.1801 22.0959 22.5074C21.5328 23.2269 20.8853 23.8785 20.167 24.4485C19.5866 24.4796 19.5458 24.0383 19.5198 23.6611C19.4425 22.8833 19.4556 22.0993 19.5588 21.3244C23.1246 17.3489 23.1729 10.9214 19.676 6.90006C19.6442 6.84953 19.6204 6.79459 19.6053 6.73708C19.4845 5.99493 19.4544 5.2412 19.5159 4.49203C19.5345 4.06536 19.5979 3.64235 20.1225 3.49951Z" fill="#A05CEB"/>
<path d="M19.5599 21.3242C19.9802 21.9944 19.6864 22.7324 19.7589 23.4356C19.7999 23.8183 19.6844 24.245 20.168 24.4483C18.1492 26.3794 15.5278 27.584 12.7276 27.8671C12.3556 27.792 12.1306 27.5759 12.1269 27.2006C12.1269 26.5358 11.913 25.8418 12.3594 25.2265C15.2593 24.8273 17.6309 23.4576 19.5599 21.3242Z" fill="#A05CEB"/>
<path d="M20.123 3.49954C19.6506 3.95367 19.7994 4.53783 19.751 5.09085C19.7027 5.64387 19.924 6.21521 19.5984 6.73893C17.7383 4.69531 15.4913 3.29078 12.6937 2.84213C12.502 2.67997 12.3455 2.48134 12.2336 2.25816C12.1217 2.03498 12.0568 1.79185 12.0427 1.54336C12.0286 1.29487 12.0657 1.04614 12.1517 0.812102C12.2377 0.578063 12.3709 0.363538 12.5431 0.181396L12.9152 0.20703C12.9269 0.219934 12.9411 0.230261 12.9571 0.237331C12.9732 0.2444 12.9906 0.248055 13.0082 0.248055C13.0257 0.248055 13.043 0.2444 13.059 0.237331C13.0751 0.230261 13.0895 0.219934 13.1012 0.20703C15.742 0.527737 18.2059 1.68305 20.123 3.49954Z" fill="#A05CEB"/>
<path d="M15.3318 20.6288C14.951 21.0278 14.4922 21.347 13.9831 21.5673C13.4739 21.7875 12.9249 21.9043 12.3687 21.9106C11.7902 21.8282 11.7456 21.3851 11.7475 20.9584C11.7695 20.3573 11.6631 19.7584 11.4351 19.2004C13.1091 19.0631 14.1879 18.2226 14.3832 16.9224C14.6325 15.2579 13.8997 14.1573 11.9931 13.3351C11.5262 12.5275 11.7104 11.6724 11.8071 10.8245C12.4475 10.7945 13.0874 10.8893 13.6904 11.1037C14.2934 11.318 14.8476 11.6476 15.3207 12.0734C15.3505 12.1247 15.4045 12.1778 15.4045 12.2327C15.3989 15.0253 15.529 17.8289 15.3318 20.6288Z" fill="#A05CEB"/>
<path d="M9.20967 13.3002C8.87114 13.3203 8.53438 13.3606 8.1977 13.3551C7.33089 13.3423 6.81746 12.8753 6.80444 12.0147C6.7784 10.319 6.7784 8.62208 6.80444 6.92394C6.8156 6.05778 7.29179 5.61097 8.10651 5.6128C8.92124 5.61463 9.40869 6.07793 9.42729 6.91845C9.45333 8.37242 9.43651 9.8264 9.43837 11.2822C9.46999 11.9671 9.64122 12.6666 9.20967 13.3002Z" fill="#A05CEB"/>
<path d="M5.8975 3.70494C4.59544 4.43742 3.34359 5.24498 2.31682 6.3492C1.75879 6.948 1.12074 6.89856 0.512487 6.44808C0.370312 6.34229 0.251949 6.20867 0.164808 6.05563C0.0776682 5.90258 0.0237013 5.73344 0.00622778 5.55884C-0.0112458 5.38423 0.00813884 5.20796 0.0632659 5.04112C0.118393 4.87427 0.208006 4.72048 0.326477 4.58941C1.85362 2.90287 3.645 1.57525 5.87898 0.912354C6.35888 1.83894 6.28441 2.77102 5.8975 3.70494Z" fill="#A05CEB"/>
<path d="M5.89724 3.70467C5.89724 2.77442 5.89035 1.84356 5.87671 0.912084C7.98357 0.0412472 10.301 -0.213071 12.5509 0.179603C12.257 1.08422 12.1788 1.97968 12.7015 2.84034C10.6516 2.55659 8.5625 2.76132 6.60967 3.43732C6.59663 3.42515 6.58097 3.416 6.56389 3.41052C6.54681 3.40505 6.52866 3.40339 6.51085 3.40567C6.49304 3.40795 6.47599 3.41411 6.4609 3.4237C6.4458 3.43329 6.4331 3.44608 6.42366 3.46112L5.89724 3.70467Z" fill="#A05CEB"/>
<path d="M12.3539 25.2264C12.3539 25.8234 12.378 26.4203 12.3539 27.0173C12.3308 27.1789 12.3533 27.3436 12.4189 27.4935C12.4845 27.6433 12.5907 27.7725 12.7259 27.867C10.3859 28.1636 8.09618 27.9824 5.87894 27.1345C5.42136 26.4423 5.60921 25.6878 5.67804 24.9517C5.7078 24.6441 5.93845 24.4939 6.23606 24.4536C8.21335 25.2099 10.2426 25.5304 12.3539 25.2264Z" fill="#A05CEB"/>
<path d="M6.23791 24.4613C5.65756 24.8532 5.92353 25.4465 5.88261 25.961C5.85099 26.3529 5.88261 26.7484 5.88261 27.1422C3.86626 26.4738 2.19405 25.2926 0.689229 23.8332C0.162822 23.3223 -0.0547731 22.7601 0.214941 22.1247C0.516277 21.427 1.14492 21.1981 2.00056 21.3922C3.18775 22.6867 4.62927 23.7307 6.23791 24.4613Z" fill="#A05CEB"/>
<path d="M15.332 20.6286C15.2816 20.5522 15.2445 20.468 15.2223 20.3796C15.1368 17.6071 14.962 14.8329 15.321 12.0659C18.1 14.1077 18.1073 18.3268 15.332 20.6286Z" fill="#A05CEB"/>
<path d="M11.4355 19.1929L11.908 19.4492C12.2317 20.2367 11.5935 21.198 12.3692 21.903C11.5601 22.1081 10.7565 21.9818 9.95108 21.8756C9.94014 21.8615 9.92615 21.8501 9.91003 21.8423C9.8939 21.8345 9.87606 21.8304 9.85807 21.8304C9.84009 21.8304 9.82243 21.8345 9.8063 21.8423C9.79018 21.8501 9.77601 21.8615 9.76507 21.8756H9.20704C8.99279 21.4878 8.88062 21.0535 8.88062 20.6121C8.88062 20.1707 8.99279 19.7363 9.20704 19.3485L9.76507 19.3357C9.77622 19.3494 9.79039 19.3605 9.80649 19.3682C9.82259 19.3758 9.84021 19.3797 9.85807 19.3797C9.87594 19.3797 9.89356 19.3758 9.90966 19.3682C9.92576 19.3605 9.93993 19.3494 9.95108 19.3357L11.4355 19.1929Z" fill="#A05CEB"/>
<path d="M9.21036 13.3003C9.31452 12.6301 8.97217 11.9123 9.43906 11.286C10.224 11.1029 10.983 10.8099 11.807 10.8209C12.1791 11.6357 11.8982 12.4964 11.9931 13.3296L10.319 13.2966C10.2686 13.25 10.2021 13.2241 10.133 13.2241C10.0638 13.2241 9.99731 13.25 9.94695 13.2966L9.21036 13.3003Z" fill="#A05CEB"/>
<path d="M9.21025 19.347V21.8741C8.81033 21.8832 8.41037 21.9125 8.01045 21.8979C7.27757 21.8704 6.89431 21.4218 6.80502 20.7589C6.70272 20.0099 7.10631 19.5192 7.82989 19.3727C8.27445 19.2829 8.74894 19.3507 9.21025 19.347Z" fill="#A05CEB"/>
<path d="M9.0109 15.0786C9.90561 15.1683 10.3929 15.628 10.3929 16.3605C10.3929 17.0581 9.8349 17.6038 9.02761 17.6936C8.81267 17.2908 8.69902 16.8431 8.6961 16.3881C8.69319 15.9331 8.80113 15.4841 9.0109 15.0786Z" fill="#A05CEB"/>
<path d="M9.01104 15.0786L9.02775 17.7009C8.93075 17.7259 8.82955 17.7306 8.73057 17.7149C8.63159 17.6991 8.53705 17.6632 8.45301 17.6093C8.3873 17.5955 8.32974 17.5567 8.29297 17.5013C7.86515 16.7688 7.92094 16.0363 8.27808 15.2892C8.46595 15.0383 8.74876 15.0951 9.01104 15.0786Z" fill="#A05CEB"/>
<path d="M8.27314 15.2869C8.27314 16.0193 8.27793 16.7567 8.28785 17.499C7.42848 16.7701 7.42493 16.0523 8.27314 15.2869Z" fill="#A05CEB"/>
<path d="M9.95264 13.2947C10.0735 13.1263 10.1944 13.1226 10.3247 13.2947H9.95264Z" fill="#A05CEB"/>
<path d="M13.0945 0.212307C13.0312 0.305699 12.9717 0.298374 12.9084 0.212307C12.9376 0.199021 12.9693 0.192139 13.0015 0.192139C13.0336 0.192139 13.0653 0.199021 13.0945 0.212307Z" fill="#A05CEB"/>
<path d="M6.43115 3.45905C6.47951 3.36566 6.53718 3.34185 6.61716 3.43524L6.52979 3.46454L6.43115 3.45905Z" fill="#A05CEB"/>
<path d="M8.29272 17.5007L8.45276 17.6088L8.29272 17.5007Z" fill="#A05CEB"/>
<path d="M9.95261 19.332C9.89123 19.4327 9.82985 19.4364 9.7666 19.332H9.95261Z" fill="#A05CEB"/>
<path d="M9.76392 21.8757C9.8253 21.7732 9.88854 21.7732 9.94993 21.8757H9.76392Z" fill="#A05CEB"/>
</svg>
