<svg width="134" height="41" viewBox="0 0 134 41" fill="none" xmlns="http://www.w3.org/2000/svg">
<path d="M59.8183 12.5277V25.6872C59.8408 26.7374 59.7909 27.7879 59.6692 28.8313C59.5358 29.5125 59.2376 30.1511 58.8001 30.692C58.3083 31.3353 57.6509 31.8347 56.8973 32.1372C56.0113 32.4827 55.065 32.6498 54.1136 32.6287C53.0379 32.6509 51.9693 32.4516 50.9748 32.0436C50.1705 31.7312 49.4681 31.2049 48.9444 30.5223C48.517 29.9406 48.2469 29.2597 48.1597 28.5446C48.0786 27.8528 48.0388 26.3952 48.0401 24.1717V12.5219H53.1896V27.2865C53.1896 28.1473 53.2367 28.6967 53.3308 28.9346C53.3721 29.0488 53.4504 29.146 53.5535 29.211C53.6565 29.276 53.7783 29.305 53.8997 29.2935C54.0338 29.3102 54.1695 29.2806 54.2842 29.2096C54.3989 29.1385 54.4855 29.0304 54.5295 28.9034C54.6236 28.6434 54.6707 28.0212 54.6707 27.0369V12.5258L59.8183 12.5277Z" fill="white"/>
<path d="M73.311 12.5355L73.3012 32.225H68.7892L66.1154 23.2726V32.223H61.7996L61.8113 12.5238H66.1271L69.0089 21.3904V12.5238L73.311 12.5355Z" fill="white"/>
<path d="M87.1452 24.0722C87.1452 26.05 87.0975 27.4504 87.002 28.2734C86.9108 29.0893 86.6065 29.8673 86.1192 30.5301C85.6071 31.2211 84.9154 31.7605 84.1183 32.0904C83.1862 32.4734 82.184 32.6587 81.1757 32.6346C80.1988 32.6494 79.2284 32.4739 78.3194 32.1177C77.5074 31.7969 76.8019 31.2564 76.2831 30.5574C75.7821 29.9013 75.4659 29.1244 75.367 28.3066C75.2456 26.8914 75.1971 25.4709 75.2218 24.0508V20.6804C75.2218 18.7027 75.2696 17.3023 75.365 16.4792C75.4568 15.6638 75.7603 14.8861 76.2458 14.2226C76.7586 13.5321 77.4501 12.9928 78.2468 12.6623C79.1793 12.2805 80.1812 12.0952 81.1894 12.1181C82.1664 12.1023 83.1369 12.2779 84.0457 12.635C84.8569 12.9572 85.562 13.4974 86.082 14.1953C86.5819 14.852 86.898 15.6286 86.9981 16.4461C87.1195 17.8619 87.1679 19.2831 87.1433 20.7038L87.1452 24.0722ZM81.9977 17.5988C81.9977 16.6821 81.9486 16.097 81.8466 15.8434C81.7993 15.7186 81.712 15.6128 81.5982 15.5423C81.4844 15.4717 81.3504 15.4405 81.2169 15.4533C81.0957 15.4474 80.975 15.4728 80.8667 15.5272C80.7584 15.5815 80.6661 15.6629 80.5989 15.7634C80.4564 15.9702 80.3845 16.5807 80.3832 17.5949V26.7892C80.3832 27.9321 80.4296 28.6375 80.5224 28.9054C80.6146 29.1726 80.8344 29.3071 81.1757 29.3071C81.3229 29.3223 81.4708 29.2857 81.5937 29.2037C81.7166 29.1218 81.8067 28.9997 81.8486 28.8586C81.9466 28.5504 81.9963 27.8164 81.9977 26.6565V17.5988Z" fill="white"/>
<path d="M88.7754 12.5453H93.9622C95.3655 12.5453 96.4438 12.6558 97.1971 12.8769C97.9504 13.0979 98.5173 13.4145 98.8979 13.8267C99.2828 14.2512 99.5482 14.7693 99.6669 15.3285C99.7977 15.915 99.8631 16.8252 99.8631 18.0591V19.7736C99.8631 21.0296 99.7323 21.9457 99.4708 22.5217C99.1764 23.1282 98.6619 23.6014 98.0308 23.846C97.3338 24.1542 96.4229 24.3083 95.2982 24.3083H93.9249V32.2387H88.7754V12.5453ZM93.923 15.9176V20.9282C94.0701 20.9282 94.1956 20.9399 94.3016 20.9399C94.7744 20.9399 95.1039 20.8248 95.2824 20.5947C95.461 20.3645 95.559 19.8828 95.559 19.1533V17.5462C95.559 16.8713 95.4551 16.4344 95.2432 16.2316C95.0313 16.0287 94.5998 15.9176 93.923 15.9176Z" fill="white"/>
<path d="M106.502 12.555L106.492 28.3047H109.631V32.2445H101.348V12.5453L106.502 12.555Z" fill="white"/>
<path d="M120.406 12.5608L123.349 32.26H118.086L117.811 28.72H115.969L115.657 32.26H110.333L112.971 12.5725L120.406 12.5608ZM117.66 25.221C117.398 22.991 117.137 20.2344 116.875 16.9512C116.352 20.722 116.021 23.4786 115.883 25.221H117.66Z" fill="white"/>
<path d="M133.695 12.5686L129.933 25.1313V32.2581H125.162V25.1313L121.546 12.5667H126.278C127.015 16.4116 127.431 18.9985 127.525 20.3274C127.812 18.2274 128.291 15.6412 128.963 12.5686H133.695Z" fill="white"/>
<path d="M8.66411 4.05704V10.8309C8.66411 10.8309 8.54837 11.9309 9.49785 11.4491L12.5464 9.73276C12.5464 9.73276 13.0898 9.53772 13.0702 10.1775V23.5125C13.0702 23.5125 13.1172 24.043 13.3016 24.2263L14.0196 24.7276C14.0196 24.7276 14.6219 24.9792 14.6611 24.3239V9.09692C14.6611 9.09692 14.6219 8.59567 14.9338 8.44159L26.7042 1.63657C26.7042 1.63657 27.1887 1.26989 26.7434 1.03779C26.7434 1.03779 21.6429 -0.836563 15.797 0.452664C15.797 0.452664 12.0893 1.28159 9.38997 3.20861C9.38212 3.20861 8.60526 3.72937 8.66411 4.05704Z" fill="white"/>
<path d="M19.9736 6.24923L27.793 1.79643C28.0643 1.64767 28.3836 1.61123 28.6817 1.69501C28.6817 1.69501 38.0097 5.28963 40.3913 15.9331C40.3913 15.9331 40.6423 17.0331 40.3716 17.2633C40.3716 17.2633 39.8675 17.5714 39.0122 16.8381L21.8804 6.89092C21.8804 6.89092 21.1231 6.57301 21.1369 7.16593L21.1859 33.5415C21.1558 33.6959 21.0914 33.8417 20.9974 33.9682C20.9034 34.0948 20.7821 34.1988 20.6425 34.2729L13.0271 38.7276C12.8454 38.8028 12.6477 38.8314 12.452 38.811C12.2563 38.7905 12.0689 38.7216 11.9069 38.6106C11.9069 38.6106 2.35921 34.9204 0.346479 23.727C0.346479 23.727 0.299384 22.7517 1.21551 23.1925L18.9456 33.5103C18.9456 33.5103 19.644 33.9745 19.6636 33.1533L19.6872 6.98649C19.6872 6.98649 19.6616 6.33895 19.9736 6.24923Z" fill="white"/>
<path d="M8.16022 4.86836L8.14847 25.6696C8.14847 25.6696 7.95229 26.52 7.1676 25.9583L0.279951 21.9989C0.279951 21.9989 0.0661293 21.8838 0.0661293 21.4391C0.0661293 21.4391 -1.16975 11.8099 7.04401 4.92492C7.0342 4.92492 7.83065 4.05698 8.16022 4.86836Z" fill="white"/>
<path d="M32.7642 14.3747V35.4392C32.7642 35.4392 32.7995 36.2798 33.5135 35.7805C33.5135 35.7805 41.1113 31.238 40.8073 18.964C40.7898 18.7944 40.7227 18.6336 40.6142 18.5015C40.5058 18.3694 40.3608 18.2719 40.1972 18.2209L33.3939 14.3474C33.3939 14.3474 32.9015 14.0177 32.7642 14.3747Z" fill="white"/>
<path d="M26.1845 15.8765V21.6654C26.1845 21.6654 26.0824 22.2876 26.6729 22.3032H27.4733C27.4733 22.3032 27.8304 22.1803 27.7872 21.681V16.6099C27.7872 16.6099 27.8166 16.2627 27.5695 16.1535L26.8338 15.7341C26.8338 15.7341 26.1923 15.348 26.1845 15.8765Z" fill="white"/>
<path d="M26.2746 26.8476V31.2751C26.2746 31.2751 26.2746 31.9714 26.0411 32.0084C25.6488 32.0748 14.3159 38.6399 14.3159 38.6399C14.3159 38.6399 13.7705 39.4883 14.7082 39.7204C14.7082 39.7204 24.6836 42.5036 31.634 37.0659C31.7985 36.9468 31.9313 36.7898 32.0212 36.6084C32.1111 36.427 32.1553 36.2265 32.15 36.0244V26.8769C32.15 26.8769 32.2971 26.2918 31.5105 26.2684L26.7062 26.1806C26.7062 26.1806 26.3138 26.0363 26.2746 26.8476Z" fill="white"/>
</svg>
