<svg width="88" height="88" viewBox="0 0 88 88" fill="none" xmlns="http://www.w3.org/2000/svg">
<ellipse cx="44" cy="44" rx="30" ry="32" fill="white"/>
<path d="M43.75 0C55.3532 0 66.4812 4.60936 74.6859 12.8141C82.8906 21.0188 87.5 32.1468 87.5 43.75C87.5 55.3532 82.8906 66.4812 74.6859 74.6859C66.4812 82.8906 55.3532 87.5 43.75 87.5C32.1468 87.5 21.0188 82.8906 12.8141 74.6859C4.60936 66.4812 0 55.3532 0 43.75C0 32.1468 4.60936 21.0188 12.8141 12.8141C21.0188 4.60936 32.1468 0 43.75 0V0ZM43.75 38.4438L33.5875 28.2813C32.8838 27.5776 31.9295 27.1823 30.9344 27.1823C29.9393 27.1823 28.9849 27.5776 28.2813 28.2813C27.5776 28.9849 27.1823 29.9393 27.1823 30.9344C27.1823 31.9295 27.5776 32.8838 28.2813 33.5875L38.4438 43.75L28.2813 53.9125C27.9328 54.2609 27.6565 54.6745 27.4679 55.1298C27.2793 55.585 27.1823 56.0729 27.1823 56.5656C27.1823 57.0584 27.2793 57.5463 27.4679 58.0015C27.6565 58.4567 27.9328 58.8703 28.2813 59.2188C28.6297 59.5672 29.0433 59.8435 29.4985 60.0321C29.9537 60.2207 30.4416 60.3177 30.9344 60.3177C31.4271 60.3177 31.915 60.2207 32.3702 60.0321C32.8255 59.8435 33.2391 59.5672 33.5875 59.2188L43.75 49.0562L53.9125 59.2188C54.2609 59.5672 54.6745 59.8435 55.1298 60.0321C55.585 60.2207 56.0729 60.3177 56.5656 60.3177C57.0584 60.3177 57.5463 60.2207 58.0015 60.0321C58.4567 59.8435 58.8703 59.5672 59.2188 59.2188C59.5672 58.8703 59.8435 58.4567 60.0321 58.0015C60.2207 57.5463 60.3177 57.0584 60.3177 56.5656C60.3177 56.0729 60.2207 55.585 60.0321 55.1298C59.8435 54.6745 59.5672 54.2609 59.2188 53.9125L49.0562 43.75L59.2188 33.5875C59.5672 33.2391 59.8435 32.8255 60.0321 32.3702C60.2207 31.915 60.3177 31.4271 60.3177 30.9344C60.3177 30.4416 60.2207 29.9537 60.0321 29.4985C59.8435 29.0433 59.5672 28.6297 59.2188 28.2813C58.8703 27.9328 58.4567 27.6565 58.0015 27.4679C57.5463 27.2793 57.0584 27.1823 56.5656 27.1823C56.0729 27.1823 55.585 27.2793 55.1298 27.4679C54.6745 27.6565 54.2609 27.9328 53.9125 28.2813L43.75 38.4438Z" fill="#A05CEB"/>
</svg>
