<svg width="20" height="20" viewBox="0 0 20 20" fill="none" xmlns="http://www.w3.org/2000/svg">
<path d="M17.9611 3.33324C17.8854 3.32544 17.809 3.32544 17.7333 3.33324H2.17775C2.07805 3.33478 1.97901 3.34973 1.8833 3.37769L9.91108 11.3721L17.9611 3.33324Z" fill="#A05CEB"/>
<path d="M18.7834 4.10547L10.6945 12.161C10.4863 12.368 10.2047 12.4841 9.91115 12.4841C9.61761 12.4841 9.336 12.368 9.12782 12.161L1.11115 4.16658C1.08651 4.25716 1.07344 4.35049 1.07227 4.44436V15.5555C1.07227 15.8502 1.18933 16.1328 1.3977 16.3411C1.60608 16.5495 1.88869 16.6666 2.18338 16.6666H17.7389C18.0336 16.6666 18.3162 16.5495 18.5246 16.3411C18.733 16.1328 18.85 15.8502 18.85 15.5555V4.44436C18.8456 4.32861 18.8231 4.21427 18.7834 4.10547ZM2.94449 15.5555H2.17227V14.761L6.21115 10.7555L6.99449 11.5388L2.94449 15.5555ZM17.7278 15.5555H16.95L12.9 11.5388L13.6834 10.7555L17.7223 14.761L17.7278 15.5555Z" fill="#A05CEB"/>
</svg>
