<svg width="20" height="20" viewBox="0 0 20 20" fill="none" xmlns="http://www.w3.org/2000/svg">
<path d="M0 9.80363C0.672135 8.89462 1.42386 8.04728 2.24627 7.27164C3.53395 6.05268 4.94388 5.00979 6.58208 4.29816C9.0791 3.21138 11.5359 3.34357 13.9577 4.54373C14.106 4.61688 14.2549 4.77885 14.4043 4.73809C14.5412 4.70047 14.641 4.5291 14.7559 4.41206C16.1458 3.02154 17.5355 1.63102 18.9251 0.240507C19.1069 0.0581582 19.3059 -0.0526092 19.5697 0.0252417C19.6615 0.0492123 19.7459 0.0955405 19.8154 0.160091C19.885 0.224641 19.9374 0.305406 19.9682 0.395176C19.9989 0.484946 20.0069 0.58093 19.9915 0.67456C19.9761 0.768189 19.9378 0.856552 19.88 0.931761C19.8279 0.998356 19.7706 1.06073 19.7086 1.11829C13.5278 7.30108 7.34721 13.4839 1.16702 19.6667C1.02963 19.8041 0.891193 19.9342 0.7047 20H0.43097C0.241324 19.9125 0.0890814 19.7602 0.00156869 19.5705V19.257C0.0845385 19.112 0.18701 18.9791 0.306118 18.862C1.68348 17.4889 3.06015 16.1149 4.43611 14.7401C4.5594 14.6173 4.54477 14.5734 4.40791 14.4789C3.63943 13.9557 2.91633 13.3688 2.24627 12.7243C1.42531 11.9481 0.673697 11.1015 0 10.1944V9.80363ZM10.1584 5.89697C9.12507 5.89697 8.28454 6.17337 7.58089 6.68802C6.72333 7.31391 6.14194 8.2481 5.95906 9.29403C5.77618 10.34 6.00608 11.4161 6.60037 12.2959C6.68343 12.4192 6.7341 12.4526 6.84955 12.3246C7.03552 12.1156 7.23664 11.9208 7.44194 11.7306C7.53596 11.6433 7.53753 11.5832 7.47328 11.4719C7.06947 10.777 6.95977 10.0325 7.16559 9.25501C7.27974 8.81817 7.49352 8.41371 7.79017 8.07337C8.08682 7.73303 8.45828 7.46606 8.8754 7.2934C9.29252 7.12074 9.74396 7.04708 10.1943 7.07821C10.6447 7.10933 11.0817 7.2444 11.4711 7.4728C11.5813 7.53655 11.6419 7.53655 11.7297 7.44198C11.924 7.23298 12.1262 7.02869 12.3367 6.83536C12.448 6.73087 12.4234 6.68541 12.3111 6.61069C11.6116 6.14202 10.8427 5.90481 10.1584 5.89697Z" fill="#47484D"/>
<path d="M6.72827 15.7542L8.1523 14.3304C8.29961 14.1831 8.42342 13.9825 8.60103 13.9036C8.77864 13.8247 8.97767 13.9825 9.172 14.0201C11.4836 14.4689 13.6562 12.9683 14.0485 10.6406C14.1555 10.0154 14.1064 9.37333 13.9053 8.77168C13.8672 8.65673 13.8876 8.58881 13.9733 8.50364C14.7412 7.74395 15.5049 6.97972 16.2644 6.21097C16.3689 6.10647 16.4212 6.1164 16.5256 6.20052C17.7491 7.18453 18.851 8.31095 19.8078 9.55594C20.0612 9.88667 20.0653 10.1113 19.812 10.4353C18.2924 12.3836 16.5246 14.0535 14.3426 15.2469C12.905 16.0332 11.377 16.4894 9.71998 16.4408C8.82827 16.4141 7.66073 16.1534 6.72827 15.7542Z" fill="#47484D"/>
<path d="M9.60034 12.9051C9.73407 12.7421 12.7284 9.74617 12.9029 9.60144C13.0042 10.5701 12.7383 11.3931 12.0671 12.0666C11.3958 12.74 10.5689 13.0055 9.60034 12.9051Z" fill="#47484D"/>
</svg>
