<svg width="51" height="50" viewBox="0 0 51 50" fill="none" xmlns="http://www.w3.org/2000/svg">
<path d="M25.0344 0C18.7518 0.0148663 12.7034 2.38586 8.08434 6.64444C3.46529 10.903 0.611721 16.7394 0.0875419 23C-0.436637 29.2608 1.40671 35.4903 5.25331 40.4577C9.09992 45.425 14.6699 48.7687 20.8625 49.8281V30.3438H14.8V23.3281H20.8469V18.1562C20.8469 12.1562 24.5032 8.89062 29.8313 8.89062C31.6318 8.877 33.4315 8.96569 35.2219 9.15625V15.4062H31.5188C28.6282 15.4062 28.0657 16.7812 28.0657 18.8125V23.2969H34.9875L34.0813 30.3125H28.0657V50C34.405 49.2206 40.2088 46.0533 44.294 41.1434C48.3791 36.2336 50.4382 29.9506 50.0518 23.5752C49.6652 17.1998 46.8621 11.2117 42.2138 6.83122C37.5654 2.4508 31.4216 0.00775347 25.0344 0Z" fill="white"/>
</svg>
