<svg width="70" height="70" viewBox="0 0 70 70" fill="none" xmlns="http://www.w3.org/2000/svg">
<path d="M54.8237 69.9993H6.42192C5.67854 69.6341 5.4484 69.0352 5.45388 68.2154C5.48128 63.4992 5.46667 58.783 5.46667 54.0668V53.3182C4.0895 53.3182 2.81461 53.3182 1.54155 53.3182C0.502284 53.3182 0 52.8069 0 51.7607C0 40.5949 0 29.431 0 18.2688C0 17.1733 0.494978 16.6913 1.58721 16.6895C3.17991 16.6895 4.77443 16.6895 6.29772 16.6895C10.7142 6.72392 18.1479 0.691253 29.0502 0.121583C41.3772 -0.522947 49.8721 5.57727 54.9863 16.6858H59.4338C60.8183 16.6858 61.2384 17.0985 61.2384 18.4606C61.2384 23.2675 61.2384 28.0756 61.2384 32.8849V33.6152C63.021 33.3688 63.9781 32.2477 63.9781 30.4583C63.9781 23.5785 63.9781 16.6968 63.9927 9.82606C63.9927 9.32577 63.8648 9.08475 63.3881 8.87112C62.4571 8.4482 61.6926 7.72862 61.2144 6.82501C60.7362 5.92139 60.5712 4.88476 60.7452 3.87739C61.1397 1.81416 62.842 0.209227 64.8274 0.0321179C67.0539 -0.166901 69.01 1.07469 69.7388 3.14704C69.821 3.38075 69.9087 3.61264 69.9927 3.84635V5.48963C69.558 6.99414 68.7817 8.2485 67.2858 8.88025C66.7854 9.09205 66.6995 9.36229 66.6995 9.84614C66.7141 16.743 66.7141 23.6406 66.6995 30.5387C66.7122 31.1737 66.6265 31.8068 66.4457 32.4157C65.6347 34.8806 63.8447 36.1496 61.2402 36.4326V37.1629C61.2402 41.9661 61.2402 46.7694 61.2402 51.5726C61.2402 52.8909 60.8055 53.3182 59.4758 53.32H55.7735V54.1489C55.7735 58.8396 55.7589 63.5284 55.7881 68.2172C55.7954 69.0352 55.5635 69.6304 54.8237 69.9993ZM58.4877 19.4228H37.6658C37.3242 19.4228 36.9808 19.4392 36.6411 19.4228C36.3196 19.4019 36.0158 19.2679 35.7837 19.0445C35.5515 18.8212 35.4059 18.5229 35.3727 18.2025C35.3394 17.8821 35.4206 17.5603 35.602 17.2941C35.7833 17.0279 36.0531 16.8344 36.3635 16.7479C36.6082 16.6954 36.8588 16.6757 37.1087 16.6895H51.7991C48.9772 9.5814 41.0064 2.56276 30.2027 2.7563C19.3991 2.94985 11.9379 10.2424 9.45753 16.6858H19.916C21.4429 16.6858 22.968 16.6731 24.495 16.6858C24.6722 16.6828 24.8481 16.7156 25.0123 16.7823C25.1764 16.849 25.3254 16.9482 25.4503 17.0739C25.5752 17.1995 25.6734 17.3491 25.739 17.5137C25.8045 17.6783 25.8362 17.8544 25.832 18.0315C25.8363 18.2081 25.8057 18.3838 25.7419 18.5486C25.6781 18.7133 25.5823 18.8638 25.4601 18.9914C25.3379 19.119 25.1916 19.2212 25.0297 19.2921C24.8679 19.363 24.6936 19.4012 24.5169 19.4045C24.3123 19.4155 24.1059 19.4045 23.9014 19.4045H2.7653V50.5392H58.4877V19.4228ZM53.0082 53.3839H8.25388V67.2477H53.0174L53.0082 53.3839ZM65.3406 6.57784C65.7177 6.58067 66.0872 6.47189 66.4025 6.26521C66.7178 6.05853 66.9649 5.7632 67.1127 5.4164C67.2604 5.0696 67.3022 4.68685 67.2328 4.31636C67.1634 3.94586 66.9858 3.60419 66.7225 3.33438C66.4592 3.06456 66.1219 2.87867 65.7531 2.80011C65.3843 2.72156 65.0005 2.75387 64.65 2.89294C64.2996 3.03202 63.9981 3.27166 63.7836 3.58168C63.5692 3.8917 63.4512 4.25823 63.4447 4.63512C63.4512 5.14022 63.6533 5.62315 64.0086 5.98238C64.3638 6.34161 64.8446 6.54917 65.3498 6.56141L65.3406 6.57784Z" fill="white"/>
<path d="M30.6504 22.1552H54.0294C55.359 22.1552 55.7864 22.5824 55.7864 23.9098V46.116C55.7864 47.3941 55.3426 47.8505 54.0768 47.8505H7.18917C5.91063 47.8505 5.4668 47.4014 5.4668 46.1288V23.9226C5.4668 22.5897 5.89602 22.1552 7.20926 22.1552H30.6504ZM8.2467 24.9159V45.0679H21.2933V24.9159H8.2467ZM37.1435 45.0917V24.9396H24.0951V45.0917H37.1435ZM53.0029 45.0917V24.9396H39.9545V45.0917H53.0029Z" fill="white"/>
<path d="M31.9856 18.0687C31.9857 18.2498 31.9493 18.4291 31.8785 18.5958C31.8076 18.7624 31.7039 18.9131 31.5734 19.0388C31.443 19.1644 31.2885 19.2625 31.1192 19.327C30.9499 19.3915 30.7694 19.4212 30.5883 19.4144C30.235 19.3977 29.9019 19.2446 29.6593 18.9871C29.4168 18.7297 29.2837 18.3882 29.2882 18.0346C29.2927 17.681 29.4344 17.343 29.6834 17.0918C29.9325 16.8406 30.2694 16.696 30.623 16.6884C30.8042 16.6858 30.984 16.7199 31.1517 16.7886C31.3194 16.8573 31.4714 16.9592 31.5987 17.0882C31.7259 17.2171 31.8258 17.3704 31.8923 17.5389C31.9588 17.7074 31.9905 17.8876 31.9856 18.0687Z" fill="white"/>
<path d="M30.6264 61.6646C25.5926 61.6646 20.5588 61.6646 15.525 61.6646C14.3506 61.6646 13.5944 60.644 14.1424 59.7292C14.3542 59.3731 14.8547 59.1814 15.251 58.955C15.3899 58.8765 15.6163 58.9386 15.799 58.9386H45.4465C45.6054 58.9386 45.7661 58.9386 45.925 58.9386C46.281 58.9497 46.6193 59.0966 46.8703 59.3493C47.1214 59.6019 47.2661 59.9411 47.2748 60.297C47.272 60.6538 47.1303 60.9954 46.8796 61.2494C46.6289 61.5034 46.2891 61.6497 45.9323 61.6573C44.9296 61.681 43.9232 61.6573 42.9259 61.6573L30.6264 61.6646Z" fill="white"/>
<path d="M15.2457 30.8994C14.2429 30.8994 13.337 30.8994 12.4292 30.8994C11.5215 30.8994 10.9553 30.3699 10.9388 29.5683C10.9224 28.7303 11.505 28.1789 12.4347 28.1734C13.9811 28.1661 15.5282 28.1661 17.0758 28.1734C18.2539 28.1734 18.8585 29.0224 18.4585 30.1472C17.197 33.6942 15.9227 37.2376 14.6356 40.7773C14.316 41.661 13.5872 42.039 12.8329 41.7633C12.0785 41.4876 11.737 40.7262 12.0475 39.8607C13.0119 37.1475 13.9945 34.4398 14.9699 31.7284C15.0575 31.48 15.1361 31.2262 15.2457 30.8994Z" fill="white"/>
<path d="M31.0997 30.8988C30.1079 30.8988 29.2038 30.8988 28.2997 30.8988C27.3682 30.8988 26.7855 30.351 26.7983 29.5093C26.8111 28.7059 27.3864 28.1782 28.2832 28.1746C29.8522 28.1746 31.423 28.1618 32.9919 28.1746C34.0878 28.1855 34.7106 29.0309 34.3417 30.0735C33.0704 33.6668 31.7828 37.2534 30.4787 40.8333C30.1755 41.6659 29.4376 42.0311 28.7015 41.7682C27.938 41.4961 27.6056 40.7329 27.9033 39.8711C28.8787 37.1323 29.8686 34.4081 30.8494 31.6766C30.9335 31.4465 30.9992 31.211 31.0997 30.8988Z" fill="white"/>
<path d="M46.9662 30.8992C45.958 30.8992 45.0484 30.8992 44.1407 30.8992C43.2329 30.8992 42.6795 30.3624 42.6594 29.5591C42.6466 28.7228 43.2274 28.1787 44.1626 28.1732C45.7096 28.1732 47.2566 28.1732 48.8018 28.1732C49.9544 28.1732 50.5772 29.0113 50.1954 30.0904C48.9218 33.6825 47.6341 37.2691 46.3324 40.8502C46.0311 41.6792 45.2804 42.0334 44.5443 41.7631C43.8082 41.4929 43.4612 40.7443 43.7534 39.9227C44.7215 37.1839 45.7114 34.4579 46.6904 31.7245C46.7744 31.489 46.8475 31.2553 46.9662 30.8992Z" fill="white"/>
</svg>
