<svg width="25" height="38" viewBox="0 0 25 38" fill="none" xmlns="http://www.w3.org/2000/svg">
<g clip-path="url(#clip0_14_4139)">
<path d="M-0.000526686 30.4129V30.2624C0.0355524 30.093 0.0593777 29.9212 0.0708517 29.7484C0.0754104 25.1599 0.0754104 20.5698 0.0708517 15.9783C0.0578701 15.8054 0.0324797 15.6336 -0.00512695 15.4643V14.5614C0.0161471 14.5493 0.0450071 14.5433 0.0586832 14.526C0.407425 14.0557 0.73264 13.9082 1.13077 14.0422C1.51598 14.1716 1.68618 14.4786 1.6877 15.0452C1.6877 15.4079 1.67323 15.7721 1.69527 16.1333C1.71882 16.5208 1.93161 16.7857 2.31378 16.8978C2.47153 16.9507 2.64277 16.9486 2.79918 16.892C2.95559 16.8353 3.08773 16.7275 3.17381 16.5863C3.282 16.4058 3.33806 16.1994 3.33571 15.9896C3.35014 14.7758 3.33566 13.5621 3.34402 12.3484C3.34402 11.7577 3.67148 11.398 4.17978 11.395C4.68808 11.392 5.01555 11.7524 5.01555 12.3371C5.01555 12.7374 4.98591 13.1415 5.02846 13.541C5.05186 13.7839 5.14522 14.0151 5.29742 14.207C5.51852 14.4605 5.84222 14.5034 6.16665 14.3627C6.52071 14.2122 6.67112 13.9323 6.67112 13.5583C6.67112 11.8693 6.67112 10.18 6.67112 8.49046C6.67112 7.88397 7.00692 7.50247 7.52054 7.51225C8.03415 7.52203 8.33351 7.8787 8.33427 8.47691C8.33427 9.54015 8.33427 10.6041 8.33427 11.6681C8.33427 12.2415 8.68378 12.6185 9.18524 12.6087C9.6867 12.5989 10.0043 12.2453 10.0043 11.6764C10.0043 10.9239 10.0043 10.1715 10.0043 9.42352C10.0043 8.84412 10.3455 8.47616 10.853 8.48293C11.3605 8.48971 11.6675 8.84111 11.6735 9.40395C11.6781 9.76664 11.6614 10.1308 11.6796 10.4928C11.6811 10.6576 11.7345 10.8179 11.8325 10.9512C11.9304 11.0845 12.068 11.1841 12.2259 11.2362C12.5473 11.3528 12.8801 11.3039 13.0868 11.03C13.2312 10.8321 13.3141 10.5967 13.3253 10.3528C13.3504 9.33999 13.3253 8.32567 13.339 7.31209C13.3458 6.674 13.8427 6.28422 14.4118 6.44525C14.7833 6.5506 15.0014 6.85685 15.0022 7.30306C15.006 8.50701 14.9976 9.70494 15.0067 10.9059C15.0113 11.413 15.3935 11.7908 15.8554 11.781C16.2946 11.772 16.6578 11.3875 16.6677 10.9074C16.6752 10.5312 16.6677 10.1549 16.6677 9.77868C16.6677 9.18499 17.0118 8.79445 17.5209 8.80047C18.0109 8.80725 18.3338 9.19101 18.3346 9.77417C18.3346 10.8502 18.3346 11.9262 18.3346 13.0015C18.3346 13.5358 18.6643 13.8879 19.1476 13.8977C19.6194 13.9075 19.9484 13.5869 19.9925 13.0752C20.0403 12.5184 20.3724 12.1964 20.8814 12.2197C21.3586 12.2408 21.6602 12.5959 21.6625 13.14C21.6625 13.7908 21.6534 14.4417 21.667 15.0964C21.6646 15.3122 21.7483 15.5203 21.9 15.6753C22.0517 15.8303 22.2591 15.9197 22.477 15.9241C22.9427 15.9324 23.2983 15.5855 23.3233 15.0964C23.3279 15.0091 23.3233 14.9211 23.3233 14.8338C23.3317 14.2942 23.6782 13.909 24.1591 13.9082C24.6401 13.9075 24.9896 14.2845 24.9896 14.8285C24.9896 19.9217 24.9921 25.0152 24.9972 30.1089C24.9972 30.3399 24.9212 30.4633 24.7206 30.5769C20.7313 32.8524 16.7454 35.1349 12.7631 37.4244C12.5784 37.5305 12.4432 37.5395 12.2502 37.4244C10.368 36.3328 8.47968 35.2497 6.58528 34.1752C4.39101 32.9211 2.19576 31.667 -0.000526686 30.4129ZM10.5362 18.703H6.64679V27.9026H10.5544V25.0094H14.4779V27.9087H18.3734V18.6962H14.4574V21.755H10.5362V18.703Z" fill="#A05CEB"/>
<path d="M11.0599 0C11.1115 0.0300987 11.1624 0.0601969 11.2118 0.0887907C11.575 0.285937 11.7437 0.655398 11.6517 1.03314C11.6066 1.20397 11.5073 1.35591 11.3684 1.46655C11.2294 1.57718 11.0582 1.64064 10.8801 1.64756C10.7019 1.65447 10.5263 1.60448 10.379 1.50495C10.2317 1.40543 10.1207 1.26165 10.0623 1.09484C9.93158 0.718606 10.0623 0.355165 10.4194 0.120395L10.6025 0H11.0599Z" fill="#A05CEB"/>
<path d="M15.0076 2.97094C15.0076 3.35847 15.0144 3.74674 15.0076 4.13351C14.9969 4.60832 14.6627 4.95445 14.2144 4.968C13.7365 4.98304 13.3603 4.65873 13.3482 4.16737C13.3292 3.36825 13.33 2.56687 13.3482 1.76699C13.3581 1.27488 13.7334 0.915954 14.184 0.918964C14.6527 0.918964 15.0038 1.2952 15.0129 1.80913C15.0129 2.00854 15.0129 2.20869 15.0129 2.41111L15.0076 2.97094Z" fill="#A05CEB"/>
<path d="M11.6758 5.16606C11.6758 5.55358 11.6827 5.9411 11.6758 6.32787C11.6644 6.80869 11.3393 7.14053 10.8804 7.15558C10.4214 7.17063 10.034 6.86061 10.0188 6.39258C9.99141 5.56862 9.99217 4.74317 10.0188 3.91921C10.0324 3.4256 10.4146 3.11182 10.8947 3.13364C11.3605 3.15395 11.669 3.47526 11.6789 3.96662C11.6842 4.36618 11.6758 4.76649 11.6758 5.16606Z" fill="#A05CEB"/>
<path d="M18.3381 6.97576C18.3388 7.08515 18.3174 7.19357 18.275 7.29459C18.2326 7.3956 18.1702 7.48715 18.0914 7.5638C18.0126 7.64044 17.919 7.70062 17.8162 7.74076C17.7135 7.7809 17.6036 7.80018 17.4932 7.79746C17.2785 7.79195 17.0745 7.70385 16.9243 7.55184C16.7741 7.39983 16.6896 7.19586 16.6887 6.98319C16.6878 6.77051 16.7706 6.56586 16.9195 6.41262C17.0684 6.25938 17.2717 6.16961 17.4864 6.16234C17.5967 6.15861 17.7066 6.17687 17.8096 6.21605C17.9127 6.25523 18.0067 6.31451 18.0862 6.39039C18.1656 6.46627 18.2288 6.55719 18.2721 6.65775C18.3154 6.75831 18.3378 6.86645 18.3381 6.97576Z" fill="#A05CEB"/>
</g>
<defs>
<clipPath id="clip0_14_4139">
<rect width="25" height="37.5" fill="white"/>
</clipPath>
</defs>
</svg>
