<svg width="70" height="70" viewBox="0 0 70 70" fill="none" xmlns="http://www.w3.org/2000/svg">
<path d="M49.1255 0C50.0032 0.255228 50.8127 0.594317 51.3903 1.27614C52.0341 2.03636 52.1749 2.89867 52.1003 3.80108C52.0631 4.24408 52.2121 4.40633 52.7359 4.37716C53.2769 4.33376 53.8221 4.35461 54.3569 4.43915C56.0896 4.75636 57.2096 6.02156 57.2138 7.64955C57.2262 12.2072 57.2138 16.7649 57.2138 21.3225C57.2138 27.0414 57.2282 32.7604 57.1951 38.4775C57.1951 39.1265 57.4146 39.2395 58.0936 39.245C60.0023 39.2578 61.9235 39.0718 63.8219 39.3617C65.4467 39.6312 66.9258 40.3636 68.0315 41.446C69.1373 42.5285 69.8084 43.901 69.9414 45.3522C70.0118 46.3057 70.0035 47.2646 69.9932 48.2199C69.9932 48.9874 69.546 49.4031 68.8256 49.3994C68.1051 49.3958 67.6911 48.982 67.6683 48.209C67.6435 47.3211 67.6911 46.4297 67.6186 45.5455C67.5284 44.3971 66.9493 43.3211 65.997 42.5325C65.0448 41.744 63.7896 41.301 62.4824 41.2923C55.8578 41.2692 49.2331 41.2692 42.6084 41.2923C41.9195 41.2884 41.2367 41.4053 40.5996 41.6362C39.9625 41.8671 39.3841 42.2074 38.8979 42.6372C38.4117 43.0671 38.0276 43.5778 37.7679 44.1397C37.5082 44.7016 37.3781 45.3035 37.3853 45.9101C37.3232 51.7184 37.3232 57.5278 37.3853 63.3385C37.4164 66.0476 39.766 67.9418 42.8651 67.9454C49.2786 67.9539 55.6929 67.9539 62.1077 67.9454C65.3642 67.9454 67.6124 65.9929 67.6435 63.1052C67.6745 59.9841 67.6435 56.863 67.6435 53.742C67.6435 52.639 68.0203 52.145 68.8359 52.1614C69.6516 52.1778 69.9828 52.6554 69.9787 53.7183C69.9662 57.0672 70.0428 60.418 69.9083 63.7633C69.7841 66.899 67.0783 69.3856 63.5362 69.8815C63.4782 69.8815 63.4306 69.9599 63.3788 70H41.3642C41.0785 69.7375 40.6666 69.7685 40.3126 69.6664C37.112 68.7312 35.0791 66.1825 35.0439 63.0359C35.0315 62.0478 35.0315 62.0478 33.9032 62.0478H9.46024C6.50813 62.0478 5.1128 60.8555 5.1128 58.2704C5.1128 57.7983 4.99066 57.6305 4.43791 57.6706C3.87118 57.7225 3.29856 57.6892 2.74449 57.5722C2.03978 57.4161 1.40536 57.0756 0.924902 56.5956C0.444442 56.1155 0.140515 55.5185 0.0532132 54.8832C0.0159614 54.5665 -0.000625469 54.2481 0.00353025 53.9297C0.00353025 41.9231 0.00353025 29.917 0.00353025 17.9116C-0.00797428 17.6385 0.00865345 17.3652 0.0532132 17.0948C0.103011 16.8653 0.242622 16.6583 0.447758 16.5101C0.652895 16.3618 0.910573 16.2815 1.17596 16.2833C1.44134 16.285 1.69764 16.3686 1.90025 16.5196C2.10287 16.6705 2.23898 16.8792 2.2849 17.1094C2.33159 17.4022 2.34822 17.6981 2.33459 17.9936C2.33459 29.8629 2.33459 41.7323 2.33459 53.6016C2.33459 53.8295 2.33459 54.0574 2.33459 54.2852C2.36771 55.1968 2.82936 55.6234 3.86653 55.6252C14.0589 55.6252 24.2498 55.63 34.4394 55.6398C35.0087 55.6398 35.0604 55.441 35.048 55.0418C35.0356 52.0812 35.0253 49.1187 35.048 46.158C35.0687 43.0588 37.0437 40.5685 40.2008 39.595C41.0577 39.3394 41.9584 39.216 42.8631 39.2304C44.9581 39.2413 47.0532 39.2177 49.1482 39.245C49.6637 39.245 49.7859 39.1192 49.7859 38.6762C49.7707 26.9454 49.7665 15.2128 49.7734 3.47839C49.7734 2.46477 49.3242 2.06552 48.1877 2.06552C37.4805 2.06552 26.7727 2.06127 16.0642 2.05276C15.528 2.05276 15.379 2.16214 15.3852 2.64526C15.4142 5.08268 15.4017 7.52012 15.3976 9.95755C15.3976 12.2564 13.9215 13.5435 11.3027 13.5453C8.06907 13.5453 4.83746 13.5453 1.6038 13.5453C0.982735 13.5453 0.384449 13.4906 0.107041 12.9164C-0.170367 12.3421 0.16293 11.9301 0.618376 11.5308C4.75879 7.90053 8.89921 4.26474 13.0396 0.623483L13.7435 0.00546895L49.1255 0ZM52.1066 22.8338C52.1066 27.7087 52.1066 32.5829 52.1066 37.4566C52.1066 38.0217 51.8312 38.7455 52.2184 39.0973C52.6055 39.4492 53.4481 39.1374 54.0815 39.2231C54.8144 39.3252 54.9096 39.0408 54.8993 38.4738C54.8744 33.4404 54.8848 28.4069 54.8848 23.3734C54.8848 18.2251 54.8848 13.0774 54.8848 7.93031C54.8848 7.49277 54.8848 7.06253 54.4894 6.72709C54.1643 6.45727 53.771 6.40805 53.3445 6.40623C52.1024 6.40623 52.1024 6.39165 52.1024 7.45267L52.1066 22.8338ZM21.2335 57.6743H20.6911C16.5024 57.6743 12.3137 57.6743 8.12496 57.6743C7.87446 57.6743 7.5039 57.492 7.42937 57.9696C7.22235 59.377 7.78545 59.975 9.39607 59.975H33.1393C35.0605 59.975 35.0356 59.975 35.0646 58.285C35.0646 57.78 34.9362 57.6469 34.3483 57.6488C29.974 57.6852 25.6037 57.6743 21.2335 57.6743ZM4.23504 11.4725C6.70687 11.4725 9.25116 11.4889 11.7954 11.4725C12.5407 11.4725 13.0044 11.0095 13.0521 10.3185C13.0914 9.75154 13.0645 9.18093 13.0645 8.61395C13.0645 6.9732 13.0645 5.31968 13.0645 3.66617L4.23504 11.4725Z" fill="white"/>
<path d="M20.0967 16.3382C20.0967 13.8115 20.0967 11.2847 20.0967 8.75613C20.0967 6.88385 21.3988 5.74444 23.5249 5.74261C29.2636 5.74261 35.0015 5.74261 40.7387 5.74261C42.809 5.74261 44.1484 6.90208 44.1504 8.71602C44.1587 13.7938 44.1587 18.8705 44.1504 23.9459C44.1504 25.758 42.811 26.9284 40.747 26.9302C34.9836 26.9302 29.2201 26.9302 23.4566 26.9302C21.4278 26.9302 20.1029 25.7653 20.0967 23.9896C20.0967 21.4373 20.0967 18.8869 20.0967 16.3382ZM22.4257 16.2872C22.4257 18.8139 22.4257 21.3407 22.4257 23.8693C22.4257 24.3487 22.5312 24.7954 23.1275 24.8483C23.8645 24.9139 24.705 25.0215 25.3281 24.7717C25.6925 24.6259 25.4047 23.8109 25.444 23.2987C25.4534 23.1396 25.4534 22.9801 25.444 22.821C25.3736 20.7336 26.2721 19.1075 28.3775 18.0628C28.6011 17.9516 28.775 17.8805 28.6094 17.6053C28.0297 16.6773 28.1436 15.6582 28.2078 14.6665C28.3133 13.0385 29.8474 11.6767 31.6816 11.498C33.5613 11.3157 35.439 12.3621 35.9007 13.9591C36.2422 15.1387 36.2733 16.3565 35.704 17.505C35.526 17.8696 35.6564 17.9462 35.969 18.1011C36.6534 18.4271 37.2497 18.8795 37.7171 19.4273C38.1844 19.9751 38.5118 20.6054 38.6768 21.2751C38.8611 21.966 38.8052 22.6788 38.8052 23.3843C38.8052 24.8866 38.8052 24.8865 40.5379 24.8811C41.5896 24.8811 41.8318 24.6751 41.8318 23.7745C41.8318 18.8097 41.8318 13.8461 41.8318 8.88374C41.8318 8.01414 41.5834 7.78991 40.6021 7.78991H23.616C22.6741 7.78991 22.4298 8.00685 22.4298 8.83816C22.4215 11.3236 22.4188 13.8066 22.4215 16.2872H22.4257ZM32.0832 24.8811C33.3729 24.8811 34.6627 24.8683 35.9524 24.8811C36.3416 24.8811 36.499 24.81 36.4803 24.4363C36.441 23.6651 36.499 22.8885 36.4431 22.1191C36.4026 21.431 36.0661 20.7823 35.502 20.3048C34.9379 19.8274 34.1884 19.557 33.4061 19.5486C32.5559 19.5268 31.7043 19.5268 30.8514 19.5486C30.0951 19.5515 29.367 19.8018 28.8084 20.2508C28.2499 20.6999 27.9008 21.3158 27.8289 21.9788C27.7316 22.8101 27.7999 23.6578 27.7606 24.4964C27.744 24.8793 27.98 24.8774 28.2906 24.8756C29.5513 24.8756 30.8142 24.8811 32.0791 24.8811H32.0832ZM30.5098 15.454C30.5098 15.6364 30.5098 15.8187 30.5098 16.001C30.5471 16.8724 31.2344 17.5032 32.1391 17.4995C33.0438 17.4959 33.7021 16.8924 33.7497 16.0538C33.7811 15.6458 33.7763 15.2361 33.7352 14.8287C33.7007 14.4669 33.51 14.1304 33.2025 13.8885C32.8949 13.6466 32.4938 13.5176 32.0815 13.5281C31.6693 13.5386 31.2773 13.6878 30.9862 13.9449C30.695 14.2021 30.5268 14.5477 30.516 14.9108C30.4912 15.0894 30.5057 15.2717 30.5057 15.454H30.5098Z" fill="white"/>
<path d="M25.9473 34.8861C20.5468 34.8861 15.1442 34.8861 9.73961 34.8861C9.38353 34.8861 9.01918 34.939 8.68588 34.7475C8.49502 34.649 8.34151 34.503 8.24463 34.3278C8.14776 34.1526 8.11184 33.9562 8.14141 33.7631C8.15655 33.5805 8.23094 33.4056 8.35573 33.2592C8.48051 33.1128 8.65044 33.001 8.84529 32.9373C9.19102 32.8042 9.55537 32.8352 9.91559 32.8352H42.0225C42.1508 32.8352 42.2813 32.8352 42.4096 32.8352C43.277 32.8643 43.8318 33.2982 43.7987 33.9181C43.7656 34.5379 43.2563 34.8861 42.3889 34.8861C36.9125 34.8885 31.432 34.8885 25.9473 34.8861Z" fill="white"/>
<path d="M18.5008 40.0726C15.5052 40.0726 12.5075 40.0726 9.5119 40.0726C8.87221 40.0726 8.38778 39.8994 8.17662 39.3433C8.12648 39.2071 8.11003 39.0629 8.12836 38.9206C8.1467 38.7782 8.19939 38.641 8.28292 38.518C8.36645 38.3951 8.47887 38.2893 8.61264 38.2078C8.74642 38.1262 8.89845 38.0709 9.05853 38.0453C9.31299 38.0088 9.57113 37.9959 9.82865 38.007H27.1853C27.3157 38.007 27.4441 38.007 27.5724 38.007C28.4005 38.0362 28.9305 38.4464 28.9305 39.048C28.9305 39.6496 28.3984 40.0562 27.5662 40.058C24.5437 40.0726 21.5219 40.0774 18.5008 40.0726Z" fill="white"/>
<path d="M53.216 54.9895C51.0543 56.8234 48.8911 58.6586 46.7293 60.4925C46.2677 60.8841 45.7825 61.0557 45.1949 60.7837C45.052 60.7161 44.9273 60.6221 44.8291 60.5082C44.7309 60.3942 44.6615 60.2629 44.6255 60.123C44.5896 59.9832 44.5879 59.838 44.6206 59.6973C44.6533 59.5566 44.7197 59.4235 44.8152 59.3071C44.9702 59.1249 45.1464 58.9576 45.341 58.808L57.8661 48.1822C57.9603 48.1023 58.0529 48.0238 58.1455 47.9452C58.7659 47.4593 59.4695 47.4308 59.9404 47.865C60.4114 48.2991 60.3457 48.9182 59.7465 49.429C57.5768 51.2899 55.4 53.1434 53.216 54.9895Z" fill="white"/>
<path d="M51.7038 54.8327C49.5161 53.0231 47.3269 51.2122 45.1391 49.4025C44.672 49.0161 44.452 48.597 44.7273 48.0633C44.7959 47.9335 44.8953 47.8183 45.0186 47.7254C45.1419 47.6325 45.2865 47.5641 45.4424 47.5248C45.5984 47.4855 45.7622 47.4761 45.9229 47.4974C46.0835 47.5187 46.2374 47.5701 46.374 47.6481C46.5881 47.7751 46.7865 47.9217 46.966 48.0854L59.6418 58.5705C59.7371 58.6493 59.8308 58.7269 59.9245 58.8044C60.5068 59.326 60.577 59.9457 60.1123 60.3851C59.6475 60.8244 58.945 60.7999 58.3358 60.2985C56.1171 58.4833 53.9065 56.6613 51.7038 54.8327Z" fill="white"/>
<path d="M18.5317 50.4495C15.5602 50.4495 12.5929 50.4495 9.62978 50.4495C8.65264 50.4495 8.13716 50.0849 8.14337 49.4195C8.14958 48.7541 8.67334 48.4004 9.65254 48.4004C15.594 48.4004 21.5342 48.4004 27.4729 48.4004C28.6177 48.4004 29.2699 49.1697 28.7792 49.9263C28.5039 50.3492 28.0567 50.455 27.5371 50.4532C24.5229 50.4441 21.5273 50.4495 18.5317 50.4495Z" fill="white"/>
<path d="M13.971 45.261C12.4721 45.261 10.9733 45.261 9.4724 45.261C8.62154 45.261 8.1309 44.8727 8.13504 44.2401C8.13918 43.6075 8.64224 43.2192 9.48689 43.2156C12.4349 43.2083 15.3828 43.2083 18.3308 43.2156C19.1775 43.2156 19.6682 43.6221 19.6661 44.251C19.664 44.88 19.1817 45.2556 18.3163 45.2592C16.8672 45.2647 15.4201 45.261 13.971 45.261Z" fill="white"/>
<path d="M25.8187 45.2592C25.1977 45.2592 24.5766 45.2756 23.9556 45.2592C23.8004 45.267 23.6451 45.2471 23.4989 45.2008C23.3527 45.1544 23.2186 45.0826 23.1046 44.9896C22.9907 44.8965 22.8992 44.7842 22.8357 44.6593C22.7722 44.5344 22.738 44.3996 22.7351 44.2628C22.7321 44.1259 22.7606 43.99 22.8187 43.8631C22.8768 43.7362 22.9634 43.6209 23.0733 43.5242C23.1832 43.4274 23.3141 43.3512 23.4582 43.3001C23.6024 43.2489 23.7567 43.2239 23.9121 43.2265C25.1997 43.1937 26.4881 43.1937 27.7772 43.2265C27.9326 43.2232 28.0873 43.2476 28.2318 43.2982C28.3764 43.3487 28.5078 43.4245 28.6183 43.5209C28.7288 43.6174 28.816 43.7324 28.8748 43.8592C28.9335 43.9861 28.9626 44.122 28.9602 44.259C28.9578 44.396 28.9241 44.5311 28.861 44.6563C28.7979 44.7814 28.7067 44.8941 28.5929 44.9875C28.4792 45.0809 28.3452 45.1531 28.1989 45.1998C28.0527 45.2465 27.8973 45.2667 27.742 45.2592C27.1064 45.2756 26.4626 45.2592 25.8187 45.2592Z" fill="white"/>
</svg>
