<svg width="38" height="31" viewBox="0 0 38 31" fill="none" xmlns="http://www.w3.org/2000/svg">
<path d="M31.5371 5.73205L30.221 6.81017L27.5894 8.96689L24.9446 11.1129L23.6223 12.1859L23.2914 12.4541L23.1265 12.5885L23.0522 12.6483C23.0354 12.6641 23.0123 12.6866 22.9898 12.7076C22.8149 12.8851 22.668 13.0799 22.5528 13.2875C22.3224 13.7014 22.2406 14.1561 22.3748 14.5772C22.442 14.792 22.5526 14.9961 22.702 15.1811C22.778 15.2766 22.8614 15.3681 22.9517 15.455C22.9979 15.4984 23.0448 15.5418 23.0941 15.5837L23.2552 15.7186L25.863 17.8907L28.4797 20.0607L31.0888 22.2368C32.2085 23.1729 33.3269 24.1096 34.4441 25.0471L34.4553 25.0338C34.6557 24.9893 34.6688 24.7558 34.4815 24.5739C34.4765 24.5407 34.4722 24.507 34.4672 24.4717C34.4481 24.3674 34.4404 24.2619 34.4441 24.1565C34.4697 23.9777 34.3817 23.9414 34.1944 23.9879L34.185 23.9777C34.1581 23.9051 34.0832 23.8622 34.0258 23.8085C33.9134 23.668 33.8041 23.5255 33.688 23.387C33.4445 23.0973 33.1973 22.8096 32.9513 22.5184C32.9275 22.4887 32.9044 22.4591 32.8813 22.429C32.8535 22.3897 32.8211 22.3527 32.7846 22.3186C32.41 21.8417 32.0354 21.3648 31.6608 20.8879L31.2861 20.4199C31.2866 20.4119 31.2842 20.4039 31.2793 20.397C31.2743 20.3901 31.2669 20.3846 31.258 20.3811C31.2242 20.3421 31.1933 20.3015 31.1657 20.2595L30.2329 19.0975C30.0737 18.8778 29.9207 18.6545 29.7527 18.4399C29.6328 18.2867 29.4918 18.1451 29.3601 17.9985C29.3064 17.9242 29.2529 17.8498 29.1996 17.7752C29.163 17.7364 29.1314 17.6946 29.1053 17.6505C28.9988 17.5211 28.8922 17.392 28.7856 17.2632L27.8797 16.1304L27.4426 15.5771C27.3961 15.4641 27.3194 15.3611 27.2179 15.2756L27.1336 15.1734C27.1002 15.0942 27.0449 15.0223 26.9719 14.9634L26.9425 14.9185C26.9173 14.8785 26.8856 14.8416 26.8483 14.8086C26.837 14.7943 26.8252 14.7805 26.8133 14.7667C26.5136 14.1934 26.6366 13.6845 27.1511 13.2293C27.2322 13.1567 27.2791 13.0586 27.3421 12.9738C27.3493 12.9729 27.3558 12.97 27.3606 12.9654C27.3653 12.9609 27.3678 12.9552 27.3677 12.9493L27.7249 12.5339C27.8025 12.4695 27.8658 12.3947 27.9122 12.3126L27.9646 12.2539C28.0558 12.1782 28.1101 12.0806 28.19 11.9984C28.1984 11.9935 28.2053 11.987 28.2101 11.9796C28.215 11.9722 28.2178 11.9639 28.2181 11.9555C28.2807 11.9088 28.3317 11.8528 28.3685 11.7904L29.7827 10.1748C29.8145 10.1349 29.852 10.0987 29.882 10.0578L30.0968 9.82172C30.1278 9.78085 30.1615 9.74145 30.1979 9.70368C30.3099 9.57186 30.4214 9.43969 30.5325 9.30718L30.7292 9.0885L30.7761 9.0374C30.8151 9.00925 30.8461 8.97435 30.8666 8.93521L31.1644 8.60106C31.2849 8.47485 31.4142 8.35273 31.5247 8.22192C32.0241 7.64284 32.5236 7.06376 33.0231 6.48468C33.0629 6.45627 33.0952 6.42149 33.118 6.38249L33.2791 6.19038C33.3253 6.12906 33.3971 6.08461 33.4476 6.02585C33.4558 6.02212 33.4621 6.01625 33.4656 6.0092C33.4691 6.00215 33.4696 5.99433 33.467 5.98702C33.7567 5.66818 34.052 5.35242 34.3348 5.02949C34.7138 4.5957 35.0841 4.15628 35.4587 3.71942C35.5573 3.64993 35.5935 3.54109 35.689 3.46955C35.7171 3.43226 35.7446 3.39496 35.7721 3.35766C35.8273 3.32028 35.8785 3.27909 35.925 3.23452C36.3427 2.76138 36.7617 2.28926 37.1737 1.81152C37.431 1.52587 37.6697 1.22928 37.8886 0.922976C37.9467 0.84396 37.9831 0.755571 37.9954 0.66392C38.0077 0.572269 37.9955 0.479529 37.9598 0.39209C36.2615 1.81594 34.555 3.23384 32.8401 4.64577L31.5371 5.73205ZM27.7174 16.2066C27.7138 16.2192 27.7111 16.232 27.7092 16.2449C27.7036 16.2334 27.6969 16.2223 27.6893 16.2117L27.7174 16.2066Z" fill="#A05CEB"/>
<path d="M12.6357 20.1679L15.2523 17.9984L17.8608 15.8259L18.0213 15.691C18.0706 15.6491 18.1174 15.6057 18.1636 15.5622C18.2539 15.4754 18.3373 15.3839 18.4134 15.2884C18.5629 15.1034 18.6735 14.8993 18.7405 14.6844C18.8729 14.2624 18.7929 13.8086 18.5626 13.3948C18.4473 13.1872 18.3004 12.9923 18.1255 12.8148C18.1049 12.7939 18.0818 12.7714 18.0631 12.7556L17.9888 12.6958L17.824 12.5619L17.4931 12.2937L16.1707 11.2207L13.526 9.07467L10.8944 6.91845L10.2494 6.39014C10.3075 7.01503 10.8113 7.49787 11.1697 8.02824L11.8814 9.14518L12.5121 10.116C12.5558 10.162 12.5688 10.2228 12.6175 10.2662C12.6338 10.2861 12.6494 10.3061 12.6657 10.3255C12.8142 10.5639 12.9626 10.8014 13.1108 11.0378C13.2398 11.2421 13.3686 11.4465 13.4972 11.6509C13.6277 11.7756 13.6777 11.9391 13.797 12.0694C13.7957 12.0838 13.7996 12.0982 13.8082 12.1108L14.3582 12.9324C14.3969 13.008 14.4412 13.0826 14.4731 13.1602C14.5661 13.3876 14.6548 13.6165 14.7447 13.8449C14.7447 13.896 14.7447 13.9507 14.7416 14.0033C14.7997 14.339 14.5499 14.5725 14.3358 14.8167C14.0355 15.1596 13.7307 15.4999 13.4273 15.8417C13.3155 15.9587 13.2057 16.0773 13.0908 16.1927C12.7224 16.5652 12.3416 16.9306 11.9864 17.3097C11.7991 17.5049 11.6548 17.7236 11.4906 17.932C11.1553 18.2641 10.8157 18.5963 10.486 18.9299C10.3156 19.1041 10.162 19.2876 10.0003 19.47C9.99717 19.5017 9.99341 19.5339 9.99029 19.5655C9.95399 19.6049 9.91207 19.6406 9.86542 19.6718C9.58384 19.936 9.30355 20.1996 9.02322 20.4669C8.9945 20.4944 9.00257 20.5476 8.99383 20.5885C8.94076 20.6789 8.84461 20.7366 8.7547 20.7985C8.19321 21.3929 7.6313 21.9869 7.06897 22.5807C6.64379 23.0277 6.20676 23.4672 5.78845 23.9178C5.32331 24.4196 4.88002 24.9346 4.41488 25.4364C3.86296 26.0316 3.29728 26.6187 2.73787 27.2094C2.36326 27.6038 1.98306 27.9942 1.61782 28.3938C1.11834 28.9415 0.618869 29.4892 0.137498 30.0497C0.0490121 30.1435 0.000684253 30.2585 7.21671e-06 30.377C-0.00066982 30.4955 0.0463074 30.6109 0.133717 30.7053C3.40155 27.8951 6.69793 25.1088 10.0228 22.3466L12.6357 20.1679ZM13.3905 10.8645L13.3986 10.8589V10.8666L13.3905 10.8645ZM10.2931 19.4204C10.2875 19.4306 10.2825 19.4409 10.2775 19.4506C10.2737 19.4454 10.2695 19.4405 10.265 19.4357L10.255 19.4266L10.2931 19.4204Z" fill="#A05CEB"/>
<path d="M21.8791 13.0384C22.0188 12.7825 22.1976 12.5422 22.411 12.323C22.4398 12.2949 22.4666 12.2684 22.5015 12.2372C22.5071 12.2314 22.5135 12.2261 22.5203 12.2214L22.5302 12.2127L22.5509 12.1963L22.5927 12.1626L22.7588 12.0292L23.0909 11.762L24.4208 10.6936L27.0799 8.55682L29.7515 6.43074L31.087 5.36746L32.428 4.30877C34.1308 2.96394 35.8392 1.62388 37.5533 0.288591L37.6101 0.0959613C37.1175 -0.0634556 36.8884 -0.027175 36.5356 0.226768C35.9543 0.645237 35.3606 1.05298 34.7674 1.46072C34.602 1.57467 34.4216 1.67277 34.2461 1.77598C34.0014 1.92058 33.4857 2.27007 33.4738 2.30226L33.2865 2.45555C33.0842 2.54956 32.6266 2.85613 32.5997 2.9154L31.9754 3.3727C31.8212 3.37883 31.0046 3.97818 30.9802 4.04001C30.4595 4.38183 29.9338 4.71854 29.4193 5.06752C29.2171 5.20446 29.0403 5.36797 28.8518 5.51921C28.6095 5.65615 28.366 5.79103 28.1282 5.93205C28.1032 5.94636 28.1094 5.99593 28.1013 6.02914L27.9234 6.09147C27.8783 6.15239 27.8152 6.203 27.7398 6.23862C27.6624 6.28972 27.5819 6.34081 27.5076 6.39191C27.1617 6.64364 26.8168 6.89639 26.473 7.15016C26.1234 7.36681 25.7707 7.57936 25.426 7.80112C25.2712 7.90075 25.1332 8.01777 24.989 8.12711L24.9777 8.22214L24.2285 8.65696L23.6172 9.05909C23.5717 9.08498 23.5298 9.11497 23.4924 9.1485L22.7388 9.65945L21.9896 10.1704L21.2941 10.6589C21.0959 10.7926 20.8894 10.9178 20.6753 11.0339C20.586 11.0779 20.4119 11.0957 20.3357 11.0533C19.9611 10.8454 19.6114 10.6057 19.2418 10.3891C18.7255 10.0892 18.1992 9.80048 17.6766 9.50668C17.6667 9.49474 17.6558 9.4833 17.6441 9.47244C17.5997 9.41664 17.5461 9.3661 17.4849 9.32222C15.6335 8.18825 13.7796 7.05752 11.9232 5.93002C11.5792 5.72257 11.1909 5.5657 10.737 5.70366L10.5166 5.85286L11.3788 6.53958L14.051 8.66615L16.7095 10.8024L18.0393 11.8709L18.3715 12.1381L18.5376 12.2714L18.5794 12.3052L18.6 12.3215L18.6106 12.3302C18.6171 12.3352 18.6231 12.3405 18.6288 12.346C18.6643 12.3777 18.6911 12.4038 18.7192 12.4319C18.9325 12.6511 19.1113 12.8914 19.2512 13.1472C19.3941 13.4066 19.488 13.6823 19.5297 13.9647C19.5711 14.254 19.5474 14.547 19.4597 14.8293C19.3705 15.1075 19.2253 15.3717 19.0302 15.611C18.9351 15.7278 18.8309 15.8395 18.718 15.9452C18.6624 15.9963 18.6056 16.0474 18.5469 16.0985L18.3815 16.2359C17.5074 16.961 16.6202 17.6722 15.7374 18.388L13.0852 20.5294L10.4204 22.6606C7.02522 25.368 3.60693 28.0566 0.165527 30.7265L0.201744 30.7643L0.424046 30.9396C0.923523 31.1118 1.29062 30.8849 1.63463 30.6483C2.87958 29.791 4.11934 28.9279 5.35389 28.0593C7.15575 26.799 8.95614 25.5357 10.7551 24.2696C11.3282 23.867 11.8945 23.4572 12.4639 23.051C13.1901 22.5497 13.9199 22.0516 14.6417 21.5462C15.3503 21.0501 16.0514 20.5463 16.7557 20.0456L16.8662 19.9618C16.9128 19.9388 16.9539 19.909 16.9873 19.8739L17.3076 19.6567C17.3694 19.6076 17.4354 19.562 17.5049 19.5203L18.1187 19.085C18.1661 19.0651 18.2085 19.0381 18.2435 19.0053C18.2862 18.9704 18.3318 18.9381 18.3802 18.9087L20.3326 17.5715C20.4906 17.4632 20.6379 17.2849 20.8096 17.265C20.97 17.2486 21.1567 17.4024 21.3322 17.4811C21.3419 17.4842 21.3523 17.4859 21.3628 17.4862L21.7374 17.7453L21.7854 17.7866L22.1101 17.991L22.9074 18.5076L24.0425 19.2659L24.984 19.8453C25.4002 20.1178 25.8164 20.3903 26.2327 20.6628C26.2749 20.7183 26.3248 20.7698 26.3813 20.8161C26.769 21.0654 27.1617 21.3097 27.5525 21.5554C27.6453 21.5952 27.7296 21.647 27.8023 21.7087L27.8647 21.7598C27.9946 21.8523 28.1144 21.9524 28.2561 22.0347C28.4928 22.1752 28.7394 22.3035 28.9816 22.4368C29.059 22.5293 29.1153 22.6412 29.2176 22.7112C29.5486 22.9304 29.8963 23.1327 30.2378 23.3417C30.2478 23.5415 30.4114 23.5624 30.6024 23.5507C30.6397 23.5916 30.6815 23.6296 30.7273 23.6641C31.1999 23.9641 31.6751 24.2609 32.1484 24.5603C32.4487 24.7499 32.7465 24.9425 33.0456 25.1341C33.1623 25.2062 33.2696 25.2961 33.3989 25.3462C33.5235 25.3969 33.6622 25.4198 33.8011 25.4127C33.94 25.4055 34.0741 25.3685 34.1899 25.3053C33.0307 24.3876 31.8736 23.4679 30.7186 22.5462L28.0539 20.415L25.4016 18.2736C24.5188 17.5582 23.6341 16.8465 22.7575 16.1215L22.5921 15.984C22.5334 15.9329 22.4766 15.8818 22.421 15.8307C22.3083 15.7249 22.204 15.6133 22.1088 15.4966C21.9137 15.2573 21.7685 14.9931 21.6793 14.7148C21.5916 14.4325 21.5679 14.1395 21.6093 13.8503C21.6489 13.5701 21.7399 13.2964 21.8791 13.0384ZM17.2171 11.0365L17.189 11.015L17.2165 11.0201C17.2217 11.0195 17.2268 11.0181 17.2315 11.016C17.2271 11.0232 17.2221 11.0298 17.2171 11.0365Z" fill="#A05CEB"/>
</svg>
