<svg width="30" height="20" viewBox="0 0 30 20" fill="none" xmlns="http://www.w3.org/2000/svg">
<g clip-path="url(#clip0_11_361)">
<path d="M0.865156 2.05662C0.980601 1.9277 0.979847 1.75433 1.04021 1.60467C1.10661 1.4387 1.1549 1.41277 1.29676 1.55428C2.18863 2.44337 3.09031 3.32579 3.98898 4.21043C5.8844 6.07751 7.78133 7.9436 9.67977 9.80871C9.8352 9.96134 9.83747 10.0369 9.67977 10.191C6.90002 12.9176 4.12429 15.6483 1.35259 18.3832C1.12623 18.6055 1.13 18.6055 1.01456 18.3158C0.964757 18.1913 0.972302 18.0446 0.863647 17.9453L0.865156 2.05662Z" fill="white"/>
<path d="M29.8308 17.9433C29.7161 18.0722 29.7138 18.2441 29.655 18.3945C29.5893 18.5634 29.5395 18.5841 29.3992 18.4441C28.5066 17.555 27.6056 16.6733 26.7077 15.7894C24.8123 13.9224 22.9156 12.0565 21.0177 10.1919C20.8615 10.0393 20.8607 9.96296 21.0177 9.80886C23.7969 7.08331 26.5717 4.35332 29.3419 1.61889C29.575 1.38921 29.5727 1.39069 29.6912 1.70928C29.741 1.84264 29.741 1.9923 29.8316 2.11233L29.8308 17.9433Z" fill="white"/>
<path d="M28.3594 0.255616C27.9165 0.682377 27.4894 1.08543 27.0706 1.49737C23.4312 5.08187 19.7902 8.66711 16.1478 12.2531C15.6196 12.7717 15.0733 12.7717 14.5489 12.2531C10.5549 8.31988 6.56154 4.38641 2.56898 0.452699C2.50334 0.38824 2.43996 0.320816 2.3645 0.24228C2.68996 0.0815 3.04976 -0.000790925 3.41407 0.00222716C4.02677 0.00222716 4.63946 0.00222716 5.25215 0.00222716C12.5396 0.00222716 19.8267 0.00222716 27.1136 0.00222716C27.5316 -0.00221827 27.9353 0.0459393 28.3594 0.255616Z" fill="white"/>
<path d="M28.3187 19.7683C27.9441 19.9335 27.5361 20.0128 27.1257 20.0002C23.1558 20.0002 19.1866 20.0002 15.2182 20.0002C11.3338 20.0002 7.44943 20.0002 3.56503 20.0002C3.15607 20.0002 2.75993 19.9521 2.38794 19.7691C2.4068 19.672 2.48603 19.6305 2.54338 19.5742C5.31004 16.8457 8.07671 14.1167 10.8434 11.3872C11.0124 11.2205 11.0954 11.1983 11.2742 11.3805C11.9594 12.0814 12.6649 12.7638 13.3651 13.4551C14.5339 14.6042 16.1614 14.6027 17.3332 13.4514C18.0531 12.7438 18.7737 12.037 19.4875 11.3242C19.5961 11.2161 19.6565 11.202 19.7734 11.3176C22.6055 14.1147 25.4398 16.9089 28.2764 19.7002C28.2927 19.7215 28.3068 19.7443 28.3187 19.7683V19.7683Z" fill="white"/>
</g>
<defs>
<clipPath id="clip0_11_361">
<rect width="28.9655" height="20" fill="white" transform="translate(0.865234)"/>
</clipPath>
</defs>
</svg>
