<svg width="50" height="50" viewBox="0 0 50 50" fill="none" xmlns="http://www.w3.org/2000/svg">
<path d="M29.7827 25.0005C29.7827 25.9461 29.5023 26.8705 28.977 27.6567C28.4517 28.4432 27.7049 29.056 26.8312 29.4178C25.9576 29.7797 24.9962 29.8744 24.0687 29.6899C23.1412 29.5053 22.2893 29.05 21.6207 28.3813C20.952 27.7127 20.4967 26.8608 20.3121 25.9333C20.1276 25.0058 20.2223 24.0444 20.5842 23.1708C20.946 22.2972 21.5588 21.5503 22.3452 21.025C23.1315 20.4997 24.0559 20.2192 25.0015 20.2192C26.2696 20.2192 27.4857 20.723 28.3823 21.6197C29.279 22.5163 29.7827 23.7324 29.7827 25.0005Z" fill="white"/>
<path d="M36.187 16.5308C35.9519 15.9111 35.5878 15.3484 35.1192 14.8798C34.6506 14.4112 34.0879 14.0472 33.4683 13.812C32.6114 13.4988 31.7086 13.3298 30.7964 13.312C29.2339 13.312 28.8276 13.312 24.9995 13.312C21.1714 13.312 20.7026 13.312 19.2026 13.312C18.2903 13.3283 17.3872 13.4973 16.5308 13.812C15.9111 14.0472 15.3484 14.4112 14.8798 14.8798C14.4112 15.3484 14.0472 15.9111 13.812 16.5308C13.4905 17.3853 13.3213 18.2897 13.312 19.2027C13.312 20.7651 13.312 21.1714 13.312 24.9995C13.312 28.8276 13.312 29.2808 13.312 30.7964C13.3213 31.7094 13.4905 32.6137 13.812 33.4683C14.0472 34.0878 14.4112 34.6506 14.8798 35.1192C15.3484 35.5878 15.9111 35.9517 16.5308 36.187C17.3872 36.5017 18.2903 36.6706 19.2026 36.687C20.7651 36.687 21.1714 36.7651 24.9995 36.7651C28.8276 36.7651 29.2808 36.7651 30.7964 36.687C31.7086 36.6692 32.6114 36.5003 33.4683 36.187C34.0879 35.9517 34.6506 35.5878 35.1192 35.1192C35.5878 34.6506 35.9519 34.0878 36.187 33.4683C36.5017 32.6119 36.6708 31.7087 36.687 30.7964C36.687 29.2339 36.7651 28.8276 36.7651 24.9995C36.7651 21.1714 36.7651 20.7183 36.687 19.2027C36.6708 18.2903 36.5017 17.3872 36.187 16.5308ZM24.9995 32.3745C23.5409 32.3745 22.115 31.942 20.9022 31.1316C19.6894 30.3212 18.744 29.1694 18.1859 27.8219C17.6276 26.4742 17.4817 24.9914 17.7662 23.5608C18.0508 22.1301 18.7533 20.8159 19.7847 19.7845C20.8161 18.7531 22.1301 18.0508 23.5608 17.7662C24.9914 17.4817 26.4742 17.6277 27.8219 18.1859C29.1694 18.7441 30.3212 19.6894 31.1315 20.9022C31.942 22.115 32.3745 23.5409 32.3745 24.9995C32.3745 26.9555 31.5975 28.8314 30.2144 30.2144C28.8314 31.5975 26.9555 32.3745 24.9995 32.3745ZM32.6558 19.062C32.2262 19.0211 31.8273 18.8216 31.537 18.5022C31.2467 18.183 31.0858 17.767 31.0858 17.3355C31.0858 16.9039 31.2467 16.488 31.537 16.1686C31.8273 15.8494 32.2262 15.6498 32.6558 15.6089C33.1131 15.613 33.5501 15.7975 33.872 16.1223C34.1939 16.4472 34.3745 16.8859 34.3745 17.3433C34.3705 17.8005 34.1859 18.2377 33.8611 18.5595C33.5362 18.8814 33.0975 19.062 32.6401 19.062H32.6558Z" fill="white"/>
<path d="M25 0C20.0555 0 15.222 1.46623 11.1107 4.21327C6.99953 6.9603 3.79522 10.8648 1.90302 15.4329C0.0108324 20.0011 -0.484251 25.0277 0.48038 29.8772C1.44501 34.7267 3.82603 39.1814 7.32234 42.6777C10.8187 46.1739 15.2732 48.555 20.1228 49.5197C24.9723 50.4842 29.9989 49.9892 34.567 48.097C39.1353 46.2048 43.0397 43.0005 45.7867 38.8892C48.5338 34.778 50 29.9445 50 25C50 18.3695 47.3661 12.0107 42.6777 7.32233C37.9892 2.63392 31.6305 0 25 0ZM39.2656 30.9219C39.2414 32.103 39.0142 33.2711 38.5938 34.375C38.2267 35.3372 37.6616 36.2113 36.9347 36.9408C36.2078 37.6703 35.3358 38.2388 34.375 38.6094C33.2583 39.0209 32.0806 39.2427 30.8906 39.2656C29.3281 39.3438 28.8594 39.3594 24.9687 39.3594C21.0781 39.3594 20.5781 39.3594 19.0469 39.2656C17.8778 39.2372 16.7216 39.0155 15.625 38.6094C14.6638 38.2364 13.7909 37.6672 13.0618 36.9381C12.3328 36.2092 11.7636 35.3363 11.3906 34.375C10.9777 33.2586 10.7558 32.0808 10.7344 30.8906C10.7344 29.3281 10.6406 28.875 10.6406 24.9687C10.6406 21.0625 10.6406 20.5781 10.7344 19.0469C10.7642 17.878 10.9859 16.722 11.3906 15.625C11.7612 14.6642 12.3297 13.7921 13.0592 13.0653C13.7887 12.3385 14.6629 11.7733 15.625 11.4062C16.7389 10.9823 17.9178 10.755 19.1094 10.7344C20.6719 10.7344 21.125 10.6406 25.0313 10.6406C28.9375 10.6406 29.4219 10.6406 30.9531 10.7344C32.122 10.7642 33.278 10.9859 34.375 11.3906C35.3363 11.7636 36.2092 12.3328 36.9383 13.0618C37.6672 13.7908 38.2364 14.6638 38.6094 15.625C39.0209 16.7417 39.2427 17.9194 39.2656 19.1094C39.3438 20.6719 39.3594 21.125 39.3594 25.0313C39.3594 28.9375 39.3594 29.4219 39.2656 30.9531V30.9219Z" fill="white"/>
</svg>
