<svg width="10" height="28" viewBox="0 0 10 28" fill="none" xmlns="http://www.w3.org/2000/svg">
<path d="M6.65267 11.8797C6.65267 11.4641 6.23618 11.3766 5.98402 11.5137C5.53445 11.7577 4.38376 11.7782 3.94864 11.5382C3.57852 11.3339 3.32876 11.4635 3.3077 11.8727C3.30349 11.9498 3.3077 12.028 3.3077 12.1062C3.3077 13.6201 3.3077 15.1338 3.3077 16.6472C3.3077 20.4311 3.30628 24.2154 3.30347 28H6.59008C6.55276 27.822 6.65026 27.6591 6.65026 27.4834C6.64464 22.2818 6.64545 17.0806 6.65267 11.8797Z" fill="#A05CEB"/>
<path d="M5 0C4.34334 -4.61395e-09 3.69313 0.125463 3.08646 0.369225C2.47979 0.612987 1.92856 0.970273 1.46425 1.42068C0.999954 1.87109 0.631671 2.4058 0.380434 2.99427C0.129196 3.58274 -7.90032e-05 4.21345 3.62221e-08 4.85039C3.62221e-08 6.13663 0.526779 7.3702 1.46446 8.27972C2.40214 9.18923 3.67392 9.70019 5 9.70019C6.32608 9.70019 7.59786 9.18923 8.53554 8.27972C9.47322 7.3702 10 6.13663 10 4.85039C10.0001 4.21345 9.8708 3.58274 9.61957 2.99427C9.36833 2.4058 9.00005 1.87109 8.53575 1.42068C8.07144 0.970273 7.52024 0.612987 6.91357 0.369225C6.3069 0.125463 5.65666 -4.61395e-09 5 0ZM5 7.24785C4.34446 7.24785 3.71576 6.99526 3.25223 6.54565C2.78869 6.09604 2.5283 5.48623 2.5283 4.85039C2.5283 4.21449 2.78868 3.60462 3.2522 3.15492C3.71572 2.70521 4.34441 2.45249 5 2.45234C5.65559 2.45249 6.28428 2.70521 6.7478 3.15492C7.21132 3.60462 7.4717 4.21449 7.4717 4.85039C7.4717 5.48623 7.21131 6.09604 6.74777 6.54565C6.28424 6.99526 5.65554 7.24785 5 7.24785Z" fill="#A05CEB"/>
</svg>
