<svg width="70" height="70" viewBox="0 0 70 70" fill="none" xmlns="http://www.w3.org/2000/svg">
<path d="M54.0587 70C53.3198 69.8289 52.5774 69.6577 51.842 69.4695C49.3231 68.8152 47.0489 67.4713 45.2885 65.5966C45.1343 65.4185 44.9401 65.2776 44.7209 65.1847C44.5017 65.0918 44.2635 65.0494 44.0248 65.0609C30.0543 65.0746 16.0826 65.0781 2.10976 65.0712C0.423117 65.0712 -0.0472474 64.58 0.00365018 62.944C0.279199 54.7293 3.30497 47.6133 9.17224 41.7005C13.1937 37.626 18.2836 34.7043 23.8887 33.2531L24.1835 33.1658C17.4422 29.3083 13.9408 23.6813 14.4586 16.0383C14.785 11.2087 17.0263 7.18354 20.8401 4.07908C22.6317 2.60906 24.7029 1.4979 26.9353 0.809149C29.1676 0.1204 31.5174 -0.132419 33.8501 0.0651571C36.1827 0.262734 38.4526 0.906828 40.5298 1.96059C42.6069 3.01436 44.4506 4.45712 45.9554 6.20634C49.6587 10.4626 50.982 15.4376 49.8605 20.9328C48.739 26.4281 45.4552 30.4002 40.5024 33.0837C42.2224 33.722 43.9371 34.2816 45.5921 34.9833C49.341 36.5715 52.5862 38.8853 55.468 41.7022C55.7236 41.9408 56.0533 42.0895 56.4052 42.1249C59.5772 42.3025 62.6005 43.4958 65.0059 45.5198C67.4113 47.5439 69.0645 50.2854 69.7088 53.3191C71.3656 61.0922 65.7651 68.7764 57.6549 69.8631C57.5246 69.8942 57.3985 69.9402 57.2793 70H54.0587ZM52.0631 42.5528C45.0691 35.9656 32.887 32.4522 21.2174 37.1071C9.4864 41.7946 3.26285 52.5918 2.99608 62.1909H42.8208C40.9938 58.1983 40.8306 54.2176 42.691 50.2677C44.5514 46.3178 47.7649 43.7918 52.0631 42.5528ZM17.2667 17.4861C17.2334 25.5296 23.9606 32.1202 32.2412 32.1561C34.2168 32.1638 36.1747 31.7919 38.003 31.0617C39.8313 30.3315 41.4943 29.2574 42.8968 27.9005C44.2994 26.5437 45.4142 24.9308 46.1775 23.1538C46.9408 21.3769 47.3376 19.4708 47.3455 17.5443C47.3515 15.6174 46.9678 13.7083 46.2163 11.9262C45.4648 10.1441 44.3604 8.52401 42.9661 7.15858C41.5718 5.79314 39.9151 4.70919 38.0908 3.96876C36.2664 3.22832 34.3102 2.84592 32.3342 2.84346C24.0449 2.80067 17.2966 9.35871 17.2667 17.4861ZM55.7172 67.1779C57.2201 67.175 58.7076 66.8828 60.0943 66.3181C61.4811 65.7534 62.7399 64.9272 63.7985 63.887C64.857 62.8469 65.6946 61.6131 66.2631 60.2566C66.8316 58.9001 67.1198 57.4474 67.1113 55.982C67.0849 53.0347 65.8599 50.2181 63.7055 48.1507C61.5511 46.0833 58.6433 44.9341 55.6207 44.9556C49.3024 45.0086 44.1968 50.0281 44.2548 56.1155C44.3056 62.2645 49.4445 67.2156 55.7137 67.1779H55.7172Z" fill="white"/>
<path d="M6.11735 57.511C6.30866 56.8726 6.52103 55.9878 6.83343 55.1355C8.78334 49.8217 12.0812 45.4936 16.8111 42.2094C17.3061 41.8671 17.8104 41.538 18.324 41.2219C19.1296 40.729 19.9457 40.8591 20.4301 41.5351C20.9145 42.2111 20.7092 42.9727 19.9422 43.5477C18.496 44.6379 16.9691 45.6236 15.6458 46.825C12.376 49.7926 10.2471 53.4567 9.05889 57.653C8.99533 57.8946 8.9138 58.1314 8.81494 58.3615C8.68895 58.6715 8.4513 58.9259 8.14658 59.0772C7.84187 59.2284 7.49102 59.266 7.15988 59.183C6.50874 59.029 6.09454 58.4642 6.11735 57.511Z" fill="white"/>
<path d="M31.0939 37.4625C31.5792 37.434 32.0659 37.438 32.5506 37.4745C32.8892 37.5116 33.2001 37.6747 33.4185 37.9297C33.6369 38.1848 33.746 38.5121 33.723 38.8436C33.7158 39.1786 33.5841 39.4997 33.3523 39.7471C33.1205 39.9945 32.8044 40.1515 32.4629 40.1887C30.5054 40.4226 28.5467 40.6508 26.5869 40.8733C26.2254 40.9175 25.8603 40.8251 25.5665 40.6151C25.2727 40.405 25.0726 40.0932 25.0073 39.7438C24.8581 38.9446 25.339 38.2378 26.2657 38.0769C27.6592 37.8356 29.0738 37.673 30.4779 37.4831C30.685 37.454 30.8956 37.4608 31.1062 37.4505L31.0939 37.4625Z" fill="white"/>
<path d="M54.2399 54.9143C54.2399 53.997 54.2399 53.1602 54.2399 52.3233C54.2194 51.7326 54.2323 51.1413 54.2785 50.552C54.3856 49.6466 54.9806 49.1726 55.8195 49.2239C56.597 49.2736 57.1183 49.8435 57.1323 50.7128C57.1516 51.827 57.1323 52.9377 57.1323 54.0586V54.9143H58.6101C59.5666 54.9143 60.5249 54.8921 61.4814 54.9297C62.4116 54.9657 63.0452 55.5989 63.0048 56.3725C62.9645 57.146 62.3379 57.6902 61.4358 57.7022C60.2915 57.7193 59.1542 57.7022 58.0028 57.7022H57.1253C57.1253 58.32 57.1253 58.9002 57.1253 59.4821C57.1253 60.3378 57.1499 61.214 57.1113 62.0766C57.1031 62.4226 56.9621 62.753 56.7161 63.0024C56.47 63.2518 56.1369 63.4021 55.7827 63.4234C55.4296 63.455 55.078 63.3497 54.804 63.1303C54.53 62.9108 54.3557 62.595 54.3189 62.2511C54.2468 61.4831 54.2169 60.7119 54.2294 59.9407C54.2171 59.2185 54.2294 58.4963 54.2294 57.6988C52.7305 57.6988 51.3124 57.7159 49.8961 57.6988C48.843 57.6817 48.2358 56.9321 48.4481 55.9874C48.5903 55.3508 49.1221 54.9503 49.9663 54.9315C51.1088 54.9041 52.2479 54.9315 53.3975 54.9212L54.2399 54.9143Z" fill="white"/>
</svg>
