<svg width="21" height="20" viewBox="0 0 21 20" fill="none" xmlns="http://www.w3.org/2000/svg">
<path d="M13.4107 0H14.6611C14.6674 0.0313115 14.6904 0.0357143 14.7179 0.0386498C16.3937 0.217712 17.8081 0.922711 18.9116 2.19621C20.3353 3.83908 20.8092 5.74859 20.3529 7.86652C20.0137 9.4409 19.1677 10.7168 17.8561 11.6508C16.1778 12.846 14.3262 13.1269 12.3473 12.5755C12.1862 12.5305 12.0908 12.5593 11.9767 12.6763C11.5532 13.1088 11.1155 13.5275 10.6867 13.9551C10.618 14.0285 10.5344 14.0863 10.4415 14.1246C10.3486 14.1629 10.2485 14.1809 10.1481 14.1773C9.86171 14.1704 9.5753 14.1807 9.2889 14.1729C9.17629 14.1699 9.1479 14.2051 9.15035 14.3138C9.1572 14.6259 9.15818 14.9385 9.15035 15.2511C9.14153 15.6362 8.84778 15.8872 8.46493 15.8461C8.22553 15.8206 7.98514 15.8015 7.74868 15.7595C7.61453 15.7355 7.59789 15.7839 7.59005 15.8965C7.56802 16.2208 7.53718 16.5447 7.50438 16.8681C7.46227 17.2805 7.29239 17.4601 6.88114 17.511C6.53843 17.553 6.19573 17.5819 5.85302 17.6088C5.75902 17.6161 5.73063 17.6406 5.74482 17.737C5.77616 17.9493 5.78742 18.1646 5.82169 18.3759C5.86575 18.648 5.80064 18.873 5.59795 19.0653C5.36148 19.2889 5.13236 19.5203 4.90666 19.7551C4.8316 19.8359 4.73979 19.8994 4.63765 19.9412C4.53551 19.9829 4.42548 20.0019 4.31525 19.9968C3.31259 19.9904 2.30797 19.9836 1.30677 19.9997C0.943016 20.0061 0.676194 19.9019 0.520508 19.5648V15.9327C0.614507 15.7443 0.765298 15.6049 0.912172 15.4591C3.19982 13.173 5.48877 10.8879 7.77903 8.60381C7.91269 8.47074 7.94157 8.36506 7.88968 8.18551C7.56681 7.08793 7.55258 5.9227 7.84855 4.81757C8.16642 3.5971 8.83633 2.49696 9.77496 1.65397C10.7136 0.810978 11.8795 0.262349 13.1277 0.0763217C13.2217 0.0616444 13.3289 0.0753433 13.4107 0ZM17.4889 4.77989C17.4882 4.43316 17.3846 4.09442 17.1911 3.80658C16.9977 3.51873 16.7231 3.29472 16.4022 3.1629C16.0813 3.03109 15.7284 2.9974 15.3883 3.0661C15.0482 3.13481 14.7362 3.30281 14.4917 3.54885C14.2472 3.79488 14.0813 4.10788 14.0149 4.44822C13.9485 4.78855 13.9847 5.14091 14.1188 5.46068C14.253 5.78046 14.4791 6.05326 14.7685 6.24456C15.0578 6.43586 15.3975 6.53704 15.7445 6.5353C16.2078 6.53054 16.6506 6.34368 16.977 6.01516C17.3035 5.68664 17.4874 5.24288 17.4889 4.77989Z" fill="#FF3076"/>
</svg>
