<svg width="40" height="40" viewBox="0 0 40 40" fill="none" xmlns="http://www.w3.org/2000/svg">
<path fill-rule="evenodd" clip-rule="evenodd" d="M20.0001 1.66669C9.87508 1.66669 1.66675 9.87502 1.66675 20C1.66675 30.125 9.87508 38.3333 20.0001 38.3333C30.1251 38.3333 38.3334 30.125 38.3334 20C38.3334 9.87502 30.1251 1.66669 20.0001 1.66669ZM23.6784 14.5117C23.982 14.1973 24.15 13.7763 24.1462 13.3394C24.1424 12.9024 23.9671 12.4843 23.6581 12.1753C23.3491 11.8663 22.9311 11.691 22.4941 11.6872C22.0571 11.6834 21.6361 11.8514 21.3217 12.155L14.6551 18.8217C14.3426 19.1342 14.1671 19.5581 14.1671 20C14.1671 20.442 14.3426 20.8658 14.6551 21.1784L21.3217 27.845C21.6361 28.1486 22.0571 28.3166 22.4941 28.3128C22.9311 28.309 23.3491 28.1337 23.6581 27.8247C23.9671 27.5157 24.1424 27.0977 24.1462 26.6607C24.15 26.2237 23.982 25.8027 23.6784 25.4883L18.1901 20L23.6784 14.5117Z" fill="#FF3076"/>
</svg>
