<svg width="32" height="31" viewBox="0 0 32 31" fill="none" xmlns="http://www.w3.org/2000/svg">
<path d="M14.7659 0.500305H17.1106C17.1252 0.565955 17.1786 0.554818 17.2278 0.558921C18.6071 0.659739 19.9564 0.930543 21.2337 1.45105C26.6294 3.6503 29.855 7.6133 30.8468 13.3729C30.9013 13.6911 30.8744 14.0229 31.0022 14.3295V16.6741C30.9254 16.7005 30.9488 16.7679 30.9435 16.8212C30.6596 20.0277 29.3489 23.0571 27.2061 25.4594C26.1272 21.4251 23.6477 18.6621 19.7677 17.1706C23.7243 14.4965 23.7841 9.55054 21.3111 6.73699C18.576 3.63565 14.1129 3.42522 11.1317 6.26924C9.7249 7.61037 9.01388 9.2938 9.0215 11.2398C9.02853 13.7814 10.1815 15.728 12.2407 17.1688C8.34819 18.6678 5.86675 21.4247 4.79641 25.4394C4.77045 25.4197 4.74578 25.3984 4.72255 25.3756C2.80774 23.1728 1.62231 20.6302 1.16628 17.7479C1.10766 17.3898 1.13404 17.0182 0.998047 16.6717V14.2691C1.07894 14.248 1.05666 14.1788 1.05666 14.1261C1.11995 13.5054 1.2178 12.8888 1.34975 12.2791C2.68152 6.20418 7.69735 1.54073 13.8398 0.659153C14.1493 0.614606 14.4728 0.629845 14.7659 0.500305Z" fill="white"/>
<path d="M14.7659 30.4997C14.4534 30.3514 14.1088 30.3866 13.7799 30.3356C11.0396 29.9106 8.607 28.8063 6.45811 27.0619C6.37546 26.9951 6.33267 26.9406 6.35202 26.821C6.98156 22.9342 9.11403 20.2192 12.8133 18.8921C16.1662 17.6893 19.3198 18.2936 22.1099 20.4993C24.1375 22.1036 25.2852 24.2507 25.6416 26.8204C25.658 26.9377 25.6181 26.9963 25.5349 27.0613C23.2453 28.9124 20.6533 30.0507 17.7201 30.3983C17.5173 30.4224 17.2981 30.3802 17.1093 30.4997H14.7659Z" fill="white"/>
<path d="M16.0052 6.03773C17.3912 6.04176 18.719 6.59558 19.6971 7.5776C20.6752 8.55963 21.2236 9.88961 21.2221 11.2756C21.2145 14.173 18.8463 16.5217 15.9583 16.4971C13.0861 16.4719 10.7608 14.1261 10.7696 11.2586C10.7801 8.37062 13.133 6.02307 16.0052 6.03773Z" fill="white"/>
</svg>
