<svg width="21" height="20" viewBox="0 0 21 20" fill="none" xmlns="http://www.w3.org/2000/svg">
<path d="M7.9296 19.193C7.89313 19.124 7.81602 19.143 7.75923 19.129C6.62658 18.8594 5.84353 17.933 5.83155 16.8061C5.81956 15.4811 5.82581 14.1552 5.83155 12.8312C5.83155 12.34 6.20093 11.9859 6.68285 11.9934C7.15175 12.0004 7.49925 12.357 7.49977 12.8437C7.49977 14.1312 7.49977 15.4186 7.49977 16.7061C7.49977 17.2693 7.83061 17.5889 8.41725 17.5894C11.4189 17.5894 14.4202 17.5894 17.4211 17.5894C17.9978 17.5894 18.3287 17.2723 18.3287 16.7186C18.3287 11.9689 18.3287 7.21897 18.3287 2.4689C18.3287 1.9142 17.9989 1.59758 17.4221 1.59758C14.4205 1.59758 11.4192 1.59758 8.41829 1.59758C7.83061 1.59758 7.5003 1.9167 7.49977 2.4794C7.49977 3.77988 7.49977 5.08035 7.49977 6.38083C7.49977 6.73095 7.32628 6.99205 6.98659 7.1311C6.66149 7.26365 6.3614 7.20213 6.1009 6.98105C6.01338 6.90577 5.94403 6.81306 5.89769 6.70939C5.85135 6.60572 5.82913 6.49359 5.83259 6.38083C5.83259 5.03684 5.81592 3.69285 5.8378 2.34986C5.85707 1.18743 6.7089 0.253593 7.89365 0.0380144C7.92334 0.0325123 7.95981 0.0415151 7.97023 0H17.8144C17.828 0.011004 17.84 0.0300117 17.8546 0.0320124C18.7522 0.157058 19.3759 0.63223 19.7749 1.40351C19.8844 1.61409 19.9141 1.84717 20.0021 2.06275V17.1678C19.9318 17.2118 19.95 17.2893 19.9333 17.3503C19.6833 18.2457 19.0935 18.8249 18.1776 19.1055C18.0583 19.142 17.928 19.134 17.8129 19.193H7.9296Z" fill="white"/>
<path d="M0 9.40553C0.0375117 9.39252 0.033865 9.35551 0.0458479 9.3295C0.195895 8.98287 0.462646 8.79681 0.857561 8.79631C1.50846 8.79631 2.15918 8.79631 2.80973 8.79631H11.279C11.266 8.70828 11.2019 8.67927 11.1592 8.63775C10.8534 8.33764 10.5382 8.05003 10.2381 7.74642C10.082 7.59771 9.99388 7.39558 9.99305 7.18447C9.99222 6.97337 10.0788 6.7706 10.2337 6.62076C10.3886 6.47093 10.5991 6.3863 10.819 6.3855C11.0389 6.38471 11.2501 6.4678 11.4062 6.61651C12.2554 7.4168 13.0975 8.22493 13.9325 9.0409C14.083 9.18755 14.1674 9.38519 14.1674 9.5911C14.1674 9.79701 14.083 9.99465 13.9325 10.1413C13.0933 10.9606 12.2467 11.7732 11.3926 12.5792C11.3156 12.6515 11.2244 12.7084 11.1243 12.7469C11.0243 12.7853 10.9174 12.8043 10.8096 12.803C10.7019 12.8016 10.5955 12.7799 10.4965 12.739C10.3976 12.6981 10.308 12.6389 10.2329 12.5647C10.1556 12.4906 10.0944 12.4025 10.0528 12.3056C10.0111 12.2087 9.98985 12.1048 9.99019 12C9.99053 11.8952 10.0125 11.7914 10.0547 11.6948C10.097 11.5981 10.1588 11.5104 10.2365 11.4368C10.5398 11.1367 10.8529 10.8446 11.1592 10.5469C11.2019 10.5049 11.2634 10.4759 11.279 10.3879H11.0706C7.73627 10.3879 4.40711 10.3809 1.07534 10.3954C0.55903 10.3954 0.195373 10.2493 0.00260434 9.77867L0 9.40553Z" fill="white"/>
</svg>
