<svg width="23" height="25" viewBox="0 0 23 25" fill="none" xmlns="http://www.w3.org/2000/svg">
<g clip-path="url(#clip0_11_357)">
<path d="M10.8497 24.9998C10.5258 24.8693 10.1799 24.8798 9.84562 24.8171C8.0183 24.488 6.30905 23.6805 4.88941 22.4756C2.94994 20.8376 1.67834 18.7748 1.19704 16.2656C0.533704 12.8193 1.32141 9.72406 3.53943 7.00799C3.73473 6.76947 3.94299 6.54202 4.16325 6.32668C4.58696 5.90398 5.15849 5.66577 5.7548 5.66333C6.35111 5.66089 6.92453 5.89441 7.35165 6.31363C7.78278 6.72927 8.03331 7.29978 8.0486 7.90075C8.06389 8.50172 7.8427 9.08441 7.43327 9.52175C6.52637 10.483 5.89931 11.5768 5.64797 12.8878C5.00343 16.2499 7.19812 19.569 10.5342 20.2621C14.0284 20.9884 17.4467 18.6541 18.0116 15.1197C18.3459 13.0314 17.7693 11.193 16.317 9.65227C15.8823 9.19024 15.6116 8.66752 15.5999 8.02406C15.5853 7.55754 15.713 7.09772 15.9657 6.70651C16.2184 6.3153 16.5841 6.01147 17.0134 5.83594C17.4341 5.66099 17.8972 5.61723 18.3428 5.7103C18.7885 5.80337 19.1962 6.029 19.5132 6.35801C20.7107 7.56355 21.6093 9.03645 22.1361 10.6573C24.1669 16.8673 20.3054 23.5263 13.9383 24.793C13.5588 24.8714 13.1744 24.9241 12.7879 24.9509C12.7496 24.9509 12.7056 24.9444 12.6933 24.9992L10.8497 24.9998Z" fill="white"/>
<path d="M9.53797 7.00736C9.53797 5.42941 9.5289 3.85145 9.53797 2.27414C9.54768 0.968966 10.6101 -0.0392843 11.9069 0.00117621C13.0846 0.0377211 14.0861 1.02574 14.0912 2.21215C14.1042 5.40852 14.1042 8.6049 14.0912 11.8013C14.0854 13.0275 13.0405 14.0162 11.8104 14.0135C10.5803 14.0109 9.55222 13.0184 9.54315 11.7895C9.5276 10.1959 9.53926 8.60164 9.53926 7.00736H9.53797Z" fill="white"/>
</g>
<defs>
<clipPath id="clip0_11_357">
<rect width="21.7105" height="25" fill="white" transform="translate(0.967773)"/>
</clipPath>
</defs>
</svg>
