<svg width="70" height="45" viewBox="0 0 70 45" fill="none" xmlns="http://www.w3.org/2000/svg">
<path d="M0 9.58471C0.365247 9.19076 0.750582 8.81773 1.38063 9.06177C2.01068 9.3058 2.05451 9.79911 2.05451 10.3499C2.05451 20.3033 2.05451 30.2566 2.05451 40.2099C2.05451 42.1273 3.00963 43.0529 5.01484 43.0547H64.9263C66.9808 43.0547 67.925 42.1413 67.9268 40.182C67.9069 39.813 67.9136 39.4432 67.9469 39.0751C67.9551 38.9544 67.9886 38.8366 68.0454 38.7285C68.1022 38.6204 68.1811 38.5243 68.2774 38.4458C68.3738 38.3673 68.4856 38.308 68.6064 38.2715C68.7272 38.235 68.8544 38.2219 68.9805 38.2332C69.5284 38.2436 69.9229 38.5487 69.9521 39.0629C70.0032 39.992 70.0744 40.9333 69.7987 41.8519C69.5396 42.6875 69.0241 43.4297 68.3187 43.9828C67.6132 44.5359 66.7503 44.8744 65.8412 44.9547C65.5253 44.9826 65.2057 45 64.8879 45H5.1098C2.46359 45 1.02452 44.0291 0.129663 41.6636C0.111401 41.6131 0.0438296 41.5782 0 41.5347V9.58471Z" fill="white"/>
<path d="M0 3.45472C0.104095 3.42857 0.116879 3.3449 0.147925 3.26297C0.940511 1.05791 2.47272 0.00504946 4.89613 0.00330633C22.613 0.00330633 40.3275 0.00330633 58.0395 0.00330633C58.2668 -0.00673733 58.4945 0.00611694 58.7189 0.0416555C58.9346 0.0754418 59.1305 0.181985 59.2709 0.341922C59.4113 0.501859 59.487 0.704572 59.4841 0.913224C59.5078 1.40304 59.2741 1.76039 58.7664 1.88938C58.4995 1.9439 58.2264 1.96616 57.9537 1.95562C54.8491 1.95562 51.7591 1.97131 48.6637 1.9469C48.1523 1.9469 47.9898 2.06718 48.0208 2.55874C48.0601 3.1879 48.0491 3.819 47.9879 4.44656C47.9205 5.13353 47.6052 5.77682 47.0958 6.26646C46.5865 6.7561 45.9149 7.06169 45.1956 7.13099C44.9465 7.15945 44.6959 7.17401 44.4451 7.17457C38.1385 7.17457 31.8313 7.17457 25.5234 7.17457C24.0625 7.17457 22.9101 6.69521 22.2362 5.39309C21.8965 4.7429 21.9276 4.04738 21.9276 3.35187C21.9276 1.95736 21.9276 1.95736 20.494 1.95736H5.06049C2.98041 1.95736 2.05269 2.82893 2.05269 4.80391C2.05269 5.06538 2.05269 5.32684 2.05269 5.58657C2.06547 6.06768 1.88285 6.43896 1.40072 6.63245C0.918596 6.82594 0.516824 6.6708 0.191754 6.29777C0.142446 6.24374 0.124184 6.12346 0 6.18969V3.45472ZM34.987 1.96608H25.56C23.9894 1.96608 23.9894 1.96608 23.9912 3.49481C23.9912 4.94858 24.2688 5.22051 25.7682 5.22051H44.2131C44.4414 5.22051 44.6697 5.22051 44.8943 5.19959C45.5554 5.13336 45.9298 4.77427 45.97 4.14325C46.0028 3.64646 45.948 3.14095 45.9973 2.6459C46.0503 2.12296 45.8914 1.94865 45.3016 1.94865C41.8646 1.98002 38.4258 1.96608 34.987 1.96608Z" fill="white"/>
<path d="M21.6372 37.5551C19.882 37.5529 18.1446 37.2195 16.5248 36.5741C14.905 35.9288 13.4349 34.9842 12.1988 33.7947C10.9628 32.6052 9.98531 31.1943 9.32251 29.6429C8.65971 28.0916 8.3247 26.4306 8.33674 24.7553C8.36567 21.3953 9.78575 18.1825 12.2871 15.8182C14.7885 13.4538 18.168 12.1298 21.6883 12.135C23.4432 12.1388 25.18 12.4734 26.7992 13.1194C28.4183 13.7654 29.8879 14.7102 31.1236 15.8996C32.3593 17.0889 33.3368 18.4995 34.0001 20.0502C34.6634 21.601 34.9994 23.2615 34.9888 24.9366C34.9627 28.2973 33.5435 31.5114 31.0415 33.8761C28.5395 36.2407 25.1582 37.5635 21.6372 37.5551ZM30.5565 31.3426C33.7634 27.6977 34.0866 21.147 29.2928 16.9408C28.1886 15.9648 26.8904 15.2103 25.4751 14.722C24.0598 14.2337 22.5563 14.0215 21.0535 14.0981C19.5507 14.1747 18.0794 14.5384 16.7266 15.1677C15.3738 15.797 14.1671 16.6792 13.1781 17.7618C8.9887 22.3341 10.0881 28.5274 12.7891 31.306C13.3915 30.408 14.135 29.6038 14.9934 28.9214C15.8426 28.245 16.8196 27.7639 17.8332 27.3003C14.9514 24.7849 15.1869 21.0912 17.3748 18.9332C18.46 17.8746 19.9326 17.2584 21.4836 17.2138C23.0346 17.1693 24.5434 17.6999 25.6933 18.6944C27.7752 20.4811 28.7979 24.2724 25.5106 27.3299C27.5916 28.1297 29.3567 29.5334 30.5565 31.3426ZM21.6664 35.5976C24.2352 35.6002 26.7279 34.7657 28.7321 33.2321C29.0718 32.9794 29.0864 32.7981 28.8673 32.453C25.633 27.3491 17.7017 27.3508 14.4546 32.453C14.23 32.8016 14.272 32.9864 14.5989 33.2304C16.604 34.7639 19.0971 35.5989 21.6664 35.5976ZM25.5727 22.9215C25.5795 21.9329 25.1751 20.9821 24.4482 20.2778C23.7213 19.5735 22.7314 19.1733 21.6956 19.165C20.6599 19.1576 19.6633 19.5424 18.9242 20.2351C18.1851 20.9278 17.7639 21.8719 17.7528 22.8605C17.747 23.3551 17.8438 23.8459 18.0376 24.3046C18.2314 24.7633 18.5184 25.1809 18.882 25.5333C19.2456 25.8857 19.6786 26.166 20.1562 26.3579C20.6338 26.5499 21.1464 26.6498 21.6646 26.6518C22.6993 26.6463 23.69 26.2515 24.4217 25.5532C25.1534 24.8548 25.567 23.9091 25.5727 22.9215Z" fill="white"/>
<path d="M50.6305 21.7919C47.7621 21.7919 44.8937 21.7919 42.0253 21.7919C40.2739 21.7919 39.6348 21.1818 39.6348 19.5258C39.6348 18.1139 39.6348 16.702 39.6348 15.29C39.6348 14.0088 40.347 13.3168 41.6966 13.315C47.6623 13.3081 53.628 13.3081 59.5937 13.315C60.9378 13.315 61.6372 14.0123 61.6427 15.304C61.6427 16.7821 61.6427 18.2597 61.6427 19.7368C61.6427 21.1173 60.9341 21.7884 59.4512 21.7937C56.5037 21.7989 53.5671 21.7919 50.6305 21.7919ZM50.6305 15.2691C47.8309 15.2691 45.0313 15.2796 42.2298 15.2604C41.7861 15.2604 41.6564 15.365 41.6674 15.792C41.6984 16.9861 41.6948 18.1819 41.6674 19.3759C41.6674 19.7542 41.7861 19.8361 42.1641 19.8361C47.8096 19.8233 53.4533 19.8233 59.0951 19.8361C59.4823 19.8361 59.5937 19.742 59.5864 19.3707C59.5626 18.1767 59.5553 16.9809 59.5864 15.7886C59.5991 15.3493 59.4512 15.2569 59.0184 15.2656C56.2261 15.2778 53.4356 15.2691 50.636 15.2691H50.6305Z" fill="white"/>
<path d="M69.9795 19.5451C69.9795 24.5421 69.9795 29.5391 69.9795 34.5361C69.9795 34.7104 69.9905 34.8847 69.9795 35.059C69.9712 35.3115 69.8623 35.5515 69.675 35.73C69.4876 35.9085 69.236 36.012 68.9714 36.0195C68.7069 36.0176 68.4531 35.9196 68.2618 35.7453C68.0704 35.5711 67.9558 35.3337 67.9414 35.0817C67.9232 34.8882 67.9414 34.6912 67.9414 34.496V4.8365C67.9414 2.85281 67.0192 1.96555 64.9574 1.96381C64.32 1.96381 63.679 1.97776 63.0453 1.96381C62.3002 1.94115 61.8436 1.55417 61.8418 0.982424C61.84 0.410676 62.313 0.0184723 63.1074 0.00975659C63.858 0.00975659 64.6104 -0.00244537 65.361 0.00975659C68.051 0.053335 69.985 1.91326 69.9905 4.48961C69.9917 9.50287 69.988 14.5214 69.9795 19.5451Z" fill="white"/>
<path d="M50.6816 24.0021H59.0183C59.2448 23.9964 59.4714 24.0081 59.6959 24.037C59.9262 24.0599 60.1394 24.1638 60.294 24.3284C60.4486 24.4931 60.5335 24.7067 60.5323 24.9278C60.5615 25.1587 60.4949 25.3913 60.3468 25.576C60.1987 25.7607 59.9808 25.8828 59.7397 25.9161C59.4709 25.9613 59.1979 25.9794 58.9252 25.9702H42.3247C41.229 25.9702 40.725 25.6546 40.7323 24.9713C40.7396 24.288 41.2144 24.0074 42.3466 24.0074L50.6816 24.0021Z" fill="white"/>
<path d="M50.6379 28.5692C53.4381 28.5692 56.2383 28.5692 59.0386 28.5692C59.2886 28.5576 59.5392 28.5734 59.7855 28.6163C60.0012 28.6556 60.1951 28.7671 60.3323 28.9307C60.4696 29.0943 60.5412 29.2993 60.5343 29.5088C60.5576 29.7179 60.5009 29.928 60.3747 30.1003C60.2485 30.2727 60.0613 30.3956 59.8476 30.4466C59.5378 30.5156 59.2193 30.5425 58.9016 30.5268C53.39 30.5268 47.8785 30.5268 42.3669 30.5268C42.1843 30.5268 42.0016 30.5268 41.819 30.5268C41.1287 30.471 40.7087 30.0771 40.7233 29.5123C40.7379 28.9475 41.1725 28.5762 41.8829 28.5745C44.8067 28.5692 47.7232 28.5692 50.6379 28.5692Z" fill="white"/>
<path d="M50.6379 35.0956C47.8596 35.0956 45.0806 35.0956 42.3011 35.0956C42.0286 35.1054 41.7558 35.0844 41.4884 35.0328C41.2608 34.9924 41.0574 34.8717 40.9187 34.6948C40.78 34.5178 40.7161 34.2975 40.7397 34.0776C40.7328 33.8569 40.8122 33.6417 40.9624 33.4739C41.1127 33.306 41.3229 33.1975 41.5524 33.1694C41.7778 33.1382 42.0059 33.1272 42.2335 33.1363H59.0349C59.2396 33.1278 59.4448 33.1342 59.6485 33.1555C59.8917 33.1707 60.1192 33.2753 60.2833 33.4472C60.4474 33.6192 60.5354 33.8451 60.5288 34.0776C60.5525 34.3089 60.4806 34.5398 60.3284 34.7212C60.1763 34.9026 59.9559 35.0201 59.7143 35.0485C59.4676 35.0884 59.2174 35.1048 58.9673 35.0973C56.1927 35.0985 53.4162 35.0979 50.6379 35.0956Z" fill="white"/>
</svg>
