<svg width="31" height="31" viewBox="0 0 31 31" fill="none" xmlns="http://www.w3.org/2000/svg">
<path d="M0 16.8071V14.1356C0.0272044 14.0733 0.0502268 14.0094 0.0697363 13.9443C0.152623 13.4342 0.209931 12.9178 0.311945 12.4077C0.877162 9.63149 2.19262 7.06332 4.11506 4.98226C6.03751 2.9012 8.4936 1.38686 11.2163 0.603799C13.9391 -0.179256 16.8243 -0.201071 19.5585 0.540727C22.2928 1.28252 24.7715 2.75956 26.7252 4.81131C28.6789 6.86307 30.0326 9.41105 30.6398 12.1784C31.2469 14.9457 31.0844 17.8265 30.169 20.5077C29.2537 23.1889 27.6207 25.568 25.4481 27.3863C23.2756 29.2047 20.6461 30.3927 17.8456 30.8215L16.8002 31H14.1926C14.1309 30.973 14.067 30.9517 14.0014 30.9362C10.3329 30.5912 6.91191 28.934 4.36724 26.269C3.69139 25.5804 3.09211 24.7898 2.50553 24.0629C5.11964 19.9696 7.56766 15.8826 9.82473 11.6808C9.86298 12.7456 9.82492 13.7976 9.86956 14.8688C9.88753 16.9374 10.101 18.9996 10.5071 21.028C10.6936 22.0496 11.0608 23.0298 11.5912 23.9227C12.006 24.6551 12.6936 25.1937 13.5039 25.421C14.0371 25.5503 14.5946 25.5414 15.1234 25.3952C15.6523 25.2491 16.1351 24.9705 16.5263 24.5858C17.2754 23.9105 17.9312 23.1386 18.477 22.2904C19.9219 20.0802 21.2006 17.7658 22.3025 15.3661L22.6344 14.6711C23.0999 15.6084 23.5331 16.5521 24.0304 17.4574C24.6737 18.7092 25.5376 19.8345 26.5807 20.7793C26.7593 20.9387 26.9505 21.0216 27.1417 20.8367C27.333 20.6518 27.282 20.4605 27.1417 20.2756C26.4791 19.4057 25.9566 18.4376 25.5926 17.4064C24.8208 15.2716 24.3486 13.04 24.1898 10.7754C24.1764 10.4851 24.0728 10.2063 23.8934 9.97767C23.714 9.74909 23.4674 9.58219 23.1886 9.50023C22.837 9.40434 22.4621 9.44588 22.14 9.61641C21.8179 9.78693 21.5729 10.0737 21.4545 10.4184C20.3834 12.7137 19.319 15.0218 18.1968 17.298C17.4533 18.8485 16.5421 20.3131 15.4802 21.6656C15.2095 21.9906 14.9133 22.2933 14.5942 22.571C14.2945 22.8388 14.1606 22.8196 13.9566 22.4753C13.7673 22.1466 13.6091 21.8008 13.4846 21.4424C13.1068 20.1987 12.8776 18.9145 12.8022 17.6168C12.5376 14.1257 12.5376 10.6195 12.8022 7.12837C12.8532 6.34413 12.9621 5.56625 12.994 4.78201C13.0291 4.43771 12.9375 4.09242 12.7362 3.81086C12.535 3.52931 12.2377 3.33082 11.9006 3.2526C11.5635 3.17438 11.2097 3.2218 10.905 3.38598C10.6004 3.55016 10.3657 3.81982 10.2456 4.14441C9.97147 4.71187 9.69758 5.28572 9.41067 5.85318C6.82747 10.7065 3.93945 15.3916 0.764609 19.8803C0.726353 19.9313 0.701223 19.9887 0.669344 20.0397C0.479882 19.4815 0.330603 18.9105 0.222907 18.3309C0.152772 17.8017 0.0828866 17.3044 0 16.8071Z" fill="#A05CEB"/>
</svg>
