<svg width="28" height="28" viewBox="0 0 28 28" fill="none" xmlns="http://www.w3.org/2000/svg">
<path d="M16.9332 0C16.978 0.426686 17.051 0.848176 17.0566 1.27486C17.0566 2.63818 17.0566 4.0067 17.0566 5.43766H28V8.72626H19.5948V12.3687H26.7504V15.6365H19.5948V19.3778H27.9554V22.656H17.0229V28H16.1208V0H16.9332Z" fill="#A05CEB"/>
<path d="M0 22.6408V5.49517C0.935776 5.49517 1.87155 5.43793 2.80172 5.49517C3.13024 5.56487 3.41601 5.75177 3.59737 6.01552C5.69306 9.04917 7.76067 12.1036 9.83394 15.1529C9.97963 15.3663 10.1365 15.5744 10.3943 15.9438V5.5368H14.1038V22.672C13.0672 22.672 12.0137 22.698 10.9658 22.672C10.7809 22.672 10.585 22.3806 10.4561 22.1933C8.37164 19.144 6.2963 16.0947 4.23049 13.0455C4.0736 12.8113 3.90559 12.5824 3.63102 12.1973V22.6772L0 22.6408Z" fill="#A05CEB"/>
</svg>
