<svg width="124" height="122" viewBox="0 0 124 122" fill="none" xmlns="http://www.w3.org/2000/svg">
<ellipse cx="62" cy="61" rx="62" ry="60.5" fill="url(#paint0_linear_17_2354)"/>
<path d="M88.3502 53.4375H83.7002V39.825C83.7002 29.8425 75.3302 21.675 65.1002 21.675C54.8702 21.675 46.5002 29.8425 46.5002 39.825V53.4375H41.8502C39.5252 53.4375 37.2002 55.7062 37.2002 57.975V89.7375C37.2002 92.0062 39.5252 94.275 41.8502 94.275H88.3502C90.6752 94.275 93.0002 92.0062 93.0002 89.7375V57.975C93.0002 55.7062 90.6752 53.4375 88.3502 53.4375ZM69.7502 85.2H60.4502L62.3102 75.2175C59.9852 74.31 58.1252 71.5875 58.1252 69.3187C58.1252 65.6887 61.3802 62.5125 65.1002 62.5125C68.8202 62.5125 72.0752 65.6887 72.0752 69.3187C72.0752 72.0412 70.6802 74.31 67.8902 75.2175L69.7502 85.2ZM74.4002 53.4375H55.8002V39.825C55.8002 34.8337 59.9852 30.75 65.1002 30.75C70.2152 30.75 74.4002 34.8337 74.4002 39.825V53.4375Z" fill="#A05CEB"/>
<defs>
<linearGradient id="paint0_linear_17_2354" x1="62" y1="0.5" x2="62" y2="121.5" gradientUnits="userSpaceOnUse">
<stop stop-color="#E3E3E3" stop-opacity="0.8"/>
<stop offset="1" stop-color="#B5B5B5" stop-opacity="0"/>
</linearGradient>
</defs>
</svg>
