<svg width="45" height="27" viewBox="0 0 45 27" fill="none" xmlns="http://www.w3.org/2000/svg">
<path d="M3.7398 0.0563902V1.84455C3.17968 1.84455 2.61949 1.84455 2.03027 1.84455V0.0483398L3.7398 0.0563902Z" fill="#A05CEB"/>
<path d="M5.63067 0.0563902V1.84455C5.07055 1.84455 4.51036 1.84455 3.92114 1.84455V0.0483398L5.63067 0.0563902Z" fill="#A05CEB"/>
<path d="M36.117 0.056377V1.79621H36.0808H36.0446H34.4004V0L36.117 0.056377Z" fill="#A05CEB"/>
<path d="M34.2116 0.056377V1.79621H34.175H34.1388H32.4946V0L34.2116 0.056377Z" fill="#A05CEB"/>
<path d="M28.3992 0.056377V1.79621H28.3555H26.7117V0L28.3992 0.056377Z" fill="#A05CEB"/>
<path d="M15.2552 0.056377V1.79621H15.2186H15.1824H13.5386V0L15.2552 0.056377Z" fill="#A05CEB"/>
<path d="M13.3486 0.056377V1.79621H13.3049H11.6611V0L13.3486 0.056377Z" fill="#A05CEB"/>
<path d="M11.4419 0.056377V1.79621H11.3982H9.75439V0L11.4419 0.056377Z" fill="#A05CEB"/>
<path d="M32.2105 0.0563902V1.84455C31.9487 1.84455 31.6867 1.84455 31.4249 1.84455H30.5884V0.0483398L32.2105 0.0563902Z" fill="#A05CEB"/>
<path d="M30.3055 0.0563902V1.84455C30.0436 1.84455 29.7817 1.84455 29.5198 1.84455H28.6833V0.0483398L30.3055 0.0563902Z" fill="#A05CEB"/>
<path d="M17.1607 0.0563902V1.84455C16.8989 1.84455 16.6369 1.84455 16.375 1.84455H15.5386V0.0483398L17.1607 0.0563902Z" fill="#A05CEB"/>
<path d="M9.44173 0.0563902V1.84455C9.17986 1.84455 8.91792 1.84455 8.65605 1.84455H7.81958V0.0483398L9.44173 0.0563902Z" fill="#A05CEB"/>
<path d="M7.53668 0.0563902V1.84455C7.28208 1.84455 7.01287 1.84455 6.751 1.84455H5.92163V0.0483398L7.53668 0.0563902Z" fill="#A05CEB"/>
<path d="M44.9779 25.1151H44.7087V24.3097L44.3595 24.9621C44.0904 24.8574 44.0905 24.5916 43.945 24.358V25.1232H43.6758C43.6758 24.656 43.6758 24.1888 43.6758 23.7136C43.7089 23.6924 43.7459 23.6796 43.7841 23.6764C43.8223 23.6732 43.8607 23.6796 43.8964 23.6951C43.932 23.7106 43.9641 23.7348 43.9901 23.7659C44.0162 23.797 44.0357 23.8342 44.047 23.8747L44.3013 24.4627C44.534 24.2533 44.5343 23.915 44.7598 23.6572H44.9999L44.9779 25.1151Z" fill="#A05CEB"/>
<path d="M25.0526 26.9999H24.2236V25.7595C24.1144 25.7595 23.998 25.7595 23.9543 25.7595C23.8776 25.8725 23.8164 25.9973 23.7725 26.13H23.467L23.4304 25.7434H23.1686V26.9758H22.3247V23.6331H22.6451L22.8195 24.0358H23.147V24.4224H23.4961L23.5324 24.8493H23.787V24.4546H24.1507V24.0358H24.5216V23.6411H25.0018L25.0526 26.9999Z" fill="#A05CEB"/>
<path d="M27.3446 24.8894V25.7351H26.2315V26.162H27.6863V26.9675H27.6426H25.3513V23.6167H27.7446V24.4222H26.2535V24.8491L27.3446 24.8894Z" fill="#A05CEB"/>
<path d="M10.7881 26.9919V23.6572H13.1377V24.4627H11.6828V24.8574H12.774V25.7031H11.6611V26.13H13.1597V26.9355L10.7881 26.9919Z" fill="#A05CEB"/>
<path d="M10.475 26.9999H9.64599V25.7756H8.97682V26.9919H8.10376V23.6653H8.94769V24.8896H9.6023V23.6572H10.4533V24.8977H10.1113V25.7031L10.4608 25.7434L10.475 26.9999Z" fill="#A05CEB"/>
<path d="M30.0147 26.5731V27H28.1378V26.1945H29.5927C29.5927 25.9367 29.5928 25.9367 29.4836 25.7595H28.5161C28.4434 25.389 28.4432 25.389 28.1304 25.3407V24.0922H28.4795V23.6733H30.3784V24.4788C30.1529 24.4788 29.8983 24.4788 29.6509 24.4788H28.8798V24.8896H29.9926V25.3165H30.3564V26.565L30.0147 26.5731Z" fill="#A05CEB"/>
<path d="M33.4322 25.3326H33.8105V26.573H33.4613V26.9597H31.5774V26.1542H33.0759V25.7434H31.9702L31.9265 25.3246H31.5845V24.0519H31.9336V23.6331H33.8325V24.4385H32.341V24.8332C32.3747 24.84 32.4093 24.84 32.443 24.8332H33.4542L33.4322 25.3326Z" fill="#A05CEB"/>
<path d="M17.3639 26.5889H16.9856V24.0839H17.3422V23.6973H18.8478V24.5027H17.7276C17.7276 24.7927 17.7276 25.0666 17.7276 25.3082V26.162H18.455V25.7754H18.0913V24.9296H19.1899V26.5889H18.8333V26.9836H17.3202L17.3639 26.5889Z" fill="#A05CEB"/>
<path d="M7.4418 24.0519H7.81297V24.8574H6.9836L6.94737 24.4708H6.32899L6.21995 24.5996V26.1301H6.94737V25.7354C7.20925 25.7354 7.4493 25.7354 7.6748 25.7354C7.94395 25.969 7.76935 26.275 7.8421 26.5408H7.4418L7.31109 26.9597H5.85623V26.565H5.50708V24.06H5.86334V23.6653H7.31819L7.4418 24.0519Z" fill="#A05CEB"/>
<path d="M36.8879 26.9919V23.6572H39.143V24.4627H37.6882V24.8574H38.7868V25.7192H37.9283C37.8264 25.7374 37.7264 25.7671 37.6299 25.8078V26.9597L36.8879 26.9919Z" fill="#A05CEB"/>
<path d="M41.9074 24.3497L41.7764 24.4947H41.1725V26.9917H40.3215V24.5027H39.5579V23.6973H41.9074V24.3497Z" fill="#A05CEB"/>
<path d="M15.065 24.4705V26.9917H14.3375C14.3012 26.1862 14.3375 25.3807 14.3375 24.5027H13.6101C13.6101 24.2208 13.6101 23.947 13.6101 23.6973H15.8872C15.8872 23.9389 15.8872 24.2128 15.8872 24.5027L15.065 24.4705Z" fill="#A05CEB"/>
<path d="M0.0219727 20.9988V19.2107C0.112765 19.1679 0.207839 19.1382 0.305414 19.1221H1.68035L1.81142 19.2751V21.0069L0.0219727 20.9988Z" fill="#A05CEB"/>
<path d="M1.80396 3.92318L1.68781 4.05206H0.10189C0.0685205 3.94958 0.04188 3.8446 0.0219727 3.73792C0.0219727 3.23047 0.0219727 2.72302 0.0219727 2.19141H1.81142L1.80396 3.92318Z" fill="#A05CEB"/>
<path d="M1.69492 6.39551L1.81142 6.52437V8.25616H0.0219727V6.52437L0.13812 6.39551H1.69492Z" fill="#A05CEB"/>
<path d="M1.81213 17.1567V18.8885H0.0297852C0.0297852 18.3247 0.0297852 17.7447 0.0297852 17.1728L0.138828 17.0439H1.72475C1.74657 17.052 1.77575 17.1164 1.81213 17.1567Z" fill="#A05CEB"/>
<path d="M0.146129 4.27759H1.80451V6.03352L1.6738 6.15435H0.0441895C0.0441895 5.56635 0.0441895 4.97835 0.0441895 4.3984C0.0441895 4.35813 0.102483 4.32592 0.146129 4.27759Z" fill="#A05CEB"/>
<path d="M0.0145628 12.8076H1.80401V14.5555L1.68786 14.6844H0.101939C0.0564012 14.6076 0.0219368 14.5233 0 14.4347C0.00727428 13.895 0.0145628 13.3876 0.0145628 12.8076Z" fill="#A05CEB"/>
<path d="M0.0297852 15.0464L0.146287 14.9094H1.80467V16.6573L1.68852 16.7942H0.146287L0.0297852 16.6573V15.0464Z" fill="#A05CEB"/>
<path d="M5.62321 12.8149V14.6756H3.92114C3.92114 14.0715 3.92114 13.4513 3.92114 12.8149H5.62321Z" fill="#A05CEB"/>
<path d="M13.3416 14.926V16.7786H11.6683C11.6651 16.7725 11.6633 16.7656 11.6633 16.7585C11.6633 16.7514 11.6651 16.7445 11.6683 16.7383V14.9421L13.3416 14.926Z" fill="#A05CEB"/>
<path d="M26.478 14.6841H24.8342V12.7993C25.3725 12.7993 25.94 12.7993 26.5146 12.7993L26.478 14.6841Z" fill="#A05CEB"/>
<path d="M34.2045 2.18311V4.04376H32.5024C32.5024 3.43965 32.5024 2.81943 32.5024 2.18311H34.2045Z" fill="#A05CEB"/>
<path d="M26.4855 14.926V16.7867H24.7834C24.7834 16.1826 24.7834 15.5624 24.7834 14.926H26.4855Z" fill="#A05CEB"/>
<path d="M36.3218 14.9175H38.0022V16.762H37.9656H36.3363L36.3218 14.9175Z" fill="#A05CEB"/>
<path d="M13.5532 2.17554H15.2407V4.0523C14.6952 4.0523 14.1352 4.0523 13.5532 4.0523V2.17554Z" fill="#A05CEB"/>
<path d="M13.3413 2.18311V4.04376H11.6389C11.6389 3.43965 11.6389 2.81943 11.6389 2.18311H13.3413Z" fill="#A05CEB"/>
<path d="M3.739 6.138H2.05859V4.2854C2.60416 4.2854 3.16433 4.2854 3.739 4.2854V6.138Z" fill="#A05CEB"/>
<path d="M13.5447 6.138V4.2854H15.2542V6.138H13.5447Z" fill="#A05CEB"/>
<path d="M5.62321 14.926V16.7867H3.92114C3.92114 16.1826 3.92114 15.5624 3.92114 14.926H5.62321Z" fill="#A05CEB"/>
<path d="M2.03027 14.9175H3.7398V16.7862C3.2015 16.7862 2.63407 16.7862 2.0594 16.7862L2.03027 14.9175Z" fill="#A05CEB"/>
<path d="M22.8923 4.27759H24.5727V6.13824H22.8923V4.27759Z" fill="#A05CEB"/>
<path d="M26.4855 4.28564V6.13824H24.7834C24.7834 5.54218 24.7834 4.92197 24.7834 4.27759L26.4855 4.28564Z" fill="#A05CEB"/>
<path d="M13.334 14.6839H11.6465V12.8313H11.6827H13.3123L13.334 14.6839Z" fill="#A05CEB"/>
<path d="M36.3209 4.26929H38.0013C38.0013 4.8895 38.0013 5.50972 38.0013 6.14605H36.2917C36.299 5.53389 36.2918 4.90561 36.3209 4.26929Z" fill="#A05CEB"/>
<path d="M3.9353 2.17554H5.6157V4.06035H3.9353V2.17554Z" fill="#A05CEB"/>
<path d="M13.5526 12.7993H15.2401C15.2401 13.4195 15.2401 14.0398 15.2401 14.6761H13.538C13.5308 14.0639 13.5308 13.4276 13.5526 12.7993Z" fill="#A05CEB"/>
<path d="M3.73915 17.0283V18.889H2.04419C2.04419 18.2849 2.04419 17.6646 2.04419 17.0283H3.73915Z" fill="#A05CEB"/>
<path d="M26.478 18.897H24.8342V17.0122H26.5146L26.478 18.897Z" fill="#A05CEB"/>
<path d="M34.2044 19.1382V20.9908H32.5315V19.1946L34.2044 19.1382Z" fill="#A05CEB"/>
<path d="M24.5802 6.39551V8.25616H22.9072C22.9072 7.66011 22.9072 7.06404 22.9072 6.45994L24.5802 6.39551Z" fill="#A05CEB"/>
<path d="M26.478 8.26421H24.8342V6.37939C25.3725 6.37939 25.94 6.37939 26.5146 6.37939L26.478 8.26421Z" fill="#A05CEB"/>
<path d="M32.5024 18.889V17.0283H34.2045C34.2045 17.6324 34.2045 18.2526 34.2045 18.889H32.5024Z" fill="#A05CEB"/>
<path d="M34.4075 18.889V17.0283H36.1095C36.1095 17.6324 36.1095 18.2526 36.1095 18.889H34.4075Z" fill="#A05CEB"/>
<path d="M24.5727 14.6844H22.8923V12.8076C23.4306 12.8076 23.9981 12.8076 24.5727 12.8076V14.6844Z" fill="#A05CEB"/>
<path d="M22.8779 16.7867V14.926C23.4308 14.926 23.9982 14.926 24.5729 14.926V16.8108C24.02 16.8108 23.4453 16.8108 22.8779 16.7867Z" fill="#A05CEB"/>
<path d="M38.0161 17.0283V18.889H36.3137V17.1572L36.4302 17.0283H38.0161Z" fill="#A05CEB"/>
<path d="M0.0297852 8.59473H1.80467V10.3668C1.23 10.3668 0.640825 10.3668 0.0297852 10.3668V8.59473Z" fill="#A05CEB"/>
<path d="M28.3843 18.8968H26.7039V17.1489L26.8278 17.02H28.3843V18.8968Z" fill="#A05CEB"/>
<path d="M41.7909 14.6839H40.2271V12.8313H40.2707H41.8783C41.8783 13.4354 41.8783 14.0153 41.8783 14.6033C41.8929 14.6114 41.8273 14.6436 41.7909 14.6839Z" fill="#A05CEB"/>
<path d="M2.03027 6.38745H3.63786C3.68106 6.48671 3.71057 6.59261 3.72524 6.70159C3.72524 7.20904 3.72524 7.71648 3.72524 8.2481H2.03027V6.38745Z" fill="#A05CEB"/>
<path d="M39.9069 14.6844H38.2989C38.259 14.5866 38.2299 14.4838 38.2119 14.3783C38.2119 13.8709 38.2119 13.3634 38.2119 12.8479H38.2556H39.8777L39.9069 14.6844Z" fill="#A05CEB"/>
<path d="M38.0161 19.1304V20.991H36.3137C36.3137 20.7252 36.3137 20.4352 36.3137 20.1453V19.2754L36.4448 19.1304H38.0161Z" fill="#A05CEB"/>
<path d="M1.81204 10.7131V12.4691H0.0151367C0.0151367 12.1952 0.0151367 11.9052 0.0151367 11.6153V10.7131H1.81204Z" fill="#A05CEB"/>
<path d="M3.739 21.0069H2.05859V19.1221C2.56779 19.1221 3.09892 19.1221 3.61539 19.1221L3.739 19.2671V21.0069Z" fill="#A05CEB"/>
<path d="M36.1095 19.1382V20.9908H34.4075V19.2671L34.5236 19.1382H36.1095Z" fill="#A05CEB"/>
<path d="M30.5957 20.9908V19.1382H32.1816L32.2978 19.2832V20.9908H30.5957Z" fill="#A05CEB"/>
<path d="M3.59417 4.05206H2.03027V2.19141H3.69611C3.69611 2.77135 3.69611 3.35129 3.69611 3.93929C3.68884 3.97956 3.63054 4.01178 3.59417 4.05206Z" fill="#A05CEB"/>
<path d="M38.0161 2.18311V4.04376H36.4302L36.3137 3.89878V2.18311H38.0161Z" fill="#A05CEB"/>
<path d="M26.8138 16.7862L26.6973 16.6493V14.9175H28.3993V16.7862H26.8138Z" fill="#A05CEB"/>
<path d="M34.4148 2.17554H36.0952V4.0523H34.5313L34.4148 3.92342V2.17554Z" fill="#A05CEB"/>
<path d="M30.5957 4.04376V2.18311H32.2978V3.91489C32.2554 3.95369 32.2167 3.99683 32.1816 4.04376H30.5957Z" fill="#A05CEB"/>
<path d="M28.5881 2.18311H30.2973V4.05987C29.9991 4.05987 29.701 4.05987 29.41 4.05987C29.1191 4.05987 28.8427 4.18069 28.5881 3.93099V2.18311Z" fill="#A05CEB"/>
<path d="M9.74756 14.9175H11.4063C11.5301 15.5409 11.4975 16.1899 11.3118 16.7942H9.74756V14.9175Z" fill="#A05CEB"/>
<path d="M28.3848 4.05206H26.8209L26.6973 3.91513V2.19141H28.3848V4.05206Z" fill="#A05CEB"/>
<path d="M26.479 4.05987H24.9151L24.7915 3.89878V2.18311H26.479C26.5081 2.79527 26.5008 3.4316 26.479 4.05987Z" fill="#A05CEB"/>
<path d="M3.739 12.8149V14.5467L3.62249 14.6756H2.05859V12.8149H3.739Z" fill="#A05CEB"/>
<path d="M17.1532 2.18311V4.04376H15.5673L15.4512 3.91489V2.18311H17.1532Z" fill="#A05CEB"/>
<path d="M9.74756 2.17554H11.4063C11.5279 2.79915 11.4953 3.44754 11.3118 4.0523H9.74756V2.17554Z" fill="#A05CEB"/>
<path d="M28.3921 19.1145V20.9913H26.6897V19.2112C26.7811 19.1705 26.8763 19.1408 26.9735 19.1226L28.3921 19.1145Z" fill="#A05CEB"/>
<path d="M9.74756 12.8076H11.4134C11.4134 13.4037 11.4134 13.9836 11.4134 14.5716C11.4134 14.5716 11.3553 14.6441 11.3189 14.6844H9.75502L9.74756 12.8076Z" fill="#A05CEB"/>
<path d="M15.4434 6.04963V4.43868L15.5744 4.2937H17.1458V6.13824C16.8694 6.13824 16.5712 6.13824 16.2802 6.13824C15.9892 6.13824 15.7198 6.25906 15.4434 6.04963Z" fill="#A05CEB"/>
<path d="M40.2205 16.7867V14.926H41.7989L41.9154 15.0549V16.6659L41.7989 16.8028L40.2205 16.7867Z" fill="#A05CEB"/>
<path d="M28.3843 6.138H26.8204L26.7039 6.00912V4.39817L26.842 4.26929H28.3843V6.138Z" fill="#A05CEB"/>
<path d="M17.1458 8.26421H15.5815C15.4599 7.69201 15.4182 7.10253 15.4579 6.51633L15.589 6.38745H17.1458V8.26421Z" fill="#A05CEB"/>
<path d="M38.3359 4.27759H39.9073V6.13824H38.343L38.1978 5.98519L38.3359 4.27759Z" fill="#A05CEB"/>
<path d="M38.2992 4.04376C38.2992 3.9471 38.1902 3.82628 38.2193 3.7699C38.3093 3.44421 38.3391 3.10175 38.3067 2.76305C38.3067 2.56974 38.3067 2.38447 38.3067 2.18311H39.8997V4.04376H38.2992Z" fill="#A05CEB"/>
<path d="M7.52119 4.05206H5.9207C5.9397 3.42906 5.90059 2.80555 5.8042 2.19141H7.50662L7.52119 4.05206Z" fill="#A05CEB"/>
<path d="M15.5532 12.8076H17.1463V14.6924H15.5532V12.8076Z" fill="#A05CEB"/>
<path d="M9.42736 14.6844H7.8418V12.8076C8.08185 12.8076 8.34377 12.8076 8.61291 12.8076H9.42736V14.6844Z" fill="#A05CEB"/>
<path d="M7.52914 12.8149V14.6756H5.92156C5.9184 14.6597 5.9184 14.6432 5.92156 14.6273V12.8311L7.52914 12.8149Z" fill="#A05CEB"/>
<path d="M5.92163 14.9175H7.50755V16.7942C7.2675 16.7942 6.99831 16.7942 6.73644 16.7942H5.92163V14.9175Z" fill="#A05CEB"/>
<path d="M9.43514 14.926V16.7867H7.85667C7.85279 16.7736 7.85279 16.7595 7.85667 16.7464C7.85667 16.1503 7.85667 15.5543 7.85667 14.9502L9.43514 14.926Z" fill="#A05CEB"/>
<path d="M38.0087 10.7131V12.4691H36.3137C36.3137 12.1952 36.3137 11.9052 36.3137 11.6153V10.7131H38.0087Z" fill="#A05CEB"/>
<path d="M36.1095 10.7131V12.4691H34.4075C34.4075 12.1952 34.4075 11.9052 34.4075 11.6153V10.7131H36.1095Z" fill="#A05CEB"/>
<path d="M34.1974 12.4771H32.5095V10.697H34.1974V12.4771Z" fill="#A05CEB"/>
<path d="M26.478 12.4774H24.8342V10.7053C25.3725 10.7053 25.9327 10.7053 26.5146 10.7053L26.478 12.4774Z" fill="#A05CEB"/>
<path d="M24.5727 12.4774H22.8923V10.7053C23.4306 10.7053 23.9981 10.7053 24.5727 10.7053V12.4774Z" fill="#A05CEB"/>
<path d="M38.3137 16.7867V14.926H39.9217C39.9217 15.5221 39.9217 16.1423 39.9217 16.7867H38.3137Z" fill="#A05CEB"/>
<path d="M15.2467 10.7131V12.4691H13.5447C13.5447 12.1952 13.5447 11.9052 13.5447 11.6153V10.7131H15.2467Z" fill="#A05CEB"/>
<path d="M36.3508 8.55469H38.0167C38.0167 9.14268 38.0167 9.72262 38.0167 10.3267H36.3508C36.2815 9.73854 36.2815 9.14288 36.3508 8.55469Z" fill="#A05CEB"/>
<path d="M36.1169 8.60277V10.3587C35.5567 10.3587 34.9967 10.3587 34.4148 10.3587V8.57861C34.9725 8.5625 35.5398 8.57056 36.1169 8.60277Z" fill="#A05CEB"/>
<path d="M32.5024 10.3582V8.60229H34.2045C34.2045 8.87616 34.2045 9.16613 34.2045 9.4561V10.3582H32.5024Z" fill="#A05CEB"/>
<path d="M28.7046 17.02H30.2905V18.8968C30.0432 18.8968 29.7813 18.8968 29.5194 18.8968H28.7046V17.02Z" fill="#A05CEB"/>
<path d="M30.5888 17.0122H32.1598C32.1648 17.0278 32.1648 17.0449 32.1598 17.0605V18.8567H30.5522C30.5741 18.2768 30.6034 17.6405 30.5888 17.0122Z" fill="#A05CEB"/>
<path d="M26.4855 8.60229V10.3582H24.7834C24.7834 10.0924 24.7834 9.80246 24.7834 9.51249V8.60229H26.4855Z" fill="#A05CEB"/>
<path d="M24.5727 10.367H22.8923V8.55469H24.5727V10.367Z" fill="#A05CEB"/>
<path d="M3.739 10.3668H2.05859V8.59473H3.739V10.3668Z" fill="#A05CEB"/>
<path d="M39.9137 17.0283V18.889H38.3062V17.0283H39.9137Z" fill="#A05CEB"/>
<path d="M19.0585 6.39551V8.25616H17.458C17.458 7.65205 17.458 7.03183 17.458 6.39551H19.0585Z" fill="#A05CEB"/>
<path d="M17.4588 4.26929H19.0156C19.019 4.28244 19.019 4.29641 19.0156 4.30956V6.138H17.408C17.4371 5.53389 17.4369 4.90561 17.4588 4.26929Z" fill="#A05CEB"/>
<path d="M9.42736 4.05132H7.8418V2.1665H9.42736V4.05132Z" fill="#A05CEB"/>
<path d="M30.2975 19.1382V20.9908H28.6899C28.6899 20.3947 28.6899 19.7745 28.6899 19.1382H30.2975Z" fill="#A05CEB"/>
<path d="M2.03027 10.7053H3.7398V12.4774C3.2015 12.4774 2.63407 12.4774 2.0594 12.4774L2.03027 10.7053Z" fill="#A05CEB"/>
<path d="M40.2271 10.7053H41.9291C41.9291 11.0033 41.9291 11.2933 41.9291 11.5833C41.9291 11.8733 41.8563 12.1471 41.8126 12.4613H40.2342L40.2271 10.7053Z" fill="#A05CEB"/>
<path d="M19.0595 10.7131V12.4691H17.4519C17.4519 12.1952 17.4519 11.9052 17.4519 11.6153V10.7131H19.0595Z" fill="#A05CEB"/>
<path d="M15.5532 10.7053H17.1463V12.4774C16.8989 12.4774 16.637 12.4774 16.3751 12.4774H15.5532V10.7053Z" fill="#A05CEB"/>
<path d="M40.2271 8.59473H41.8126V10.3748C41.5726 10.3748 41.3106 10.3748 41.0415 10.3748C40.7723 10.3748 40.5107 10.3748 40.2271 10.3748V8.59473Z" fill="#A05CEB"/>
<path d="M39.9075 10.3668H38.3215V8.59473C38.5689 8.59473 38.8308 8.59473 39.0927 8.59473H39.9075V10.3668Z" fill="#A05CEB"/>
<path d="M19.051 10.3668H17.458V8.59473C17.7053 8.59473 17.9672 8.59473 18.2291 8.59473H19.051V10.3668Z" fill="#A05CEB"/>
<path d="M15.5532 8.59473H17.1463V10.3748C16.8989 10.3748 16.637 10.3748 16.3751 10.3748C16.1133 10.3748 15.8369 10.3748 15.5532 10.3748V8.59473Z" fill="#A05CEB"/>
<path d="M38.3137 12.4691V10.7131H39.9217C39.9217 10.9789 39.9217 11.2689 39.9217 11.5186C39.9217 11.7683 39.9217 12.1147 39.9217 12.4288L38.3137 12.4691Z" fill="#A05CEB"/>
<path d="M43.0204 23.8586H42.6421V23.6733H43.5876V23.8264L43.1951 23.8747V25.1071H43.0204V23.8586Z" fill="#A05CEB"/>
<path d="M21.5536 24.06V23.6653H20.0259V24.06H19.6768V27H20.4042V26.3395L20.5495 26.1864H21.197V26.9919H21.9244V24.06H21.5536ZM21.1607 25.3165C20.9207 25.3165 20.6734 25.3165 20.4333 25.3165V24.511C20.6752 24.4844 20.9189 24.4844 21.1607 24.511V25.3165Z" fill="#A05CEB"/>
<path d="M36.0948 24.0358V23.6572H34.6399V24.0841H34.2908V26.5569C34.2908 26.5569 34.2908 26.5569 34.349 26.6133H34.6474V26.9919H36.1676V26.6053H36.5384V24.1244L36.0948 24.0358ZM35.7165 26.1623H34.9891V24.4949C35.2146 24.4949 35.4546 24.4949 35.7165 24.4949V26.1623Z" fill="#A05CEB"/>
<path d="M4.68486 24.0519V23.6653H3.15009V24.068H2.78638V26.5811H3.17211V26.9758H4.68486V26.5731H5.04147V24.0439L4.68486 24.0519ZM4.28492 26.1623H3.55749V24.4949C3.783 24.4949 4.03032 24.4949 4.28492 24.4949V26.1623Z" fill="#A05CEB"/>
<path d="M1.99295 24.0358V23.6572H0.101562V26.9919H0.828991V25.7354H1.97838V25.3487H2.32754V24.1244L1.99295 24.0358ZM0.879783 24.8896V24.503H1.60721V24.8896H0.879783Z" fill="#A05CEB"/>
</svg>
