<svg width="38" height="28" viewBox="0 0 38 28" fill="none" xmlns="http://www.w3.org/2000/svg">
<path d="M37.869 6.99448C37.2795 3.96652 35.1535 2.43048 32.4381 1.61742C28.9368 0.570043 25.4159 0.896505 21.9146 1.65149C20.496 1.9579 19.0303 2.827 17.7158 2.61272C16.4013 2.39843 15.2303 1.13078 13.9826 0.36778C12.4992 -0.535404 11.0354 0.299726 10.9882 2.05603C10.9646 3.08338 10.943 4.11471 10.9882 5.14206C11.0255 5.84298 10.8115 6.2335 10.2142 6.65605C8.54161 7.8028 6.94283 9.05769 5.42782 10.413C3.17024 12.5057 1.30168 14.9269 0.393934 17.9769C-0.784956 21.9601 0.706409 25.2745 4.54173 26.6863C6.37491 27.3612 8.37313 27.5754 10.2967 28C10.3163 27.8798 10.3379 27.7597 10.3575 27.6396C11.0722 27.6766 11.7883 27.6766 12.5031 27.6396C18.1107 27.0508 23.231 25.0502 27.9486 21.9661C31.5226 19.6311 34.6545 16.8133 36.7077 12.9363C37.7 11.0758 38.2737 9.09123 37.869 6.99448ZM13.1593 5.19212C13.1593 4.64541 13.4482 3.8904 13.8529 3.62205C14.185 3.40176 14.9748 3.62207 15.411 3.89242C18.4053 5.76087 21.3684 7.68336 24.3215 9.6219C24.7459 9.90227 25.0543 10.3629 25.5121 10.8415C25.1329 11.3242 24.9484 11.7407 24.6301 11.941C21.4589 13.9596 18.2731 15.9542 15.0731 17.9248C14.1575 18.4896 13.3048 18.0249 13.1693 16.9395C13.1584 16.7741 13.1584 16.6082 13.1693 16.4429C13.1496 12.6959 13.1102 8.95106 13.1593 5.20014V5.19212ZM13.6545 26.1075C11.8174 26.48 9.97639 26.6022 8.15304 26.0895C5.42981 25.3285 4.07005 23.0175 4.66146 20.1457C4.74398 20.1858 4.87365 20.2058 4.89133 20.2599C5.75781 23.1216 7.99574 24.0929 10.5893 24.5014C13.6112 24.978 16.5407 24.4253 19.431 23.5222C19.7611 23.418 20.101 23.3439 20.437 23.2558L20.5195 23.5121C18.3716 24.7241 16.0576 25.601 13.6545 26.1135V26.1075ZM30.6187 10.7714C30.0293 13.1225 28.6873 15.043 27.0487 16.7332C23.4531 20.4461 19.215 22.9674 14.0554 23.5902C13.0544 23.6896 12.044 23.6083 11.0707 23.3499C8.97426 22.8192 7.92714 21.0449 8.30635 18.884C8.65019 16.9075 9.60502 15.2373 10.9784 13.477C10.9784 15.6258 10.9784 17.5123 10.9784 19.4007C10.9784 20.2739 11.106 21.0669 11.9156 21.5516C12.7251 22.0362 13.4599 21.7298 14.1908 21.2712C18.651 18.4675 23.0856 15.6298 27.5988 12.9262C29.5793 11.7407 29.1706 9.84622 27.5437 9.03916C25.8048 8.18003 24.176 7.08659 22.3036 5.98114C24.5159 5.35032 26.5182 5.01386 28.5223 5.81291C30.4458 6.59393 31.216 8.45037 30.6266 10.7794L30.6187 10.7714ZM25.0485 4.07063C23.8559 4.11669 22.6769 4.44713 21.4842 4.57129C20.9849 4.59029 20.4897 4.47276 20.05 4.23085C23.2114 2.79096 26.4061 1.7516 29.8583 2.57668C32.3635 3.17747 33.5641 4.69949 33.7665 7.55924C31.5718 4.21686 28.3612 3.95049 25.0485 4.08466V4.07063Z" fill="#A05CEB"/>
</svg>
