<svg width="38" height="24" viewBox="0 0 38 24" fill="none" xmlns="http://www.w3.org/2000/svg">
<path d="M10.9678 0H11.4364C11.5863 0.0374768 11.7391 0.0627851 11.8929 0.0756754H31.7765C31.9283 0.062771 32.0791 0.0374607 32.227 0H32.8438L33.4605 0.163955C35.5081 0.643191 37.0311 1.74669 37.7157 3.8528C37.8267 4.18701 37.9075 4.52752 38 4.86803V6.75975C37.9137 7.05612 37.8334 7.3588 37.747 7.66147C36.8034 10.8522 35.9337 14.0618 34.8976 17.221C33.5962 21.1684 30.7529 23.2997 26.7811 23.924C26.1463 23.9955 25.5073 24.0166 24.8694 23.987H5.64473C4.54393 24.027 3.45719 23.7248 2.52785 23.1203C1.59852 22.5157 0.870615 21.6373 0.439694 20.6008C-0.105746 19.2043 -0.144925 17.6545 0.328872 16.231C1.27456 13.0655 2.22382 9.91262 3.17773 6.77236C3.57978 5.38096 4.28952 4.10277 5.25203 3.03667C6.21454 1.97058 7.40404 1.14516 8.72847 0.624271C9.46178 0.370337 10.2099 0.161866 10.9678 0ZM30.031 2.20071H27.805C26.373 2.2521 24.9897 2.74687 23.8388 3.61952C22.688 4.49218 21.8236 5.70157 21.3598 7.08765C20.447 10.0892 19.5466 13.097 18.6338 16.0986C18.2975 16.9959 18.1685 17.9606 18.2574 18.9172C18.3763 19.751 18.7962 20.5091 19.4343 21.0424C20.0723 21.5757 20.8821 21.8455 21.7049 21.7989C23.1481 21.7989 24.5975 21.7611 26.0222 21.7989C28.8901 21.9124 32.0854 19.4658 32.9118 16.603C33.2264 15.5247 33.5283 14.4464 33.8737 13.3682C34.5274 11.1864 35.2123 9.0109 35.8167 6.81651C36.5259 4.22485 35.0334 2.23224 32.3999 2.1944C31.6228 2.1944 30.8266 2.20071 30.031 2.20071ZM18.7326 10.0955C18.673 10.0728 18.6109 10.058 18.5477 10.0513C16.3767 10.0513 14.1996 10.0513 12.0224 10.0513C11.9505 10.0723 11.8838 10.1092 11.8273 10.1593C11.7708 10.2094 11.7258 10.2716 11.6954 10.3414C11.461 11.0287 11.2573 11.7287 11.0353 12.4286C10.8749 12.9394 10.7148 13.4501 10.536 14.0303H12.7253C12.4601 14.9131 12.2073 15.7328 11.9791 16.5526C11.9723 16.6103 11.9539 16.6661 11.9255 16.7164C11.897 16.7668 11.859 16.8107 11.8134 16.8455C11.7679 16.8803 11.7158 16.9053 11.6604 16.9189C11.6051 16.9325 11.5479 16.9344 11.4918 16.9246C10.5173 16.9246 9.54287 16.9246 8.56224 16.9246H7.28538C7.28538 16.7796 7.32274 16.6787 7.34741 16.5778C8.26637 13.5763 9.19764 10.5747 10.0981 7.56688C10.1092 7.48815 10.1358 7.41256 10.1764 7.34469C10.217 7.27681 10.2707 7.21808 10.3342 7.17207C10.3977 7.12606 10.4695 7.09374 10.5456 7.07706C10.6217 7.06037 10.6999 7.05968 10.7763 7.07504C13.601 7.07504 16.4258 7.07504 19.2506 7.07504C19.3155 7.08575 19.3818 7.08311 19.4457 7.06725C19.5096 7.0514 19.5693 7.02265 19.6222 6.98271C19.675 6.94276 19.7199 6.89242 19.7535 6.83464C19.787 6.77687 19.8089 6.71282 19.8179 6.64625C20.0708 5.75084 20.3607 4.87434 20.6383 3.98523C20.8171 3.41141 20.9961 2.83128 21.1996 2.1944H11.9851C10.853 2.18837 9.73697 2.46843 8.7363 3.00968C7.73564 3.55093 6.8815 4.33659 6.24943 5.29682C5.67967 6.20758 5.26276 7.20927 5.01593 8.26052C4.11548 11.199 3.16546 14.1249 2.32668 17.0885C1.56808 19.7243 3.13511 21.7863 5.59594 21.8115C7.24883 21.8115 8.90172 21.8115 10.5299 21.8115C10.818 21.8137 11.1052 21.7841 11.387 21.7233C12.6207 21.4761 13.7642 20.8873 14.693 20.0211C15.6218 19.1549 16.3003 18.0445 16.6541 16.8111C17.3387 14.7617 17.8874 12.6808 18.535 10.6126C18.6461 10.4612 18.6833 10.2847 18.7326 10.0955Z" fill="#A05CEB"/>
<path d="M23.21 16.9436L24.2278 13.6205C24.8446 11.5585 25.4981 9.49652 26.1148 7.42823C26.1216 7.3744 26.1386 7.3225 26.1654 7.27565C26.1922 7.22881 26.2282 7.18797 26.2708 7.15559C26.3134 7.12321 26.362 7.09995 26.4136 7.08721C26.4652 7.07446 26.519 7.0725 26.5714 7.08142C27.922 7.08142 29.2789 7.08142 30.6296 7.08142H30.9073C30.8703 7.25167 30.839 7.403 30.7959 7.54804C29.8892 10.537 28.9767 13.5259 28.0885 16.5211C28.0804 16.5848 28.0598 16.646 28.0277 16.7012C27.9956 16.7564 27.9526 16.8043 27.9018 16.8421C27.8511 16.8799 27.7932 16.9066 27.732 16.9208C27.6708 16.935 27.6076 16.9363 27.5459 16.9247C26.2569 16.9247 24.9676 16.9247 23.6785 16.9247L23.21 16.9436Z" fill="#A05CEB"/>
</svg>
