<svg width="25" height="38" viewBox="0 0 25 38" fill="none" xmlns="http://www.w3.org/2000/svg">
<g clip-path="url(#clip0_14_3998)">
<path d="M25.0003 23.0882V25.6619C24.9702 25.7114 24.9459 25.7645 24.928 25.82C24.8257 26.4018 24.7595 26.9963 24.6271 27.5717C24.0022 30.1593 22.642 32.4856 20.7278 34.2409C18.8136 35.9962 16.4362 37.0972 13.9117 37.3975C11.3872 37.6977 8.83543 37.1829 6.59627 35.9216C4.3571 34.6604 2.53672 32.7124 1.37728 30.337C0.217836 27.9616 -0.225596 25.2715 0.106028 22.6248C0.437653 19.978 1.52857 17.5002 3.2336 15.5211C4.93864 13.542 7.17683 12.1555 9.65037 11.5461C12.1239 10.9368 14.7156 11.1335 17.0801 12.1101C18.9846 12.8634 20.6797 14.1049 22.0114 15.7218C23.3431 17.3386 24.269 19.2795 24.7052 21.3681C24.8075 21.9372 24.8919 22.519 25.0003 23.0882ZM16.1292 19.7808C16.4589 19.7402 16.7863 19.681 17.1101 19.6038C17.3824 19.5589 17.6405 19.4459 17.8626 19.2744C18.0847 19.1028 18.2642 18.8778 18.3863 18.6181C18.5084 18.3585 18.5694 18.0718 18.5641 17.7822C18.5588 17.4926 18.4876 17.2086 18.356 16.9541C17.8867 15.9711 17.0922 15.2015 16.1218 14.7894C15.1514 14.3774 14.0714 14.3511 13.0839 14.7155C12.7353 14.8478 12.4392 15.0992 12.2428 15.4294C12.0464 15.7596 11.9611 16.1495 12.0007 16.5367C12.05 16.9814 12.1829 17.4113 12.3918 17.8015C13.1983 19.1864 14.4741 19.7302 16.1292 19.7872V19.7808ZM18.0431 28.691C18.007 28.5519 17.9888 28.4571 17.9587 28.3622C17.2927 26.4819 16.6268 24.6059 15.9608 22.734C15.6839 21.9562 15.6719 21.9815 14.8835 21.9562C14.7625 21.9356 14.6385 21.9649 14.5376 22.038C14.4367 22.111 14.3664 22.2222 14.3416 22.3483C13.9023 23.613 13.4388 24.8778 12.9875 26.1426C12.6986 26.9646 12.3857 27.7867 12.0968 28.6721C12.4458 28.6721 12.7408 28.6721 13.0357 28.6721C13.0886 28.6598 13.1381 28.6344 13.18 28.5982C13.2218 28.5619 13.2548 28.5157 13.2763 28.4634C13.4087 28.1282 13.4991 27.7678 13.6375 27.4389C13.6684 27.3786 13.7124 27.3267 13.7656 27.2872C13.8189 27.2477 13.8801 27.2217 13.9446 27.2113C14.6969 27.2113 15.4552 27.2113 16.2135 27.2113C16.2816 27.2246 16.346 27.2537 16.4021 27.2963C16.4583 27.3389 16.505 27.3941 16.5385 27.4579C16.6769 27.7804 16.7551 28.1282 16.8814 28.4507C16.9024 28.5029 16.9345 28.5495 16.9752 28.5867C17.0159 28.624 17.0641 28.651 17.1162 28.6657C17.4111 28.7163 17.7061 28.6974 18.0431 28.6974V28.691ZM4.201 26.073C4.84495 26.035 5.44076 26.073 6.00648 25.9655C6.4512 25.9207 6.86299 25.6996 7.15813 25.3472C7.45327 24.9948 7.60938 24.5375 7.5951 24.0684C7.5951 22.8985 7.1198 22.108 6.08465 21.9815C5.11655 21.9213 4.14587 21.9213 3.17777 21.9815V28.71H4.18895L4.201 26.073ZM20.1313 28.6784C20.1313 27.9511 20.1313 27.2555 20.1313 26.5662C20.1395 26.3312 20.1948 26.1006 20.2938 25.8896C20.7873 24.8651 21.299 23.8533 21.8045 22.8415C21.961 22.5317 22.1054 22.2092 22.28 21.8614C21.943 21.8614 21.678 21.8614 21.3952 21.8614C21.3023 21.8449 21.207 21.8648 21.1272 21.9173C21.0473 21.9697 20.9884 22.051 20.9617 22.1459C20.5645 23.006 20.1553 23.8597 19.7581 24.7197C19.7219 24.8019 19.6679 24.8715 19.6017 24.9853C19.1443 24.0114 18.711 23.0882 18.2717 22.1649C18.2175 22.0511 18.1151 21.893 18.0249 21.8803C17.6758 21.8803 17.3268 21.8803 16.9176 21.8803C17.5555 23.1451 18.1211 24.3656 18.7651 25.5544C19.0041 25.9761 19.1212 26.4617 19.1022 26.952C19.0721 27.5275 19.1022 28.1029 19.1022 28.691L20.1313 28.6784ZM9.42469 21.8867H8.39558V28.6657H11.6454V27.831C11.0135 27.831 10.3999 27.831 9.79202 27.831C9.50916 27.831 9.41881 27.7425 9.41881 27.4452C9.41881 25.7631 9.41881 24.0873 9.41881 22.3862L9.42469 21.8867Z" fill="#A05CEB"/>
<path d="M11.7174 2.28288C11.5916 2.32378 11.4721 2.38341 11.3624 2.45995C10.6878 3.08319 10.1509 3.85375 9.78911 4.71775C9.42736 5.58174 9.24951 6.51833 9.26809 7.46205V7.82883C8.18383 5.04289 6.76831 2.41237 5.05529 0C4.82057 3.01012 5.26574 5.95699 5.76526 8.89755C5.23158 7.99053 4.49579 7.23379 3.62124 6.69279C2.74669 6.15178 1.75982 5.8428 0.746094 5.79257C2.86334 7.20514 4.44496 9.35005 5.21779 11.8571C7.05197 10.6823 9.13847 10.0124 11.2843 9.90936C11.2422 9.72597 11.218 9.59949 11.1879 9.47934C10.8227 7.97135 10.7469 6.40204 10.9651 4.86298C11.0678 3.9591 11.3268 3.08255 11.7295 2.27655L11.7174 2.28288Z" fill="#A05CEB"/>
<path d="M11.7175 2.27655C11.3149 3.08255 11.0558 3.9591 10.9532 4.86298C10.735 6.40204 10.8107 7.97135 11.1759 9.47934C11.1759 9.59949 11.2302 9.72597 11.2723 9.90936C9.1265 10.0124 7.04001 10.6823 5.20583 11.8571C4.433 9.35005 2.85137 7.20514 0.734131 5.79257C1.74786 5.8428 2.73473 6.15178 3.60928 6.69279C4.48382 7.23379 5.21962 7.99053 5.75329 8.89755C5.25378 5.95699 4.80861 3.01012 5.04332 0C6.75635 2.41237 8.17187 5.04289 9.25613 7.82883V7.46205C9.23755 6.51833 9.41539 5.58174 9.77715 4.71775C10.1389 3.85375 10.6758 3.08319 11.3505 2.45995C11.4602 2.38341 11.5797 2.32378 11.7055 2.28288L11.7175 2.27655Z" fill="#A05CEB"/>
<path d="M16.153 26.3447H14.0166L15.0816 23.1829L16.153 26.3447Z" fill="#A05CEB"/>
<path d="M4.20679 25.1623V22.7466C4.73583 22.753 5.2641 22.7889 5.78953 22.8541C6.30108 22.9426 6.54799 23.3663 6.54799 23.9734C6.57573 24.2283 6.5086 24.4845 6.3605 24.6885C6.21241 24.8924 5.99466 25.0282 5.75338 25.0674C5.23983 25.1285 4.72361 25.1601 4.20679 25.1623Z" fill="#A05CEB"/>
</g>
<defs>
<clipPath id="clip0_14_3998">
<rect width="25" height="37.5" fill="white"/>
</clipPath>
</defs>
</svg>
