<svg width="31" height="31" viewBox="0 0 31 31" fill="none" xmlns="http://www.w3.org/2000/svg">
<g clip-path="url(#clip0_14_3624)">
<path d="M7.5935 0.5H8.29815C8.31616 0.518757 8.33417 0.551582 8.35374 0.553145C9.3011 0.631298 10.0723 1.06661 10.7574 1.69966C11.5521 2.43508 12.3632 3.15331 13.1594 3.88795C13.2965 4.01456 13.3654 4.01456 13.5047 3.88326C14.0423 3.3702 14.7574 3.08386 15.5012 3.08386C16.245 3.08386 16.9601 3.3702 17.4977 3.88326C17.6386 4.01534 17.7076 4.01144 17.8438 3.88326C18.669 3.12361 19.5068 2.37647 20.3343 1.61681C20.8981 1.08545 21.6017 0.725201 22.3629 0.578153C22.4584 0.559397 22.5814 0.61723 22.6518 0.5H23.2962C23.322 0.578153 23.3901 0.5508 23.4426 0.555489C26.121 0.78995 27.7339 3.75197 26.4851 6.13487C26.453 6.19661 26.3716 6.25366 26.4327 6.35057C27.1506 6.35057 27.8733 6.34119 28.5951 6.35057C29.0182 6.35676 29.4276 6.50131 29.7606 6.76204C30.0935 7.02278 30.3315 7.38532 30.4382 7.79406C30.4523 7.84486 30.4225 7.91598 30.5024 7.93865V11.5149C30.2237 12.0925 29.7484 12.2238 29.1369 12.223C20.0026 12.2095 10.8683 12.2063 1.73396 12.2136C1.64627 12.2136 1.5578 12.2136 1.47011 12.2136C1.21316 12.2101 0.968003 12.1054 0.78806 11.9223C0.608118 11.7392 0.507972 11.4925 0.509442 11.2359C0.501612 10.2403 0.496915 9.24459 0.509442 8.24892C0.517223 7.75154 0.717827 7.27654 1.0691 6.9237C1.42038 6.57087 1.89499 6.36768 2.3932 6.35682C3.05635 6.34119 3.72029 6.35682 4.38344 6.34901C4.45312 6.34901 4.54003 6.38886 4.59875 6.30837C4.5898 6.28152 4.5788 6.25539 4.56587 6.23021C3.51281 4.47958 4.165 1.75827 6.54827 0.804017C6.88885 0.664122 7.25762 0.643021 7.5935 0.5ZM10.1224 6.34901C10.8451 6.34901 11.5669 6.34901 12.2896 6.34901C12.382 6.34901 12.53 6.42247 12.5613 6.27085C12.5871 6.14737 12.602 6.01138 12.4744 5.89728C11.3689 4.90707 10.2766 3.90202 9.16565 2.91885C8.72407 2.52808 8.18462 2.40304 7.60681 2.52808C6.58899 2.74457 5.96263 3.60035 6.05815 4.6226C6.14819 5.59248 6.9554 6.32634 7.98419 6.34901C8.69667 6.36073 9.40915 6.34822 10.1224 6.34901ZM20.8127 6.34901C20.9012 6.34901 20.9889 6.34901 21.0765 6.34901C21.8258 6.3279 22.579 6.41231 23.3244 6.30133C23.7116 6.23897 24.0712 6.06189 24.3564 5.79308C24.6416 5.52426 24.8393 5.1761 24.9239 4.79375C25.0001 4.41862 24.9618 4.02929 24.814 3.67611C24.6662 3.32292 24.4157 3.02211 24.0948 2.81256C23.3064 2.29987 22.4044 2.39522 21.6324 3.08844C20.6968 3.92859 19.769 4.77734 18.8381 5.62218C18.741 5.71793 18.6388 5.80845 18.532 5.89337C18.3903 5.99575 18.4216 6.14112 18.4419 6.26616C18.4678 6.42247 18.6173 6.34432 18.7074 6.34432C19.4097 6.35213 20.1112 6.34901 20.8127 6.34901Z" fill="white"/>
<path d="M4.13665 30.5C4.12256 30.4367 4.06697 30.4468 4.02234 30.4351C3.00452 30.1561 2.45646 29.4496 2.45646 28.3859C2.45646 26.3357 2.45646 24.2857 2.45646 22.236C2.45646 19.6491 2.46116 17.0623 2.4502 14.4754C2.4502 14.2143 2.51675 14.1565 2.77198 14.1573C6.26651 14.1662 9.76079 14.1662 13.2548 14.1573C13.5022 14.1573 13.5554 14.2292 13.5554 14.466C13.5487 19.6981 13.5463 24.9305 13.5484 30.1631C13.5484 30.2577 13.5774 30.3585 13.5179 30.4476C13.4889 30.4476 13.4599 30.439 13.431 30.4382C10.4391 30.4382 7.44771 30.4382 4.45688 30.4382C4.38641 30.4382 4.29637 30.3984 4.25409 30.5H4.13665Z" fill="white"/>
<path d="M26.7574 30.4477C26.1311 30.4477 25.5094 30.4375 24.8862 30.4375C22.5374 30.4375 20.1885 30.4375 17.8397 30.4375C17.7223 30.4375 17.6048 30.4445 17.489 30.4477C17.4263 30.3484 17.4584 30.2382 17.4584 30.135C17.4584 24.9248 17.4561 19.713 17.4514 14.4997C17.4514 14.2472 17.4944 14.1558 17.7779 14.1566C21.2609 14.168 24.7445 14.168 28.2285 14.1566C28.4728 14.1566 28.5582 14.1949 28.5574 14.4692C28.5469 19.0953 28.5443 23.7212 28.5496 28.3469C28.5496 29.4035 28.0015 30.164 27.0761 30.4062C26.9709 30.4269 26.8644 30.4407 26.7574 30.4477Z" fill="white"/>
</g>
<defs>
<clipPath id="clip0_14_3624">
<rect width="30" height="30" fill="white" transform="translate(0.5 0.5)"/>
</clipPath>
</defs>
</svg>
