<svg width="30" height="31" viewBox="0 0 30 31" fill="none" xmlns="http://www.w3.org/2000/svg">
<path d="M28.9383 0.00564199C29.9235 0.570151 30.259 1.527 29.7928 3.09069C29.5484 3.9064 29.0175 4.62756 28.5936 5.37695C28.4245 5.67614 28.1975 5.94145 28.0998 6.33096L29.0242 5.87795C29.081 6.95051 28.8037 7.28922 27.5715 7.68014C27.4394 7.4374 27.3258 7.19043 27.1885 6.95475C27.1292 6.86484 27.0614 6.78161 26.9864 6.70636C26.5004 8.15292 26.0341 9.61358 25.5125 11.0503C25.3421 11.5202 25.0185 11.9252 24.7755 12.3656C24.6778 12.5448 24.6079 12.741 24.5247 12.9301C24.7426 12.9724 24.9605 13.0246 25.185 13.0514C25.2713 13.0445 25.3557 13.0215 25.4346 12.9837C25.6578 13.9151 25.4043 14.1311 23.7046 14.4147C23.9449 15.2982 24.8006 15.0202 25.2655 15.4026C25.1665 16.6389 24.3926 17.0623 23.4246 16.3905C22.722 15.9079 21.9837 15.6976 20.9761 15.9121C21.1298 16.071 21.293 16.219 21.4647 16.3552C22.0273 16.7118 22.5943 17.0618 23.1657 17.4052C23.5104 17.6127 23.8987 17.7665 23.6042 18.3437C23.5514 18.4481 23.7006 18.7431 23.8273 18.8687C24.6818 19.7155 24.7518 20.5227 24.3002 21.6546C23.9726 22.4703 23.8669 23.3904 23.6807 24.2682C23.653 24.4009 23.7243 24.5505 23.9105 24.7481C24.0003 24.5406 24.0862 24.3332 24.1812 24.1285C24.5774 23.2818 24.9472 22.4181 25.3698 21.5882C25.8123 20.7274 26.264 19.8947 25.5706 18.9435C25.5405 18.8842 25.5232 18.8183 25.5202 18.7509C25.5172 18.6834 25.5287 18.6161 25.5535 18.554C26.2297 17.1244 26.9203 15.7004 27.6097 14.2778C27.6242 14.2482 27.6824 14.2426 27.8026 14.1903C27.3562 15.7159 26.9269 17.1836 26.4475 18.8193L27.8646 18.355C27.3364 21.0788 26.5439 23.557 25.2642 25.8587L25.4464 26.0507C25.6736 25.942 25.9286 25.8714 26.1253 25.7176C27.6309 24.5434 28.3546 22.8555 28.6478 20.9715C28.9053 19.3175 29.0004 17.6338 29.1879 15.7653C29.3913 16.4145 29.6119 16.924 29.703 17.4589C29.8393 18.2886 29.9314 19.1258 29.979 19.9667C30.0767 21.4937 29.8403 22.9162 28.9713 24.2146C27.9809 25.6922 27.0947 27.2502 26.1609 28.7772C25.527 28.1916 25.4623 28.2127 25.1044 28.9875C24.8658 29.5116 24.6176 30.029 24.3596 30.5399C24.2651 30.701 24.1601 30.8548 24.0453 31L23.8128 30.9421V29.4702C23.8128 29.1202 23.8801 28.7462 23.7903 28.4244C23.7137 28.1422 23.4563 27.9319 23.2794 27.6906C23.0733 27.9136 22.751 28.1041 22.6876 28.368C22.5846 28.7843 22.6559 29.25 22.644 29.6946C22.644 29.8498 22.6071 30.0036 22.5701 30.293C21.5136 29.5139 20.494 28.8168 19.1602 29.1343L19.2103 28.8281H21.7196C21.54 28.0688 21.3432 27.4281 21.2415 26.7704C21.0804 25.7289 21.0078 24.6761 21.5189 23.6967C21.5873 23.5239 21.6932 23.371 21.8279 23.2507C22.9003 22.5451 22.9095 21.409 22.8434 20.2969C22.7695 19.0536 22.1131 18.125 21.1702 17.4236C21.0289 17.3191 20.8784 17.2316 20.7001 17.1159L18.9515 19.3387C19.9842 19.6096 20.6921 19.0296 21.4977 18.307C21.2759 19.5772 20.4003 19.9187 19.5881 20.3223L19.6171 20.5255L21.5585 20.4014C21.3142 20.9983 20.7806 21.059 20.3012 21.1902C19.8218 21.3215 19.3477 21.4104 18.8696 21.5191L18.8776 21.7914C19.3398 21.8789 19.802 22.0257 20.2656 22.037C20.7291 22.0483 21.1979 21.9227 21.6997 21.8521C21.3035 22.9572 19.9829 23.4568 19.036 23.1293C17.9997 22.7709 16.9779 22.3682 15.9707 21.9213C15.8402 21.8517 15.7247 21.7539 15.6313 21.6341C15.5378 21.5144 15.4686 21.3753 15.428 21.2255C15.3408 20.8021 15.3104 20.2983 15.453 19.9116C15.5745 19.5828 15.9351 19.261 16.2587 19.127C17.2267 18.7276 18.0535 18.1588 18.6359 17.2373C18.8173 16.9752 18.9407 16.6725 18.997 16.352C19.0533 16.0316 19.0409 15.7017 18.9608 15.3871C18.6742 14.1635 18.9277 12.4869 20.5877 12.0381C21.7882 11.7121 22.7497 10.9275 23.4589 9.83092C24.0915 8.85149 24.5154 7.79163 24.3213 6.50879C24.1892 6.81927 24.0413 7.1241 23.9251 7.44305C23.6834 8.14163 23.2475 8.47186 22.5304 8.44787C20.8571 8.39142 19.5814 9.03356 18.8326 10.7553C18.5684 11.3452 18.0072 11.7827 17.5806 12.2894L17.3904 12.1609C17.4208 11.8984 17.4499 11.6359 17.4816 11.3749C17.4974 11.2337 17.5806 11.0249 17.5278 10.9726C16.775 10.2458 17.5398 9.8902 17.8594 9.45694C18.1948 9.00251 18.5857 8.59323 18.9661 8.14727L17.8871 7.46986H20.5468L20.572 7.38378L18.1948 6.46362C19.6938 5.6592 21.157 5.9725 22.5833 5.74952L17.4842 4.09833L17.5383 3.85136H20.7502C18.5183 1.78808 11.4752 1.82054 9.24462 3.77656H12.4737L12.5317 4.02213L7.43658 5.67896C8.84441 5.87654 10.2946 5.63944 11.8305 6.38459L9.26178 7.39083H11.9031L11.952 7.53196L10.9668 8.14586C11.4528 8.7019 11.9639 9.26359 12.4499 9.84785C12.6903 10.1386 12.928 10.394 12.5556 10.864C12.368 11.0982 12.5225 11.6416 12.5225 12.1341C12.2486 12.0346 11.9967 11.876 11.7825 11.6682C11.5683 11.4604 11.3962 11.2078 11.2771 10.9261C10.4952 9.04061 9.1126 8.34344 7.27292 8.43094C6.73409 8.45634 6.36292 8.16985 6.14765 7.64486C5.99967 7.25139 5.81011 6.87732 5.5825 6.52995C5.5825 6.85455 5.52562 7.19466 5.59166 7.50373C6.04596 9.63334 7.20416 11.1378 9.131 11.9323C9.27193 11.9952 9.41619 12.0494 9.56292 12.0946C11.0381 12.501 11.3035 13.9194 11.0512 15.3278C10.9192 16.1054 11.0276 16.749 11.4607 17.3615C12.0577 18.2082 12.8104 18.8278 13.7719 19.1129C14.3939 19.2963 14.6488 19.6675 14.6316 20.383C14.5973 21.7731 14.6316 21.7802 13.3994 22.2727C12.6638 22.5677 11.9269 22.8584 11.1807 23.1195C10.0146 23.5217 8.98841 23.0912 8.30959 21.9072C9.29084 21.9382 10.2748 22.3771 11.2085 21.7124C10.3897 21.0068 9.08352 21.5896 8.43507 20.4423H10.5376C9.77025 19.9695 8.82867 19.6957 8.57643 18.458C9.36882 19.1044 10.1241 19.5729 11.112 19.3683L9.411 17.2062C7.49604 18.0615 6.57035 20.6653 7.49746 22.5691C7.54523 22.6684 7.61494 22.7537 7.70072 22.8174C8.96459 23.691 9.06364 25.0233 8.88931 26.4176C8.79158 27.215 8.56183 27.994 8.37562 28.8577C9.27763 28.8774 10.177 28.4428 10.9786 28.9988C10.3553 29.0934 9.71608 29.1018 9.12971 29.3008C8.54334 29.4998 8.01508 29.8893 7.35739 30.252C7.35739 29.6339 7.35739 29.0863 7.35739 28.5373C7.35739 28.114 7.29141 27.7061 6.78296 27.6906C6.223 27.6779 6.17938 28.114 6.17938 28.5613C6.2036 29.3755 6.15089 30.1901 6.02216 30.9929C5.90722 30.8973 5.80469 30.7858 5.71714 30.6613C5.43584 30.1067 5.16909 29.545 4.9076 28.9805C4.54441 28.1916 4.51139 28.1803 3.77975 28.8916L0 21.9241V18.9717C0.0858429 18.6034 0.16907 18.2336 0.257555 17.8653C0.415153 17.2114 0.573172 16.5585 0.731651 15.9065L0.956189 15.9474C0.956189 16.2861 0.933738 16.6276 0.956189 16.9635C1.06977 18.3748 1.10934 19.8114 1.3431 21.2058C1.65082 23.0404 2.43272 24.6507 3.89337 25.7811C4.08487 25.9222 4.35031 25.9702 4.58143 26.0634C4.5352 25.8122 4.54179 25.5299 4.4335 25.314C3.45511 23.3879 2.73279 21.3255 2.28743 19.1862C2.24516 18.9788 2.23193 18.7629 2.19495 18.4665L3.57236 18.8899L2.34946 14.5206L2.61359 14.4077C3.23826 15.8034 3.86559 17.1992 4.47838 18.6006C4.50112 18.6634 4.51037 18.731 4.50534 18.7982C4.50031 18.8653 4.48117 18.9305 4.44936 18.9887C3.8062 19.8524 4.16278 20.6511 4.5537 21.4612C5.01857 22.4279 5.46756 23.4031 5.93111 24.3684C6.04953 24.5653 6.17969 24.7539 6.32073 24.9329C6.41053 23.5753 6.2216 22.5239 5.71315 21.5346C5.32355 20.7782 5.42262 19.5151 5.96541 19.1439C6.47123 18.7981 6.59544 18.4213 6.30357 17.8484L9.01093 16.1252C8.12212 15.7611 7.39832 15.9841 6.71422 16.4385C5.71316 17.106 4.97621 16.7207 4.81113 15.404C5.11356 15.3095 5.42787 15.2305 5.73559 15.1119C6.0433 14.9934 6.4448 14.9256 6.31273 14.3922C4.81642 14.2299 4.55622 14.0168 4.6632 13.0924L5.78718 12.995C4.16937 11.07 3.6477 8.86702 3.13528 6.53419L2.40092 7.67591C1.18723 7.28216 0.869 6.87854 1.0288 5.885L1.97312 6.40294C1.98336 6.31578 1.98336 6.2276 1.97312 6.14044C1.95408 6.04925 1.91355 5.96475 1.8555 5.89488C0.924437 5.02977 0.41607 3.89511 0.0304371 2.67859V1.12902L1.08697 0H1.61523C2.60573 0.45443 3.57371 0.975189 4.5893 1.34918C6.57029 2.0788 8.59228 2.52476 10.7001 2.07457C13.4509 1.47883 16.2835 1.45535 19.0427 2.00542C22.409 2.67859 25.391 1.56933 28.3083 0L28.9383 0.00564199ZM7.80776 2.92839L7.85793 2.7167C6.75122 2.46973 5.6537 2.10844 4.53642 2.01106C3.25538 1.89534 2.67173 2.7167 2.94247 4.05458C3.05558 4.50349 3.20675 4.94044 3.39412 5.36001C3.65826 6.04448 3.9303 6.73036 4.23669 7.39507C4.79137 8.60029 5.30516 9.83797 5.97341 10.9684C6.32867 11.5682 6.9744 11.9704 7.48946 12.4615L7.66112 12.2696C6.57962 11.1714 5.75341 9.81818 5.24834 8.31804C4.74252 6.82068 4.43879 5.29509 4.47709 3.68342L5.2219 3.81043L5.26807 3.68765L3.70056 2.86771C5.14272 2.17618 6.46468 3.23605 7.80647 2.92839H7.80776ZM22.4063 12.2908C23.8115 11.5329 24.6291 10.2614 25.2273 8.79928C25.7318 7.56583 26.2323 6.32955 26.7104 5.0834C26.8695 4.67518 26.9852 4.24912 27.0551 3.81326C27.1872 2.91145 26.7552 2.16771 25.8981 2.13243C25.041 2.09715 24.1813 2.3159 23.3321 2.45985C22.9055 2.53182 22.4909 2.68706 21.9098 2.84936C23.4946 3.30097 24.8667 2.16207 26.3538 2.87194L24.6145 3.73281L24.6382 3.84712L25.5746 3.69471C25.4875 7.00414 24.6317 9.92406 22.4051 12.2908H22.4063Z" fill="#A05CEB"/>
<path d="M20.9017 27.8117C20.4659 27.5027 20.0975 27.1753 19.6776 26.965C19.1717 26.7095 18.8851 26.9128 18.9643 27.497C19.0621 28.2027 18.7227 28.4849 18.2155 28.6515C17.7214 28.8349 17.2132 28.9718 16.6968 29.0607C16.0232 29.1553 15.3854 29.024 14.9681 28.2958C14.6075 28.9746 14.0238 29.0805 13.4309 29.0212C12.8934 28.9481 12.3631 28.8243 11.8461 28.6515C11.3046 28.4892 10.9109 28.2013 11.047 27.466C11.146 26.9226 10.8304 26.7674 10.4224 26.9862C9.95088 27.2374 9.52034 27.5775 9.05811 27.888C9.12942 26.9114 9.63253 26.1507 10.3153 25.5071C11.1717 24.693 12.2537 24.2003 13.3964 24.1043C15.5438 23.9082 17.6926 23.8221 19.5468 25.3392C20.3603 26.0067 20.8753 26.9269 20.9017 27.8117Z" fill="#A05CEB"/>
<path d="M12.4545 15.349C12.7081 16.2819 13.1505 16.5839 14.5913 16.5556C15.698 16.5345 16.9949 16.9155 17.7609 15.3024C17.8599 15.6397 18.0778 16.0081 18.025 16.3059C17.9775 16.5627 17.6407 16.8704 17.3806 16.9452C16.8517 17.0824 16.308 17.1427 15.764 17.1244C14.7471 17.0948 13.7264 17.027 12.7161 16.8958C12.4519 16.8605 12.0662 16.5768 12.0094 16.3313C11.9368 16.0278 12.1415 15.6482 12.234 15.301L12.4545 15.349Z" fill="#A05CEB"/>
<path d="M21.5826 10.1949C21.5642 11.0586 21.1864 11.6372 20.7414 11.5017C20.4231 11.4043 20.1049 11.0529 19.9345 10.7269C19.7932 10.4574 20.7678 9.73902 21.2472 9.81805C21.4096 9.84345 21.5351 10.1384 21.5826 10.1949Z" fill="#A05CEB"/>
<path d="M8.55837 9.75049C8.89381 9.87327 9.25697 9.94666 9.55544 10.1358C9.76411 10.2769 10.0533 10.6212 10.0071 10.7737C9.92258 11.0559 9.65054 11.4158 9.40094 11.4793C9.15133 11.5428 8.7406 11.3241 8.60854 11.0926C8.4276 10.7694 8.44616 10.3192 8.38013 9.92408L8.55837 9.75049Z" fill="#A05CEB"/>
</svg>
