<svg width="31" height="31" viewBox="0 0 31 31" fill="none" xmlns="http://www.w3.org/2000/svg">
<g clip-path="url(#clip0_14_3617)">
<path d="M22.8832 30.5H3.19698C3.15077 30.3967 3.04036 30.4288 2.96754 30.4084C1.46248 30.0021 0.504012 28.7761 0.503229 27.2174C0.499575 21.0065 0.499575 14.798 0.503229 8.59188C0.503229 6.72236 1.91275 5.31396 3.78036 5.31239C8.9251 5.30717 14.0704 5.30717 19.2161 5.31239C19.2843 5.31239 19.3728 5.26699 19.437 5.37894C19.3461 5.46192 19.2482 5.54334 19.1582 5.63259C16.6174 8.17486 14.0764 10.7145 11.5351 13.2516C11.1718 13.6069 10.9004 14.0451 10.7442 14.5285C10.3714 15.6754 9.97988 16.8168 9.59775 17.9606C9.49405 18.2436 9.43104 18.5399 9.4106 18.8406C9.34325 20.6944 11.1075 22.0191 12.896 21.4444C14.0816 21.064 15.2577 20.6522 16.4417 20.2701C16.953 20.1036 17.416 19.8153 17.791 19.4301C20.3344 16.8795 22.8806 14.3312 25.4298 11.7853C25.4966 11.7052 25.5556 11.619 25.606 11.5277L25.6952 11.5895V11.6929C25.6952 16.9063 25.6931 22.1193 25.689 27.3317C25.689 28.7957 24.6796 30.0232 23.2615 30.4006C23.1346 30.435 22.9858 30.3849 22.8832 30.5Z" fill="white"/>
<path d="M30.5 4.02141C30.0889 4.80429 29.3615 5.30768 28.7898 5.94886C28.6559 6.09996 28.5807 6.07725 28.45 5.94495C27.3291 4.81499 26.2039 3.69025 25.0742 2.57073C24.9371 2.43529 24.905 2.35779 25.0624 2.20904C25.4884 1.80664 25.8917 1.38153 26.3098 0.971303C26.9363 0.352827 27.7977 0.340301 28.4241 0.950949C28.9723 1.48018 29.4985 2.02976 30.0435 2.56133C30.2643 2.77663 30.3638 3.05612 30.4977 3.31838L30.5 4.02141Z" fill="white"/>
<path d="M12.1058 19.8332C11.4879 19.8332 11.0345 19.2891 11.2021 18.7576C11.6085 17.4682 12.0463 16.1889 12.4746 14.9066C12.5341 14.7617 12.6269 14.633 12.7455 14.5308C16.321 10.9572 19.8949 7.38204 23.4673 3.80532C23.6082 3.66361 23.6826 3.65344 23.829 3.80532C24.9473 4.93632 26.072 6.06106 27.2033 7.17953C27.3497 7.32437 27.3458 7.39874 27.2033 7.54201C23.6241 11.1119 20.0481 14.6853 16.4753 18.262C16.3324 18.4089 16.1562 18.5193 15.9616 18.5838C14.7713 18.9799 13.5808 19.376 12.39 19.7722C12.2966 19.7982 12.2017 19.8185 12.1058 19.8332Z" fill="white"/>
</g>
<defs>
<clipPath id="clip0_14_3617">
<rect width="30" height="30" fill="white" transform="translate(0.5 0.5)"/>
</clipPath>
</defs>
</svg>
