<svg width="37" height="40" viewBox="0 0 37 40" fill="none" xmlns="http://www.w3.org/2000/svg">
<path fill-rule="evenodd" clip-rule="evenodd" d="M18.3333 1.66663C8.20833 1.66663 0 9.87496 0 20C0 30.125 8.20833 38.3333 18.3333 38.3333C28.4583 38.3333 36.6667 30.125 36.6667 20C36.6667 9.87496 28.4583 1.66663 18.3333 1.66663ZM14.655 14.5116C14.3514 14.1973 14.1834 13.7763 14.1872 13.3393C14.191 12.9023 14.3663 12.4843 14.6753 12.1753C14.9843 11.8662 15.4023 11.691 15.8393 11.6872C16.2763 11.6834 16.6973 11.8514 17.0117 12.155L23.6783 18.8216C23.9908 19.1342 24.1663 19.558 24.1663 20C24.1663 20.4419 23.9908 20.8657 23.6783 21.1783L17.0117 27.845C16.6973 28.1486 16.2763 28.3165 15.8393 28.3127C15.4023 28.3089 14.9843 28.1337 14.6753 27.8247C14.3663 27.5156 14.191 27.0976 14.1872 26.6606C14.1834 26.2236 14.3514 25.8026 14.655 25.4883L20.1433 20L14.655 14.5116Z" fill="#FF3076"/>
</svg>
