<svg width="70" height="81" viewBox="0 0 70 81" fill="none" xmlns="http://www.w3.org/2000/svg">
<path d="M35.6372 0C36.86 0.415575 38.0715 0.859702 39.3056 1.24038C48.9487 4.22237 58.594 7.19696 68.2414 10.1641C69.7651 10.64 70 10.9572 70 12.5434C70 21.538 70 30.5331 70 39.5288C69.9807 58.6611 57.2344 75.162 38.5156 80.2933C37.5148 80.5677 36.506 80.896 35.4811 80.9832C34.6557 81.0546 33.7772 80.8881 32.9647 80.6739C17.1227 76.4991 6.63219 66.7506 1.68782 51.3124C0.498784 47.6024 -0.00160511 43.7591 3.86697e-06 39.8603C3.86697e-06 30.6606 3.86697e-06 21.455 3.86697e-06 12.2436C3.86697e-06 11.0365 0.302489 10.6463 1.52209 10.2688C12.2379 6.95586 22.9542 3.6413 33.671 0.325162C33.9082 0.235288 34.1389 0.129288 34.3612 0.00792889L35.6372 0ZM3.20025 27.4708C3.20025 31.4029 3.10532 35.3366 3.23243 39.2623C3.31771 41.8859 3.45769 44.5554 4.02083 47.1075C7.22429 61.6304 16.0318 71.4028 30.1425 76.5674C32.9743 77.6047 35.8174 78.2265 38.7505 76.9274C39.1224 76.7826 39.5016 76.6566 39.8865 76.5499C55.899 71.3346 66.7627 56.3089 66.7933 39.3052C66.8094 30.8366 66.7933 22.3681 66.8142 13.8996C66.8142 13.2524 66.6179 13.0018 66.0001 12.813C55.9617 9.73429 45.9362 6.627 35.8946 3.55143C35.3167 3.38523 34.7026 3.38523 34.1247 3.55143C24.0622 6.62541 14.0126 9.73746 3.95325 12.8273C3.3885 13.0018 3.17129 13.2381 3.17612 13.8567C3.21473 18.3995 3.20025 22.9344 3.20025 27.4708Z" fill="white"/>
<path d="M60.9784 30.4347C60.9784 33.9195 61.0347 37.39 60.9655 40.8669C60.8707 45.9705 59.5558 50.7874 57.1607 55.3144C56.6479 56.2838 55.759 56.6069 54.9103 56.1745C54.0616 55.7421 53.7851 54.817 54.2962 53.8619C56.8296 49.0624 57.8471 43.9509 57.7924 38.5653C57.733 32.6396 57.7667 26.7108 57.7924 20.7835C57.7924 20.1261 57.5754 19.8822 56.9726 19.6969C49.8452 17.5189 42.7258 15.3124 35.5936 13.1328C35.218 13.0205 34.8177 13.0156 34.4394 13.1186C27.2638 15.314 20.0977 17.541 12.9205 19.7349C12.3595 19.9059 12.1859 20.1388 12.1875 20.7122C12.21 27.1147 12.1746 33.5156 12.2084 39.9165C12.2887 53.5483 21.4689 65.4725 34.5085 68.8828C34.8631 68.9671 35.2336 68.9617 35.5855 68.867C38.882 67.9674 41.9937 66.5071 44.7801 64.5522C46.0002 63.7048 46.9663 63.7143 47.5819 64.5776C48.1976 65.4408 47.8439 66.32 46.6175 67.1753C43.3668 69.4463 39.7247 71.1171 35.8684 72.1063C35.3071 72.2543 34.7162 72.2543 34.1549 72.1063C20.5527 68.0386 12.263 59.1698 9.49661 45.3986C9.17646 43.6909 9.02039 41.9572 9.03045 40.2206C8.97901 33.1861 9.00794 26.1532 9.00955 19.1187C9.00955 17.9418 9.33104 17.5078 10.4563 17.1625C18.3424 14.7337 26.2307 12.3086 34.1211 9.88722C34.6749 9.72285 35.2647 9.71681 35.8218 9.8698C43.7337 12.2764 51.6429 14.7078 59.5494 17.1641C60.6746 17.5125 60.9816 17.9561 60.9816 19.133C60.9816 22.8997 60.9816 26.6669 60.9816 30.4347H60.9784Z" fill="white"/>
<path d="M32.1258 38.4637C33.4494 37.1487 34.6973 35.902 35.9515 34.663C37.8446 32.8021 39.7377 30.9413 41.6308 29.0804C42.6989 28.0337 43.434 28.043 44.5131 29.1006C46.1054 30.6688 47.6978 32.2392 49.2901 33.8116C50.2366 34.742 50.2366 35.5453 49.2901 36.4819C44.0314 41.6613 38.7649 46.8376 33.4904 52.0107C32.5439 52.9412 31.7346 52.9241 30.7785 51.9859C27.4183 48.6891 24.0617 45.3902 20.7087 42.0893C19.7622 41.1589 19.7622 40.3742 20.7182 39.4236C22.3452 37.814 23.9754 36.2116 25.6088 34.6164C26.5332 33.7155 27.3299 33.7139 28.2591 34.6164C29.537 35.8632 30.7943 37.1348 32.1258 38.4637ZM42.8803 32.1276C42.7231 32.3532 42.5513 32.5687 42.366 32.7726C39.4569 35.6363 36.5452 38.4984 33.6308 41.3589C32.5044 42.4646 31.7724 42.4615 30.6334 41.3481C29.4139 40.1494 28.1992 38.9445 27.0728 37.8326L24.017 40.8394L32.058 48.7605C36.6898 44.2122 41.3374 39.65 45.9408 35.1313L42.8803 32.1276Z" fill="white"/>
<path d="M52.9991 60.9961C53.0061 61.1905 52.9719 61.3842 52.8987 61.5652C52.8254 61.7461 52.7147 61.9102 52.5734 62.0474C52.4321 62.1845 52.2633 62.2917 52.0776 62.3622C51.892 62.4326 51.6934 62.4648 51.4943 62.4568C51.2961 62.4555 51.1001 62.4159 50.9175 62.3403C50.735 62.2648 50.5696 62.1547 50.4307 62.0165C50.2918 61.8783 50.1823 61.7147 50.1084 61.535C50.0345 61.3554 49.9977 61.1632 50.0001 60.9696C50.0177 60.5906 50.181 60.2319 50.4574 59.9652C50.7338 59.6986 51.103 59.5435 51.4913 59.5309C51.6901 59.5259 51.8878 59.5603 52.0726 59.6321C52.2573 59.7039 52.4253 59.8115 52.5662 59.9484C52.7072 60.0854 52.8182 60.2489 52.8926 60.4289C52.967 60.609 53.0032 60.8019 52.9991 60.9961Z" fill="white"/>
</svg>
