<svg width="26" height="28" viewBox="0 0 26 28" fill="none" xmlns="http://www.w3.org/2000/svg">
<path d="M11.6335 18.6521C13.1162 24.9034 8.05306 28.1985 2.29289 27.9813V26.8173C3.4725 26.6377 4.63902 26.5484 5.75187 26.2734C8.58818 25.5721 10.1902 23.7505 10.444 21.0765C10.4681 20.8319 10.444 20.5843 10.444 20.3245C9.52048 20.4321 8.68118 20.5782 7.83641 20.6208C5.07122 20.7599 3.3237 19.9947 2.47456 17.5977C2.19876 16.7621 2.07705 15.8892 2.11454 15.016C2.18567 12.4871 3.44955 10.4027 5.19598 8.54046C7.39434 6.19623 9.98992 4.2691 12.719 2.48809C12.7955 2.44777 12.8813 2.42491 12.9692 2.42138C13.0571 2.41785 13.1446 2.43376 13.2246 2.4678C16.422 4.57557 19.5023 6.80918 21.8276 9.78666C23.2884 11.657 24.1058 13.7444 23.8476 16.0846C23.7639 16.8707 23.534 17.6374 23.1681 18.3507C22.2084 20.1774 20.6644 20.7244 18.1892 20.6259C17.3433 20.5924 16.5018 20.4372 15.5006 20.3215C15.5662 20.9212 15.5618 21.521 15.7063 22.0883C16.3366 24.5746 18.2045 25.8735 20.7738 26.4104C21.7237 26.6133 22.7074 26.6651 23.6922 26.7879V27.9965C20.0243 28.0716 16.5193 26.936 14.844 23.9149C13.9019 22.2171 14.02 20.4392 14.3395 18.5821C14.9665 18.7353 15.5433 18.9281 16.1462 19.0144C17.1125 19.1534 18.0928 19.3188 19.0634 19.3016C20.9521 19.2711 22.0617 18.2746 22.3856 16.4834C22.7741 14.3412 22.0508 12.4536 20.7771 10.7183C19.1411 8.48566 16.9352 6.77468 14.6843 5.10937C14.2148 4.7623 13.7334 4.42842 13.2377 4.11586C13.1283 4.04482 12.8732 4.02351 12.7758 4.09049C9.87935 6.08765 7.03872 8.14976 5.01763 10.9821C3.97371 12.4465 3.36416 14.057 3.51517 15.8431C3.73402 18.4238 5.19046 19.5766 7.9655 19.2935C9.19106 19.1737 10.3904 18.8754 11.6335 18.6521Z" fill="#A05CEB"/>
<path d="M0 15.9021C0 15.5622 0 15.2222 0 14.8873C0.0196966 14.6184 0.0383289 14.3505 0.0580255 14.0816L0.0963352 13.8664C0.728816 10.341 2.95667 7.69838 5.65182 5.32371C7.83263 3.40743 10.1994 1.68171 12.7219 0.168459C12.8116 0.11366 12.9079 0.0669777 13.0315 0C16.8614 2.40105 20.5162 4.98071 23.3383 8.42295C24.926 10.3602 25.8967 12.5441 25.9919 14.9939C26.0794 17.266 25.4721 19.3464 23.6414 20.9813C22.1784 22.2863 20.3324 22.5837 18.389 22.5786C18.3212 22.5786 18.2522 22.5786 18.0695 22.5918C19.4515 24.5402 21.5711 24.6772 23.7039 24.8183V26.0219C20.1617 26.2776 16.891 24.8163 16.3045 21.8185C16.2574 21.577 16.2443 21.3294 16.218 21.1081C17.2444 21.1497 18.2194 21.2472 19.1889 21.2177C22.4191 21.1213 23.9971 19.1881 24.449 16.7038C24.983 13.7822 23.8712 11.2573 21.9934 8.99125C19.5861 6.08077 16.4938 3.85731 13.2777 1.77389C13.153 1.69372 12.8729 1.67241 12.758 1.74852C9.33514 3.97299 6.03482 6.33142 3.57712 9.52403C2.17209 11.3507 1.35468 13.3803 1.41158 15.6586C1.42911 16.845 1.78963 18.0054 2.45551 19.0186C3.68217 20.8798 5.62127 21.3121 7.7868 21.2451C8.41928 21.2258 9.04956 21.1284 9.68423 21.0655C10.4502 23.5975 6.31387 26.4298 2.30451 26.0564V24.8183C4.39345 24.6681 6.54364 24.5554 7.83158 22.7186C6.66072 22.5207 5.4822 22.4528 4.40326 22.1097C1.9576 21.3385 0.792282 19.522 0.205761 17.3087C0.171839 17.1788 0.136776 17.0479 0.102854 16.918L0.0536442 16.6024L0 15.9021Z" fill="#A05CEB"/>
</svg>
