<svg width="30" height="31" viewBox="0 0 30 31" fill="none" xmlns="http://www.w3.org/2000/svg">
<path d="M30 14.8048V31H14.7402C14.2654 30.9086 13.7814 30.9217 13.3024 30.8831C12.1636 30.7918 11.102 30.43 10.0557 30.0129C7.98845 29.1931 6.1851 27.9555 4.55251 26.4445C3.45258 25.4355 2.45412 24.3195 1.57159 23.1128C0.971084 22.2849 0.530861 21.3575 0.136278 20.4127C0.0727984 20.246 0.0379836 20.0696 0.0333218 19.8912C0.0222242 19.6904 0.133824 19.6034 0.318168 19.6686C0.402827 19.706 0.482904 19.7531 0.556775 19.8091C2.35644 20.9789 4.31763 21.6794 6.45516 21.8603C6.79302 21.8889 7.12965 21.9076 7.46751 21.9076H20.2335C20.7816 21.9045 20.8605 21.8268 20.8635 21.286C20.8635 21.0374 20.8735 20.7887 20.8587 20.5401C20.8408 20.238 20.7353 20.1348 20.4437 20.1112C20.3111 20.1006 20.1773 20.1062 20.0442 20.1062C14.8242 20.1062 9.60417 20.1062 4.38417 20.1062C2.41681 20.1062 0.874892 18.9203 0.156629 17.0723C0.0123596 16.7025 0.00431575 16.3016 0.00369921 15.91C-0.00123307 10.7716 -0.00123307 5.63322 0.00369921 0.494844C0.00369921 0.0684424 0.0653624 0.00441141 0.475975 0.00441141C5.23378 0.00441141 9.99156 0.0149891 14.7494 7.12924e-05C17.6742 -0.00925237 20.3099 0.896376 22.7545 2.46026C24.0542 3.29228 25.2504 4.27829 26.3174 5.39722C27.2619 6.38553 28.2078 7.38254 28.889 8.58964C29.2232 9.18263 29.553 9.77873 29.8095 10.4121C29.9001 10.6359 29.9205 10.8733 29.9692 11.1058C29.8668 11.3867 29.8095 11.4166 29.5542 11.2525C28.5265 10.5967 27.4463 10.0566 26.281 9.69854C25.1269 9.34114 23.9499 9.12917 22.7415 9.12793C18.4751 9.1242 14.2089 9.1242 9.94286 9.12793C9.22213 9.12793 9.1716 9.17953 9.17099 9.90056C9.17099 10.097 9.16171 10.294 9.17713 10.4898C9.19994 10.7863 9.3066 10.8957 9.59576 10.9249C9.73818 10.9386 9.88245 10.9317 10.0273 10.9317C15.2062 10.9317 20.3851 10.9317 25.564 10.9317C27.5061 10.9317 29.0672 11.999 29.8058 13.8115C29.9322 14.1291 29.9118 14.4747 30 14.8048Z" fill="#A05CEB"/>
</svg>
