<svg width="20" height="20" viewBox="0 0 20 20" fill="none" xmlns="http://www.w3.org/2000/svg">
<g clip-path="url(#clip0_14_3602)">
<path d="M-0.00415039 8.3819C0.042196 8.29447 0.0813335 8.20202 0.134889 8.11962C0.22082 7.98357 0.342614 7.87254 0.48755 7.79812C0.632487 7.7237 0.795246 7.68862 0.958825 7.69654C1.76525 7.69654 2.5727 7.69654 3.37913 7.69654C3.48822 7.7017 3.59517 7.66572 3.67781 7.59605C5.26595 6.30773 6.85374 5.02344 8.44119 3.74316C8.98704 3.303 9.68945 3.45173 9.93663 4.0567C9.98461 4.18845 10.0059 4.32803 9.99945 4.46771C9.99945 8.38559 9.99945 12.3048 9.99945 16.2254C9.99945 16.6384 9.85012 16.962 9.46081 17.1388C9.0715 17.3157 8.73987 17.2092 8.43089 16.9549C6.85855 15.674 5.28277 14.3961 3.70356 13.1211C3.60814 13.0367 3.48322 12.991 3.35441 12.9935C2.63347 13.0006 1.91253 12.9754 1.19158 13.0036C0.619979 13.0257 0.204922 12.8538 0.000997948 12.3071L-0.00415039 8.3819Z" fill="white"/>
<path d="M19.9999 10.5264C19.9618 13.0739 19.0792 15.5028 17.3036 17.6171C16.9421 18.0482 16.4066 18.1196 15.9956 17.8061C15.4724 17.4041 15.3777 16.8936 15.7526 16.4152C16.2112 15.8557 16.614 15.2547 16.9555 14.6204C17.4654 13.6414 17.7948 12.5825 17.9288 11.4921C18.2264 9.04811 17.6291 6.82722 16.1779 4.82239C15.9791 4.54805 15.7453 4.29883 15.5394 4.02951C15.2541 3.65567 15.2973 3.20748 15.6424 2.85374C16.0111 2.47388 16.4663 2.39248 16.868 2.64271C16.9494 2.69469 17.0232 2.75723 17.0873 2.82862C18.5454 4.43942 19.5032 6.4221 19.8485 8.54465C19.9511 9.20044 20.0017 9.86298 19.9999 10.5264Z" fill="white"/>
<path d="M15.5961 10.2861C15.6145 11.8268 15.1157 13.331 14.1758 14.5691C14.0412 14.7595 13.8356 14.891 13.6031 14.9357C13.3705 14.9803 13.1292 14.9346 12.9306 14.8083C12.426 14.4847 12.2488 13.938 12.5362 13.5019C12.8235 13.0657 13.1315 12.6085 13.3035 12.095C13.8813 10.3926 13.6639 8.79983 12.6031 7.3256C12.4703 7.13969 12.3075 6.97287 12.2591 6.73772C12.1685 6.29957 12.428 5.83329 12.8895 5.62728C13.0805 5.54321 13.2952 5.52568 13.4979 5.57763C13.7006 5.62958 13.8788 5.74786 14.0028 5.91268C15.0319 7.14922 15.5944 8.69321 15.5961 10.2861Z" fill="white"/>
</g>
<defs>
<clipPath id="clip0_14_3602">
<rect width="20" height="20" fill="white"/>
</clipPath>
</defs>
</svg>
