<svg width="50" height="50" viewBox="0 0 50 50" fill="none" xmlns="http://www.w3.org/2000/svg">
<path d="M25 0C20.0555 0 15.222 1.46623 11.1108 4.21327C6.99953 6.9603 3.79521 10.8648 1.90303 15.4329C0.0108317 20.0011 -0.484251 25.0277 0.480379 29.8772C1.44501 34.7267 3.82603 39.1814 7.32234 42.6777C10.8187 46.1739 15.2732 48.555 20.1228 49.5197C24.9724 50.4842 29.9989 49.9892 34.567 48.097C39.1353 46.2048 43.0397 43.0005 45.7867 38.8892C48.5338 34.778 50 29.9445 50 25C50 18.3695 47.3661 12.0107 42.6777 7.32233C37.9892 2.63392 31.6305 0 25 0ZM36.4063 19.5C36.422 19.7445 36.422 19.9898 36.4063 20.2344C36.4353 24.5331 34.7566 28.6677 31.7389 31.7294C28.7211 34.7911 24.6113 36.5295 20.3125 36.5625H20.0938C16.9749 36.5652 13.921 35.6702 11.2969 33.9844C11.7484 34.0337 12.2021 34.0598 12.6563 34.0625C15.2392 34.067 17.7486 33.203 19.7813 31.6094C18.5844 31.5858 17.4245 31.1892 16.4639 30.475C15.5031 29.7608 14.7893 28.7644 14.4219 27.625C15.2837 27.7845 16.1703 27.7472 17.0156 27.5156C15.7288 27.2388 14.5768 26.5264 13.7542 25.4988C12.9315 24.4713 12.4885 23.1912 12.5 21.875C13.2964 22.3142 14.1849 22.5605 15.0938 22.5938C13.8566 21.788 12.9756 20.5381 12.6326 19.102C12.2896 17.6659 12.5106 16.153 13.25 14.875C14.6908 16.6484 16.4884 18.0991 18.5261 19.1327C20.5638 20.1664 22.7961 20.76 25.0781 20.875C24.792 19.6444 24.9191 18.3538 25.4399 17.2027C25.9608 16.0514 26.8461 15.1039 27.9594 14.5064C29.0727 13.9089 30.3517 13.6946 31.5989 13.8968C32.8461 14.099 33.9919 14.7064 34.8594 15.625C36.1441 15.375 37.3758 14.9045 38.5 14.2344C38.0677 15.5463 37.1738 16.6567 35.9844 17.3594C37.1241 17.232 38.2366 16.9263 39.2813 16.4531C38.5153 17.6117 37.5467 18.6228 36.4219 19.4375L36.4063 19.5Z" fill="white"/>
</svg>
