<svg width="20" height="20" viewBox="0 0 20 20" fill="none" xmlns="http://www.w3.org/2000/svg">
<path d="M9.5431 19.0472C9.30025 18.9375 9.03234 18.9635 8.77674 18.9258C6.6467 18.6114 4.75587 17.7946 3.08556 16.5042C3.02132 16.4548 2.98806 16.4145 3.00309 16.326C3.49243 13.4509 5.14998 11.4425 8.02542 10.4609C10.6316 9.57118 13.0828 10.0182 15.2516 11.6498C16.8276 12.8365 17.7197 14.4247 17.9967 16.3256C18.0095 16.4123 17.9785 16.4556 17.9138 16.5038C16.1341 17.873 14.1194 18.7151 11.8394 18.9722C11.6818 18.99 11.5114 18.9587 11.3647 19.0472H9.5431Z" fill="#FF3076"/>
<path d="M10.5064 0.952321C11.5837 0.955307 12.6158 1.36497 13.3761 2.09138C14.1363 2.8178 14.5627 3.8016 14.5614 4.82684C14.5555 6.97005 12.7148 8.70743 10.47 8.68922C8.23741 8.67057 6.42995 6.93536 6.43679 4.81426C6.44499 2.67799 8.27386 0.941481 10.5064 0.952321Z" fill="#FF3076"/>
</svg>
