<svg width="25" height="23" viewBox="0 0 25 23" fill="none" xmlns="http://www.w3.org/2000/svg">
<g clip-path="url(#clip0_11_367)">
<path d="M0 21.931V6.3456C0.0167895 6.33178 0.0430221 6.32066 0.0493181 6.30313C0.314802 5.57366 0.870605 5.30939 1.64432 5.31006C8.37014 5.3177 15.0961 5.31927 21.8221 5.31478C21.9355 5.31478 22.0491 5.31478 22.1618 5.32321C22.8372 5.3822 23.3912 5.89323 23.407 6.54347C23.435 7.71284 23.4157 8.88288 23.4318 10.0529C23.435 10.2697 23.3926 10.3354 23.152 10.3344C20.5137 10.3243 17.8752 10.3226 15.2364 10.3293C13.8352 10.331 12.7988 11.2968 12.7775 12.6354C12.7614 13.6493 12.7733 14.6636 12.7775 15.6776C12.7809 15.9983 12.8637 16.3135 13.0188 16.5972C13.4851 17.4713 14.2455 17.8953 15.2539 17.8973C17.9004 17.9034 20.5471 17.9027 23.194 17.8953C23.3786 17.8953 23.436 17.9331 23.4343 18.1212C23.4241 19.2521 23.4294 20.3834 23.429 21.5143C23.429 21.7648 23.408 22.0105 23.2842 22.2397C22.9844 22.7949 22.4895 23.0006 21.8669 23.0006C16.6302 22.999 11.3935 22.999 6.15684 23.0006C4.61921 23.0006 3.08145 23.0006 1.54358 23.0006C1.03955 23.0006 0.611067 22.8522 0.286821 22.4612C0.151106 22.2994 0.116477 22.0961 0 21.931Z" fill="white"/>
<path d="M19.3303 11.2629C20.6569 11.2629 21.9836 11.2629 23.3104 11.2629C24.2898 11.2629 24.8635 11.8147 24.8642 12.7572C24.8642 13.6617 24.8642 14.5662 24.8642 15.4705C24.8642 16.3971 24.2891 16.9537 23.323 16.9537C20.6451 16.9557 17.9673 16.9557 15.2896 16.9537C14.326 16.9537 13.7478 16.3944 13.746 15.4705C13.7446 14.5583 13.7446 13.646 13.746 12.7336C13.7481 11.8235 14.3309 11.2642 15.2767 11.2629C16.6278 11.2613 17.979 11.2613 19.3303 11.2629ZM16.204 14.1022C16.204 14.6793 16.3379 14.924 16.7143 15.0154C16.9898 15.0828 17.2786 15.0821 17.5538 15.0134C17.8731 14.9335 18.0546 14.6904 18.0623 14.3557C18.0718 13.9431 18.1302 13.4921 17.6076 13.3107C17.2991 13.2078 16.9636 13.209 16.6559 13.3141C16.248 13.4496 16.1739 13.7816 16.204 14.1022V14.1022Z" fill="white"/>
<path d="M9.13208 4.33713C9.71132 4.18274 10.2899 4.02667 10.8694 3.8743C13.3443 3.22259 15.8191 2.57246 18.2939 1.9239C19.2187 1.68086 19.9127 2.053 20.174 2.93787C20.2953 3.34911 20.4094 3.76239 20.529 4.17397C20.564 4.30005 20.5895 4.3796 20.387 4.37926C16.6576 4.37297 12.928 4.37128 9.19819 4.37421C9.17797 4.37295 9.15787 4.37036 9.13803 4.36645L9.13208 4.33713Z" fill="white"/>
<path d="M4.54761 4.3288C5.6816 3.78608 6.8157 3.24348 7.94992 2.70099C9.69183 1.8695 11.4343 1.03801 13.1774 0.206523C14.0756 -0.221582 14.8238 0.0214599 15.2698 0.883737C15.3849 1.10655 15.4912 1.33375 15.6171 1.55084C15.7074 1.70556 15.7144 1.76995 15.4996 1.82557C13.6209 2.30997 11.7461 2.8092 9.87022 3.30303C8.60122 3.63675 7.33081 3.96474 6.06321 4.30419C5.56197 4.43869 5.05724 4.33689 4.54761 4.3288Z" fill="white"/>
</g>
<defs>
<clipPath id="clip0_11_367">
<rect width="24.8649" height="23" fill="white"/>
</clipPath>
</defs>
</svg>
