<svg width="70" height="70" viewBox="0 0 70 70" fill="none" xmlns="http://www.w3.org/2000/svg">
<g clip-path="url(#clip0_14_3918)">
<path d="M39.9849 54.9677C42.0519 54.9677 44.0248 54.9677 45.9977 54.9677C46.6293 54.9677 47.1323 55.1307 47.3873 55.7438C47.6169 56.3178 47.4194 56.7908 47.0221 57.2316C43.5387 61.092 40.0561 64.9601 36.5742 68.8359C36.3836 69.0494 36.1861 69.2561 35.9794 69.4558C35.2214 70.1883 34.7139 70.2135 33.9858 69.4352C32.3781 67.7246 30.8186 65.9911 29.2499 64.2461C27.1828 61.9661 25.1548 59.6723 23.0969 57.3946C22.6537 56.9056 22.3023 56.4165 22.5963 55.7277C22.8902 55.0389 23.4943 54.9654 24.1557 54.9723C26.0758 54.9906 27.9959 54.9723 29.9918 54.9723V54.2995C29.9918 50.8922 29.9918 47.4841 29.9918 44.0752C29.9918 41.5495 28.4231 39.9859 25.9013 39.9836C19.4459 39.9836 12.9905 39.9836 6.53515 39.9836C2.65825 39.9744 -0.00366211 37.3339 -0.00366211 33.4766C-0.00366211 24.4791 -0.00366211 15.4793 -0.00366211 6.47719C-0.00366211 2.70935 2.66745 0.0206646 6.42721 0.0206646C25.4901 0.0206646 44.5347 0.0574015 63.5862 0C66.8429 0 70.04 2.71165 70.017 6.50015C69.9412 15.4984 69.9941 24.499 69.9918 33.4972C69.9918 37.3087 67.3253 39.9721 63.515 39.9744H44.305C41.503 39.9744 40.0009 41.4646 40.0009 44.2451C39.9826 47.781 39.9849 51.317 39.9849 54.9677ZM43.4047 57.4589H39.1167C37.8765 57.4589 37.4906 57.0732 37.4906 55.831C37.4906 51.8772 37.4906 47.9226 37.4906 43.9673C37.4906 40.1489 40.1479 37.4855 43.9605 37.4855C50.4174 37.4855 56.8743 37.4855 63.3312 37.4855C65.9105 37.4855 67.4791 35.9333 67.4814 33.3709C67.4814 24.4485 67.4814 15.5252 67.4814 6.60117C67.4814 4.14439 65.961 2.59684 63.5219 2.53715C63.2095 2.53715 62.8971 2.52337 62.5848 2.52337H6.81766C3.97429 2.52337 2.49519 4.00433 2.49519 6.85374C2.49519 15.5956 2.49519 24.3367 2.49519 33.077C2.49519 36.0183 3.87323 37.4396 6.82454 37.4556C13.3588 37.4878 19.8953 37.474 26.4295 37.5016C29.5255 37.5153 32.3758 40.0961 32.4493 43.1453C32.5549 47.5078 32.4883 51.8864 32.4768 56.2558C32.4768 57.0181 31.9601 57.4566 31.147 57.4658C29.8976 57.4796 28.6482 57.4658 27.3987 57.4658C27.1805 57.4658 26.9647 57.4956 26.6224 57.5209L34.9918 66.8199L43.4047 57.4589Z" fill="white"/>
<path d="M35.0231 5.00549H58.2959C59.5453 5.00549 59.8669 5.2902 59.9932 6.49793C60.1953 8.45188 61.5849 9.80885 63.5716 9.99483C64.6281 10.0936 64.9772 10.4678 64.9772 11.5355C64.9772 17.1547 64.9772 22.7732 64.9772 28.3909C64.9772 29.5205 64.6487 29.8787 63.5417 29.9843C61.5389 30.1749 60.1678 31.564 59.9863 33.5846C59.8967 34.5948 59.5063 34.9622 58.5026 34.9622H11.4815C10.4664 34.9622 10.0782 34.5948 9.98863 33.5846C9.8003 31.5181 8.42914 30.1405 6.36437 29.9706C5.36529 29.881 4.98633 29.4884 4.98633 28.4689C4.98633 22.7977 4.98633 17.1264 4.98633 11.4551C4.98633 10.4586 5.3584 10.0775 6.38045 9.98335C8.41995 9.82722 9.8003 8.44958 9.99093 6.44053C10.0943 5.34072 10.4503 5.01697 11.5986 5.01697L35.0231 5.00549ZM57.5793 7.54264H12.4002C11.7112 10.1418 10.0667 11.7398 7.53112 12.408V27.562C10.2872 28.4253 11.3759 29.5136 12.4369 32.4319H57.5908C58.2799 29.8236 59.9243 28.2347 62.4576 27.5643V12.4103C59.8623 11.7261 58.2362 10.1066 57.5793 7.55182V7.54264Z" fill="white"/>
<path d="M43.7344 20.8254C43.6805 22.1911 43.3438 23.5309 42.7457 24.7599C42.1476 25.989 41.301 27.0807 40.2594 27.9661C36.9337 30.85 32.3977 30.6663 29.2718 27.5735C25.202 23.5485 25.2318 16.3664 29.3338 12.3805C33.0844 8.72514 38.7987 9.36804 41.8327 13.7719C43.0959 15.6064 43.7344 17.6959 43.7344 20.8254ZM41.2424 19.9804C41.1689 18.3135 40.7831 16.7453 39.8644 15.3378C37.4137 11.6641 32.7904 11.5769 30.2341 15.1794C28.1074 18.1642 28.3095 22.6163 30.6935 25.3991C33.0224 28.1154 36.8419 28.1544 39.2213 25.4841C40.6131 23.9159 41.1666 22.0331 41.2424 19.9804Z" fill="white"/>
</g>
<defs>
<clipPath id="clip0_14_3918">
<rect width="70" height="70" fill="white"/>
</clipPath>
</defs>
</svg>
