<svg width="30" height="31" viewBox="0 0 30 31" fill="none" xmlns="http://www.w3.org/2000/svg">
<path d="M0 16.4026C1.85166 16.3363 3.68185 15.9684 5.42279 15.3124C4.67285 14.6426 3.84974 14.0659 2.97035 13.5939C2.10131 13.1381 1.18435 12.7378 0.279597 12.3004C0.507955 11.1176 0.873749 9.96772 1.36892 8.87578C4.18198 9.81812 6.74655 11.4202 8.86282 13.557C10.1209 12.7239 11.2748 11.7329 12.2976 10.6066C8.85563 9.96334 5.71619 8.15924 3.36911 5.47576L5.94071 2.92574C6.95067 4.09979 8.16143 5.07079 9.51211 5.78989C9.97074 6.02258 10.4412 6.22822 10.9223 6.40584C10.2657 4.63758 9.81246 2.79558 9.5714 0.917762C10.6631 0.473538 11.8022 0.165445 12.9643 0C13.2143 1.14566 13.4284 2.28516 13.72 3.40618C14.0293 4.54059 14.4651 5.63403 15.018 6.66454C15.5748 5.63737 16.012 4.54574 16.3213 3.41234C16.6129 2.29748 16.8216 1.15798 17.0775 0C18.2406 0.160571 19.3796 0.468816 20.4699 0.917762C20.2371 2.82172 19.7633 4.68562 19.0597 6.46127C20.9789 5.76244 22.6977 4.57646 24.0593 3.01197C25.0142 3.74721 25.8796 4.59931 26.6367 5.54967C24.297 8.21336 21.1691 9.99841 17.7437 10.6251C18.763 11.7569 19.9174 12.7504 21.1785 13.5816C22.2306 12.5193 23.3969 11.5852 24.6545 10.7975C25.9175 10.0047 27.266 9.36803 28.6724 8.90042C29.1691 9.99115 29.5332 11.1415 29.7559 12.3251C28.8452 12.7624 27.9702 13.1628 27.0773 13.6124C26.2065 14.0824 25.39 14.6527 24.6429 15.3124C25.5834 15.799 27.6548 16.2302 30 16.4396C29.9781 17.6845 29.7629 18.9178 29.3629 20.0921C25.595 19.0763 23.9142 18.4497 21.4284 17.2284C18.9426 16.0072 16.6665 13.8407 15.018 12.3004C12.9917 14.1552 11.3486 15.822 8.86282 17.0432C6.37704 18.2644 3.86902 19.3842 0.619066 20.0921C0.470258 19.4084 0.32117 18.7371 0.184267 18.0595C0.112839 17.7269 0.0595234 17.382 0 17.0432V16.4026Z" fill="#A05CEB"/>
<path d="M13.7609 30.9937L13.2313 30.8582V30.1807C13.2313 28.7825 13.2313 27.3843 13.2313 25.9861C13.235 25.7616 13.1607 25.5432 13.0226 25.3701C11.4353 23.2512 9.84805 21.1242 8.26076 18.9889C8.21315 18.9273 8.17136 18.8595 8.1416 18.8164L11.2968 17.0425L14.981 22.0132L18.6715 17.0425L21.832 18.8164L20.5642 20.5349C19.3459 22.1774 18.1236 23.8302 16.8975 25.4933C16.8178 25.6202 16.7727 25.767 16.7667 25.9183C16.7667 27.452 16.7667 28.998 16.7667 30.5133V30.8644L16.1238 30.9999L13.7609 30.9937Z" fill="#A05CEB"/>
</svg>
